<svg width="24" height="25" viewBox="0 0 24 25" fill="none" xmlns="http://www.w3.org/2000/svg">
<path d="M9 22.5H15C20 22.5 22 20.5 22 15.5V9.5C22 4.5 20 2.5 15 2.5H9C4 2.5 2 4.5 2 9.5V15.5C2 20.5 4 22.5 9 22.5Z" stroke="#7C7C7C" stroke-width="1.5" stroke-linecap="round" stroke-linejoin="round"/>
<path d="M16.28 14.1099C15.15 15.2399 13.53 15.5899 12.1 15.1399L9.50995 17.7199C9.32995 17.9099 8.95995 18.0299 8.68995 17.9899L7.48995 17.8299C7.08995 17.7799 6.72995 17.3999 6.66995 17.0099L6.50995 15.8099C6.46995 15.5499 6.59995 15.1799 6.77995 14.9899L9.35995 12.4099C8.91995 10.9799 9.25995 9.35989 10.39 8.22989C12.01 6.60989 14.65 6.60989 16.28 8.22989C17.9 9.83989 17.9 12.4799 16.28 14.1099Z" stroke="#7C7C7C" stroke-width="1.5" stroke-miterlimit="10" stroke-linecap="round" stroke-linejoin="round"/>
<path d="M10.45 16.7799L9.59998 15.9199" stroke="#7C7C7C" stroke-width="1.5" stroke-miterlimit="10" stroke-linecap="round" stroke-linejoin="round"/>
<path d="M13.3945 11.2H13.4035" stroke="#7C7C7C" stroke-width="2" stroke-linecap="round" stroke-linejoin="round"/>
</svg>
