<svg width="55" height="56" viewBox="0 0 55 56" fill="none" xmlns="http://www.w3.org/2000/svg">
<path d="M50.4166 50.9166H4.58325C3.64367 50.9166 2.8645 50.1375 2.8645 49.1979C2.8645 48.2583 3.64367 47.4791 4.58325 47.4791H50.4166C51.3562 47.4791 52.1353 48.2583 52.1353 49.1979C52.1353 50.1375 51.3562 50.9166 50.4166 50.9166Z" fill="#082A80"/>
<path d="M22.3438 9.66671V50.9167H32.6563V9.66671C32.6563 7.14587 31.625 5.08337 28.5312 5.08337H26.4688C23.375 5.08337 22.3438 7.14587 22.3438 9.66671Z" fill="#082A80"/>
<path d="M6.875 23.4167V50.9167H16.0417V23.4167C16.0417 20.8959 15.125 18.8334 12.375 18.8334H10.5417C7.79167 18.8334 6.875 20.8959 6.875 23.4167Z" fill="#082A80"/>
<path d="M38.9583 34.875V50.9166H48.1249V34.875C48.1249 32.3541 47.2083 30.2916 44.4583 30.2916H42.6249C39.8749 30.2916 38.9583 32.3541 38.9583 34.875Z" fill="#082A80"/>
</svg>
