<svg width="62" height="63" viewBox="0 0 62 63" fill="none" xmlns="http://www.w3.org/2000/svg">
<path d="M50.1315 1.88481C50.6146 1.84841 51.1264 1.87924 51.6096 1.91278C52.7615 1.99274 53.8721 2.18748 54.9563 2.59512C56.775 3.27891 58.3236 4.58997 59.1256 6.37832C59.9618 8.24272 60.0173 10.3263 59.285 12.2326C58.8876 13.2669 58.2372 14.1593 57.4727 14.9531C55.0208 17.4987 51.4405 18.958 48.0167 19.5854C47.2357 19.7286 46.4386 19.7991 45.647 19.8547C45.6385 19.8553 45.6281 19.8511 45.6215 19.8565C45.5577 19.9085 45.482 20.049 45.4311 20.119L44.9853 20.6998C44.2055 21.6411 43.2055 22.3336 42.0919 22.8245C41.1218 23.236 40.1758 23.3976 39.1269 23.3657C39.6312 22.7151 40.0911 22.038 40.5014 21.3245C40.8271 20.7583 41.1066 20.2307 41.2591 19.5938C39.7502 19.2327 38.3287 18.6606 37.1518 17.6203C35.8488 16.4685 35.0558 14.8827 34.9539 13.1459C34.8265 10.9721 35.7531 8.89502 37.1861 7.29797C38.7316 5.57545 40.6719 4.3824 42.7929 3.49809C44.4968 2.78765 46.3195 2.28698 48.15 2.04016C48.8068 1.9516 49.4703 1.92082 50.1315 1.88481Z" fill="#040404"/>
<path d="M49.651 2.49396C50.8253 2.38552 52.1707 2.47579 53.3218 2.72477C55.2671 3.1456 57.0609 4.09324 58.1534 5.81011C59.1302 7.3452 59.4627 9.22399 59.0504 11.0031C58.6623 12.6773 57.6695 14.0555 56.3961 15.1748C54.151 17.1482 51.2193 18.3375 48.3156 18.9251C47.5431 19.0815 46.7625 19.183 45.9788 19.2625C45.7994 19.2807 45.6206 19.2857 45.4405 19.289C45.4168 19.2894 45.3068 19.282 45.2872 19.2914C45.2581 19.3051 45.1356 19.5348 45.1102 19.5745C44.9523 19.8217 44.7791 20.0572 44.595 20.2855C44.0701 20.9365 43.4254 21.4277 42.7188 21.865C41.9703 22.2869 41.1482 22.5766 40.3046 22.7357C40.8909 21.8422 41.5843 20.845 41.8053 19.7846C41.852 19.5609 41.8552 19.3194 41.8703 19.0913C40.3423 18.8076 38.8154 18.2796 37.6217 17.2529C36.4324 16.2299 35.6469 14.8261 35.5335 13.2478C35.3841 11.1681 36.2292 9.23173 37.5827 7.6833C38.0881 7.10507 38.6939 6.58586 39.3033 6.12005C40.2692 5.38164 41.308 4.80048 42.4113 4.29569C44.7073 3.24529 47.1342 2.65722 49.651 2.49396Z" fill="white"/>
<path d="M26.3465 9.92717C27.0482 9.89494 27.8173 10.032 28.4307 10.3805C27.4708 10.3259 26.5537 10.4264 25.6663 10.8176C24.8084 11.1957 24.0102 11.7758 23.4627 12.5447C23.1355 13.0043 22.904 13.5049 22.7026 14.0299C25.2976 14.0104 27.9872 14.2177 30.3869 15.2907C32.6126 16.2859 34.3661 17.9857 35.463 20.1608C36.2718 21.7646 36.7136 23.5445 36.9296 25.3206C37.0939 26.6704 37.1031 28.0356 37.0984 29.3932L37.0147 33.788L36.9415 35.5608L36.9076 36.2259C36.9031 36.3362 36.884 36.4659 36.9281 36.5697C37.2718 37.3788 37.7103 38.2302 38.2341 38.9367C38.3987 39.1589 38.5975 39.4161 38.8465 39.5471C39.0882 39.6743 39.3956 39.6661 39.6513 39.5827C39.9827 39.4747 40.2353 39.2708 40.478 39.0283C41.0797 38.4273 41.4757 37.6447 41.8552 36.8929L41.5644 36.4722C41.1999 35.8653 41.2486 35.213 41.4228 34.5587C41.2225 34.4235 41.0535 34.2745 40.9377 34.0576C40.7944 33.789 40.7696 33.4371 40.8614 33.1472C40.9751 32.7884 41.2393 32.4718 41.5758 32.2998C41.8112 32.1794 42.1382 32.1125 42.3949 32.2054L42.4358 32.2214C42.6485 32.303 42.8104 32.491 42.9944 32.624L43.0244 32.6055C43.5496 32.2839 43.987 32.2249 44.4589 32.6794C44.5314 32.7493 44.6231 32.9107 44.6985 32.9578C44.7061 32.9625 44.8212 32.9558 44.8339 32.9556C44.9682 32.9545 45.1093 32.9472 45.2399 32.9836C45.5089 33.0588 45.6825 33.249 45.8183 33.4822L45.8407 33.5215C45.9416 33.5416 46.0358 33.5635 46.1274 33.6125C46.4295 33.7739 46.567 34.0608 46.6583 34.3752C46.7293 34.6196 46.7466 34.94 46.6953 35.1905L46.6847 35.2369C46.5731 35.7404 46.28 36.0638 45.8401 36.3144C45.7735 36.3523 45.6349 36.4055 45.589 36.4545C45.5563 36.4895 45.5227 36.59 45.4984 36.6385C45.4294 36.7765 45.3619 36.9159 45.2796 37.0466C44.8951 37.6571 44.5386 37.8046 43.857 37.9602C43.416 38.912 42.7403 39.8082 41.9828 40.5291C41.1299 41.3407 40.0979 41.8786 38.8982 41.8401C38.216 41.8182 37.5912 41.5607 37.1266 41.0563C36.9603 40.8757 36.824 40.6707 36.6582 40.4909C36.6085 40.5985 36.62 40.8162 36.6101 40.9422L36.5138 41.9672L35.9531 46.2138C35.8909 46.6024 35.8855 47.0312 35.7891 47.4074C35.6144 48.0889 35.3477 48.7541 34.9704 49.3492C33.9864 50.9011 32.3891 51.8642 30.6198 52.2686L30.9408 55.333C31.4108 55.2695 31.9 55.2988 32.3698 55.3542C33.9278 55.5383 35.5841 56.2629 36.5676 57.5215C36.913 57.9635 37.1754 58.4935 37.0905 59.0692C37.0375 59.428 36.8167 59.7332 36.5315 59.9467C36.3276 60.0994 36.0774 60.1986 35.8249 60.2294C35.3689 60.285 34.8746 60.2515 34.4153 60.2506L31.859 60.2424L29.178 60.2275C28.6741 60.224 28.1239 60.2587 27.6273 60.1764C27.167 60.1002 26.738 59.812 26.4805 59.4245C26.2381 59.0597 26.1801 58.6233 26.2724 58.2009C26.4371 57.447 27.1211 56.8155 27.7214 56.3836C27.8735 56.2742 28.0683 56.1935 28.2099 56.0778C28.4137 55.9114 28.3366 53.178 28.3219 52.689L24.2957 52.9556L16.8972 52.5834C16.7642 53.2868 16.7903 54.0927 16.8253 54.806C16.8398 55.1007 16.8458 55.4676 16.9504 55.7436C17.0237 55.9374 17.1837 56.1056 17.3087 56.2684C17.83 56.9472 18.6368 57.7074 18.5928 58.6291C18.5712 59.0817 18.3508 59.5005 18.0132 59.7954C17.7703 60.0076 17.4239 60.164 17.1039 60.212C16.7473 60.2654 16.353 60.2378 15.9911 60.2423L13.6738 60.2588L10.8805 60.2614C10.3995 60.2613 9.90012 60.2876 9.42131 60.2517C8.96426 60.2175 8.48745 60.0512 8.18358 59.6957C7.94707 59.419 7.83726 59.0622 7.87142 58.7004C7.94604 57.9107 8.64945 57.1796 9.22901 56.7057C10.6962 55.5058 12.5186 55.2002 14.3571 55.383L14.6917 52.1445C13.4674 51.8254 12.2661 51.3326 11.3125 50.4804C10.7254 49.9557 10.2595 49.3619 9.9765 48.6207C9.63429 47.7246 9.51395 46.7123 9.41593 45.7631L9.20022 43.7307L8.69807 38.3414C7.20908 39.628 6.32293 41.4748 5.83656 43.3528C5.7559 43.6642 5.68799 43.9769 5.64392 44.2958C5.63899 44.3314 5.60694 44.4848 5.61647 44.5114C5.62678 44.5402 5.6685 44.5435 5.69428 44.5599C5.79242 44.6224 5.93972 44.7085 5.99452 44.816C6.06629 44.9568 6.0727 45.1321 6.07711 45.2865C6.07753 45.3028 6.07475 45.4421 6.07995 45.4489C6.12337 45.5056 6.27195 45.5817 6.3343 45.6288C6.6655 45.8788 6.96653 46.1614 7.17618 46.5232C7.42665 46.9554 7.61224 47.5045 7.4376 47.9964C7.39896 48.1053 7.27554 48.269 7.26084 48.3706C7.25461 48.4137 7.28957 48.522 7.29779 48.5681C7.35016 48.8612 7.35542 49.1052 7.2756 49.3937C7.16602 49.7898 6.96018 50.137 6.58961 50.3375C6.24171 50.5257 5.8558 50.5649 5.47748 50.4491C5.41446 50.4299 5.31692 50.4793 5.2527 50.4982C4.83339 50.6219 4.4598 50.5579 4.08173 50.3463C3.89823 50.2435 3.65121 50.2629 3.44705 50.2142C3.08323 50.1273 2.78051 49.935 2.5886 49.6051C2.05683 48.691 2.43154 47.2319 2.87065 46.3509C2.9529 46.1858 3.04747 46.0296 3.14829 45.8754C3.17757 45.8306 3.27031 45.7224 3.28102 45.6749C3.31663 45.5168 3.20182 45.3329 3.25956 45.1593C3.32007 44.9774 3.51968 44.8554 3.67689 44.7669C3.71936 44.743 3.71119 44.7613 3.7123 44.7215C3.72612 44.2289 3.78668 43.7494 3.87067 43.2645C4.27551 40.9271 5.51162 38.517 7.28134 36.9199C7.57693 36.6531 7.89005 36.393 8.22566 36.1783C8.25439 36.1599 8.47088 36.0389 8.47729 36.0224C8.49464 35.9777 8.46616 35.7819 8.46338 35.7224L8.40484 34.5483L8.34879 30.8456C8.40333 28.0165 8.55699 25.0097 9.47168 22.3116C9.65854 21.7604 9.92238 21.2335 10.1848 20.7151C12.1116 16.9075 15.5583 14.9747 19.688 14.3163L20.9683 14.1579C21.0249 14.1524 21.4059 14.1358 21.4278 14.1168C21.4368 14.109 21.4593 13.9378 21.4659 13.9055C21.5151 13.6669 21.5948 13.4414 21.6901 13.2172C21.9635 12.5744 22.3032 12.0387 22.763 11.5147C23.6669 10.4845 25.0135 10.0159 26.3465 9.92717Z" fill="#040404"/>
<path d="M45.8037 34.0877C45.8654 34.0768 45.9218 34.088 45.9729 34.1264C46.1243 34.2399 46.1967 34.4297 46.2282 34.6101C46.2861 34.9409 46.2231 35.2993 46.0191 35.5714C45.8402 35.8101 45.6417 35.8762 45.362 35.9181C45.1763 35.8898 45.0285 35.8693 44.9016 35.7204C44.9143 35.5573 45.1892 35.3277 45.2783 35.1689C45.4742 34.8195 45.6058 34.4388 45.8037 34.0877Z" fill="#A4D6F1"/>
<path d="M25.3231 10.46L25.4129 10.4701C25.2341 10.6154 24.9505 10.7141 24.7476 10.8432C23.9316 11.3627 23.2666 12.0312 22.7923 12.8788C22.6644 13.1073 22.5466 13.3426 22.4508 13.5866C22.4044 13.705 22.3689 13.957 22.2887 14.0442C22.2543 14.0816 22.0403 14.0786 21.9804 14.0832L21.8784 14.0717C21.832 13.7498 22.3135 12.8442 22.4728 12.5734C23.1229 11.4684 24.0864 10.7829 25.3231 10.46Z" fill="white"/>
<path d="M42.1262 32.6584C42.4496 32.6988 42.6547 32.8981 42.8669 33.1263C42.7175 33.5159 42.5184 33.8765 42.4031 34.2804L42.3934 34.3147C42.3148 34.3604 42.1859 34.3181 42.0944 34.304C41.9445 34.265 41.7933 34.2161 41.6607 34.1344C41.4138 33.9823 41.3267 33.7759 41.2609 33.5073C41.298 33.3546 41.333 33.206 41.425 33.075C41.6097 32.8125 41.8238 32.7185 42.1262 32.6584Z" fill="#A4D6F1"/>
<path d="M43.6366 32.8373C43.7177 32.8243 43.8208 32.8146 43.902 32.8328C44.0359 32.8627 44.1338 32.9766 44.1933 33.0938C44.3221 33.3479 44.2528 33.6706 44.1631 33.9282C44.0036 34.3861 43.7272 34.6651 43.2961 34.8764L43.2731 34.8816L43.2346 34.8891C43.161 34.9042 43.0867 34.9232 43.0111 34.9114C42.9006 34.8941 42.8082 34.8372 42.7521 34.7393C42.65 34.5615 42.7042 34.1083 42.7571 33.9184C42.894 33.4262 43.1988 33.0841 43.6366 32.8373Z" fill="#A4D6F1"/>
<path d="M44.7827 33.423C44.888 33.3988 45.0264 33.3895 45.127 33.4368C45.2648 33.5017 45.3788 33.6724 45.4293 33.8122C45.534 34.1017 45.4163 34.4532 45.2816 34.7134C45.0443 35.1717 44.7054 35.4561 44.215 35.6092C44.0949 35.62 43.9455 35.6316 43.8268 35.6099C43.7209 35.5906 43.625 35.5281 43.5712 35.4337C43.5309 35.3632 43.526 35.301 43.545 35.2229C43.7329 35.0433 43.9229 34.8646 44.0625 34.6434C44.2698 34.315 44.4237 33.5682 44.7827 33.423Z" fill="#A4D6F1"/>
<path d="M30.0215 52.3806L30.1302 52.3628L30.1766 52.4109L30.3851 54.4215C30.4141 54.7108 30.5058 55.095 30.4719 55.3772C29.9943 55.4402 29.5318 55.5579 29.078 55.7181L28.7604 55.8444L28.746 52.62C29.1719 52.5864 29.6063 52.4775 30.0215 52.3806Z" fill="#50A6DA"/>
<path d="M15.0351 52.2273L16.4244 52.5079C16.365 53.3358 16.3291 54.1432 16.3598 54.9748C16.3658 55.1351 16.4849 55.8927 16.4184 55.9914L16.3197 55.9485C15.8123 55.7059 15.3314 55.5551 14.7773 55.4681L15.0351 52.2273Z" fill="#50A6DA"/>
<path d="M42.9037 37.3274L42.2633 36.6922C41.8985 36.2546 41.6843 35.6085 41.7556 35.0377C41.7712 34.9127 41.8384 34.7857 41.8896 34.6714C42.0135 34.705 42.4385 34.7556 42.4962 34.8339L42.5401 34.9157C42.6267 35.077 42.7761 35.2515 42.9572 35.308C43.0196 35.3274 43.0772 35.3248 43.1413 35.327C43.1891 35.3287 43.1736 35.3294 43.227 35.358L43.2304 35.3924C43.2507 35.5786 43.3056 35.7262 43.4538 35.8487C43.6514 36.0122 43.914 36.032 44.1592 36.0036C44.3455 35.982 44.5185 35.9133 44.6895 35.8401L44.7121 35.8789C44.843 36.099 44.9649 36.176 45.1903 36.288C45.0122 36.7271 44.751 37.1603 44.2887 37.3465C44.0341 37.449 43.7887 37.4469 43.5385 37.3347C43.4142 37.279 43.3223 37.2002 43.237 37.0951L43.1837 37.1117C43.1664 37.192 43.1505 37.2664 43.15 37.3491L43.1384 37.3976C43.0513 37.4031 42.9828 37.3611 42.9037 37.3274Z" fill="#A4D6F1"/>
<path d="M8.50505 36.4656C8.60253 36.8975 8.58548 37.4105 8.62606 37.855C8.17022 38.2029 7.77885 38.6279 7.42177 39.0741C6.1795 40.6264 5.50163 42.533 5.19134 44.4807C4.87922 44.4622 4.57931 44.4689 4.27029 44.5198C4.26242 44.525 4.19391 44.523 4.18301 44.5232C4.13319 44.2549 4.2147 43.8435 4.25494 43.5692C4.54514 41.5915 5.39419 39.6335 6.70095 38.1144C7.23243 37.4964 7.85281 36.9521 8.50505 36.4656Z" fill="#50A6DA"/>
<path d="M43.1503 37.3489L43.184 37.4139C43.2443 37.5469 43.292 37.6393 43.3856 37.7512L43.4156 37.7867C42.8899 38.8228 42.245 39.7428 41.3448 40.488C40.629 41.0804 39.7108 41.4638 38.7691 41.3732C38.1616 41.3148 37.6959 41.0246 37.3129 40.5546C37.1438 40.347 36.9847 40.1108 36.846 39.8816C36.8135 39.8279 36.7424 39.7341 36.7262 39.6763C36.6896 39.5449 36.743 39.2511 36.7518 39.1101L36.8663 37.4425C37.1935 38.1264 37.5323 38.8006 38.0109 39.3941C38.19 39.6162 38.3776 39.8407 38.6352 39.974C39.0053 40.1654 39.3918 40.1437 39.7772 40.0195C41.0161 39.6202 41.7132 38.2094 42.2707 37.1428C42.4661 37.2416 42.6472 37.3606 42.8738 37.3316L42.904 37.3271C42.9831 37.3609 43.0516 37.4029 43.1387 37.3974L43.1503 37.3489Z" fill="#50A6DA"/>
<path d="M4.72215 44.8782C4.85797 44.8695 5.0063 44.8794 5.14161 44.8968C5.2858 44.9153 5.54957 44.948 5.63788 45.0636C5.63304 45.1666 5.63391 45.2674 5.6003 45.3659C5.41998 45.4179 5.19988 45.3158 5.01323 45.3348C5.48999 45.6402 6.04489 45.9135 6.4486 46.3144C6.7665 46.6302 7.02876 47.1237 7.0267 47.5767C7.02568 47.8005 6.97996 48.0212 6.80973 48.1794C6.69242 48.2885 6.58284 48.3249 6.42501 48.3203C6.34628 48.219 6.4391 48.2356 6.45295 48.1384C6.45978 48.0905 6.44781 48.0098 6.43989 47.9604C6.40832 47.7633 6.30467 47.5425 6.13777 47.4271C6.10361 47.4436 6.08081 47.4602 6.0588 47.4918C5.91679 47.696 5.88227 48.0287 5.92526 48.2686C5.95571 48.4385 6.02529 48.6918 6.1919 48.7771C6.39574 48.8815 6.71836 48.7389 6.91743 48.668C6.93237 48.8469 6.94991 49.0541 6.91314 49.2312C6.8546 49.5134 6.67688 49.7765 6.429 49.9242C6.22219 50.0474 5.94995 50.0986 5.71447 50.0417C5.41337 49.969 5.24229 49.8444 5.08029 49.5785C4.969 49.3211 4.89917 48.9777 4.74199 48.7525C4.7329 48.9394 4.72461 49.1517 4.76497 49.3352C4.79752 49.4833 4.84942 49.6287 4.90929 49.7676C4.95113 49.8647 5.03316 49.9907 5.01778 50.0978L4.95858 50.1341C4.6922 50.1581 4.39429 50.0495 4.18813 49.8823C3.89309 49.6428 3.75249 49.1689 3.71623 48.8056L3.71269 48.7675L3.67356 48.7407C3.52046 48.9199 3.5553 49.2566 3.60655 49.4706C3.63178 49.5759 3.68128 49.683 3.65709 49.7897C3.61872 49.7979 3.61298 49.8013 3.56773 49.798C3.34471 49.7818 3.13387 49.6063 3.00835 49.4339C2.68817 48.9941 2.73441 48.3134 2.82461 47.8025C2.98787 46.8777 3.3473 46.0173 4.13728 45.4633L3.58493 45.3904L3.5998 45.3722L3.62541 45.3427C3.91601 45.0026 4.29727 44.9168 4.72215 44.8782Z" fill="#A4D6F1"/>
<path d="M12.8085 50.6604L12.6237 50.5789C11.6308 50.0462 10.8956 49.0976 10.5641 48.0307C10.3353 47.2942 10.2829 46.5471 10.1898 45.7863L9.85045 42.9478L9.39432 38.1394C9.16065 35.2031 9.01746 32.2712 9.1442 29.3257C9.22076 27.5461 9.39788 25.7376 9.82149 24.0035C10.1079 22.831 10.5307 21.7217 11.0939 20.6547C12.3828 18.2134 14.7526 16.3498 17.3848 15.5403C18.977 15.0507 20.6336 14.8142 22.294 14.7351C24.4535 14.6322 26.7007 14.7995 28.7733 15.447C29.5307 15.6837 30.2675 16.006 30.9687 16.3756L30.9205 16.3811C30.8009 16.3893 30.6303 16.2835 30.5174 16.2405L29.5294 15.8978C28.9966 15.737 28.4357 15.6257 27.8876 15.5288C26.587 15.2989 25.2569 15.2118 23.9377 15.1971C22.4336 15.1804 20.9519 15.2584 19.4707 15.5297C18.9095 15.6325 18.3437 15.7424 17.7994 15.9161C16.1171 16.453 14.4963 17.3747 13.2475 18.6264C9.93953 21.9419 9.54404 27.0291 9.55493 31.4594C9.56521 35.6508 9.97557 39.8233 10.4505 43.9834L10.6971 46.0782C10.7781 46.767 10.8419 47.4639 11.0462 48.1298C11.2776 48.8846 11.7048 49.6061 12.2656 50.1618C12.4241 50.3189 12.6905 50.4813 12.8085 50.6604Z" fill="white"/>
<path d="M31.2207 56.0069C32.6944 55.9239 34.3451 56.444 35.4717 57.3972C35.8652 57.7301 36.3727 58.2748 36.4041 58.8168C36.415 59.0049 36.3389 59.1929 36.2081 59.3278C36.1068 59.4321 35.9754 59.5056 35.8344 59.5405C35.4748 59.6295 35.0168 59.5882 34.6432 59.5891L32.1398 59.5718L29.1161 59.5493C28.6468 59.5429 28.1333 59.5779 27.6734 59.4987C27.511 59.4708 27.3526 59.3952 27.2274 59.2886C27.0542 59.1412 26.922 58.9122 26.9075 58.683C26.8786 58.2277 27.1091 57.8467 27.4036 57.5203C28.3579 56.4629 29.8485 56.0721 31.2207 56.0069Z" fill="#037BD0"/>
<path d="M13.5583 55.9773C14.8486 56.008 16.2866 56.3497 17.2488 57.2685C17.5956 57.5997 17.929 58.076 17.932 58.5752C17.9337 58.8444 17.7911 59.0907 17.6013 59.2745C17.4607 59.4106 17.2798 59.4931 17.0891 59.5315C16.6708 59.6159 16.1968 59.5864 15.7709 59.5945L12.9562 59.6222L10.624 59.6218C10.1789 59.6211 9.69317 59.6584 9.2542 59.5847C9.10484 59.5596 8.94876 59.4983 8.82697 59.4078C8.68523 59.3025 8.56906 59.1276 8.55376 58.9489C8.51814 58.532 8.83725 58.0781 9.10284 57.7865C9.91649 56.8931 11.092 56.3075 12.2759 56.0945C12.7011 56.018 13.1277 55.9953 13.5583 55.9773Z" fill="#037BD0"/>
<path d="M12.8085 50.6606C12.6905 50.4814 12.4241 50.319 12.2656 50.1619C11.7048 49.6062 11.2776 48.8847 11.0461 48.1299C10.8419 47.464 10.7781 46.7671 10.697 46.0783L10.4505 43.9835C9.97554 39.8234 9.56518 35.6509 9.5549 31.4595C9.54402 27.0292 9.9395 21.942 13.2475 18.6265C14.4963 17.3749 16.1171 16.4531 17.7993 15.9162C18.3437 15.7425 18.9094 15.6326 19.4707 15.5298C20.9518 15.2585 22.4335 15.1805 23.9376 15.1972C25.2569 15.2119 26.587 15.299 27.8876 15.5289C28.4356 15.6258 28.9966 15.7371 29.5294 15.898L30.5174 16.2406C30.6303 16.2836 30.8009 16.3894 30.9205 16.3812L30.9687 16.3757C33.3194 17.6025 34.844 19.9989 35.6198 22.4623C36.0633 23.8703 36.2686 25.3985 36.3503 26.8686L36.378 30.0666L36.2546 34.4356C36.1052 37.8939 35.9184 41.3561 35.4257 44.7855L35.151 46.5469C35.0919 46.9033 35.0451 47.2669 34.9483 47.6156C34.8591 47.937 34.7255 48.2592 34.569 48.5535C33.8015 49.9979 32.5224 50.9276 30.9768 51.3979C29.552 51.8314 28.009 52.0068 26.5286 52.1287C24.9741 52.2568 23.4253 52.2843 21.8659 52.2577C19.4626 52.2167 16.9886 52.0327 14.6662 51.3805C14.21 51.2524 13.7726 51.0976 13.3375 50.9092C13.1783 50.8402 12.9881 50.7745 12.8414 50.6842L12.8085 50.6606Z" fill="#50A6DA"/>
<path d="M27.6041 17.8782C27.9001 17.8955 28.1397 17.9391 28.3753 18.1322C28.8106 18.489 28.9248 18.9757 28.9702 19.5089L28.4881 19.163C28.1723 18.9722 27.8451 18.7909 27.493 18.6763C27.2836 18.6081 26.9145 18.5742 26.7522 18.4409C26.7482 18.3571 26.7924 18.2891 26.8453 18.227C27.0437 17.9939 27.3125 17.9114 27.6041 17.8782Z" fill="#040404"/>
<path d="M17.8745 17.9946C18.1711 17.9646 18.4133 17.972 18.6755 18.1312C18.8003 18.2069 18.8956 18.2796 18.9322 18.4259C18.9091 18.4932 18.9085 18.4915 18.8471 18.5214C18.6573 18.6136 18.417 18.6568 18.2155 18.728C17.766 18.887 17.3575 19.0865 16.9506 19.3345L16.2643 19.8003C16.3122 19.5021 16.3965 19.211 16.5586 18.9539C16.8723 18.4566 17.2986 18.1225 17.8745 17.9946Z" fill="#040404"/>
<path d="M14.8955 32.449C15.0499 32.4312 15.2154 32.4411 15.3714 32.4399C15.0758 32.5753 14.8005 32.7086 14.5364 32.9006C16.3182 34.8123 19.1889 35.6887 21.7063 36.0247C22.9836 36.1952 24.3264 36.1874 25.5828 35.8822C26.6963 35.6117 27.7817 35.0983 28.7535 34.4944C29.4164 34.0824 30.0333 33.6077 30.6524 33.1338C30.358 33.0203 30.0365 32.9164 29.8024 32.6972L29.8056 32.6493C29.8792 32.615 29.9251 32.6282 30.0053 32.6328C30.406 32.6555 30.8867 32.7174 31.1606 33.0472C31.2839 33.1957 31.3339 33.415 31.2942 33.6042C31.2758 33.6914 31.2262 33.7255 31.158 33.7738C31.0162 33.7365 30.981 33.4607 30.8712 33.339C30.7412 33.348 30.3878 33.7218 30.2789 33.8136L29.4469 34.4549C29.0193 34.7464 28.5818 35.0157 28.126 35.2607L27.6717 35.5074C27.6403 35.5254 27.551 35.5651 27.5296 35.5894C27.4857 35.6395 27.4549 35.8182 27.4351 35.8864C27.375 36.0929 27.3002 36.2948 27.2241 36.4958C26.9117 37.3206 26.4526 38.1153 25.8246 38.7403C24.9613 39.5994 23.7046 40.0111 22.5023 39.9972C20.4083 39.9731 18.5385 38.6411 17.8683 36.6536C17.7644 36.3456 17.6815 36.0314 17.6186 35.7126C17.6058 35.6479 17.5895 35.374 17.5607 35.3337C17.546 35.313 17.3307 35.2387 17.2949 35.2234C17.0358 35.1124 16.7827 34.9899 16.5357 34.8538C15.6885 34.3869 14.8862 33.8414 14.2095 33.1448C14.035 33.331 13.8908 33.5519 13.7502 33.7642L13.6982 33.7685C13.6772 33.7296 13.6586 33.6927 13.6496 33.649C13.6087 33.4498 13.7032 33.226 13.8188 33.0683C14.0807 32.7112 14.4673 32.5183 14.8955 32.449Z" fill="#040404"/>
<path d="M21.5617 38.1056C22.8393 38.0258 23.9476 38.2229 25.0587 38.8837C24.5066 39.2462 23.963 39.4547 23.3116 39.5674L23.1848 39.5876C21.9897 39.7463 20.7155 39.403 19.7559 38.6786C20.2912 38.3236 20.9329 38.1869 21.5617 38.1056Z" fill="#F16D52"/>
<path d="M17.941 35.498C18.9376 35.9016 19.9992 36.1515 21.0594 36.3171C22.4441 36.5336 23.8695 36.6033 25.2536 36.3459C25.8917 36.2272 26.4842 36.0176 27.0842 35.773C27.0556 35.9342 26.972 36.0964 26.9131 36.25C26.7195 36.7541 26.5106 37.2032 26.2231 37.6616C25.9902 38.0144 25.7116 38.3125 25.4216 38.6177C24.9713 38.2824 24.3583 38.057 23.8213 37.9034C22.3481 37.4823 20.7434 37.648 19.4022 38.3946C18.5508 37.5806 18.1858 36.6238 17.941 35.498Z" fill="#6D5B5A"/>
<path d="M26.2642 21.6237C26.8106 21.5677 27.2887 21.669 27.7613 21.9472C28.7379 22.5222 29.3137 23.6207 29.5812 24.6877C30.0111 26.4026 29.7952 28.3438 28.8725 29.8672C28.3487 30.7319 27.6933 31.3692 26.6961 31.6163C26.1365 31.6824 25.6396 31.5761 25.1713 31.2555C24.113 30.5313 23.5388 29.2214 23.3157 27.997C23.0142 26.3429 23.2605 24.4048 24.2439 23.0077C24.739 22.3044 25.4041 21.769 26.2642 21.6237Z" fill="#040404"/>
<path d="M26.2725 21.9256C26.6881 21.8651 27.1365 21.966 27.5023 22.1691C28.4254 22.6816 28.9537 23.7064 29.2281 24.6855C29.6757 26.2835 29.4534 28.1848 28.6359 29.6281C28.2286 30.3471 27.583 31.0262 26.7655 31.2488L26.7372 31.255C26.223 31.3606 25.7561 31.2199 25.324 30.9348C24.3875 30.3168 23.8807 29.0438 23.6684 27.9879C23.3618 26.462 23.5547 24.5717 24.4331 23.2583C24.8824 22.5866 25.4677 22.0842 26.2725 21.9256Z" fill="white"/>
<path d="M26.8914 25.28C27.0005 25.2672 27.1376 25.2547 27.2427 25.2892C27.5703 25.397 27.7965 25.7146 27.9393 26.0122C28.2086 26.5734 28.1669 27.247 27.958 27.8206C27.8191 28.202 27.6034 28.4746 27.2299 28.6483C27.1009 28.6644 26.9762 28.6754 26.851 28.6317C26.5334 28.5207 26.3263 28.2358 26.1935 27.9407C25.9416 27.3809 25.9518 26.6203 26.1713 26.0518C26.3144 25.6813 26.5242 25.4397 26.8914 25.28Z" fill="#040404"/>
<path d="M27.3259 25.9846C27.3983 25.9719 27.4663 25.9611 27.5383 25.982C27.6725 26.021 27.7893 26.1427 27.8471 26.267C27.9169 26.4171 27.9507 26.6921 27.8791 26.8459C27.8178 26.9776 27.7239 27.0504 27.5903 27.0981C27.5375 27.1093 27.4778 27.1185 27.424 27.1146C27.3142 27.1066 27.2167 27.0392 27.1537 26.9521C27.0503 26.8092 27.0193 26.5959 27.0503 26.4253C27.0866 26.2251 27.1606 26.0999 27.3259 25.9846Z" fill="white"/>
<path d="M18.7966 21.5379C19.4234 21.5074 20.0459 21.7887 20.5163 22.1863C21.587 23.0913 22.1134 24.5941 22.2118 25.9598C22.3251 27.5306 21.9459 29.4055 20.8894 30.6181C20.3587 31.2271 19.6857 31.6371 18.8708 31.6913C18.2151 31.6861 17.6838 31.5039 17.1734 31.0856C16.0448 30.1608 15.5294 28.683 15.4033 27.2698C15.2643 25.7109 15.627 23.8878 16.6617 22.6739C17.246 21.9884 17.8968 21.6084 18.7966 21.5379Z" fill="#040404"/>
<path d="M18.5315 21.866C19.0607 21.8019 19.5385 21.9186 19.987 22.2042C20.9978 22.848 21.4952 24.0259 21.7369 25.1536C22.0734 26.7233 21.7879 28.5771 20.9076 29.9264C20.4817 30.5792 19.8437 31.0605 19.0776 31.2239C18.5383 31.3263 17.9961 31.137 17.5521 30.8335C16.5758 30.1662 16.0421 28.951 15.8402 27.8214C15.5678 26.2979 15.7859 24.4678 16.689 23.1783C17.1449 22.5274 17.7334 22.0106 18.5315 21.866Z" fill="white"/>
<path d="M19.387 25.3047C19.536 25.2891 19.6537 25.2976 19.7932 25.3565C20.1097 25.4899 20.2965 25.8257 20.4139 26.1341C20.6531 26.7623 20.6023 27.6236 20.3137 28.228C20.1642 28.5411 19.9503 28.759 19.6202 28.8801C19.5038 28.8971 19.3702 28.8802 19.2605 28.8384C18.9926 28.7365 18.7784 28.4334 18.6653 28.1836C18.3926 27.5811 18.3903 26.7602 18.6298 26.1477C18.7877 25.7442 18.99 25.484 19.387 25.3047Z" fill="#040404"/>
<path d="M19.7549 26.1359C19.8211 26.1209 19.9076 26.1084 19.9745 26.1207C20.0836 26.1407 20.1709 26.2433 20.226 26.3329C20.329 26.5005 20.3886 26.7181 20.3347 26.9128C20.2922 27.0663 20.1916 27.1387 20.0576 27.2105C19.963 27.2212 19.8521 27.2303 19.7592 27.2066C19.6531 27.1796 19.5505 27.0518 19.5032 26.9593C19.4204 26.7973 19.4277 26.6253 19.4829 26.4568C19.5346 26.2988 19.6095 26.2127 19.7549 26.1359Z" fill="white"/>
</svg>
