<svg width="38" height="38" viewBox="0 0 38 38" fill="none" xmlns="http://www.w3.org/2000/svg">
<path d="M12.8334 18.1164L28.5933 7.60976C28.9475 7.37374 29.4261 7.46932 29.6623 7.82359C29.7467 7.95017 29.7917 8.09893 29.7917 8.25125V30.0372C29.7917 30.4629 29.4466 30.8081 29.0209 30.8081C28.8687 30.8081 28.72 30.763 28.5933 30.6786L12.8334 20.172V29.9359C12.8334 30.7873 12.1432 31.4775 11.2917 31.4775C10.4403 31.4775 9.75008 30.7873 9.75008 29.9359V8.35254C9.75008 7.50108 10.4403 6.81087 11.2917 6.81087C12.1432 6.81087 12.8334 7.50108 12.8334 8.35254V18.1164Z" fill="#082A80"/>
</svg>
