<svg width="22" height="49" viewBox="0 0 22 49" fill="none" xmlns="http://www.w3.org/2000/svg">
<path d="M16.1381 0.108643C16.3921 0.237846 16.5495 0.43452 16.7085 0.66402C17.1493 1.30032 17.4302 2.07682 17.2838 2.85534L17.2748 2.90165C17.4373 2.77871 17.5856 2.65478 17.7034 2.48647C17.7604 2.40509 17.822 2.25174 17.9132 2.21826C17.9813 2.24057 18.0173 2.26089 18.0608 2.31919C18.3574 2.7165 18.4372 3.34182 18.3696 3.81975C18.3431 4.00718 18.3079 4.19029 18.2417 4.36824C17.9994 5.02047 17.3994 5.47143 16.7884 5.75412C16.7912 5.87095 16.7754 5.99962 16.785 6.11312C16.8072 6.37622 16.7598 6.68532 16.721 6.94852C16.641 7.49104 16.5217 8.02799 16.3631 8.55294L16.5489 8.65848C16.8977 8.89045 17.022 9.21398 17.0942 9.61251C17.1824 10.099 17.0713 10.6742 16.6948 11.0141C16.6145 11.0866 16.4304 11.1532 16.3727 11.2235C16.3282 11.2776 16.3296 11.5566 16.3191 11.6361C16.3021 11.7655 16.271 11.8982 16.2379 12.0245C16.0852 12.6065 15.8206 13.1268 15.4763 13.6185C14.9323 14.395 14.1299 14.9744 13.1919 15.1408L13.3693 15.6126C13.4996 16.0222 13.4641 16.2922 13.2649 16.6759C13.4782 16.941 13.6349 17.2133 13.8163 17.4993L14.3632 18.3574C14.6475 18.8259 14.8834 19.3233 15.1134 19.8203C15.6943 21.0753 16.1509 22.3895 16.4135 23.7493C16.4746 24.0652 16.6141 24.588 16.4494 24.8787C16.0012 25.6695 15.2872 26.4033 14.6322 27.0294C14.5018 27.1541 14.3613 27.2647 14.2222 27.3792C14.1897 27.406 14.1041 27.4604 14.0831 27.4928C14.0706 27.5121 14.1042 27.7995 14.1068 27.8407C14.1316 28.2299 14.1266 28.6546 14.0312 29.0353C13.9338 29.4239 13.5179 29.565 13.1992 29.7545L14.5536 34.3185L15.5052 38.4274L16.0542 41.6557L16.2098 42.8031C16.2255 42.9295 16.2212 43.1137 16.2615 43.2311C16.266 43.2441 16.2686 43.2596 16.2792 43.2681C16.3003 43.2851 16.6032 43.2412 16.692 43.2832L16.7209 43.2981L16.7547 43.3135C16.9553 43.4076 17.0559 43.5644 17.1271 43.7702C17.2056 43.9969 17.2802 44.4488 17.1663 44.6668L17.1428 44.7103C17.2149 44.8211 17.3978 44.8888 17.5183 44.9339C18.1175 45.1584 18.8118 45.2126 19.4486 45.2027C19.9386 45.195 20.4172 45.1521 20.8965 45.2889C21.0742 45.3396 21.2613 45.4237 21.4119 45.5314C21.5015 45.5954 21.5773 45.6797 21.6682 45.741C21.7311 45.7835 21.8102 45.7968 21.8677 45.8472C21.9532 45.9222 21.9825 46.0289 21.9929 46.1382C22.0088 46.3045 22.0063 46.4007 21.8948 46.5265C21.6812 46.7677 21.3736 46.9371 21.0985 47.0985C19.944 47.7755 18.6249 48.2856 17.3212 48.5921C16.9541 48.6784 16.5746 48.7668 16.1976 48.7937C16.0071 48.8073 15.8211 48.8079 15.6713 48.6708C15.5896 48.596 15.4992 48.4954 15.5102 48.3783C15.5144 48.3342 15.5278 48.3116 15.5228 48.2664C15.5008 48.0691 15.3813 47.8295 15.318 47.6369C15.134 47.0761 14.9256 46.4851 14.8109 45.9079L14.6252 45.8594C14.4371 45.8129 14.346 45.7323 14.2508 45.5677C14.1058 45.317 13.8072 44.6494 13.8967 44.3719C13.9401 44.2372 14.0071 44.1718 14.1333 44.114L14.1588 44.1027C14.0967 43.7176 13.8702 43.3007 13.7269 42.9352C13.2734 41.778 12.7419 40.6397 12.4288 39.4339C12.3052 38.958 12.2079 38.4613 12.2366 37.9678C12.2435 37.8505 12.2605 37.7342 12.2779 37.6181C12.284 37.5777 12.3074 37.5026 12.302 37.4649C12.2923 37.3955 12.1202 37.1862 12.0714 37.1103L11.3356 35.9277L9.81572 33.0978C9.73271 33.1261 9.50203 33.1766 9.44081 33.2256C9.43071 33.2336 9.40097 33.337 9.3951 33.3532L9.2254 33.7927L8.29411 35.7602C7.44368 37.4488 6.40629 39.0056 5.29634 40.5325L3.74817 42.6406C3.80711 42.7122 3.85704 42.7884 3.90245 42.8693C3.99113 43.0271 4.00536 43.1632 3.95458 43.3363L3.9413 43.3798C3.84575 43.7026 3.59553 43.9968 3.37327 44.2428C3.4042 44.4712 3.52203 44.7051 3.61762 44.9127C3.90986 45.5473 4.3912 46.0847 4.95252 46.4943C5.41108 46.8289 5.93266 47.1519 6.25017 47.636C6.36073 47.8045 6.51019 48.0903 6.46185 48.2952C6.42932 48.4331 6.42574 48.4971 6.3194 48.5962C6.18999 48.7168 6.01104 48.7686 5.84204 48.8054C5.40661 48.9004 4.96311 48.894 4.51917 48.8794C4.1564 48.8675 3.79637 48.7828 3.44946 48.6806C2.05691 48.2704 0.97238 47.3608 0 46.3198C0.00208889 46.0101 0.123544 45.702 0.221971 45.412L0.622341 44.2818C0.728527 43.9972 0.815067 43.6972 0.961141 43.4305L0.983969 43.3893C0.795272 43.0821 0.734893 42.8025 0.804623 42.4473C0.900612 41.9584 1.16356 41.6858 1.64913 41.5806C1.65575 41.5792 1.74089 41.5633 1.74293 41.5609C1.79262 41.5015 1.84255 41.2975 1.87453 41.2144L2.40158 39.8651C2.87104 38.7624 3.38222 37.697 3.99118 36.663C4.1277 36.4312 4.28109 36.0787 4.51017 35.9297L4.53156 35.9164L5.87288 29.5747L5.41586 29.2054C5.06696 28.8624 4.93665 28.479 4.93471 27.9964C4.71657 28.0377 4.49301 28.0802 4.2707 28.0868C3.45463 28.111 2.63807 27.9149 1.90219 27.5635C1.60248 27.4204 1.30073 27.25 1.05957 27.0188C0.11469 26.1131 -0.094 24.719 0.199191 23.483C0.465476 22.3605 1.06041 21.2479 1.69021 20.287C1.86737 20.0167 2.04339 19.7415 2.24009 19.485C2.28306 19.4289 2.46858 19.2512 2.48161 19.2001C2.48812 19.1746 2.45828 19.1529 2.44664 19.1293C2.0793 18.3838 1.82167 17.6111 1.80998 16.7713C1.80112 16.1359 1.94416 15.5213 2.18155 14.9348C2.23019 14.8146 2.28769 14.6369 2.38323 14.5467C2.51881 14.4189 2.74008 14.3169 2.90461 14.2281C3.97755 13.6491 5.2473 13.4876 6.44469 13.3851C6.6312 13.369 6.81964 13.3836 7.00536 13.3635C7.16212 13.3466 7.30834 13.2767 7.46069 13.2411C7.78655 13.165 8.10675 13.1617 8.43903 13.1658C7.93695 12.7264 7.67669 12.1834 7.41015 11.5866C7.32033 11.5896 7.23324 11.6299 7.14541 11.6498C6.9697 11.6897 6.76414 11.669 6.58803 11.6371C6.18283 11.5637 5.83299 11.3112 5.60237 10.9744C5.36826 10.6326 5.2382 10.1372 5.32081 9.7267C5.40263 9.32026 5.57372 9.06686 5.9151 8.84355C5.47902 7.78906 5.05781 6.74411 4.96495 5.59199C4.94914 5.39598 4.92377 5.18783 4.94829 4.99232C4.96714 4.84202 4.97465 4.66268 5.06781 4.53699C5.1811 4.38421 5.41804 4.26932 5.5765 4.16622L6.33751 3.6414L7.24488 2.89579L7.09568 2.83883C6.84546 2.74427 6.52387 2.72088 6.26236 2.78629C6.12464 2.82073 5.99916 2.87513 5.85781 2.90257C5.93321 2.84343 6.00915 2.78309 6.09425 2.73831C6.51148 2.51868 6.8931 2.62056 7.32148 2.74578C7.1956 2.40327 7.13651 2.02289 7.23896 1.66431C7.2975 1.45948 7.40359 1.26104 7.59303 1.15395L7.6186 1.16676C7.56951 1.23301 7.51743 1.30053 7.47969 1.37405C7.28691 1.74987 7.3163 2.27163 7.44741 2.66034C7.61636 2.46901 7.75015 2.25167 7.90259 2.04744C8.18817 1.66484 8.56641 1.23458 8.98016 0.988266C10.3015 0.201728 11.6386 0.862152 12.9778 1.20699C13.7852 1.41488 14.757 1.60015 15.5162 1.14235C15.9379 0.887989 16.0293 0.554244 16.1381 0.108643Z" fill="black"/>
<path d="M6.75012 27.22L7.1776 27.8411L6.57068 27.6055L6.75012 27.22Z" fill="#E1AD72"/>
<path d="M11.6929 15.4411L11.7548 15.4392C11.8848 15.5173 11.936 15.591 11.9697 15.7402C11.9956 15.8541 11.9489 15.92 11.8923 16.0131C11.8636 16.018 11.8833 16.016 11.833 16.0089C11.7579 15.9244 11.6758 15.8455 11.6327 15.7396C11.6783 15.6503 11.6809 15.5396 11.6929 15.4411Z" fill="#777373"/>
<path d="M7.46545 26.1179L8.58734 26.2048L8.53949 26.4325L8.51214 26.496C8.37915 26.3919 8.20278 26.3489 8.04388 26.2992L7.46545 26.1179Z" fill="#4D3C46"/>
<path d="M7.67935 11.4124C7.75654 11.4227 7.74187 11.4506 7.76738 11.5144C7.95568 11.9857 8.21545 12.4795 8.52843 12.8801L8.51177 12.9044C8.14025 12.5206 7.80533 11.9569 7.60962 11.4621L7.67935 11.4124Z" fill="#6C442B"/>
<path d="M15.968 6.22898L15.9425 5.93141L16.6184 5.84253C16.6181 5.98771 16.6414 6.18277 16.6082 6.32113L16.5703 6.2343C16.5154 6.23922 16.4684 6.24215 16.4132 6.23778L15.968 6.22898Z" fill="#472F24"/>
<path d="M17.9202 45.2581L18.4235 45.3276C18.2576 45.4734 18.1541 45.6063 18.057 45.8046C18.0409 45.8295 18.0218 45.8455 18.0002 45.8655L17.5941 45.7929C17.6891 45.6032 17.7997 45.4325 17.9202 45.2581Z" fill="#BD8033"/>
<path d="M18.5869 45.3418L19.058 45.3707C18.9063 45.5565 18.7855 45.7378 18.6722 45.9498L18.2516 45.8836C18.3473 45.6851 18.4502 45.5153 18.5869 45.3418Z" fill="#BD8033"/>
<path d="M17.3734 45.133C17.4795 45.1006 17.5899 45.1638 17.6891 45.2011C17.5791 45.3742 17.4876 45.602 17.3532 45.7515L17.2106 45.7388L16.8323 45.6655C16.9814 45.473 17.1816 45.2823 17.3734 45.133Z" fill="#BD8033"/>
<path d="M12.8484 17.5915C12.8119 17.5747 12.6592 17.1911 12.6271 17.1188L13.1643 16.8306L13.404 17.1977L12.8484 17.5915Z" fill="#3E4456"/>
<path d="M14.4777 5.99115C14.5545 5.97444 14.6553 6.00771 14.7326 6.02362C14.9983 6.2541 15.1113 6.4702 15.2253 6.80094L14.9993 6.66536C14.7155 6.53167 14.4698 6.43882 14.1548 6.41096C14.2324 6.25793 14.3344 6.09012 14.4777 5.99115Z" fill="#7E5434"/>
<path d="M3.18688 45.129L3.43218 45.1252C3.53185 45.211 3.59909 45.3194 3.67195 45.4273C3.41855 45.4616 3.23687 45.4984 3.02798 45.6552L2.99938 45.677L2.86524 45.8274L2.60657 45.3096C2.79492 45.2015 2.97416 45.1549 3.18688 45.129Z" fill="#BD8033"/>
<path d="M1.01514 43.933L1.13192 43.583C1.3991 43.8375 1.71198 44.061 2.06898 44.1687C2.2257 44.2159 2.44285 44.2398 2.58429 44.3095C2.58623 44.3105 2.58529 44.3138 2.58579 44.3159L2.56619 44.3325C2.51715 44.3757 2.4983 44.3871 2.4332 44.3931C2.11832 44.4218 1.60913 44.3273 1.3317 44.1747C1.21691 44.1115 1.11511 44.0172 1.01514 43.933Z" fill="#7E5434"/>
<path d="M17.4976 3.04009C17.6659 2.87554 17.7662 2.70927 17.8765 2.50317C18.1497 2.91298 18.2047 3.39425 18.1082 3.87432L18.0768 4.01104L18.0576 4.00346C18.0486 3.99997 18.0369 4.00032 18.0304 3.99315C18.0022 3.9621 17.9697 3.78181 17.9526 3.72949C17.8942 3.55096 17.8233 3.3598 17.7352 3.19379C17.6717 3.07424 17.6174 3.07463 17.4976 3.04009Z" fill="#BD8033"/>
<path d="M3.51314 45.5932C3.55811 45.591 3.6069 45.5879 3.65126 45.5967C3.81181 45.6284 3.94445 45.8209 4.03855 45.9431L3.91237 45.9623C3.67931 45.9972 3.52085 46.0475 3.34952 46.2126L3.32335 46.2382L3.20991 46.4204L2.91711 45.928C3.11362 45.7774 3.2769 45.6712 3.51314 45.5932Z" fill="#BD8033"/>
<path d="M2.93757 44.3473L3.04211 44.3457C3.16859 44.4117 3.32247 44.8245 3.39145 44.966C3.1671 44.9589 2.98362 44.9675 2.76882 45.0407C2.68407 45.0849 2.61787 45.1361 2.54495 45.1977C2.48855 45.0059 2.45916 44.8146 2.44409 44.6156C2.58967 44.4891 2.76195 44.4209 2.93757 44.3473Z" fill="#BD8033"/>
<path d="M3.98113 46.0779C4.03395 46.077 4.05707 46.0765 4.10387 46.1053L4.13571 46.1277C4.19027 46.1199 4.16102 46.1226 4.22359 46.1211L4.55801 46.4803C4.27119 46.4912 4.0527 46.5828 3.8165 46.7397C3.77662 46.7674 3.74598 46.7811 3.70137 46.7987C3.53659 46.7453 3.41693 46.6258 3.29602 46.5078L3.33427 46.4547C3.49163 46.2454 3.72449 46.1177 3.98113 46.0779Z" fill="#BD8033"/>
<path d="M5.30214 22.6123C5.41847 22.8451 5.34118 23.174 5.3175 23.4271L5.26081 24.291C5.0555 24.1612 4.87312 23.9869 4.69263 23.8256C4.839 23.3906 5.01014 22.9724 5.30214 22.6123Z" fill="#382838"/>
<path d="M10.7705 16.8056C10.8081 16.7769 10.848 16.673 10.8702 16.6298C11.0539 16.2727 11.1693 15.8901 11.2738 15.5037C11.306 15.3844 11.3213 15.2167 11.3719 15.1089C11.3957 15.0583 11.407 15.0591 11.4568 15.0432L11.4853 15.1392C11.4586 15.3938 11.3706 15.7508 11.5392 15.9583C11.6047 16.039 11.6944 16.1044 11.7817 16.1597L10.9129 16.9204C10.8546 16.895 10.815 16.8495 10.7705 16.8056Z" fill="#E1AD72"/>
<path d="M2.23022 19.9434C2.34884 19.7528 2.4803 19.5853 2.62667 19.4153L3.09682 20.0754L2.62463 20.7483C2.59111 20.7984 2.53018 20.9236 2.48686 20.9509C2.29513 20.6451 2.32497 20.278 2.23022 19.9434Z" fill="#3E4456"/>
<path d="M7.32953 16.798L6.97168 16.0938C7.29297 16.2365 7.58407 16.4507 7.89129 16.6215L8.59803 16.9959C8.63623 17.0165 8.74236 17.0577 8.76758 17.0877C8.77837 17.1005 8.78514 17.1165 8.79086 17.1322C8.79424 17.1415 8.7923 17.1768 8.7923 17.1851C8.7919 17.2741 8.811 17.3613 8.82697 17.4484L7.32953 16.798Z" fill="#3E4456"/>
<path d="M11.8734 16.394C11.9383 16.2723 12.0371 16.167 12.1066 16.0471C12.1843 15.913 12.2371 15.7366 12.1833 15.5845C12.1287 15.4301 11.989 15.3397 11.8461 15.277C11.7984 15.2561 11.7602 15.2369 11.7183 15.2049C11.7179 15.1282 11.7226 15.0591 11.7336 14.9832L12.8886 15.1575L12.9627 15.2853C12.8406 15.4813 12.726 15.6684 12.5656 15.837C12.3905 16.0209 12.1797 16.1747 11.9882 16.341C11.9468 16.3769 11.9261 16.3847 11.8734 16.394Z" fill="#BD8033"/>
<path d="M12.814 5.14724C12.9894 5.11318 13.2555 5.2034 13.4375 5.23299C14.3 5.37314 15.1049 5.53389 15.9858 5.43855C16.2002 5.41537 16.4122 5.39537 16.6198 5.3335C16.8588 5.26228 17.0881 5.14973 17.2985 5.01694C17.4145 4.94373 17.5139 4.85579 17.6425 4.80417L17.6659 4.79517C17.4884 5.05066 17.1131 5.32376 16.83 5.44233C16.6593 5.51375 16.4498 5.54931 16.2678 5.58188L15.7371 5.64505C15.0435 5.73751 13.4189 5.4947 12.814 5.14724Z" fill="#6C442B"/>
<path d="M7.53382 25.3472C7.42351 25.4795 7.29275 25.5937 7.16712 25.7111C7.11191 25.6991 7.06267 25.6477 7.01816 25.6133L6.6062 25.2875L7.2082 23.9761C7.29484 24.1385 7.32453 24.31 7.35229 24.49C7.39362 24.7587 7.34269 25.1358 7.53382 25.3472Z" fill="#3E4456"/>
<path d="M5.68201 9.38377C5.86936 9.1347 6.03563 9.012 6.35244 8.97191C6.66175 8.93277 6.94236 8.98653 7.19049 9.1814C7.35233 9.30852 7.51073 9.53666 7.56887 9.73525C7.51919 9.81956 7.39778 9.9053 7.3294 9.9896C7.23152 9.82592 7.10395 9.65856 6.93843 9.55909C6.67538 9.40103 6.41705 9.40814 6.13167 9.48165L5.71523 9.47275C5.68454 9.44868 5.68937 9.42092 5.68201 9.38377Z" fill="#E1AD72"/>
<path d="M10.6187 30.9385C10.587 30.891 10.6015 30.5799 10.5988 30.5038C11.4517 30.3845 12.2574 30.155 13.0513 29.8193L13.1294 30.0713L12.4797 30.3748C12.0945 30.5356 11.6912 30.6621 11.2891 30.7731L10.8633 30.8689C10.7829 30.8832 10.6755 30.8807 10.6187 30.9385Z" fill="#382838"/>
<path d="M16.314 8.80124L16.3721 8.79199C16.5147 8.83889 16.6318 9.01242 16.6996 9.14029C16.8996 9.51754 16.9172 10.026 16.7847 10.4259C16.7047 10.6671 16.5661 10.8101 16.3429 10.9259L16.2008 10.0381C16.1773 9.92437 16.1218 9.685 16.1726 9.58791C16.2002 9.58721 16.2042 9.58537 16.2348 9.59438C16.3334 9.62327 16.4175 9.70976 16.4623 9.79944C16.5365 9.9483 16.4919 10.1036 16.4405 10.2505L16.4252 10.2933L16.4462 10.3319L16.5083 10.3241C16.5861 10.244 16.6271 10.1347 16.65 10.0265C16.6795 9.88762 16.6466 9.76417 16.5691 9.64675C16.4632 9.48645 16.3482 9.43209 16.1662 9.40135L16.1249 9.39459C16.1595 9.25985 16.2553 9.05171 16.2141 8.92558C16.2377 8.85312 16.2526 8.84849 16.314 8.80124Z" fill="#E1AD72"/>
<path d="M5.30207 22.612L5.6453 22.1768L5.77919 24.719L5.26074 24.2908L5.31744 23.4268C5.34112 23.1738 5.41841 22.8448 5.30207 22.612Z" fill="#4D3C46"/>
<path d="M15.968 6.22925L16.4132 6.23805C16.4684 6.24243 16.5155 6.23949 16.5703 6.23457L16.6082 6.32141C16.5506 6.81011 16.4798 7.31915 16.3609 7.79726L16.1801 8.47242C16.142 8.60825 16.0936 8.7313 16.0802 8.87349L16.0779 8.90099H16.0533L15.968 6.22925Z" fill="#6C442B"/>
<path d="M9.16973 17.7111L9.08936 17.2212L10.3151 17.5941L10.8357 17.7611C10.8938 17.7782 10.9803 17.8112 11.0392 17.7998C11.1658 17.7755 11.3106 17.709 11.4336 17.6647C11.7792 17.5403 12.1076 17.392 12.4335 17.2234L12.6193 17.5849C12.0928 17.7725 11.6236 17.9451 11.0496 17.9364C10.6412 17.9302 10.2189 17.8298 9.81609 17.7627C9.63376 17.7323 9.34674 17.6655 9.16973 17.7111Z" fill="#BD8033"/>
<path d="M3.41007 43.7754L3.02507 43.7783C2.58033 43.7727 2.23024 43.4765 1.9375 43.1776L2.02668 42.9459C2.04637 42.8794 2.06298 42.8437 2.10277 42.7881C2.31852 42.9251 2.52105 43.0402 2.76858 43.1087L2.81702 43.1227C2.97772 43.1681 3.17084 43.1755 3.33522 43.1463L3.64587 42.7967C3.71515 42.9216 3.80786 43.0638 3.77448 43.2136C3.73962 43.3703 3.52277 43.6587 3.41007 43.7754Z" fill="#B0B2C7"/>
<path d="M15.6448 45.4606C15.3555 45.5411 15.0349 45.6359 14.7301 45.6162C14.6501 45.6111 14.561 45.5959 14.5076 45.5311C14.3883 45.3864 14.0529 44.5304 14.0734 44.3939C14.1269 44.3396 14.1453 44.3094 14.2203 44.29L14.2457 44.3417L14.2058 44.4245L14.2293 44.4544C14.4084 44.5386 14.6867 44.4737 14.8798 44.4528C15.0335 44.7781 15.2582 45.1668 15.5509 45.389L15.6448 45.4606Z" fill="#6F7180"/>
<path d="M6.7843 30.6105L6.90491 30.1338C7.73321 30.4081 8.581 30.5796 9.4552 30.5927C9.77356 30.5974 10.0963 30.5649 10.4138 30.5419L10.4273 30.9342C10.1131 30.9227 9.79699 30.9605 9.48241 30.9655C9.03926 30.9725 8.59333 30.9414 8.15273 30.8975C7.68213 30.8506 7.2272 30.7839 6.7843 30.6105Z" fill="#382838"/>
<path d="M12.8484 17.5913L13.404 17.1975C13.6794 17.7254 13.7197 18.3295 13.823 18.9039C13.8466 19.0348 13.8382 19.1712 13.8464 19.3038L13.889 19.8346C13.8992 20.0975 13.8936 20.3734 13.9219 20.634C13.9271 20.6819 13.9267 20.6571 13.9177 20.7045C13.8942 20.827 13.9171 20.9769 13.9215 21.102C13.9328 21.419 13.9645 21.7793 13.9175 22.0928C13.8758 21.9482 13.8803 21.7941 13.8677 21.6447L13.7838 20.8856C13.7254 20.4914 13.6303 20.1037 13.5377 19.7165C13.3646 18.9931 13.1592 18.2694 12.8484 17.5913Z" fill="#6F7180"/>
<path d="M0.330448 45.9082C0.776775 46.5135 1.412 47.0659 2.03976 47.4788C2.92262 48.0593 3.98522 48.4581 5.0512 48.4128C5.22269 48.4055 5.3987 48.4022 5.56691 48.3657C5.78132 48.3191 5.9728 48.2655 6.16935 48.1655C6.21223 48.1437 6.1885 48.147 6.23784 48.1573C6.23859 48.2525 6.22809 48.3252 6.1978 48.4155L6.15677 48.4482C5.69836 48.7626 4.58364 48.7079 4.05276 48.608C2.87915 48.3872 1.82928 47.716 0.951247 46.9334C0.691577 46.7019 0.412213 46.4468 0.216553 46.1584L0.330448 45.9082Z" fill="#F2C982"/>
<path d="M6.75037 27.2202C6.91887 26.8485 7.11945 26.5194 7.37102 26.1975C7.69435 26.4772 7.98033 26.5001 8.36707 26.645C8.35852 26.7432 8.35842 26.8647 8.32778 26.958C8.19389 27.3657 7.84753 27.7334 7.54832 28.026L7.17784 27.8413L6.75037 27.2202Z" fill="#F2C982"/>
<path d="M16.6247 48.0633L15.755 48.2659L15.0508 45.8767C15.2813 45.8403 15.5007 45.7824 15.7211 45.7058C15.8163 46.086 15.9569 46.4723 16.0902 46.8411C16.2407 47.2573 16.394 47.6841 16.6247 48.0633Z" fill="#7E5434"/>
<path d="M3.40985 43.7752C3.33356 43.9073 3.27363 44.0075 3.15043 44.1019C2.60613 44.145 2.21685 44.0233 1.74849 43.757C1.4552 43.5902 1.12978 43.3086 1.04159 42.9696C0.974501 42.7114 1.0315 42.3316 1.17842 42.1061C1.25765 41.9845 1.40929 41.8732 1.55253 41.8466C1.60714 41.8365 1.60102 41.8307 1.64971 41.8629L1.5764 42.1639C1.72665 42.4178 1.88899 42.5893 2.10255 42.7879C2.06277 42.8435 2.04615 42.8792 2.02646 42.9457L1.93728 43.1774C2.23003 43.4763 2.58012 43.7725 3.02485 43.7781L3.40985 43.7752Z" fill="#6F7180"/>
<path d="M9.15344 4.87155L9.20019 4.54419C9.58893 4.75248 10.0058 4.93223 10.4485 4.97749C11.0242 5.03632 11.5232 5.02314 12.0956 4.91915L12.1126 4.94277C12.3077 5.20712 12.6057 5.36025 12.904 5.48066C13.3441 5.65822 13.7925 5.76893 14.2612 5.83831C14.1661 5.95718 14.0682 6.07197 13.9992 6.20854C13.7689 6.17074 13.5351 6.14926 13.3086 6.09216C12.6874 5.93549 12.1118 5.66603 11.5122 5.4542C11.3 5.3792 11.0734 5.35234 10.863 5.27918C10.7538 5.24123 10.65 5.18533 10.5388 5.1535C10.271 5.07681 9.98408 5.09128 9.71327 5.02662C9.5476 4.98709 9.3122 4.84957 9.15344 4.87155Z" fill="#E1AD72"/>
<path d="M13.6803 25.5183C13.7032 25.4702 13.7181 25.4371 13.726 25.3837L13.8695 24.5888C14.0776 24.5325 14.2366 24.3451 14.3952 24.2041C14.4046 24.4615 14.3933 24.733 14.4192 24.9885C14.4531 25.3237 14.544 25.668 14.672 25.9792C14.7323 26.1259 14.7823 26.2488 14.9006 26.3589L14.9191 26.3757C14.8748 26.5017 14.1748 27.0969 14.0311 27.2268C13.9312 26.7152 13.7973 26.2556 13.6035 25.7717C13.6401 25.7158 13.6531 25.6898 13.6539 25.622C13.6544 25.5768 13.6513 25.556 13.6803 25.5183Z" fill="#BD8033"/>
<path d="M8.98755 1.32127L9.30864 1.11652C10.3115 0.584073 11.4659 1.0159 12.4714 1.32742C13.4037 1.61626 14.6051 1.92682 15.5193 1.42977C15.9213 1.21117 16.1539 0.940722 16.287 0.502686C16.4998 0.708158 16.6513 0.964779 16.7813 1.22804L16.7285 1.24143L16.4054 0.889176C16.0779 1.40785 15.6483 1.72749 15.047 1.86467C13.5866 2.19784 12.133 1.38155 10.7102 1.17491C10.407 1.13088 10.1199 1.12308 9.81545 1.15671C9.66937 1.17284 9.52081 1.20344 9.37892 1.24179C9.2688 1.27155 9.09791 1.34771 8.98755 1.32127Z" fill="#BD8033"/>
<path d="M14.8946 23.5418C14.5742 23.6255 14.2867 23.8688 14.0281 24.0673C14.031 23.6973 14.1136 23.3249 14.1297 22.9534C14.1786 21.8288 14.2314 20.6611 14.1214 19.5398C14.0612 18.9261 13.9458 18.3427 13.8124 17.7427L14.4204 18.8892C14.361 19.0298 14.4109 19.1884 14.4239 19.3391L14.4518 19.8922L14.4499 21.0125C14.441 21.3681 14.4255 21.754 14.4759 22.1061C14.5461 22.5971 14.6893 23.0482 14.8475 23.5169L14.8946 23.5418Z" fill="#BD8033"/>
<path d="M21.7452 46.0244L21.8018 46.3434C21.7166 46.4388 21.6246 46.5144 21.521 46.5887C21.2437 46.7873 20.9397 46.9488 20.6397 47.11C19.6849 47.6232 18.7023 47.9757 17.6627 48.2731C17.098 48.4347 16.4588 48.6401 15.8689 48.5399C15.8155 48.5148 15.7974 48.4908 15.7571 48.4483C15.764 48.4358 15.7669 48.4201 15.7779 48.4111C15.797 48.3953 16.0285 48.3873 16.0685 48.3825C16.2651 48.3594 16.4709 48.3041 16.663 48.2565C17.7018 47.9989 18.6657 47.6052 19.6361 47.1619C20.3677 46.8277 21.0831 46.4869 21.7452 46.0244Z" fill="#F2C982"/>
<path d="M14.8796 44.4527C15.3752 44.3665 15.8136 44.2078 16.2217 43.9068C16.3203 43.8341 16.457 43.7321 16.5244 43.6292C16.5443 43.5989 16.548 43.5766 16.555 43.5416L16.5328 43.4916C16.4463 43.4982 16.3605 43.5942 16.299 43.5665C16.2909 43.4915 16.2753 43.4703 16.3214 43.4081C16.4775 43.4008 16.5869 43.4205 16.7048 43.53C16.9216 43.7313 16.9578 44.2514 16.9846 44.5335C16.7238 45.0017 16.1361 45.298 15.6446 45.4605L15.5507 45.3889C15.258 45.1667 15.0333 44.778 14.8796 44.4527Z" fill="#B0B2C7"/>
<path d="M2.23011 19.9434C2.32486 20.2779 2.29502 20.6451 2.48675 20.9508C2.01217 21.7113 1.5169 22.5247 1.18487 23.3604C1.09902 23.5764 1.0653 23.8055 0.987169 24.0219L0.56004 24.4588C0.493594 24.529 0.426897 24.6234 0.333493 24.6558C0.316335 24.0122 0.465542 23.4296 0.689253 22.8302C1.07545 21.7953 1.6398 20.8713 2.23011 19.9434Z" fill="#6F7180"/>
<path d="M6.83505 20.6174L6.84182 20.6616C6.85152 20.7227 6.88544 20.7773 6.89026 20.8373C6.91155 21.1017 6.86967 21.3973 6.86231 21.6643C6.8453 22.2789 6.84331 22.8711 6.912 23.4824C6.92816 23.626 6.92518 23.8059 7.00217 23.93C6.98988 24.0113 6.91757 24.1308 6.88285 24.2072C6.74573 24.5092 6.60503 24.8979 6.40489 25.157L6.02491 24.8755C6.05212 24.3585 6.0455 23.8398 6.01347 23.3231L5.92325 22.2174C5.91664 22.1526 5.87247 22.0129 5.88416 21.9559C5.90177 21.8697 6.17447 21.6338 6.24504 21.5564C6.46905 21.3111 6.75339 20.9807 6.82824 20.6496L6.83505 20.6174Z" fill="#BD8033"/>
<path d="M3.38247 39.7516C3.36601 39.75 3.34318 39.747 3.32716 39.7501C3.24858 39.7656 3.23336 39.8409 3.20019 39.9051C3.21446 39.9662 3.21078 39.9356 3.21173 39.9967C3.17164 40.024 3.13777 40.0449 3.11106 40.0864C3.06874 40.1522 3.07038 40.1578 3.08823 40.2342C3.01378 40.3072 2.97683 40.3607 2.94186 40.458L2.96658 40.5077C2.94579 40.5189 2.92301 40.5297 2.90555 40.5462C2.86119 40.5878 2.80489 40.7127 2.8035 40.7743L2.80608 40.7994C2.73342 40.8806 2.67886 40.9873 2.65006 41.0921C2.62788 41.1727 2.58511 41.209 2.5581 41.2817C2.48032 41.4915 2.38318 41.7033 2.27585 41.9003L2.29724 41.9625C2.19105 42.0729 2.10904 42.318 2.08875 42.4678L2.08566 42.4932L2.06806 42.5017C1.96351 42.3968 1.86757 42.2988 1.7876 42.1732C1.88229 41.7182 2.09964 41.2602 2.27187 40.8293L2.81742 39.4793C3.30468 38.397 3.89052 37.3585 4.4863 36.3333C4.5519 36.3851 4.63541 36.7659 4.66366 36.8612L4.75084 37.2417C4.67017 37.2522 4.67385 37.2614 4.62044 37.3246C4.61119 37.4207 4.59348 37.4659 4.54658 37.5484C4.50172 37.5673 4.50958 37.5736 4.45979 37.5564L4.43637 37.5857L4.48456 37.6123C4.50032 37.6831 4.46064 37.7293 4.42164 37.7878C4.4022 37.817 4.38484 37.8368 4.35868 37.8593C4.35739 37.897 4.3633 37.9179 4.34246 37.9498C4.29139 38.0279 4.24205 38.1215 4.20833 38.2064L4.17341 38.2572C4.09782 38.3852 4.04415 38.5183 3.96069 38.6426C3.90464 38.726 3.84635 38.8633 3.80472 38.9588C3.78752 38.9983 3.7716 39.0178 3.74987 39.0529L3.52725 39.4576L3.48532 39.4633L3.50208 39.5379L3.47881 39.5705C3.45021 39.6135 3.44688 39.6426 3.42713 39.6871L3.38913 39.7509L3.38247 39.7516Z" fill="#382838"/>
<path d="M10.7703 16.8054L9.25953 15.4415C9.24595 15.3318 9.34881 15.1278 9.36487 15.0016C9.4168 14.5941 9.43609 14.1987 9.43788 13.7886C9.67756 13.9628 9.91505 14.1452 10.1715 14.2943C10.6008 14.5441 11.0501 14.7167 11.5176 14.8797L11.4851 15.139L11.4566 15.0431C11.4068 15.0589 11.3954 15.0581 11.3717 15.1087C11.3211 15.2165 11.3058 15.3843 11.2735 15.5036C11.169 15.8899 11.0536 16.2725 10.87 16.6296C10.8477 16.6728 10.8078 16.7768 10.7703 16.8054Z" fill="#AD7246"/>
<path d="M7.83969 11.0519C7.56634 11.2263 7.2459 11.4427 6.90322 11.4169L6.87184 11.4142C6.66489 11.402 6.48803 11.3675 6.29988 11.2745C5.96182 11.1075 5.70673 10.8169 5.59114 10.4587C5.46909 10.0804 5.49854 9.73229 5.68226 9.38379C5.68962 9.42094 5.6848 9.44869 5.71548 9.47277L6.13192 9.48167C6.4173 9.40816 6.67563 9.40105 6.93868 9.55911C7.1042 9.65858 7.23177 9.82594 7.32965 9.98962C7.39804 9.90532 7.51944 9.81957 7.56913 9.73527C7.67283 9.83713 7.77225 9.84354 7.91519 9.85881L7.83969 11.0519Z" fill="#AD7246"/>
<path d="M6.1316 9.48181C6.41698 9.4083 6.67531 9.40119 6.93836 9.55925C7.10388 9.65872 7.23145 9.82608 7.32933 9.98976L7.38131 10.0899C7.42851 10.2009 7.40971 10.5398 7.35176 10.6514C7.32506 10.7029 7.30795 10.7129 7.25697 10.73C7.18202 10.6322 7.22046 10.3524 7.18425 10.212C7.12835 9.99528 6.9305 9.78176 6.73271 9.68085C6.48239 9.55318 6.17328 9.64668 5.92505 9.72332L6.1316 9.48181Z" fill="black"/>
<path d="M12.9627 15.2849C13.0759 15.5341 13.3028 15.982 13.1894 16.2524C13.0138 16.671 12.3196 16.9722 11.9429 17.1727C11.6291 17.3397 11.309 17.5112 11.0263 17.728L10.4107 17.4432C10.367 17.3629 10.27 17.3285 10.193 17.2858L9.5142 16.9386L8.88619 16.5754C8.59698 16.3976 8.29339 16.2015 8.07451 15.9377C8.01209 15.8625 7.96942 15.8041 7.97852 15.7019C8.10778 15.606 8.88221 15.6192 9.1017 15.5811L10.0248 16.429L10.5372 16.8721C10.639 16.96 10.7454 17.0334 10.8034 17.1566L10.86 17.2631L11.8734 16.3935C11.9261 16.3843 11.9468 16.3765 11.9882 16.3406C12.1797 16.1742 12.3905 16.0205 12.5656 15.8365C12.726 15.668 12.8406 15.4808 12.9627 15.2849Z" fill="#E3AE40"/>
<path d="M4.90131 37.0153C4.84411 36.9318 4.81223 36.8322 4.78577 36.7354L4.77443 36.6928C4.70988 36.4583 4.72639 36.232 4.76264 35.9936C4.88912 35.1624 5.14168 34.337 5.32958 33.5164L5.83892 31.2017L6.08656 29.7239L6.80603 30.0903C6.77326 30.3074 6.71765 30.5048 6.66523 30.7172L6.38596 31.7037C6.35612 31.8189 6.29873 31.9412 6.29445 32.0593C6.29211 32.1237 6.27068 32.1525 6.24153 32.2076C6.20473 32.2771 6.19324 32.3381 6.19881 32.4171L6.20716 32.457L6.2577 32.5011L6.2483 32.5218C6.23074 32.5638 6.22532 32.6051 6.21751 32.6496C6.21095 32.6871 6.19866 32.7137 6.18747 32.7491L6.16723 32.8486C6.16051 32.8852 6.15027 32.9134 6.13773 32.9481L6.08646 33.1213C6.06716 33.1801 6.05995 33.2374 6.03826 33.2962L5.98728 33.4694L5.92944 33.6855C5.91701 33.7438 5.89 33.7952 5.87508 33.8556L5.85011 33.9302C5.83092 33.9925 5.81485 34.0434 5.78959 34.1044C5.7783 34.1317 5.77501 34.1619 5.76954 34.1906C5.76218 34.2288 5.75 34.255 5.73736 34.2909L5.65212 34.5529L5.60223 34.726L5.59044 34.7649C5.57915 34.7994 5.56652 34.8213 5.54563 34.8505C5.55881 34.906 5.56732 34.8988 5.53907 34.9531C5.52186 34.9862 5.51107 35.0131 5.50211 35.0493C5.48615 35.1137 5.46541 35.1623 5.44144 35.2235L5.42806 35.2731L5.41577 35.3088L5.36574 35.4846L5.35475 35.5204L5.32267 35.6034C5.30606 35.6423 5.29969 35.6678 5.29223 35.7084C5.28348 35.756 5.26865 35.7992 5.25358 35.845L5.24185 35.8823C5.22509 35.9324 5.23344 35.9083 5.21002 35.957C5.18997 35.9987 5.18972 36.0256 5.17928 36.0688L5.15406 36.1434L5.14292 36.1815C5.1288 36.2234 5.10886 36.2473 5.08075 36.2804L5.08966 36.3301L5.0806 36.3503C4.9971 36.5457 4.93965 36.8072 4.90131 37.0153Z" fill="#382838"/>
<path d="M6.20728 32.4568L6.11323 32.5154C6.10697 32.4746 6.10741 32.4498 6.11632 32.4088C6.17063 32.1584 6.45616 30.7671 6.58572 30.6699L6.66535 30.7171L6.38608 31.7035C6.35624 31.8188 6.29885 31.9411 6.29457 32.0591C6.29223 32.1235 6.2708 32.1523 6.24165 32.2074C6.20485 32.2769 6.19336 32.338 6.19893 32.4169L6.20728 32.4568Z" fill="#5B4B56"/>
<path d="M0.986957 24.022C0.977756 24.1719 0.97517 24.306 0.995313 24.4555L1.00078 24.4982C1.10886 25.299 1.67023 25.9002 2.29242 26.3648C3.10724 26.9732 4.05614 27.3322 5.0416 27.5467L4.97625 27.8366C4.58209 27.8408 4.16277 27.8724 3.77081 27.8353C3.49353 27.8092 3.20551 27.7327 2.93749 27.6581C2.33166 27.4896 1.67217 27.2434 1.2141 26.7961C0.692076 26.2864 0.342883 25.4752 0.331543 24.7457L0.333282 24.6558C0.426686 24.6234 0.493382 24.529 0.559829 24.4588L0.986957 24.022Z" fill="#3E4456"/>
<path d="M10.8574 30.2235C10.5968 30.3152 10.2657 30.3084 9.99072 30.3128C9.82748 30.3154 9.66535 30.3398 9.50152 30.3397C8.9407 30.3393 8.33626 30.2729 7.7922 30.1373C7.09486 29.9634 6.4113 29.6737 5.84376 29.2276C5.65646 29.0804 5.45995 28.9075 5.3388 28.6995C5.15995 28.3924 5.22182 27.93 5.30642 27.5962L5.47776 27.6402L6.18749 27.806C6.23459 27.8164 6.34992 27.8512 6.39712 27.8316C6.42433 27.8203 6.46904 27.7319 6.51116 27.7068C6.67723 27.8367 6.84245 27.9433 7.03583 28.0288C7.14311 28.0763 7.29694 28.0958 7.38626 28.167L7.31852 28.2389L7.29803 28.2589L7.34538 28.2895L7.28465 28.3232C7.50553 28.7568 7.80971 29.1759 8.21461 29.4541L8.2441 29.4747C8.6967 29.7853 9.2218 29.9427 9.75333 30.0539C9.91149 30.087 10.0749 30.1229 10.2356 30.1396C10.3932 30.156 10.7318 30.1331 10.8574 30.2235Z" fill="#BD8033"/>
<path d="M10.4109 17.4434C10.1488 17.385 9.89122 17.2817 9.63821 17.1917C9.3205 17.0787 9.00339 16.9719 8.69617 16.8315C8.25745 16.6309 7.83883 16.3697 7.43318 16.1102C7.25846 15.9985 7.05335 15.8873 6.91086 15.7368C6.81656 15.6372 6.75608 15.5008 6.70973 15.3725C6.51268 14.8271 6.64657 14.2114 6.88246 13.7009L7.01217 13.6523C7.51793 13.4901 8.00126 13.4616 8.52771 13.4615C8.66295 13.4615 8.85632 13.4395 8.97543 13.51L9.21352 13.6593C9.21277 14.1867 9.19149 14.7485 9.1046 15.2698L8.3801 14.2721L8.35215 14.3093C8.3517 14.4698 8.41904 14.5948 8.49116 14.7333C8.65862 15.0547 8.85876 15.3129 9.10186 15.5813C8.88238 15.6194 8.10795 15.6062 7.97868 15.7021C7.96958 15.8043 8.01225 15.8627 8.07467 15.9379C8.29356 16.2018 8.59715 16.3979 8.88636 16.5756L9.51437 16.9388L10.1932 17.286C10.2702 17.3287 10.3671 17.3631 10.4109 17.4434Z" fill="#BD8033"/>
<path d="M2.38538 15.1708C2.42999 15.018 2.47649 14.8407 2.58904 14.7232C2.69354 14.6141 2.89551 14.5415 3.03308 14.4747C4.15333 13.931 5.4666 13.6716 6.70755 13.605C6.58987 13.8455 6.47344 14.1175 6.43221 14.3843C6.396 14.6187 6.41028 14.8868 6.42649 15.1228C6.17488 15.3482 5.85747 15.523 5.56065 15.6817C5.02395 15.9688 4.3273 16.3283 3.70536 16.3003C3.62887 16.2968 3.56013 16.2795 3.48717 16.2578L3.45111 16.2474C2.98016 16.1075 2.63759 15.5667 2.38538 15.1708Z" fill="#6F7180"/>
<path d="M14.4202 18.8889C15.1036 20.2428 15.7012 21.7284 16.0378 23.2099C16.1437 23.6761 16.183 24.1493 16.273 24.6158C15.9354 25.2705 15.4301 25.8504 14.9188 26.3757L14.9004 26.359C14.7821 26.2488 14.7321 26.1259 14.6717 25.9792C14.5437 25.668 14.4529 25.3237 14.419 24.9885C14.3931 24.733 14.4044 24.4615 14.3949 24.2041C14.5041 24.11 14.6135 24.0042 14.7309 23.9208C14.8283 23.8517 14.9248 23.806 15.0136 23.7219C14.9842 23.6256 14.9642 23.6095 14.8944 23.5415L14.8473 23.5166C14.6891 23.0479 14.546 22.5968 14.4757 22.1058C14.4253 21.7537 14.4408 21.3677 14.4497 21.0122L14.4516 19.8919L14.4237 19.3388C14.4107 19.1881 14.3608 19.0295 14.4202 18.8889Z" fill="#E3AE40"/>
<path d="M15.0559 44.2167C14.9282 44.2803 14.6635 44.2663 14.517 44.276C14.3139 43.8516 14.1782 43.3987 14.0019 42.9623L13.329 41.2479C13.0329 40.5061 12.7474 39.7686 12.5735 38.9859C12.4969 38.6413 12.4462 38.2795 12.4665 37.926C12.474 37.7946 12.5795 37.5187 12.539 37.4198C12.4841 37.286 12.3651 37.1394 12.2871 37.015L11.6522 35.9932L10.5497 34.0424L9.96985 32.9665L10.4069 32.7463C10.4886 32.9594 10.6062 33.1305 10.7193 33.3255C10.7987 33.4624 10.8646 33.6118 10.9565 33.7406C10.9914 33.7894 10.993 33.7828 11.053 33.7924L11.0877 33.8181L11.1223 33.8309C11.1822 33.9238 11.2413 34.0034 11.236 34.117L11.2557 34.1356C11.314 34.1919 11.3409 34.2275 11.3722 34.3034C11.3951 34.3587 11.422 34.4046 11.4576 34.4524C11.4991 34.5081 11.5271 34.5642 11.5565 34.6265L11.5096 34.6859L11.522 34.7094L11.5842 34.6889C11.6845 34.8015 11.7306 34.9341 11.808 35.0619C11.8627 35.1524 11.8907 35.2379 11.9549 35.3228L12.0793 35.5217L12.0678 35.5963L12.094 35.612C12.1397 35.6422 12.1563 35.6615 12.181 35.7085L12.256 35.8341C12.2837 35.8768 12.298 35.908 12.294 35.959L12.3399 35.972C12.3908 36.0416 12.4215 36.1002 12.45 36.1807C12.4657 36.2252 12.4761 36.2337 12.5069 36.2667C12.5459 36.3085 12.5636 36.3428 12.5912 36.3923L12.6217 36.4365C12.6559 36.4877 12.6448 36.4631 12.6575 36.5111C12.6701 36.5593 12.6965 36.5774 12.726 36.6159L12.7757 36.6905L12.8007 36.727L12.8723 36.8522C12.843 36.8968 12.8147 36.936 12.7778 36.9748L12.8353 37.265C12.9234 37.5002 12.9933 37.7533 13.0374 37.9961L13.0683 38.0582C13.1772 38.3142 13.2483 38.6144 13.3296 38.882C13.3718 39.0207 13.4347 39.1373 13.4477 39.2845C13.4823 39.3282 13.4957 39.3493 13.5101 39.4013L13.5223 39.437L13.5733 39.6125L13.653 39.8744L13.697 40.0105C13.7164 40.0686 13.7272 40.1259 13.7474 40.1844L13.7778 40.2972L13.8708 40.5817C13.8862 40.6285 13.8811 40.6133 13.8897 40.6649C13.8971 40.7096 13.907 40.7178 13.9215 40.7564L14.021 41.0548C14.0335 41.0888 14.043 41.122 14.0578 41.1552C14.0725 41.1884 14.0656 41.1704 14.0741 41.208C14.0912 41.2838 14.1221 41.3464 14.1363 41.4256C14.1488 41.4944 14.1806 41.5557 14.1953 41.627L14.2199 41.6765L14.2696 41.8257L14.3431 42.0247L14.3561 42.0612L14.4188 42.2485L14.4437 42.3231L14.4561 42.3596L14.5178 42.5469L14.5552 42.6589L14.5739 42.6946C14.5969 42.7419 14.5835 42.7516 14.5932 42.7958L14.6178 42.8453L14.6297 42.9076C14.6662 43.0527 14.7397 43.1885 14.7789 43.3304C14.8051 43.4252 14.8538 43.5776 14.8975 43.6652C14.9183 43.707 14.9269 43.7472 14.9472 43.7893C14.9703 43.8373 14.9574 43.8479 14.9662 43.894L14.9908 43.9519L15.0032 44.0018L15.0154 44.0383C15.0265 44.0726 15.0334 44.1033 15.0402 44.1384L15.0559 44.2167Z" fill="#382838"/>
<path d="M12.8355 37.2649C12.9237 37.5001 12.9936 37.7532 13.0377 37.996L13.0686 38.0582C13.1775 38.3141 13.2486 38.6144 13.3299 38.8819C13.3721 39.0207 13.435 39.1372 13.4479 39.2845L13.383 39.2471C13.2769 39.0596 13.2353 38.8037 13.1657 38.5975C13.1051 38.418 12.9941 38.2125 12.9683 38.0261L12.9662 37.996C12.9344 37.9733 12.8663 37.935 12.8462 37.9054C12.8185 37.865 12.7739 37.5998 12.766 37.536C12.7526 37.4278 12.7728 37.3522 12.8355 37.2649Z" fill="black"/>
<path d="M8.3079 6.5321L7.3853 8.34989C7.54366 8.25623 7.66666 8.15696 7.79299 8.02471L7.79885 8.04545L7.80756 8.08027L7.83461 8.19869C7.87967 8.54236 7.86152 8.91881 7.86565 9.26776C7.86689 9.37325 7.9029 9.65475 7.84158 9.73214C7.78831 9.72095 7.753 9.71871 7.71425 9.67559C7.66149 9.61695 7.63334 9.51206 7.60349 9.43915C7.51238 9.21663 7.38719 9.02957 7.17691 8.90563C6.87432 8.72733 6.48474 8.68182 6.14594 8.77527L6.11212 8.78497L6.07373 8.72295C5.87976 8.3753 5.7691 7.95419 5.65565 7.57406C5.48272 6.99449 5.34326 6.41975 5.24289 5.82337C5.17525 5.42121 5.10164 4.95971 5.21037 4.56073L5.93114 4.1626C6.03837 4.85362 6.78425 5.95939 7.3394 6.37389L7.41883 6.42492L7.45578 6.448C7.78244 6.64853 7.9601 6.5788 8.3079 6.5321Z" fill="#472F24"/>
<path d="M15.7212 45.706C16.0417 45.5846 16.3255 45.4437 16.5979 45.2344C16.6707 45.1784 16.9144 44.9022 16.9725 44.8925C16.9993 44.888 17.1903 44.9894 17.2291 45.0067C17.0915 45.1276 16.6749 45.4377 16.6607 45.6252C16.6577 45.6656 16.69 45.6978 16.7196 45.722C16.8301 45.8122 17.0289 45.8624 17.1681 45.8926C17.5349 45.9722 17.9024 46.0018 18.274 46.0434C18.4596 46.0641 18.6407 46.0967 18.8277 46.1071C18.928 45.88 19.0225 45.5699 19.2712 45.4678C19.3776 45.4241 19.544 45.4346 19.6588 45.4297C20.1362 45.4092 20.6288 45.4003 21.0703 45.613C21.2316 45.6906 21.3856 45.7844 21.5068 45.9177V45.9611C21.3182 46.1288 21.038 46.255 20.8164 46.3757C19.4774 47.1054 18.0838 47.6318 16.6248 48.0635C16.3942 47.6843 16.2408 47.2575 16.0903 46.8412C15.957 46.4724 15.8164 46.0861 15.7212 45.706Z" fill="#AD7246"/>
<path d="M1.01501 43.9329C1.11498 44.0171 1.21679 44.1114 1.33158 44.1745C1.609 44.3271 2.11819 44.4217 2.43307 44.3929C2.49817 44.387 2.51702 44.3756 2.56606 44.3323L2.58566 44.3157L2.64365 44.3203C2.69637 44.32 2.73069 44.3113 2.78122 44.3311L2.73148 44.3455C2.57183 44.3903 2.37592 44.4575 2.28446 44.6098C2.19981 44.7507 2.27969 45.022 2.32077 45.1742C2.47972 45.7627 2.88541 46.5933 3.44355 46.8976C3.53083 46.9452 3.64398 46.9879 3.74524 46.9745C3.88087 46.9565 4.03297 46.8559 4.16148 46.8051C4.34058 46.7345 4.52525 46.6775 4.70912 46.6208C5.26128 46.939 5.83752 47.417 6.18597 47.9518C5.73447 48.2168 5.10904 48.2518 4.60144 48.2293C4.41031 48.2208 4.23454 48.1791 4.04948 48.1368C3.02438 47.9023 2.00554 47.2839 1.23693 46.5745C0.936178 46.2969 0.689241 45.9867 0.413208 45.6869L1.01501 43.9329Z" fill="#AD7246"/>
<path d="M7.32937 16.7979L8.82681 17.4483C9.1372 19.1329 9.13462 20.8716 8.74628 22.5444C8.52019 23.5182 8.17487 24.4398 7.59784 25.2638L7.53338 25.3474C7.34225 25.136 7.39318 24.7589 7.35185 24.4903C7.3241 24.3103 7.2944 24.1387 7.20776 23.9763C7.59098 22.8692 7.77649 21.7039 7.82583 20.5353C7.86621 19.5776 7.81717 18.6127 7.59943 17.6757C7.5301 17.3775 7.42754 17.0875 7.32937 16.7979Z" fill="#6F7180"/>
<path d="M6.52402 27.358C6.48855 27.4504 6.47418 27.5545 6.45359 27.6515L5.10203 27.3495C4.23623 27.124 3.37088 26.7661 2.62415 26.2728C2.27689 26.0434 1.9379 25.7785 1.67569 25.4528C1.41115 25.1242 1.16252 24.6083 1.21887 24.1768L1.22364 24.1446C1.28969 23.6539 1.55613 23.176 1.77899 22.7396C2.32728 21.6659 2.9617 20.6785 3.67332 19.7062C4.2222 18.9564 4.80073 18.2282 5.43709 17.5498C5.61918 17.3557 6.71326 16.2589 6.90897 16.2522L6.96974 16.3625L5.63788 17.8975C4.47038 19.3292 3.44842 20.8538 2.64056 22.5158C2.42187 22.9657 2.11142 23.5523 2.16176 24.0652C2.17474 24.1979 2.24815 24.3335 2.31509 24.4466C2.58257 24.8982 3.01492 25.2494 3.42807 25.5621C4.15695 26.1138 4.95973 26.5649 5.76167 27.0003C5.97996 27.1188 6.28011 27.3198 6.52402 27.358Z" fill="#BD8033"/>
<path d="M6.42645 15.1226C6.45803 15.261 6.49335 15.3933 6.55 15.5238C6.60943 15.6608 6.77987 15.8712 6.79464 16.0033C6.4925 16.2599 6.17733 16.4891 5.88548 16.7605C4.8656 17.7087 3.95738 18.8433 3.15644 19.9815C2.99753 19.5722 2.75238 19.1967 2.57552 18.7928C2.1011 17.7094 1.90061 16.3023 2.37778 15.1856L2.38534 15.1705C2.63754 15.5664 2.98012 16.1072 3.45107 16.2471L3.48713 16.2575C3.56009 16.2793 3.62883 16.2966 3.70532 16.3C4.32726 16.328 5.02391 15.9685 5.56061 15.6815C5.85743 15.5227 6.17484 15.3479 6.42645 15.1226Z" fill="#3E4456"/>
<path d="M6.97004 16.3623C7.17888 16.798 7.28431 17.2802 7.3718 17.7535C7.67161 19.3747 7.63391 21.0221 7.33629 22.64C7.26949 23.0031 7.19996 23.3821 7.07856 23.7315L7.00217 23.9298C6.92518 23.8057 6.92816 23.6258 6.91199 23.4822C6.84331 22.8709 6.8453 22.2787 6.86231 21.6641C6.86967 21.3971 6.91155 21.1015 6.89026 20.8371C6.88544 20.7771 6.85152 20.7225 6.84182 20.6614L6.83505 20.6172L6.83575 20.592C6.84853 20.4659 6.92179 20.322 6.95124 20.1947C6.68416 20.5937 6.41544 20.9683 6.09598 21.3292L5.5839 21.8566C5.07466 22.4084 4.73576 22.9503 4.5028 23.6653C4.31018 23.5785 4.12839 23.4843 3.91239 23.4855C3.88021 23.4856 3.86072 23.4747 3.83048 23.4688C3.50158 23.4046 3.09434 23.6743 2.83865 23.8539L2.81781 23.9082C2.84581 23.9673 2.85253 23.9781 2.90554 24.0156C3.03486 23.9799 3.14815 23.8952 3.26613 23.8326C3.59503 23.6581 3.93845 23.6367 4.26641 23.8207C4.49838 23.9508 4.6812 24.1219 4.88786 24.2857L6.07937 25.2464L7.2112 26.0801C6.86828 26.4645 6.71639 26.8891 6.52431 27.3578C6.2804 27.3196 5.98025 27.1186 5.76196 27.0001C4.96002 26.5648 4.15724 26.1137 3.42836 25.5619C3.01521 25.2492 2.58286 24.898 2.31538 24.4464C2.24844 24.3334 2.17503 24.1977 2.16205 24.0651C2.11171 23.5522 2.42217 22.9655 2.64085 22.5156C3.44871 20.8536 4.47067 19.329 5.63817 17.8974L6.97004 16.3623Z" fill="#E3AE40"/>
<path d="M13.129 30.0715L16.0697 43.5415C16.0518 43.595 16.0461 43.5912 16.0615 43.6492C16.0735 43.6942 16.0746 43.7245 16.0661 43.771C15.7551 44.0011 15.4297 44.1299 15.0559 44.2166L15.0402 44.1383C15.0334 44.1032 15.0265 44.0725 15.0153 44.0382L15.0032 44.0017L14.9908 43.9518L14.9662 43.8939C14.9574 43.8478 14.9703 43.8372 14.9472 43.7892C14.9269 43.7471 14.9183 43.7069 14.8974 43.6652C14.8538 43.5775 14.8051 43.4251 14.7789 43.3303C14.7397 43.1884 14.6661 43.0526 14.6297 42.9075L14.6178 42.8452L14.5931 42.7957C14.5835 42.7515 14.5969 42.7419 14.5739 42.6945L14.5552 42.6588L14.5177 42.5468L14.4561 42.3595L14.4437 42.323L14.4188 42.2484L14.3561 42.0611L14.343 42.0246L14.2696 41.8256L14.2199 41.6764L14.1953 41.6269C14.1806 41.5556 14.1488 41.4944 14.1363 41.4255C14.122 41.3463 14.0912 41.2837 14.0741 41.2079C14.0656 41.1703 14.0725 41.1883 14.0577 41.1551C14.043 41.1219 14.0335 41.0888 14.0209 41.0547L13.9215 40.7563C13.9069 40.7177 13.897 40.7096 13.8896 40.6648C13.8811 40.6132 13.8862 40.6285 13.8708 40.5816L13.7778 40.2971L13.7474 40.1844C13.7271 40.1258 13.7164 40.0685 13.697 40.0104L13.6529 39.8744L13.5733 39.6124L13.5222 39.4369L13.5101 39.4012C13.4957 39.3492 13.4822 39.3281 13.4476 39.2845C13.4346 39.1372 13.3718 39.0207 13.3296 38.8819C13.2483 38.6144 13.1772 38.3141 13.0682 38.0582L13.0374 37.996C12.9933 37.7532 12.9234 37.5001 12.8352 37.2649L12.7778 36.9747C12.8147 36.9359 12.8429 36.8967 12.8723 36.8521L12.8007 36.7269L12.7757 36.6904L12.726 36.6158C12.6965 36.5773 12.6701 36.5592 12.6574 36.511C12.6447 36.4631 12.6559 36.4877 12.6217 36.4364L12.5911 36.3922C12.5636 36.3427 12.5458 36.3085 12.5069 36.2666C12.4761 36.2336 12.4657 36.2251 12.45 36.1807C12.4214 36.1001 12.3908 36.0415 12.3399 35.972L12.294 35.9589C12.2979 35.908 12.2837 35.8768 12.256 35.834L12.181 35.7084C12.1563 35.6615 12.1396 35.6421 12.0939 35.6119L12.0678 35.5963L12.0793 35.5217L11.9549 35.3227C11.8907 35.2379 11.8627 35.1524 11.8079 35.0619C11.7306 34.934 11.6845 34.8014 11.5841 34.6888L11.522 34.7093L11.5095 34.6859L11.5565 34.6264C11.527 34.5641 11.499 34.508 11.4576 34.4523C11.422 34.4045 11.3951 34.3586 11.3722 34.3033C11.3409 34.2274 11.3139 34.1918 11.2557 34.1355L11.236 34.1169C11.2413 34.0033 11.1822 33.9237 11.1223 33.8308L11.0876 33.8181L11.053 33.7923C11.0266 33.6348 10.9206 33.5004 10.8407 33.3654L10.4479 32.7016C10.9443 32.3805 11.3628 31.9973 11.783 31.5837C11.5686 31.6921 11.3747 31.8701 11.1782 32.0093L10.5149 32.4464C10.6387 31.976 10.6303 31.4228 10.6184 30.9387C10.6752 30.8809 10.7826 30.8834 10.863 30.869L11.2888 30.7733C11.6909 30.6623 12.0941 30.5358 12.4794 30.375L13.129 30.0715Z" fill="#4D3C46"/>
<path d="M6.78423 30.6106C7.22712 30.784 7.68205 30.8507 8.15265 30.8976C8.59326 30.9415 9.03919 30.9726 9.48233 30.9656C9.79691 30.9606 10.113 30.9228 10.4273 30.9343C10.4258 31.4672 10.4191 32.0383 10.2927 32.5572L9.60742 32.8871C9.54341 32.9143 9.32189 32.9733 9.28294 33.0148C9.24365 33.0568 9.19879 33.1924 9.17621 33.2489C8.25948 35.5413 7.04544 37.6826 5.61644 39.694L4.30382 41.4369L3.39803 42.6797C3.32905 42.7691 3.25937 42.8993 3.17173 42.9683C2.80757 42.9061 2.46598 42.786 2.16394 42.5691C2.34329 41.9823 2.60604 41.4101 2.86675 40.8558C2.92425 40.7335 2.97856 40.5722 3.0473 40.4621C3.1786 40.2519 3.28821 39.9811 3.38246 39.7515L3.38913 39.7509L3.42713 39.687C3.44687 39.6425 3.4502 39.6134 3.4788 39.5704L3.50208 39.5378L3.48532 39.4632L3.52724 39.4575L3.74986 39.0529C3.77159 39.0178 3.78751 38.9983 3.80472 38.9588C3.84635 38.8633 3.90464 38.726 3.96069 38.6425C4.04414 38.5183 4.09781 38.3852 4.17341 38.2571L4.20832 38.2063C4.24204 38.1215 4.29138 38.0279 4.34246 37.9497C4.3633 37.9178 4.35738 37.8969 4.35867 37.8592C4.38483 37.8367 4.40219 37.8169 4.42164 37.7877C4.46063 37.7292 4.50032 37.683 4.48455 37.6123L4.43636 37.5857L4.45979 37.5563C4.50957 37.5735 4.50171 37.5672 4.54657 37.5484C4.59347 37.4659 4.61118 37.4206 4.62043 37.3246C4.67385 37.2613 4.67017 37.2521 4.75084 37.2416C4.79873 37.3041 4.79356 37.314 4.8701 37.3248L4.93158 37.2748C4.96092 37.1734 4.93531 37.1126 4.90169 37.015C4.94003 36.8069 4.99748 36.5454 5.08098 36.35L5.09003 36.3298L5.08113 36.2801C5.10923 36.2471 5.12918 36.2232 5.1433 36.1813L5.15444 36.1432L5.17966 36.0686C5.1901 36.0253 5.19035 35.9985 5.2104 35.9568C5.23382 35.908 5.22546 35.9322 5.24223 35.8821L5.25396 35.8448C5.26903 35.799 5.28385 35.7557 5.29261 35.7081C5.30007 35.6676 5.30643 35.642 5.32305 35.6032L5.35513 35.5201L5.36612 35.4843L5.41615 35.3086L5.42844 35.2728L5.44181 35.2232C5.46579 35.162 5.48653 35.1134 5.50249 35.049C5.51144 35.0128 5.52224 34.9859 5.53945 34.9528C5.5677 34.8985 5.55919 34.9057 5.54601 34.8502C5.5669 34.8211 5.57953 34.7992 5.59082 34.7646L5.60261 34.7257L5.65249 34.5526L5.73774 34.2907C5.75037 34.2547 5.76256 34.2286 5.76992 34.1904C5.77539 34.1617 5.77867 34.1314 5.78996 34.1042C5.81523 34.0431 5.83129 33.9923 5.85049 33.9299L5.87546 33.8553C5.89038 33.7949 5.91739 33.7435 5.92982 33.6853L5.98766 33.4691L6.03864 33.296C6.06033 33.2371 6.06754 33.1798 6.08683 33.121L6.13811 32.9478C6.15065 32.9132 6.16089 32.8849 6.16761 32.8483L6.18785 32.7489C6.19904 32.7134 6.21132 32.6868 6.21789 32.6494C6.2257 32.6048 6.23112 32.5636 6.24867 32.5215L6.25808 32.5008L6.20754 32.4567L6.19919 32.4168L6.2634 32.404C6.35794 32.1762 6.40559 31.928 6.47567 31.6917C6.5818 31.3337 6.70003 30.9748 6.78423 30.6106Z" fill="#4D3C46"/>
<path d="M8.9876 1.3215C9.09797 1.34794 9.26886 1.27178 9.37897 1.24201C9.52087 1.20367 9.66943 1.17307 9.8155 1.15694C10.1199 1.12331 10.4071 1.13111 10.7102 1.17514C12.1331 1.38178 13.5867 2.19807 15.047 1.8649C15.6483 1.72772 16.078 1.40808 16.4054 0.889404L16.7286 1.24166L16.7813 1.22827C17.0138 1.63271 17.1475 2.2174 17.032 2.6733C16.9553 2.97602 16.7905 3.23344 16.6301 3.49703C16.9446 3.4917 17.2551 3.21115 17.4975 3.04009C17.6173 3.07463 17.6716 3.07423 17.7351 3.19378C17.8232 3.3598 17.8941 3.55095 17.9525 3.72949C17.9696 3.7818 18.0021 3.96209 18.0303 3.99315C18.0368 4.00032 18.0485 3.99997 18.0575 4.00345L18.0767 4.01104C17.9869 4.31537 17.8663 4.54709 17.6674 4.79477L17.666 4.79552L17.6426 4.80452C17.514 4.85615 17.4146 4.94408 17.2986 5.01729C17.0882 5.15008 16.8589 5.26263 16.6199 5.33386C16.4123 5.39573 16.2003 5.41572 15.9859 5.4389C15.105 5.53424 14.3001 5.3735 13.4376 5.23334C13.2556 5.20375 12.9895 5.11353 12.8141 5.1476C12.6643 5.08453 12.5088 5.00018 12.388 4.89116L12.9901 4.67869C13.3642 4.52018 13.7806 4.24455 13.9295 3.84863C13.9561 3.77793 13.9662 3.73266 13.9355 3.66303L13.8969 3.65866C13.6077 4.13881 13.1111 4.37799 12.5919 4.53142C11.7874 4.87649 10.6303 4.85709 9.79849 4.61816C9.62084 4.56713 9.44318 4.50317 9.27149 4.43489C9.19396 4.4041 9.13144 4.36118 9.04878 4.34307L9.02908 4.41638C9.04147 4.65298 8.92687 4.94124 8.84735 5.16495L8.30792 6.53223C7.96012 6.57894 7.78246 6.64867 7.4558 6.44813L7.41884 6.42505L7.33942 6.37403C6.78427 5.95953 6.03838 4.85376 5.93115 4.16273C6.14815 4.05184 6.35699 3.88437 6.5523 3.73793C6.87588 3.49532 7.20334 3.24655 7.47052 2.94052C7.93525 2.40819 8.36546 1.67624 8.9876 1.3215Z" fill="#7E5434"/>
<path d="M9.02929 4.41598L9.01019 4.38574C8.95543 4.30433 8.85377 4.24091 8.7821 4.17218C8.60634 4.00375 8.43888 3.82103 8.25098 3.66626C8.45121 3.73757 8.62489 3.87661 8.82408 3.96233C9.51973 4.2617 10.1944 4.46373 10.9438 4.57046C11.2755 4.61776 11.6716 4.60602 12.006 4.57678C12.1932 4.56042 12.4074 4.50317 12.5921 4.53102C11.7876 4.87609 10.6305 4.85669 9.7987 4.61776C9.62104 4.56673 9.44339 4.50277 9.2717 4.43449C9.19416 4.4037 9.13165 4.36078 9.04898 4.34267L9.02929 4.41598Z" fill="#472F24"/>
<path d="M12.6194 17.585C12.9006 18.1609 13.0821 18.8237 13.2311 19.4451C13.3975 20.1389 13.5367 20.8275 13.6082 21.5384L13.681 22.46C13.6908 22.6135 13.6788 22.784 13.7123 22.9335C13.7241 22.9864 13.7152 23.01 13.7112 23.063L13.6802 25.5184C13.6511 25.5561 13.6543 25.5769 13.6538 25.6221C13.653 25.6899 13.64 25.7159 13.6034 25.7718C13.4628 25.4923 13.2252 25.0115 12.9272 24.8729L12.8765 24.8944C13.041 25.213 13.2435 25.4954 13.3872 25.8287C13.7298 26.6239 13.9141 27.6014 13.8528 28.467C13.8399 28.6484 13.8275 28.8622 13.7738 29.0362C13.7144 29.2295 13.107 29.4932 12.921 29.5805C12.2979 29.8731 11.5466 30.1488 10.8575 30.2237C10.7319 30.1332 10.3934 30.1561 10.2358 30.1398C10.0751 30.1231 9.91162 30.0871 9.75347 30.054C9.22194 29.9428 8.69683 29.7854 8.24424 29.4749L8.21475 29.4543C7.80985 29.176 7.50567 28.7569 7.28479 28.3234L7.34552 28.2897C7.55466 28.2241 7.71644 28.1284 7.88067 27.9848C8.59423 27.3612 8.78671 26.457 8.84405 25.5541C9.19896 25.6482 9.53548 25.6636 9.89447 25.7152C10.8535 25.8532 12.0074 25.5739 12.7927 25.0081C12.6562 25.0364 12.5152 25.1058 12.3858 25.1582C12.1832 25.2402 11.978 25.3163 11.7679 25.3769C11.2079 25.5385 10.6235 25.5659 10.0442 25.5588C9.59078 25.5532 9.10481 25.5271 8.67898 25.3633C8.63815 25.5637 8.66356 25.7942 8.63511 26.0032L7.34204 25.8468C8.46566 24.6936 8.95496 23.0828 9.17867 21.5212C9.2304 21.16 9.23154 20.7876 9.28884 20.4293C9.32226 20.2204 9.31027 19.9936 9.31241 19.782C9.31957 19.0806 9.27521 18.405 9.16982 17.7112C9.34683 17.6656 9.63385 17.7324 9.81618 17.7628C10.219 17.8299 10.6413 17.9303 11.0497 17.9365C11.6237 17.9452 12.0929 17.7726 12.6194 17.585Z" fill="#E3AE40"/>
<path d="M9.15339 4.87175C9.31215 4.84977 9.54755 4.98729 9.71322 5.02683C9.98403 5.09148 10.271 5.07701 10.5388 5.1537C10.6499 5.18553 10.7538 5.24143 10.8629 5.27938C11.0733 5.35254 11.3 5.3794 11.5122 5.4544C12.1118 5.66623 12.6874 5.93569 13.3086 6.09236C13.5351 6.14946 13.7689 6.17094 13.9991 6.20874C13.9535 6.33373 13.8603 6.54461 13.8968 6.67422L13.9465 6.70948L14.119 6.67039C14.4087 6.60185 14.746 6.72559 14.9901 6.88151C15.0977 6.95025 15.245 7.12025 15.3736 7.09399C15.4383 7.00575 15.4035 6.82899 15.3877 6.72286C15.3455 6.43857 15.2179 6.19138 15.0548 5.95832C15.2795 5.97832 15.5147 6.01462 15.739 5.97996C15.7743 6.31796 15.811 6.65164 15.8197 6.99183L15.8413 9.13434C15.8607 9.46757 15.8854 9.79856 15.9443 10.1276C15.9854 10.357 16.0529 10.5806 16.0751 10.8136C16.0983 11.0559 16.0958 11.3093 16.0508 11.5492C16.0085 11.7741 15.9836 11.9998 15.9162 12.2195C15.6641 13.0423 15.063 13.8662 14.3576 14.3615C14.0541 14.5746 13.6859 14.7579 13.3182 14.8239C12.9476 14.8904 12.5099 14.8265 12.1433 14.7615C10.684 14.5025 9.33672 13.6789 8.4932 12.4552C8.20916 12.0431 7.97705 11.5336 7.83948 11.0521L7.91498 9.85908L8.12118 9.78995C8.11685 9.2362 8.04906 8.6805 7.94845 8.13599C7.93905 8.08914 7.90224 7.97565 7.90757 7.93253C7.91612 7.8631 8.01365 7.71996 8.04906 7.65281L8.39741 6.96726C8.45938 6.77662 8.5604 6.5919 8.63619 6.40545C8.84041 5.90336 9.02836 5.40009 9.15339 4.87175Z" fill="#F2C982"/>
<path d="M8.3976 6.96704C8.41083 7.06895 8.40331 7.12818 8.37128 7.22472C8.27196 7.52378 8.16269 7.85621 7.96758 8.1038L7.94863 8.13578C7.93923 8.08893 7.90243 7.97543 7.90775 7.93231C7.9163 7.86288 8.01384 7.71974 8.04925 7.6526L8.3976 6.96704Z" fill="#BD8033"/>
<path d="M14.8869 11.5615C14.9107 11.5647 14.898 11.5597 14.9194 11.5864C14.8332 11.7729 14.6879 11.911 14.5267 12.034C13.9047 12.5087 13.0113 12.6216 12.256 12.5125C11.7639 12.4414 11.3668 12.2335 11.0675 11.8307L11.0321 11.7356L11.0819 11.6821C11.1039 11.6812 11.1281 11.6695 11.1477 11.6793C11.1711 11.6911 11.2315 11.7765 11.2529 11.8001C11.3275 11.8824 11.4094 11.9584 11.4967 12.0269C11.9147 12.3547 12.5416 12.4498 13.0571 12.3814C13.7739 12.2862 14.3801 12.1027 14.8869 11.5615Z" fill="black"/>
<path d="M10.9563 5.62085C11.0057 5.63343 11.0484 5.64383 11.088 5.6777C11.2782 5.84028 11.4965 6.27164 11.4826 6.52579C11.4763 6.64317 11.348 6.62427 11.2616 6.62456C10.6328 6.6267 10.0828 6.74313 9.57099 7.12704C9.49231 7.19384 9.41671 7.25834 9.32749 7.31126L9.27586 7.27923C9.26213 7.2488 9.2495 7.22169 9.24592 7.18802C9.21677 6.91298 9.46068 6.45168 9.62848 6.24473C9.97111 5.82218 10.4311 5.67019 10.9563 5.62085Z" fill="black"/>
<path d="M10.7739 5.83503C10.8273 5.82697 10.8836 5.83035 10.9377 5.83C11.1437 5.96444 11.222 6.24763 11.3003 6.471C11.01 6.47249 10.6925 6.45941 10.4079 6.51665C10.2372 6.55097 10.0716 6.61961 9.91181 6.6872L9.50427 6.92817C9.54262 6.81785 9.58773 6.71301 9.64751 6.61264C9.9128 6.16726 10.2832 5.95564 10.7739 5.83503Z" fill="#7E5434"/>
<path d="M13.9387 9.84125C14.0561 10.1901 14.3539 10.4633 14.1529 10.8591C14.0452 11.0713 13.7911 11.2546 13.5613 11.3187C13.3073 11.3895 13.0999 11.4111 12.8572 11.2759C12.7176 11.1982 12.5863 11.0782 12.5431 10.92L12.5304 10.8656L12.5598 10.8407C12.7389 11.039 12.9343 11.1855 13.213 11.2008C13.4338 11.2129 13.6919 11.0751 13.8471 10.9218C13.9274 10.8426 13.9911 10.7256 13.9838 10.6106C13.9685 10.372 13.7955 10.1485 13.7158 9.9265C13.5087 9.35031 13.592 8.51724 13.972 8.02586C14.1038 7.85541 14.3055 7.72232 14.5224 7.69825C14.7073 7.67776 14.8989 7.77728 15.0343 7.89475C15.3573 8.17486 15.4972 8.63984 15.5193 9.05404C15.5347 9.34191 15.4428 9.67146 15.2466 9.88587C15.113 10.0319 14.9484 10.1237 14.7548 10.1585L14.7217 10.1648C14.6093 10.1849 14.5224 10.1808 14.4152 10.1387L14.4195 10.1332C14.3926 10.1174 14.3671 10.1055 14.3377 10.0949C14.1697 10.0344 14.0735 9.95609 13.9387 9.84125Z" fill="black"/>
<path d="M13.939 9.8413L13.8521 9.58312L13.8409 9.51111L13.8733 9.5217C14.0352 9.57343 14.1567 9.59272 14.3148 9.51668C14.4273 9.46252 14.525 9.35096 14.5624 9.23169C14.6311 9.01305 14.5954 8.69972 14.4869 8.50222C14.4318 8.40205 14.3462 8.3078 14.2324 8.27637L14.1583 8.26289L14.1085 8.25394L14.0713 8.24772C14.1244 8.13826 14.2871 8.00183 14.4012 7.95906C14.5151 7.91629 14.6612 7.92514 14.7704 7.97766C15.0359 8.10538 15.182 8.39449 15.2669 8.66172C15.2962 8.75388 15.3144 8.84276 15.3289 8.93835L15.3358 8.97983C15.3801 9.25691 15.3283 9.59809 15.1635 9.82837C15.0821 9.94212 14.96 10.0326 14.8337 10.0901L14.8047 10.1037C14.6879 10.1536 14.5444 10.1373 14.4198 10.1332C14.3929 10.1175 14.3674 10.1055 14.338 10.0949C14.17 10.0344 14.0739 9.95614 13.939 9.8413Z" fill="white"/>
<path d="M10.4887 7.524C10.6906 7.50132 10.8748 7.50739 11.0595 7.60094C11.4133 7.78014 11.6133 8.1084 11.7292 8.47535C11.864 8.90228 11.8741 9.42102 11.6572 9.82179C11.514 10.0865 11.2808 10.2351 10.9995 10.32C10.8909 10.3383 10.7982 10.3506 10.6878 10.3358L10.6516 10.3304C10.5635 10.3181 10.4896 10.2897 10.4091 10.2511C10.0614 10.0842 9.87 9.72938 9.75203 9.37805C9.60685 8.9454 9.64524 8.49992 9.85145 8.09447C9.99762 7.8071 10.1805 7.62397 10.4887 7.524Z" fill="black"/>
<path d="M10.6328 7.72681L10.8319 7.74705C11.0699 7.78365 11.324 7.96429 11.4593 8.16299C11.7067 8.52611 11.8274 9.04619 11.7238 9.47815C11.6568 9.75766 11.4987 10.0438 11.2411 10.1872C11.0375 10.3006 10.8115 10.3259 10.5886 10.2619L10.5667 10.2511L10.5306 10.232C10.3027 10.1137 10.0795 9.85425 9.9989 9.60786C10.1213 9.59612 10.2647 9.59279 10.3765 9.53858C10.5653 9.44696 10.6569 9.31551 10.7124 9.11398C10.7787 8.87296 10.6966 8.55446 10.5756 8.34204C10.4721 8.16045 10.2669 8.11763 10.0793 8.07048L10.0959 8.04656C10.2416 7.84284 10.3889 7.7652 10.6328 7.72681Z" fill="white"/>
</svg>
