<svg width="19" height="34" viewBox="0 0 19 34" fill="none" xmlns="http://www.w3.org/2000/svg">
<path d="M9.32837 0.924072C9.80697 0.946966 10.2481 1.0647 10.5883 1.42643C10.7961 1.64728 10.8895 1.87978 10.8789 2.18332C12.677 2.35414 14.4428 3.15265 15.7239 4.42928C16.712 5.41387 17.2595 6.74866 17.4285 8.11907C17.4827 8.55774 17.4888 8.9981 17.4896 9.43945L17.5396 9.40551C17.7412 9.27506 17.9632 9.21501 18.2025 9.27076C18.4272 9.32311 18.6169 9.48817 18.7368 9.68045C18.97 10.0546 19.061 10.6145 18.958 11.0431C18.8261 11.5919 18.5201 12.0544 18.0501 12.3766C18.0148 12.4008 17.9834 12.6715 17.9708 12.7314C17.8898 13.1168 17.7217 13.4974 17.5069 13.8263C16.7188 15.0335 15.3654 15.8686 14.0161 16.3117C13.5946 16.4501 13.1684 16.5392 12.7346 16.6278C13.1481 16.9335 13.5236 17.3095 13.9102 17.6496C14.6023 18.2586 15.4355 18.7304 16.3121 19.0102C16.4767 18.8136 16.7385 18.6286 16.9988 18.602C17.2042 18.581 17.368 18.6386 17.5266 18.7712C17.7242 18.9365 17.8113 19.1665 17.8306 19.4173C18.0466 19.4337 18.2436 19.5093 18.4042 19.6579C18.6368 19.8732 18.7319 20.2316 18.628 20.5333C18.5956 20.6272 18.5207 20.7074 18.4914 20.7936C18.4787 20.8309 18.5081 20.962 18.5092 21.01C18.5151 21.2557 18.4051 21.5205 18.2069 21.669C18.1448 21.7155 18.054 21.75 17.9994 21.7992C17.9722 21.8236 17.9363 21.9375 17.916 21.9782C17.8821 22.0463 17.8399 22.1012 17.7875 22.1562C17.5989 22.3542 17.3121 22.4659 17.0401 22.4719C16.7593 22.4782 16.5184 22.4349 16.3094 22.2319L16.292 22.2148L16.0156 22.2879C15.2479 22.4593 14.5894 22.0868 13.9632 21.6914C13.8993 22.2154 13.8268 22.7134 13.663 23.2185C13.5989 23.4164 13.4881 23.6115 13.4339 23.8086C13.4217 23.8526 13.4458 23.9353 13.4528 23.9807C13.4942 24.248 13.5218 24.4836 13.4108 24.7407C13.3686 24.8383 13.304 24.9276 13.2445 25.0151C14.0842 25.8965 14.5036 27.1527 14.5862 28.3501C14.6349 28.3773 14.6918 28.3853 14.7432 28.4073C14.8295 28.4442 14.8998 28.5049 14.9707 28.5649C15.1445 28.512 15.2993 28.4341 15.48 28.3914C15.9925 28.2704 16.5334 28.3122 16.9857 28.595C17.1881 28.7215 17.3558 28.9067 17.4698 29.116C17.5089 29.1878 17.5404 29.271 17.5871 29.3377C17.6549 29.4346 17.7743 29.5342 17.7962 29.6537C17.8681 30.0466 17.6806 30.429 17.4676 30.7451C17.0998 31.2912 16.6168 31.7678 16.1017 32.1746C15.6653 32.519 15.2283 32.8069 14.717 33.028C14.4663 33.1364 14.2019 33.2367 13.9329 33.2882C13.6249 33.3471 13.2126 33.3669 12.9452 33.1747C12.8552 33.11 12.7795 33.0249 12.7346 32.9231C12.6891 32.82 12.6879 32.7018 12.6577 32.5937C12.5282 32.1296 12.3902 31.6811 12.3216 31.202L12.1911 31.1406C11.9506 31.0199 11.7485 30.7507 11.7476 30.474C11.7473 30.4045 11.792 30.2047 11.7678 30.1553C11.7494 30.1179 11.7018 30.0728 11.6755 30.0388C11.6175 29.9638 11.563 29.8858 11.5132 29.8052C11.3175 29.4892 11.1845 29.1261 11.0716 28.7737L9.48241 28.2438C9.44917 28.2314 9.41622 28.2217 9.38082 28.2177C9.31978 28.2109 9.24624 28.2266 9.18457 28.2302C9.05594 28.2378 8.92595 28.2447 8.79709 28.2419C8.72504 28.2403 8.32695 28.2007 8.29767 28.2156C8.27692 28.2261 8.22972 28.3005 8.2132 28.3216L7.95716 28.6306C7.4203 29.2297 6.80124 29.7199 6.04618 30.0145C5.70771 30.1465 5.34601 30.2319 4.98204 30.2399C4.8653 30.2425 4.71298 30.2107 4.60249 30.2285C4.53328 30.2397 4.38803 30.3553 4.33323 30.401C4.1505 30.5534 4.09597 30.7432 4.07234 30.9726C4.15202 31.042 4.23715 31.1158 4.30259 31.199C4.52657 31.4836 4.61644 31.8905 4.5659 32.2461C4.50509 32.6742 4.19902 33.0261 3.86802 33.2807C3.45245 33.6004 2.95065 33.7019 2.43709 33.6348C1.89266 33.5637 1.4062 33.1916 1.08442 32.7647C0.482945 31.9667 0.256321 30.7342 0.399494 29.7552C0.452473 29.393 0.554167 29.0878 0.757193 28.781C0.840149 28.6557 0.933151 28.5388 1.06264 28.4586C1.18027 28.3858 1.30754 28.3665 1.42923 28.3099C1.56722 28.2456 1.68021 28.1764 1.83208 28.142C1.88287 28.1305 2.10775 28.123 2.12718 28.1063C2.14556 28.0904 2.17391 28.0255 2.18822 28.0018C2.24897 27.901 2.31295 27.8217 2.40933 27.7522C2.50897 27.6804 2.6493 27.6163 2.77337 27.6095C2.84565 27.6055 2.93284 27.6106 3.00218 27.5873C3.08566 27.5592 3.1589 27.5041 3.23353 27.459C3.38268 27.369 3.52529 27.2829 3.66529 27.1776C3.77389 27.096 3.87354 27.006 3.975 26.9159C3.99206 26.9008 4.04391 26.8633 4.05356 26.8459C4.05588 26.8417 3.95861 26.4499 3.94936 26.4029C3.84955 25.8974 3.82796 25.3433 3.90127 24.8332C3.4191 24.7978 2.92451 24.6831 2.46512 24.5338C1.59124 24.25 0.72573 23.7431 0.298096 22.8959C0.13202 22.5669 0.063574 22.2059 0.0649621 21.8392C0.0673417 21.2066 0.255098 20.5506 0.407128 19.9402L0.956616 17.9623C0.906909 17.9493 0.848081 17.9374 0.803364 17.9117C0.749228 17.8806 0.71836 17.8276 0.707222 17.7671C0.673577 17.5848 0.813907 17.3778 0.905819 17.2301C1.14695 16.8424 1.43872 16.4689 1.78068 16.1642C2.44248 15.5746 3.2637 15.231 4.11656 15.0265C4.37282 14.965 4.63603 14.9534 4.89026 14.8943C4.84587 14.8355 4.75277 14.7817 4.69291 14.7352L4.41936 14.5003C4.05717 14.1783 3.73608 13.7874 3.47215 13.3827C3.272 13.4632 3.06646 13.5396 2.8483 13.5473C2.30985 13.5665 1.86982 13.3519 1.4801 12.9871C1.05643 12.5907 0.756037 12.0256 0.739214 11.4382C0.723416 10.8856 0.871149 10.1656 1.44083 9.92578C1.55247 9.87878 1.74906 9.84649 1.7553 9.83631C1.7634 9.82313 1.7518 9.68151 1.7514 9.65808L1.76214 9.07117C1.84031 7.47688 2.41571 5.92237 3.52192 4.75677C4.20153 4.04071 5.00838 3.49146 5.88955 3.05361C6.57577 2.71262 7.32845 2.43765 8.08374 2.2966C8.77868 2.16681 9.46781 2.14489 10.1717 2.12739C9.83076 1.81604 9.45571 1.62316 9.01003 1.50396L8.46874 1.37439C8.66083 1.31431 8.90298 1.31019 9.10204 1.32525C9.46933 1.35304 9.93186 1.45123 10.2209 1.69337C10.3062 1.76476 10.378 1.8664 10.4505 1.95121C10.2951 1.60727 10.0737 1.32279 9.73472 1.1429C9.64988 1.09787 9.55979 1.05893 9.46906 1.02734C9.40891 1.00639 9.3057 0.99429 9.27096 0.941985L9.32837 0.924072Z" fill="#050403"/>
<path d="M5.96044 22.4438L5.98949 22.4529C5.81909 22.5934 5.62416 22.6909 5.42117 22.7743L5.38501 22.7712L5.41932 22.5266L5.96044 22.4438Z" fill="#DF4034"/>
<path d="M15.6256 21.0459C15.6285 21.0882 15.6243 21.1718 15.6477 21.2036C15.6926 21.2643 15.7186 21.3482 15.7546 21.4155C15.8147 21.5281 15.8863 21.6302 15.9776 21.7195C16.0057 21.747 16.0411 21.7908 16.0796 21.8018L16.0951 21.8038C16.1072 21.8579 16.1336 21.9107 16.1552 21.9618L15.918 21.9522C15.8442 21.9431 15.7675 21.9307 15.7218 21.8669C15.5887 21.6811 15.5922 21.2667 15.6256 21.0459Z" fill="#DBA783"/>
<path d="M8.69891 27.3099L8.73282 27.303C8.84433 27.5036 8.93258 27.729 9.13679 27.8526L9.15229 27.8633C9.16892 27.874 9.18504 27.8779 9.20392 27.8829L8.39465 27.9555C8.47877 27.8159 8.55964 27.6684 8.62607 27.5195C8.65208 27.4612 8.6889 27.3938 8.69782 27.3302L8.69891 27.3099Z" fill="#68A8C7"/>
<path d="M12.3133 29.2326C12.1374 29.4212 12.0015 29.6102 11.8808 29.8383C11.7925 29.7418 11.7313 29.5975 11.6772 29.4791L11.408 28.8899C11.6456 28.992 11.944 29.1927 12.1993 29.206L12.2136 29.2066C12.249 29.2125 12.2797 29.2197 12.3133 29.2326Z" fill="#6BA4D9"/>
<path d="M4.47041 23.5332L4.45868 23.5422L4.43895 23.5568L4.36548 23.6092C4.32192 23.6334 4.28259 23.6465 4.23328 23.6338C4.25211 23.4491 4.38375 23.2285 4.44516 23.0493C4.50125 22.8854 4.52884 22.717 4.55594 22.5466L5.09681 22.5523C5.01686 22.8283 4.91126 23.0486 4.75335 23.2896L4.47041 23.5332Z" fill="#DF4034"/>
<path d="M5.81952 21.3992C5.87917 21.7063 5.96887 21.9188 6.23357 22.0981L6.26493 22.1181L5.5338 22.2674C5.31812 22.0815 5.21702 21.8051 5.19511 21.5244L5.19263 21.4831L5.655 21.4554C5.7164 21.4467 5.78148 21.4498 5.81952 21.3992Z" fill="#DF4034"/>
<path d="M12.7539 29.9837C12.4596 30.2529 12.3372 30.4982 12.2689 30.8907C12.1755 30.7868 12.0798 30.6586 12.0417 30.5225L12.0358 30.5002C12.0194 30.4415 12.0109 30.3874 12.0089 30.3265C11.9972 29.9609 12.2506 29.6328 12.4887 29.3806C12.5657 29.5783 12.6347 29.8077 12.7539 29.9837Z" fill="#68A8C7"/>
<path d="M16.587 20.9233L16.6033 20.9363C16.5958 21.016 16.5921 21.0913 16.6005 21.1712C16.6202 21.3565 16.7255 21.5516 16.8733 21.6661C17.1293 21.8643 17.3971 21.8565 17.7041 21.8207C17.5803 21.949 17.4802 22.0318 17.3202 22.1127C17.1125 22.192 16.8332 22.2088 16.627 22.1157C16.4611 22.0409 16.3247 21.904 16.2623 21.7325C16.1695 21.4773 16.2562 21.2043 16.3601 20.969C16.4339 20.9575 16.4983 20.954 16.5701 20.9293L16.587 20.9233Z" fill="#F4CEAB"/>
<path d="M5.1927 21.4833C5.17909 21.3476 5.19472 21.1997 5.22483 21.067C5.32851 20.61 5.55027 20.1934 5.85764 19.8418C5.95586 19.7295 6.06179 19.616 6.1883 19.5359L5.99086 19.9841C5.82059 20.4273 5.75158 20.9283 5.8196 21.3994C5.78156 21.45 5.71648 21.4469 5.65507 21.4556L5.1927 21.4833Z" fill="#F36F2C"/>
<path d="M17.7476 19.6343C17.7872 19.616 17.8354 19.6178 17.8783 19.6251C18.0375 19.6524 18.2146 19.7702 18.2992 19.9073C18.3857 20.0475 18.4122 20.2263 18.3717 20.3861C18.3191 20.5934 18.2028 20.7272 18.0255 20.8347C17.9548 20.8553 17.8891 20.8861 17.8137 20.8792C17.6985 20.8685 17.5836 20.8104 17.5134 20.7178C17.451 20.6354 17.4065 20.4817 17.432 20.3779C17.437 20.3576 17.4793 20.3117 17.493 20.2941C17.5421 20.2312 17.5867 20.1722 17.6216 20.0997C17.6941 19.9491 17.7215 19.7973 17.7476 19.6343Z" fill="#F4CEAB"/>
<path d="M1.08603 28.8086C1.05755 28.9625 0.967981 29.1195 0.919596 29.2714C0.772986 29.7316 0.722056 30.2643 0.783033 30.7437L0.881258 31.2759C1.06468 31.9616 1.42275 32.6371 2.05949 32.9994C2.56641 33.2878 3.12439 33.3484 3.68446 33.1932C3.63458 33.2326 3.57602 33.2612 3.52056 33.292C3.42194 33.3416 3.31066 33.3861 3.20252 33.4085L3.05743 33.4342C2.5797 33.4907 2.08798 33.3393 1.7161 33.0396C1.06941 32.5185 0.761617 31.6154 0.680578 30.8142C0.613024 30.1461 0.646206 29.349 1.08603 28.8086Z" fill="#C15314"/>
<path d="M17.2349 20.4607C17.2449 20.4637 17.2581 20.4618 17.2649 20.4697C17.2674 20.4726 17.2767 20.5363 17.2784 20.5457C17.3055 20.6934 17.336 20.8234 17.4614 20.92C17.5919 21.0206 17.7863 21.0443 17.9459 21.0228L17.974 21.0187C18.0745 21.0047 18.1533 20.9708 18.2444 20.9289C18.2352 21.0089 18.2237 21.0954 18.1989 21.1722C18.1267 21.3958 17.9948 21.5152 17.7906 21.6155L17.7731 21.621C17.5372 21.6948 17.2959 21.6964 17.0734 21.5745C16.9263 21.494 16.8334 21.3777 16.7859 21.2167C16.7319 21.0331 16.7731 20.8909 16.8626 20.7297C16.883 20.6929 16.9618 20.534 16.9908 20.5175C17.041 20.489 17.1747 20.4775 17.2349 20.4607Z" fill="#F4CEAB"/>
<path d="M5.71273 15.4703L5.76178 15.4575L6.32974 15.7954L6.28929 15.8028C5.88509 15.894 5.44609 16.1577 5.23252 16.5197C5.1608 16.6412 4.94112 16.7336 4.81791 16.8128L4.31155 17.1597L3.94043 17.4467C4.27896 16.5889 4.97698 15.9838 5.71273 15.4703Z" fill="#2F4378"/>
<path d="M12.3166 16.6915L12.3965 16.6843C12.5523 16.8128 12.7055 16.9445 12.8348 17.1004C13.6653 18.1022 14.1003 19.4122 13.9771 20.7116C13.9505 20.6544 13.9515 20.5539 13.9434 20.4895C13.934 20.2776 13.878 20.0466 13.8266 19.841C13.5975 18.9245 13.1661 18.0657 12.5872 17.3208C12.4189 17.1043 12.2273 16.9266 12.0455 16.7245L12.3166 16.6915Z" fill="#4F77BC"/>
<path d="M2.59931 17.3692C2.99102 17.3419 3.38226 17.4366 3.74188 17.5867C3.64028 17.6832 3.21648 18.083 3.21596 18.0831C3.19993 18.0835 3.14235 18.0547 3.12411 18.048C3.05745 18.0236 2.9892 18.0019 2.91953 17.9879C2.6738 17.9386 2.44189 17.9328 2.19263 17.9385C1.82901 17.9471 1.49637 18.0865 1.16223 18.2131L1.32431 17.7336C1.4221 17.6717 1.5432 17.6344 1.6519 17.5952C1.95847 17.4848 2.2744 17.4004 2.59931 17.3692Z" fill="#3A5EA6"/>
<path d="M14.0125 31.3344C13.6256 31.6946 13.2203 32.0434 12.897 32.4644L12.6604 31.5206C12.6057 31.2813 12.5371 31.0128 12.5359 30.7667C12.5349 30.551 12.7668 30.3412 12.9093 30.1995C12.9776 30.5373 13.0573 31.0197 13.3739 31.2157C13.5583 31.3299 13.8019 31.321 14.0125 31.3344Z" fill="#DC8510"/>
<path d="M12.4888 29.3807C12.9977 28.8936 13.654 28.56 14.3719 28.5773C14.5137 28.5807 14.6451 28.607 14.7756 28.6626C14.583 28.8002 14.4091 28.9379 14.2537 29.1186C14.1889 29.1939 14.1196 29.3284 14.0461 29.3878C14.0253 29.4047 13.885 29.4189 13.8508 29.4275C13.7515 29.4525 13.6524 29.4861 13.5569 29.523C13.2671 29.6349 12.9937 29.7858 12.754 29.9837C12.6348 29.8077 12.5658 29.5783 12.4888 29.3807Z" fill="#90CDE1"/>
<path d="M11.6041 3.0706C11.6017 3.11164 11.6001 3.15423 11.5827 3.19228C11.5463 3.27163 11.4513 3.31161 11.3744 3.34031C10.9363 3.50387 10.3573 3.47927 9.93426 3.2838C9.81505 3.22872 9.66262 3.13903 9.62111 3.00704C9.59114 2.91171 9.6187 2.82731 9.66665 2.7445C9.74036 2.61718 9.89169 2.47547 10.0363 2.43922L10.0574 2.43427C10.1376 2.41479 10.2075 2.40823 10.2895 2.40698L10.3017 2.42339L10.293 2.48131C10.3271 2.51664 10.3474 2.53672 10.397 2.54948C10.4433 2.537 10.5066 2.52731 10.5416 2.49248L10.5576 2.47499C10.601 2.43282 10.5994 2.42178 10.6634 2.4225C10.9159 2.42536 11.2038 2.50647 11.3885 2.6879C11.4983 2.79587 11.5663 2.92276 11.6041 3.0706Z" fill="#2F4378"/>
<path d="M10.5579 2.47513C10.6012 2.43296 10.5996 2.42192 10.6637 2.42264C10.9162 2.4255 11.204 2.5066 11.3887 2.68804C11.4986 2.79601 11.5665 2.9229 11.6043 3.07074C11.3359 3.11589 11.0117 3.10969 10.7697 2.96745C10.6831 2.91655 10.6053 2.82672 10.5799 2.72932C10.5846 2.67343 10.6088 2.64374 10.6411 2.59885L10.6545 2.58059L10.5579 2.47513Z" fill="#4F77BC"/>
<path d="M17.0011 29.4469C17.1006 29.4351 17.2046 29.4327 17.3046 29.4407C17.397 29.4481 17.4666 29.488 17.5237 29.5606C17.6005 29.6583 17.6386 29.7981 17.6216 29.921L17.6186 29.9413C17.6131 29.9793 17.6103 30.0122 17.5884 30.0452C17.5841 29.99 17.5092 29.9108 17.4698 29.8712C17.378 29.7791 17.2089 29.7851 17.0881 29.7892C16.841 29.7976 16.6087 29.9123 16.3934 30.024C15.9155 30.2719 15.4934 30.6132 15.0824 30.9577C14.4844 31.4589 13.9227 31.9877 13.3911 32.5589C13.2518 32.7051 13.1505 32.8548 13.0657 33.0373C13.0158 32.9867 12.9302 32.8841 12.9174 32.8131C12.907 32.7554 12.9114 32.7105 12.9475 32.6637C13.052 32.528 13.1817 32.4033 13.2971 32.2762C13.9308 31.5783 14.6241 30.9137 15.3536 30.3159C15.5764 30.1334 15.8055 29.9368 16.0535 29.7907C16.3417 29.621 16.6716 29.5027 17.0011 29.4469Z" fill="#C15314"/>
<path d="M4.75352 23.2894C4.91378 23.2584 5.08098 23.24 5.23741 23.1939C5.64346 23.0741 6.07926 22.8047 6.38213 22.5103C6.4628 22.4319 6.53161 22.343 6.60075 22.2546C6.61499 22.2363 6.64844 22.1802 6.66645 22.1695C6.70628 22.1458 6.82417 22.1413 6.87523 22.1282C7.20996 22.0419 7.41685 21.8428 7.58627 21.5486C7.59929 21.6428 7.60147 21.7676 7.68208 21.8321L7.77558 21.8898C7.28122 22.5695 6.67045 23.169 5.88575 23.5021C5.67598 23.5912 5.46651 23.6675 5.24045 23.7031C5.05712 23.732 4.86913 23.7377 4.68788 23.6953L4.66663 23.6909C4.58678 23.6733 4.52075 23.594 4.47058 23.533L4.75352 23.2894Z" fill="#3A5EA6"/>
<path d="M17.9386 9.54834L18.073 9.55204C18.2259 9.57134 18.3516 9.66894 18.4437 9.78775C18.6758 10.0872 18.7097 10.5378 18.6597 10.8996C18.6015 11.3213 18.3718 11.761 18.0304 12.0207L17.8767 11.3631L17.5502 10.6376C17.5637 10.5909 17.5939 10.5451 17.6199 10.504C17.6725 10.4207 17.745 10.3222 17.848 10.3039C17.8998 10.2946 17.9349 10.3002 17.9785 10.3302C18.0129 10.354 18.0433 10.371 18.0813 10.3888L18.1143 10.3751C18.1204 10.3559 18.1222 10.354 18.1227 10.3309C18.1239 10.2789 18.0951 10.2181 18.0585 10.1821C18.0108 10.1353 17.9373 10.1231 17.8723 10.1279C17.677 10.1422 17.5522 10.3101 17.4347 10.4463C17.4268 10.2776 17.4265 9.98384 17.5025 9.83006C17.5766 9.68004 17.7852 9.58698 17.9386 9.54834Z" fill="#F4CEAB"/>
<path d="M2.78545 27.825L2.86173 27.8294C2.89808 27.872 2.87957 27.9462 2.87868 28.0024C2.87488 28.2474 2.90806 28.4882 2.97314 28.7242C3.14549 29.3494 3.57914 29.7622 4.12701 30.0769C3.96563 30.1774 3.81132 30.229 3.62581 30.2644C3.50983 30.2746 3.39082 30.2803 3.27485 30.2671C3.04452 30.2408 2.80105 30.1 2.66002 29.9205C2.36475 29.5448 2.23867 28.9316 2.30113 28.4635C2.31868 28.3321 2.33501 28.194 2.40567 28.0786C2.49441 27.9336 2.62588 27.8631 2.78545 27.825Z" fill="#90CDE1"/>
<path d="M4.03603 15.3049C4.07067 15.2981 4.08115 15.2962 4.11661 15.3049C3.55225 15.6413 3.09163 16.1779 2.74613 16.7315L2.56148 17.0426C2.54978 17.0627 2.52261 17.1231 2.50724 17.1363C2.48242 17.1575 2.30931 17.1649 2.26826 17.1712C2.12003 17.194 1.97663 17.2308 1.8321 17.2701C1.56132 17.3438 1.31688 17.4674 1.0771 17.6107L1.04581 17.6187L1.02112 17.5936C1.03503 17.493 1.10232 17.3901 1.15368 17.3035C1.59209 16.5641 2.24175 15.9897 3.0255 15.6377C3.35283 15.4907 3.68918 15.3929 4.03603 15.3049Z" fill="#4F77BC"/>
<path d="M14.3168 19.9646C14.7135 20.2131 15.0982 20.3666 15.5658 20.4178C15.5408 20.4698 15.5282 20.5457 15.5136 20.6023C15.4031 21.0328 15.3498 21.6175 15.5873 22.0158L15.6004 22.0375C15.034 21.9492 14.5511 21.7745 14.0612 21.4712C14.2952 21.0034 14.3293 20.478 14.3168 19.9646Z" fill="#DF4034"/>
<path d="M5.12681 15.0901C5.14301 15.0869 5.15897 15.0787 5.17539 15.0803C5.21096 15.0838 5.47506 15.2694 5.5291 15.3025C5.52741 15.3306 5.36259 15.427 5.33089 15.4482C4.61768 15.9263 4.09321 16.5307 3.74886 17.3207C3.7092 17.325 3.66032 17.299 3.62281 17.2858L3.3433 17.1952C3.15188 17.1426 2.96498 17.1188 2.76685 17.1102L2.84861 16.974C3.22806 16.3445 3.77097 15.7845 4.39042 15.3876C4.51106 15.3103 4.64022 15.2218 4.77268 15.1663C4.87646 15.1228 5.0155 15.1177 5.12681 15.0901Z" fill="#4F77BC"/>
<path d="M12.2136 29.2064C11.7233 28.7211 11.0558 28.3893 10.4073 28.1682C10.2166 28.1032 10.0159 28.0667 9.82886 27.993C9.86485 27.9607 9.95375 27.9412 10.0027 27.9228L10.3856 27.765C10.728 27.6074 11.0419 27.4012 11.3493 27.1848L11.362 27.1979C11.4734 27.3102 11.6072 27.4011 11.7264 27.5054C12.0195 27.762 12.2531 28.0829 12.4198 28.4339C12.4624 28.5236 12.5015 28.6159 12.5307 28.711C12.5539 28.7869 12.561 28.9139 12.6066 28.9762L12.3134 29.2324C12.2797 29.2196 12.2491 29.2124 12.2136 29.2064Z" fill="#68A8C7"/>
<path d="M8.02625 16.4885C9.00571 16.7629 10.1005 17.0018 11.1242 16.8653C11.313 16.8401 11.4973 16.7896 11.681 16.7405C11.7576 16.8076 11.8231 16.8783 11.8894 16.9555C11.835 17.0961 11.7821 17.2156 11.688 17.335L11.5738 17.4365C11.4805 17.5101 11.3645 17.5526 11.2516 17.5857C10.8862 17.6927 10.4792 17.6875 10.105 17.6384C9.5789 17.5694 9.07409 17.3898 8.62068 17.1138C8.53779 17.0634 8.4362 17.0105 8.36752 16.9414C8.31811 16.8917 8.28017 16.8256 8.23965 16.7685L8.02625 16.4885Z" fill="#F36F2C"/>
<path d="M2.46399 19.708L2.48088 19.7312C2.51773 19.7849 2.52731 19.858 2.54447 19.9201C2.5753 20.0319 2.60594 20.1465 2.6532 20.2526C2.93733 20.8905 3.63469 21.233 4.28385 21.3788C4.5427 21.4369 4.80171 21.475 5.06724 21.4832C5.102 21.805 5.17627 22.0482 5.4091 22.2804C4.9466 22.3214 4.48922 22.3265 4.03532 22.2137C3.47152 22.0736 2.96926 21.752 2.66718 21.2507C2.38328 20.7795 2.33321 20.2369 2.46399 19.708Z" fill="#DF4034"/>
<path d="M15.6254 21.0459L15.6642 20.7747C15.7763 20.2853 15.9948 19.8159 16.2699 19.3988C16.3855 19.2235 16.5202 19.0345 16.6997 18.9192C16.828 18.8368 17.0158 18.7876 17.1676 18.8283C17.3272 18.871 17.4866 18.9996 17.5607 19.147C17.6724 19.3691 17.6554 19.6659 17.573 19.8954C17.5128 20.0628 17.4144 20.1947 17.2479 20.2675C17.1547 20.3083 17.0371 20.3324 16.9409 20.2875C16.863 20.2511 16.799 20.1883 16.7736 20.1045C16.7398 19.9929 16.7673 19.834 16.8273 19.7355C16.8648 19.6738 16.9125 19.6191 16.9636 19.5684L16.9409 19.5528C16.8294 19.5787 16.7516 19.6204 16.6886 19.7204C16.6056 19.8524 16.5959 19.9966 16.6332 20.1451C16.6662 20.2766 16.7321 20.3694 16.84 20.4503C16.7435 20.5897 16.6608 20.781 16.4791 20.8109C16.3718 20.8286 16.2812 20.7909 16.1958 20.7285C16.1349 20.684 16.0863 20.6318 16.0434 20.57C16.0062 20.5162 15.9713 20.4392 15.91 20.4111C15.886 20.4445 15.8918 20.4419 15.898 20.4812C15.9214 20.6302 16.0024 20.7745 16.126 20.8618C16.1772 20.8979 16.2336 20.9216 16.2912 20.9454C16.1019 21.2296 16.0725 21.4695 16.0949 21.8038L16.0794 21.8018C16.0409 21.7908 16.0055 21.747 15.9774 21.7195C15.8861 21.6301 15.8145 21.5281 15.7544 21.4154C15.7184 21.3482 15.6924 21.2643 15.6475 21.2036C15.6241 21.1718 15.6283 21.0882 15.6254 21.0459Z" fill="#F4CEAB"/>
<path d="M14.317 19.9648C14.2872 19.7296 14.2564 19.4936 14.2008 19.2628C14.0602 18.6799 13.8206 18.1523 13.5398 17.627C14.2634 18.33 15.2029 18.9722 16.2137 19.142C15.9561 19.5422 15.6806 19.9479 15.566 20.4181C15.0984 20.3668 14.7137 20.2133 14.317 19.9648Z" fill="#F36F2C"/>
<path d="M6.59158 15.9958C6.84375 15.9828 7.06182 16.0603 7.26831 16.2019C7.47365 16.3426 7.65655 16.5285 7.81595 16.7186C8.37648 17.3872 8.65555 18.2005 8.81574 19.0468C8.67614 18.9051 8.53505 18.7898 8.36917 18.6796C8.16962 18.5703 8.00262 18.5301 7.77457 18.5233C7.76595 18.5231 7.67393 18.5226 7.67195 18.5208C7.65708 18.5071 7.62952 18.4165 7.61924 18.3924L7.45835 18.0394C7.19078 17.4876 6.81774 16.8601 6.32655 16.4775C6.22916 16.4016 6.104 16.3136 5.97933 16.2949C5.9097 16.2845 5.82843 16.3 5.75879 16.3085C5.99989 16.1492 6.30696 16.0405 6.59158 15.9958Z" fill="#6BA4D9"/>
<path d="M3.77401 5.07129C3.76486 5.1318 3.75557 5.18865 3.7365 5.24692C3.61953 5.58733 3.51414 5.92632 3.43978 6.2788C3.26772 7.09434 3.21269 7.92859 3.23328 8.76046C3.246 9.27386 3.28471 9.81026 3.42708 10.3056C3.04638 9.97316 2.65755 9.8052 2.1499 9.78844C2.16504 8.7364 2.29704 7.6908 2.71658 6.71595C2.97404 6.11775 3.34426 5.55944 3.77401 5.07129Z" fill="#DBA783"/>
<path d="M17.0826 30.0105C17.1704 30.0133 17.2701 30.0153 17.3427 30.0712C17.3963 30.1126 17.4238 30.1659 17.4317 30.2327C17.456 30.4392 17.1749 30.7666 17.048 30.918C16.8376 31.169 16.5933 31.3931 16.3498 31.6112C15.9691 31.9523 15.5805 32.247 15.1417 32.5118C14.6697 32.7966 14.1812 33.0229 13.6263 33.0708C13.5075 33.0755 13.3961 33.0752 13.2781 33.0593C13.4699 32.7081 13.7725 32.4322 14.0522 32.1506C14.5398 31.6596 15.0549 31.2004 15.5988 30.7727C15.9216 30.5188 16.248 30.2534 16.6363 30.1055L16.6618 30.0959C16.8034 30.0421 16.932 30.0205 17.0826 30.0105Z" fill="#7B3318"/>
<path d="M3.46953 22.2783C3.73816 22.3953 3.98981 22.4704 4.27962 22.5155C4.18365 22.8126 4.07428 23.0895 3.93825 23.3709C3.91621 23.4165 3.81253 23.5963 3.81772 23.6434C3.8201 23.6647 3.85209 23.7162 3.86296 23.737C3.92387 23.8541 4.02649 23.944 4.12597 24.028C4.05125 24.182 3.998 24.3407 3.95005 24.5047C3.47066 24.473 3.01791 24.3838 2.55891 24.2447C1.8985 24.0444 1.27429 23.7488 0.814565 23.219C0.672814 23.0556 0.556941 22.8713 0.470581 22.6731C0.586818 22.6898 0.696478 22.7392 0.810864 22.7645C1.55713 22.9294 2.25746 22.7828 2.95676 22.5093C3.1239 22.444 3.31869 22.3752 3.46953 22.2783Z" fill="#2F4378"/>
<path d="M12.9093 30.1993C13.2165 29.924 13.5667 29.7418 13.9567 29.6144C13.9094 29.7696 13.8209 29.9906 13.8447 30.155C13.9615 30.0031 14.0519 29.8349 14.1668 29.6816C14.5515 29.1682 15.076 28.7387 15.73 28.6493C16.1704 28.5891 16.6234 28.6784 16.9818 28.9508C17.1087 29.0472 17.2024 29.1626 17.295 29.2911C17.1791 29.2893 17.0576 29.2822 16.9426 29.2976C16.24 29.3917 15.674 29.8705 15.1504 30.3087L14.0769 31.2743C14.0581 31.2925 14.0352 31.3211 14.0125 31.3342C13.802 31.3208 13.5583 31.3297 13.3739 31.2155C13.0573 31.0195 12.9776 30.5371 12.9093 30.1993Z" fill="#F7A422"/>
<path d="M3.85532 29.6356C3.74189 29.5608 3.63062 29.4707 3.53933 29.3698C3.21174 29.0078 3.08483 28.5268 3.11837 28.0458C3.1198 28.0255 3.12872 27.9039 3.13966 27.8917C3.15678 27.8727 3.2548 27.8436 3.28534 27.8306C3.37673 27.7919 3.46418 27.7455 3.54954 27.6949C3.77683 27.5602 3.98124 27.3844 4.18328 27.2151C4.27836 27.427 4.39053 27.6619 4.56305 27.8227C4.64013 27.8945 4.7366 27.9483 4.82574 28.0037C4.48228 27.5857 4.33174 27.108 4.23398 26.5825C4.17458 26.2632 4.15472 25.941 4.15657 25.6167C4.15978 25.0512 4.23417 24.4247 4.56279 23.9475C4.76753 24.1477 5.01498 24.3013 5.2576 24.4512C5.71266 24.7325 6.19 24.9891 6.69028 25.1797L6.67465 25.1827C6.57398 25.2009 6.47387 25.1939 6.37254 25.2029C5.9846 25.2376 5.5999 25.3411 5.36789 25.678C5.30711 25.7663 5.26275 25.8705 5.22987 25.9719C5.15204 26.2118 5.11277 26.4659 5.08214 26.7155C5.03061 27.1351 4.98517 27.6381 5.17858 28.0289L5.25869 28.1721C5.10339 28.2074 4.93939 28.2342 4.78865 28.2852C4.49405 28.385 4.23242 28.5965 4.06208 28.8555C3.96634 29.0011 3.90344 29.1716 3.87618 29.343L3.87191 29.3688C3.8578 29.4574 3.85697 29.5461 3.85532 29.6356Z" fill="#68A8C7"/>
<path d="M7.54527 18.7229C7.83293 18.7095 8.09208 18.7886 8.32296 18.9586C8.56327 19.1356 8.81756 19.406 8.92527 19.6891C8.95574 19.7693 8.96476 19.8619 8.97762 19.9463C8.94662 19.9239 8.92523 19.8638 8.90659 19.8298C8.86416 19.7524 8.8204 19.6821 8.76226 19.6152C8.49489 19.3073 8.10222 19.2034 7.71197 19.1792C7.80537 19.2341 7.9108 19.2655 8.00925 19.3106C8.26238 19.4266 8.5172 19.6031 8.68959 19.8238C8.87328 20.0589 8.89529 20.2951 8.85818 20.5823C8.79046 20.4317 8.73229 20.3037 8.61245 20.1872C8.41131 19.9917 8.08233 19.808 7.7943 19.8108L7.77823 19.8327C7.87953 19.922 8.0235 19.9756 8.14344 20.0373C8.37413 20.1562 8.60822 20.3228 8.68318 20.5846C8.71504 20.696 8.74098 20.8588 8.71722 20.9729C8.69633 21.0733 8.63215 21.1782 8.58508 21.2689C8.54278 21.1132 8.49244 20.9889 8.4087 20.851C8.25144 20.6226 7.97958 20.4299 7.70959 20.3615C7.6152 20.3376 7.52044 20.3254 7.43412 20.378C7.47811 20.4306 7.63698 20.4641 7.70718 20.4953C7.79056 20.5323 7.86826 20.5782 7.94428 20.6285C8.17064 20.7781 8.35591 21.0066 8.40595 21.2788C8.42149 21.3632 8.43821 21.4572 8.37988 21.5295C8.25812 21.6803 8.03807 21.6786 7.86241 21.6897C7.86357 21.6139 7.88069 21.5134 7.82523 21.4549C7.7199 21.3439 7.56288 21.3448 7.42126 21.3443L7.25885 21.6368C7.15581 21.7963 6.9579 21.8838 6.77646 21.9171C6.59029 21.9512 6.37027 21.8958 6.21616 21.7857C6.06086 21.6747 5.98802 21.4899 5.96356 21.3065C5.87988 20.6789 6.12927 19.9256 6.51916 19.4321C6.76535 19.1206 7.13568 18.7713 7.54527 18.7229Z" fill="#F4CEAB"/>
<path d="M6.10811 23.7415L7.27738 24.1848C8.617 24.6027 10.0137 24.7206 11.401 24.5111C12.038 24.4149 12.6438 24.2632 13.2171 23.9623C13.2428 24.1911 13.2608 24.4994 13.158 24.7106C13.0292 24.975 12.6884 25.0356 12.4291 25.1231L11.3408 25.4127C9.15832 25.8305 6.85418 25.2466 5.03296 24.0088C5.41313 23.9985 5.76462 23.8997 6.10811 23.7415Z" fill="#DF4034"/>
<path d="M0.470524 22.6731L0.414769 22.5528C0.289245 22.2508 0.287758 21.8863 0.313504 21.5639C0.33264 21.3244 0.381488 21.0834 0.427857 20.8478L0.779971 19.4269C0.864414 19.1362 0.94304 18.8352 1.05974 18.5556C1.3206 18.3712 1.72619 18.2713 2.03924 18.2286C1.81219 19.0059 1.6628 19.7784 1.58338 20.5844C1.53206 21.1052 1.50446 21.6188 1.56306 22.1407L1.67609 21.3613C1.74341 20.8045 1.7946 20.2444 1.8957 19.6923C1.98682 19.1944 2.12712 18.6908 2.27677 18.2078C2.50439 18.1555 2.83056 18.2406 3.05292 18.2902C2.80164 18.5977 2.54001 18.9148 2.36686 19.274C2.10567 19.816 2.07936 20.4508 2.28328 21.0172C2.48948 21.5899 2.92263 22.0229 3.46948 22.2784C3.31864 22.3753 3.12384 22.444 2.95671 22.5094C2.2574 22.7829 1.55707 22.9295 0.810807 22.7646C0.696421 22.7393 0.586761 22.6898 0.470524 22.6731Z" fill="#4F77BC"/>
<path d="M2.01721 28.3595C2.04844 28.356 2.03128 28.3555 2.06847 28.3648C2.07177 28.4548 2.05667 28.5457 2.05561 28.6361C2.0531 28.8449 2.07015 29.0559 2.11639 29.2599C2.21402 29.6907 2.4257 30.1244 2.81596 30.3605C3.14927 30.5621 3.5338 30.544 3.89682 30.4495C3.84497 30.5767 3.81638 30.6997 3.79017 30.8337C3.76271 30.8404 3.7513 30.8384 3.72354 30.8351C3.07887 30.7601 2.57403 30.8882 2.0642 31.2924C2.55476 31.1328 3.08819 31.0638 3.60208 31.1407C3.70183 31.1556 3.99369 31.2044 4.05236 31.2911C4.2182 31.5361 4.27723 31.7409 4.29993 32.0322C4.29346 32.2344 4.2612 32.3896 4.15798 32.5651C4.01213 32.8132 3.77094 32.9497 3.4952 33.0155C3.04347 33.1232 2.56785 33.0333 2.17234 32.7966C1.59859 32.4531 1.26578 31.8026 1.11094 31.1732C0.962019 30.5681 0.984757 29.9423 1.14422 29.3418C1.19386 29.1549 1.25401 28.9557 1.35627 28.7902C1.50245 28.5538 1.7535 28.4202 2.01721 28.3595Z" fill="#F7A422"/>
<path d="M2.46399 19.708C2.8243 18.6805 3.72514 17.8915 4.59191 17.2789C4.85188 17.0951 5.11813 16.9078 5.406 16.7704C5.57842 16.6882 5.7787 16.5962 5.9733 16.5898C6.18832 16.7928 6.4046 16.9907 6.59266 17.2198C6.91271 17.6098 7.16026 18.1003 7.2906 18.587C6.87252 18.7754 6.52824 19.0566 6.24629 19.4169C5.77606 19.0974 5.18945 19.0012 4.6354 19.1095C4.35273 19.1648 4.15221 19.2841 3.92166 19.4515C4.1038 19.4447 4.30616 19.3829 4.48797 19.3518C5.00028 19.2644 5.5928 19.2814 6.07103 19.5053C5.95198 19.6092 5.82639 19.7122 5.72159 19.8307C5.36201 20.2373 5.10389 20.7819 5.06922 21.3271L5.06724 21.4831C4.80171 21.4749 4.5427 21.4369 4.28385 21.3788C3.63468 21.233 2.93733 20.8905 2.6532 20.2526C2.60594 20.1465 2.5753 20.0318 2.54447 19.9201C2.52731 19.8579 2.51773 19.7848 2.48088 19.7312L2.46399 19.708Z" fill="#F36F2C"/>
<path d="M6.69031 25.1795C7.17878 25.3383 7.67675 25.4978 8.17897 25.6063C9.08811 25.8028 10.0141 25.8627 10.9375 25.7389C11.6314 25.6459 12.2575 25.4295 12.9026 25.1683C12.9075 25.1663 12.9487 25.1501 12.9489 25.1501C12.958 25.1525 13.0301 25.2469 13.0412 25.2601C13.313 25.585 13.5615 25.9249 13.755 26.3032C14.0765 26.9317 14.2498 27.674 14.3772 28.3672C14.147 28.3858 13.9127 28.3997 13.6871 28.4522C13.2853 28.5457 12.9408 28.7415 12.6067 28.9761C12.561 28.9138 12.554 28.7869 12.5307 28.7109C12.5016 28.6159 12.4625 28.5236 12.4199 28.4339C12.2531 28.0829 12.0195 27.762 11.7265 27.5054C11.6073 27.401 11.4735 27.3102 11.362 27.1979L11.3494 27.1848C11.7789 26.8712 12.2293 26.5187 12.5242 26.0676L11.9722 26.5399C11.161 27.1821 10.2301 27.6958 9.20405 27.8829C9.18518 27.8779 9.16905 27.8741 9.15243 27.8633L9.13693 27.8526C8.93271 27.729 8.84447 27.5036 8.73296 27.303L8.69905 27.3099L8.6897 27.3208C8.58529 27.4437 8.49794 27.5832 8.40011 27.7117L7.92049 28.2838C7.39011 28.8744 6.69394 29.3942 5.95934 29.6938C5.68655 29.805 5.39911 29.8968 5.10457 29.9233C4.65806 29.9634 4.23826 29.8635 3.85535 29.6354C3.857 29.5459 3.85782 29.4571 3.87194 29.3685L3.8762 29.3428C3.90347 29.1714 3.96636 29.0009 4.06211 28.8553C4.23245 28.5963 4.49407 28.3847 4.78868 28.285C4.93942 28.2339 5.10341 28.2072 5.25871 28.1719L5.1786 28.0287C4.98519 27.6378 5.03064 27.1349 5.08216 26.7153C5.1128 26.4657 5.15206 26.2116 5.22989 25.9717C5.26278 25.8703 5.30713 25.7661 5.36791 25.6778C5.59992 25.3409 5.98462 25.2374 6.37256 25.2027C6.4739 25.1936 6.574 25.2007 6.67467 25.1825L6.69031 25.1795Z" fill="#90CDE1"/>
<path d="M12.0104 17.075C12.1355 17.2011 12.2416 17.3491 12.3498 17.49C12.9523 18.2751 13.4037 19.245 13.6061 20.2152C13.8127 21.205 13.6958 22.2388 13.4064 23.1998C13.3424 23.4125 13.2838 23.6476 13.1614 23.8346C12.9056 23.9688 12.5915 24.044 12.3132 24.1199C10.6719 24.5677 8.94228 24.4677 7.31655 24.0109L6.36597 23.6322C6.89133 23.3006 7.34788 22.9208 7.71801 22.4178L7.96549 22.0555C7.99156 22.0163 8.03582 21.9368 8.07234 21.9079C8.10846 21.8794 8.23372 21.864 8.28468 21.8436C8.5826 21.7238 8.79157 21.4056 8.90962 21.1171C8.94535 21.0298 8.96816 20.9378 9.00011 20.8491C9.09391 20.5888 9.18946 20.3787 9.20717 20.0954C9.216 19.9535 9.19554 19.794 9.14986 19.6593C9.11744 19.5637 9.07253 19.4692 9.05184 19.3701C9.0334 19.2818 9.03816 19.1871 9.03452 19.0974C9.02956 18.9744 9.0096 18.8478 8.99152 18.7262C8.91713 18.2257 8.73975 17.7525 8.5472 17.2875C8.75869 17.421 8.98716 17.5321 9.22175 17.6185C9.59303 17.7551 9.99452 17.8253 10.3887 17.8463C10.7593 17.8661 11.1583 17.8456 11.4996 17.6843C11.7738 17.5548 11.9122 17.3543 12.0104 17.075Z" fill="#F36F2C"/>
<path d="M9.15437 2.47305L9.69414 2.43945C9.57635 2.53766 9.46021 2.63531 9.39365 2.77713C9.36407 2.84017 9.34969 2.90994 9.32517 2.97523C9.33799 3.16234 9.39011 3.28361 9.53292 3.41054C9.73674 3.59169 10.0295 3.6666 10.2902 3.71813C10.6778 3.79471 11.2154 3.73003 11.5479 3.50601C11.6493 3.43772 11.7314 3.34621 11.7544 3.22268C11.7867 3.04871 11.7141 2.88403 11.6121 2.74727C11.5564 2.67261 11.4898 2.61341 11.4189 2.55402C11.7018 2.61237 11.985 2.66172 12.2638 2.73786C13.0568 2.95433 13.8587 3.30347 14.5307 3.77626L14.8092 3.98081C14.8407 4.00471 14.8856 4.03055 14.908 4.06314C15.0953 4.19005 15.2699 4.35798 15.4313 4.51691C16.2727 5.34531 16.7846 6.39769 17.009 7.55216C17.132 8.18447 17.1779 8.84061 17.1671 9.48363C17.1622 9.77847 17.1537 10.0899 17.1013 10.3804C17.146 10.4932 17.2512 10.5851 17.3033 10.7006C17.3579 10.7826 17.4815 10.9846 17.487 11.0809C17.7724 11.7602 17.7671 12.477 17.4874 13.1563C17.2398 13.7579 16.7669 14.2996 16.2593 14.7014C16.1649 14.7761 16.0641 14.8653 15.9595 14.9241L15.9575 14.9243C15.7963 15.0709 15.5813 15.1937 15.3939 15.3037C14.4791 15.841 13.509 16.1712 12.4708 16.369C11.1101 16.6283 9.70756 16.6296 8.36447 16.2694C7.37694 16.0046 6.43346 15.5383 5.57331 14.9914C5.22314 14.7687 4.87516 14.5346 4.56726 14.2553C4.33238 14.0422 4.13223 13.8106 3.94031 13.5584C3.85117 13.4413 3.75747 13.3278 3.68414 13.1997C3.8592 12.9754 3.99114 12.746 4.09429 12.4815C4.02895 12.5469 3.99104 12.6286 3.93509 12.7013C3.78005 12.9028 3.54721 13.0627 3.31629 13.1648C2.96867 13.3184 2.6042 13.3097 2.25506 13.1719C1.74473 12.9704 1.35018 12.5188 1.13661 12.0231C1.03855 11.8134 1.00514 11.5317 1.00812 11.3024C1.01287 10.9374 1.10201 10.6127 1.37259 10.355C1.60097 10.1374 1.90545 10.048 2.21685 10.0606C2.73772 10.0816 3.22097 10.2953 3.5759 10.6812C3.61014 10.7043 3.63605 10.7268 3.67746 10.7339C3.62927 10.559 3.54516 10.4397 3.42701 10.3056C3.28463 9.81023 3.24593 9.27383 3.2332 8.76043C3.21261 7.92856 3.26764 7.09431 3.4397 6.27877C3.51406 5.9263 3.61946 5.5873 3.73642 5.24689C3.75549 5.18862 3.76478 5.13178 3.77393 5.07126C3.81482 5.00572 3.89681 4.93334 3.95154 4.8762C5.00468 3.77702 6.46311 3.0011 7.93714 2.65217C8.3269 2.5599 8.75288 2.48188 9.15437 2.47305Z" fill="#F4CEAB"/>
<path d="M9.28883 5.1958L9.63777 5.53099C9.5799 5.53179 9.48617 5.54623 9.43253 5.53258C9.38424 5.52395 9.31576 5.53635 9.27319 5.51377L9.28883 5.1958Z" fill="#050403"/>
<path d="M11.8441 10.7883C11.9451 10.6649 12.1017 10.5339 12.2485 10.4693C12.418 10.3946 12.6122 10.3723 12.7874 10.4432C12.9361 10.5033 13.0508 10.6239 13.1096 10.7732C13.1654 10.9148 13.1622 11.0688 13.0964 11.2061C13.0115 11.3833 12.8497 11.5104 12.6636 11.5681C12.5375 11.6072 12.3871 11.6416 12.2645 11.5775L12.2697 11.5571L12.3502 11.5372C12.5633 11.483 12.81 11.367 12.9209 11.1647C12.9735 11.0689 12.9903 10.9559 12.9543 10.8515C12.9162 10.741 12.8338 10.6563 12.7274 10.6083C12.5787 10.5411 12.3995 10.5576 12.2518 10.6192L12.2349 10.6265C12.1513 10.6538 12.0754 10.6907 12.0001 10.7358C11.9512 10.7652 11.8881 10.8208 11.8319 10.8263L11.8441 10.7883Z" fill="#050403"/>
<path d="M1.3927 11.524C1.41673 11.3499 1.49311 11.177 1.59493 11.0349C1.73226 10.8432 1.91905 10.7236 2.15262 10.6861L2.18418 10.6814L2.23789 10.6735C2.68267 10.6241 3.05981 10.8255 3.395 11.0943C3.51547 11.2208 3.63137 11.3565 3.66541 11.5336C3.54865 11.4241 3.28997 11.1587 3.12558 11.1618C3.00028 11.1642 2.85572 11.2273 2.77234 11.3225C2.68228 11.4254 2.64665 11.5812 2.66126 11.7155C2.691 11.989 2.83097 12.1437 3.03978 12.304L3.18963 12.4115C2.96839 12.384 2.78252 12.3639 2.63647 12.1723C2.50582 12.001 2.46359 11.7501 2.49948 11.5408C2.52859 11.3711 2.62817 11.2295 2.77247 11.1362C2.84839 11.087 2.93184 11.0626 3.01763 11.037C2.97222 11.0002 2.90936 10.9804 2.85536 10.9571C2.63554 10.8624 2.42128 10.8071 2.17912 10.8315C1.95931 10.8535 1.77277 10.9698 1.63816 11.1408C1.55468 11.2469 1.49046 11.3636 1.42496 11.481C1.41094 11.506 1.41557 11.4977 1.3927 11.524Z" fill="#050403"/>
<path d="M13.4235 5.38459C13.4677 5.37226 13.5987 5.20873 13.6417 5.16642C13.8012 5.0096 13.9904 4.83325 14.1974 4.74239C14.4289 4.64076 14.5892 4.67262 14.8155 4.76087C14.8559 4.78539 14.8956 4.81196 14.9386 4.83169C15.2143 5.02272 15.4624 5.24234 15.6636 5.51233C15.7342 5.60708 15.7926 5.71816 15.8676 5.80822C15.8842 5.84378 15.8963 5.84808 15.8836 5.88691C15.591 5.74318 15.2904 5.61957 14.97 5.55321C14.5699 5.43046 14.1185 5.42745 13.7045 5.44732C13.64 5.44966 13.4204 5.49216 13.377 5.46424L13.4235 5.38459Z" fill="#17110F"/>
<path d="M14.2582 5.03037C14.2999 5.00367 14.4142 4.91251 14.4592 4.90895C14.4961 4.906 14.5684 4.92944 14.6064 4.938C14.8453 4.99197 15.1896 5.24305 15.3306 5.43953C15.2977 5.44128 15.286 5.43844 15.2558 5.42852C15.2186 5.33698 15.137 5.30178 15.0531 5.26146C14.9478 5.21089 14.8447 5.16125 14.7305 5.13276C14.5852 5.0965 14.3882 5.09743 14.2582 5.03037Z" fill="#3A5EA6"/>
<path d="M15.2555 5.42843C15.0229 5.3699 14.7942 5.30532 14.5578 5.26271C14.4535 5.24394 14.1294 5.24378 14.0599 5.18329C14.0917 5.11723 14.196 5.06722 14.2578 5.03027C14.3879 5.09733 14.5848 5.09641 14.7301 5.13266C14.8443 5.16115 14.9474 5.21079 15.0527 5.26136C15.1367 5.30168 15.2182 5.33688 15.2555 5.42843Z" fill="#2F4378"/>
<path d="M9.43275 5.53272C9.34781 5.54607 9.25418 5.54118 9.16779 5.54505L8.74461 5.58021C8.10622 5.65071 7.50408 5.84019 6.91589 6.09242C6.99819 5.92344 7.12705 5.76136 7.25019 5.61984C7.47854 5.35736 7.74023 5.12141 8.04316 4.9487C8.16759 4.87774 8.30168 4.81428 8.4472 4.80582C8.76349 4.78741 9.06246 4.99652 9.28905 5.19594L9.27341 5.51392C9.31598 5.53649 9.38446 5.5241 9.43275 5.53272Z" fill="#17110F"/>
<path d="M8.98372 5.22827C9.0361 5.2604 9.11159 5.2944 9.15211 5.33942L7.51795 5.66073L7.5127 5.65495C7.52737 5.64074 7.60193 5.55963 7.61568 5.55672C7.76996 5.5014 7.92142 5.4385 8.0797 5.39484C8.38009 5.31192 8.67665 5.27259 8.98372 5.22827Z" fill="#2F4378"/>
<path d="M7.61548 5.5567C7.8068 5.35017 8.05779 5.1206 8.34172 5.05632C8.60096 4.99766 8.76919 5.09942 8.98351 5.22825C8.67645 5.27257 8.37989 5.3119 8.0795 5.39482C7.92122 5.43848 7.76976 5.50137 7.61548 5.5567Z" fill="#4F77BC"/>
<path d="M9.56494 12.6292C9.63312 12.5362 9.81417 12.4551 9.91335 12.3886C10.0524 12.2954 10.1934 12.1626 10.3451 12.0958L10.4177 12.0632C10.3667 12.1735 10.2997 12.2704 10.2315 12.3705C10.9355 12.7395 11.7953 12.8751 12.5842 12.8393C12.9066 12.8246 13.2454 12.7833 13.5546 12.6876C13.9511 12.565 14.308 12.347 14.6398 12.1022C14.4093 12.4423 14.13 12.6481 13.7471 12.7942C13.7105 12.8081 13.6353 12.8212 13.6309 12.8641C13.5944 13.2255 13.4302 13.6102 13.2502 13.922C13.1439 14.1061 13.0217 14.2862 12.8534 14.4198C12.6181 14.6067 12.3082 14.6756 12.0136 14.6382C11.5564 14.5801 11.1437 14.2585 10.8707 13.9029C10.5507 13.4861 10.3132 12.9474 10.1772 12.4394C10.0892 12.4982 10.0075 12.5491 9.90972 12.5902L9.88784 12.5999C9.79996 12.6364 9.68881 12.6329 9.59455 12.6379L9.56494 12.6292Z" fill="#17110F"/>
<path d="M11.9374 13.5508C12.0897 13.5345 12.2339 13.5484 12.3808 13.591C12.6438 13.6671 12.8429 13.8042 12.9765 14.0446L12.919 14.1233C12.7266 14.3573 12.4875 14.448 12.1913 14.4727C11.7365 14.4712 11.4274 14.2443 11.1064 13.9475C11.3762 13.7294 11.5904 13.5984 11.9374 13.5508Z" fill="#DF4034"/>
<path d="M13.3912 7.94972L13.3954 7.9478C13.5679 7.66486 13.8152 7.40776 14.1141 7.25788C14.5345 7.04706 14.9569 7.06451 15.3928 7.20844C15.8854 7.43744 16.2033 7.81603 16.3868 8.3247C16.5788 8.85704 16.5496 9.49781 16.3053 10.0087C16.1163 10.4041 15.7731 10.7457 15.3535 10.8881C14.9663 11.0195 14.5536 10.9845 14.1904 10.7991C13.7028 10.5501 13.3726 10.0895 13.2105 9.57706C13.0958 9.21441 13.09 8.76935 13.2006 8.40607C13.249 8.24677 13.3245 8.10135 13.3912 7.94972Z" fill="#050403"/>
<path d="M13.8168 8.54608C13.8385 8.54118 13.8429 8.5392 13.8674 8.53884C13.9196 8.53805 13.9541 8.56075 13.9894 8.59565C14.004 8.62794 14.0227 8.66304 14.018 8.69959C14.0092 8.76801 13.9684 8.80707 13.9144 8.84353C13.886 8.85301 13.8627 8.86283 13.8324 8.8581C13.7867 8.85103 13.7613 8.83312 13.737 8.79395C13.7126 8.75465 13.709 8.70677 13.7206 8.66291C13.7366 8.60216 13.7648 8.57767 13.8168 8.54608Z" fill="white"/>
<path d="M14.3092 8.73901C14.3776 8.73283 14.4345 8.73399 14.4997 8.75789C14.5863 8.78968 14.6597 8.86956 14.6974 8.95265C14.7437 9.05507 14.7475 9.17213 14.7083 9.277C14.6597 9.40662 14.5776 9.47005 14.4545 9.52342C14.3971 9.52891 14.3363 9.52745 14.2807 9.51033C14.1841 9.48056 14.1018 9.39661 14.0604 9.30635C14.0091 9.19467 14.0201 9.06046 14.0661 8.94954C14.1153 8.83116 14.1957 8.78538 14.3092 8.73901Z" fill="white"/>
<path d="M14.6112 7.22079C14.7063 7.21577 14.7987 7.21342 14.8935 7.2241C15.3214 7.27219 15.6881 7.49246 15.9522 7.82984C16.2683 8.23367 16.4092 8.7908 16.3459 9.29845C16.3046 9.62951 16.198 9.95535 15.996 10.2251C15.7832 10.5092 15.4512 10.7144 15.0976 10.7621C14.7456 10.8095 14.3464 10.7447 14.0576 10.5254C14.2761 10.5501 14.4299 10.5429 14.6366 10.4616C14.8673 10.3655 15.0415 10.193 15.1602 9.97491C15.3142 9.69214 15.3336 9.29874 15.2393 8.99277C15.1489 8.69905 14.9609 8.44186 14.6855 8.29786C14.4456 8.1724 14.189 8.13281 13.9273 8.21642C13.5825 8.32651 13.4373 8.54553 13.2822 8.85207C13.3073 8.47097 13.4122 8.11833 13.6393 7.80617C13.8749 7.48228 14.2187 7.28098 14.6112 7.22079Z" fill="white"/>
<path d="M8.44181 7.12277C8.98105 7.04731 9.42742 7.11933 9.87191 7.45082C10.3038 7.77296 10.5588 8.30308 10.6334 8.82792C10.7105 9.37017 10.5381 9.96896 10.2065 10.4019C9.91187 10.7865 9.45852 11.0472 8.97798 11.1078C8.53821 11.1632 8.08437 11.0407 7.73516 10.767C7.31176 10.435 7.06375 9.94186 6.97855 9.41657C6.91893 8.97062 6.99253 8.54583 7.19552 8.14603C7.46667 7.61197 7.88491 7.30633 8.44181 7.12277Z" fill="#050403"/>
<path d="M8.10865 8.73919C8.17538 8.73555 8.24495 8.72914 8.31042 8.74563C8.41324 8.77158 8.48711 8.82571 8.54012 8.91789C8.60411 9.02917 8.60301 9.16871 8.56491 9.28868C8.52138 9.42557 8.43277 9.49412 8.30781 9.55552C8.22677 9.56273 8.15962 9.56765 8.08096 9.54224C7.98363 9.51074 7.92106 9.43638 7.8776 9.34675C7.82694 9.24231 7.81904 9.10641 7.8585 8.99691C7.90444 8.86931 7.99278 8.79825 8.10865 8.73919Z" fill="white"/>
<path d="M8.61869 7.20489C8.77849 7.18807 8.94374 7.19527 9.10003 7.23229C9.34206 7.2896 9.57 7.40322 9.76599 7.55611C10.1421 7.84953 10.4115 8.34716 10.4676 8.81948C10.5296 9.34134 10.3988 9.89555 10.0676 10.3101C9.78354 10.6657 9.37074 10.8936 8.91796 10.9393C8.47744 10.9839 8.0653 10.8254 7.7276 10.5507C7.94057 10.6282 8.09812 10.6678 8.32521 10.6311C8.4394 10.6103 8.55709 10.5563 8.65581 10.4972C8.92143 10.3382 9.10667 10.0332 9.17932 9.73817C9.26244 9.40066 9.1818 9.02816 8.99992 8.73626C8.83966 8.47903 8.56462 8.27419 8.26687 8.20938L8.24073 8.20392C8.06243 8.16529 7.86624 8.19764 7.69884 8.26477C7.38497 8.39069 7.2376 8.66335 7.11267 8.95673C7.11617 8.61344 7.29365 8.18932 7.49109 7.91338C7.77139 7.52161 8.14545 7.28176 8.61869 7.20489Z" fill="white"/>
</svg>
