<svg width="21" height="32" viewBox="0 0 21 32" fill="none" xmlns="http://www.w3.org/2000/svg">
<path d="M9.34805 0.0683204C9.4052 0.0636931 9.45898 0.0620357 9.51522 0.0752246C9.58664 0.0919693 9.64515 0.141183 9.67848 0.204087C9.77291 0.38234 9.69861 0.549459 9.63494 0.721143C9.94936 0.672171 10.2635 0.614487 10.5813 0.590499C11.3191 0.534831 12.1003 0.579661 12.7927 0.851294C13.4007 1.08985 13.9308 1.51962 14.3061 2.03525C14.4075 2.17449 14.4909 2.32342 14.5609 2.47952C14.5726 2.5056 14.64 2.6782 14.6485 2.68279C14.6625 2.69036 14.7603 2.68527 14.7816 2.68584C14.9392 2.69012 15.0931 2.69933 15.2491 2.72257C15.2964 2.7296 15.3619 2.7376 15.4015 2.76657C15.4653 2.81321 15.5099 2.94694 15.5406 3.0199C15.745 3.50513 15.8547 3.99217 15.8576 4.51591C16.1104 4.68711 16.3916 4.83172 16.6911 4.90997C16.7799 4.93321 16.8754 4.95695 16.9671 4.96639C17.0742 4.97744 17.3302 4.94329 17.4084 5.00265C17.4637 5.04461 17.4703 5.09008 17.472 5.15396C17.4752 5.26707 17.3991 5.35148 17.3193 5.42661C17.0324 5.69692 16.5963 5.75876 16.2151 5.74962C16.513 6.06359 16.8264 6.34856 17.2549 6.48923C17.3605 6.52391 17.5175 6.53131 17.6054 6.59486C17.6723 6.64325 17.7208 6.73074 17.7249 6.81146C17.7298 6.90786 17.678 6.97054 17.6136 7.0367C17.3705 7.28605 17.0294 7.32426 16.6939 7.33413C16.7231 7.3648 16.7496 7.39651 16.7732 7.4315C17.0359 7.82144 17.0842 8.37254 16.8043 8.76774C16.7724 8.81277 16.6455 8.91828 16.6376 8.95658C16.6199 9.0424 16.6632 9.18852 16.671 9.28294C16.6914 9.52616 16.6776 9.753 16.623 9.9913C16.4682 10.6661 16.021 11.1967 15.5059 11.6561C15.3408 11.8034 15.161 11.9603 14.9709 12.0761L14.9515 12.0876C14.9973 12.1991 15.048 12.3149 15.0512 12.4366C15.0589 12.7282 14.9112 12.9231 14.7155 13.1263C14.7326 13.218 14.8292 13.3388 14.8755 13.4258C14.9426 13.552 15.0007 13.6832 15.0498 13.8169C15.1324 14.0419 15.1919 14.2817 15.2414 14.5154L15.3243 14.9126C15.3344 14.9603 15.3355 15.0214 15.3573 15.0649C15.4118 15.1738 15.5096 15.2816 15.5796 15.3831C15.9949 15.9851 16.4551 16.562 16.9673 17.0912L17.4668 17.5788C17.5547 17.6644 17.674 17.7602 17.728 17.8703C17.7879 17.9925 17.7396 18.1257 17.7512 18.2515L19.0279 18.8753C19.1702 18.958 19.3365 19.0795 19.3698 19.2464C19.3958 19.3775 19.2987 19.4952 19.2259 19.5953C19.3297 19.7484 19.4271 19.892 19.4857 20.0681C19.5471 20.2529 19.5793 20.5211 19.4765 20.6978C19.428 20.7812 19.3475 20.8593 19.2479 20.8804C19.1407 20.9031 19.0343 20.867 18.9457 20.8114L18.8947 20.7796C18.8516 20.8516 18.855 20.9445 18.8131 21.0204C18.7523 21.1308 18.6472 21.2392 18.5211 21.2758C18.4049 21.3094 18.3044 21.2823 18.203 21.2258L18.1825 21.214L18.1426 21.2374C18.0421 21.2888 17.8679 21.3026 17.7575 21.2722C17.6901 21.2535 17.6529 21.172 17.5918 21.1524C17.5248 21.1591 17.4633 21.1651 17.3972 21.1484C17.3024 21.1243 17.2233 21.0755 17.1776 20.9895C17.0706 20.7884 17.1178 20.47 17.1951 20.2647L17.2036 20.2429L17.1952 20.2253C16.9199 20.0436 16.7578 19.8115 16.5811 19.5454C16.4767 19.587 16.3757 19.6266 16.2608 19.6243C15.7269 19.6136 14.9929 18.8506 14.641 18.5015C14.4978 18.7813 14.4769 19.0684 14.4422 19.3741L14.3482 20.0362C14.3217 20.2168 14.301 20.4098 14.2455 20.5843C14.2385 20.6062 14.4401 20.9189 14.4609 20.9841C14.5042 21.1204 14.519 21.2874 14.4415 21.4138C14.2896 21.6617 13.9486 21.7558 13.6772 21.8254C13.6478 22.1799 13.4884 22.532 13.3068 22.837C13.462 23.0416 13.6455 23.2236 13.7992 23.4315C14.3281 24.1469 14.804 24.9022 15.188 25.6998L15.5631 26.5653C15.7371 26.553 15.8994 26.4932 16.0713 26.474C16.1872 26.461 16.3049 26.4827 16.3946 26.5589C16.5817 26.718 16.6577 27.0547 16.6612 27.2867C16.664 27.4722 16.5974 27.6557 16.4603 27.7875L16.4437 27.8031C16.4913 27.906 16.549 28.0495 16.6254 28.134L16.6809 28.1127C16.7735 28.1509 16.8517 28.2226 16.8989 28.3082L16.9066 28.323L17.1749 28.2843C17.3854 27.9827 17.8098 27.792 18.161 27.6937C18.6249 27.5638 19.2166 27.5883 19.6411 27.8197C20.0599 28.048 20.291 28.3807 20.4191 28.8176C20.5358 28.8614 20.6191 28.9105 20.6789 29.0199C20.7107 29.0783 20.7106 29.1524 20.6898 29.2142C20.4872 29.8188 18.3561 30.7301 17.7341 31.007C17.6285 30.9278 17.5399 30.8299 17.4485 30.7364L17.2407 30.8062L17.3415 31.1206L17.2951 31.1447C17.1355 31.2208 16.9635 31.2791 16.7985 31.3438C16.3736 31.5104 15.9415 31.6546 15.4852 31.713C15.3831 31.7261 15.2667 31.7514 15.168 31.7158C15.0549 31.6751 15.0023 31.4523 14.9558 31.3472C14.8753 31.1654 14.7783 30.9877 14.7093 30.8017C14.5731 30.4342 14.5176 30.0313 14.5209 29.6419L14.5425 29.2855C14.5483 29.2199 14.5647 29.1412 14.5506 29.0766C14.5202 28.9368 14.4183 28.7749 14.3555 28.643C14.2726 28.6588 14.146 28.6771 14.0637 28.656C13.9176 28.6185 13.7937 28.4605 13.7192 28.3407C13.6083 28.1624 13.3914 27.7872 13.4553 27.5749C13.5061 27.4061 13.6401 27.324 13.7908 27.2466L13.5347 26.8089L12.035 24.8297C11.7339 24.4988 11.406 24.195 11.0655 23.9022C11.0461 23.8856 10.9623 23.8043 10.9489 23.8027C10.9114 23.7981 10.8109 23.8324 10.77 23.8411L10.3718 23.9088C10.146 23.9371 9.91689 23.9388 9.69007 23.9245C9.57984 24.1867 9.37673 24.4324 9.19921 24.6558C8.50174 25.5332 7.56866 26.2335 6.54791 26.7312C6.35504 26.8253 6.15447 26.8933 5.9598 26.981L6.01191 27.1262C6.02938 27.1994 6.0148 27.2661 5.97154 27.3285C5.84356 27.513 5.48807 27.6498 5.26903 27.6856C4.93256 27.7406 4.66109 27.6656 4.38594 27.4774C4.33063 27.5024 4.27894 27.5699 4.23707 27.6132C4.07829 27.7771 3.94959 27.9616 3.79603 28.1297C4.01861 28.307 4.11406 28.4541 4.18717 28.7244L4.4157 28.6902C4.84903 28.6524 5.26059 28.761 5.59577 29.0341C5.98969 29.355 6.24873 29.867 6.15291 30.372C6.13774 30.452 6.11125 30.5304 6.07899 30.6054C6.0684 30.63 6.02823 30.6968 6.02695 30.7194C6.02382 30.773 6.07955 30.8646 6.08319 30.929C6.09045 31.0567 6.02792 31.2375 5.93536 31.3305C5.74343 31.5233 5.45613 31.5471 5.19421 31.5519C4.85069 31.5581 4.49392 31.5284 4.15256 31.4939C3.46408 31.4244 2.60273 31.3269 2.08614 30.8393C1.75815 30.5297 1.54004 30.1034 1.34874 29.706C1.29933 29.6034 1.22323 29.4851 1.22229 29.3706C1.25899 29.2975 1.32919 29.2509 1.39248 29.1996L1.20028 28.7846C1.07046 28.8739 1.00134 28.9605 0.831594 28.959C0.771981 28.9267 0.746219 28.8872 0.713652 28.8299C0.490199 28.4368 0.30584 28.0171 0.123703 27.605C0.085477 27.5185 -0.00194595 27.3763 3.30456e-05 27.2862C0.000449677 27.2672 0.0104837 27.2495 0.0156916 27.2311C0.112315 27.1367 0.281954 27.0808 0.405033 27.0203C0.720354 26.8653 1.0372 26.6999 1.36311 26.5664C1.82418 26.3775 2.32216 26.2379 2.79823 26.0874C3.03436 26.0128 3.27854 25.911 3.51883 25.8559C3.54445 25.85 3.53508 25.8581 3.54268 25.8295C3.59643 25.6275 3.61504 25.336 3.77082 25.1807C3.89498 25.0569 4.10892 24.981 4.27206 24.9179C4.38351 24.8748 4.50947 24.8231 4.63137 24.8241C4.84608 24.8259 5.02099 24.9553 5.16237 25.097L5.19504 25.0869C5.29159 25.0502 5.40453 24.9612 5.48869 24.9012C6.05455 24.4978 6.51718 23.9259 6.77435 23.2958C6.40507 22.9074 6.20454 22.2705 6.18544 21.753C5.86804 21.5907 5.53175 21.4779 5.25719 21.244C5.16806 21.1681 5.06088 21.0573 5.05852 20.9355C5.05363 20.6829 5.44307 20.7259 5.56122 20.6148L5.54622 20.5562C5.5414 20.5462 5.53386 20.5376 5.52709 20.5287C5.49737 20.4899 5.44578 20.5048 5.40162 20.51C4.76622 20.5864 4.14027 20.6131 3.50838 20.4871C2.79136 20.3442 2.05454 20.0442 1.6418 19.4345C0.931238 18.3848 1.23003 16.935 1.52049 15.8015C1.71447 15.0444 1.96427 14.2911 2.24894 13.5611L2.6313 12.5829C2.71136 12.3835 2.82059 12.1768 2.86552 11.9675L2.75851 11.9355C2.68362 11.9139 2.61995 11.8954 2.55652 11.849C2.4183 11.7479 2.37441 11.5844 2.35556 11.4259C2.27682 10.7634 2.51284 10.1677 2.82496 9.59309C2.97297 9.32064 3.1322 9.05328 3.33367 8.81378C3.75027 8.31856 4.25488 8.22977 4.87639 8.12409C5.10255 8.08566 5.33256 8.03506 5.56088 8.01414L5.5808 8.01246L5.76051 7.33882C5.65715 7.23064 5.5791 7.08957 5.50873 6.9601C5.2959 6.56868 5.19 6.19183 5.17105 5.75233C5.23181 5.62038 5.39145 5.50138 5.50783 5.41526C5.45068 5.18333 5.41506 4.95233 5.4119 4.71386C5.39533 3.45367 6.14329 2.45015 7.18279 1.75183C7.30968 1.6666 7.44353 1.5894 7.58001 1.51935C7.66997 1.47318 7.83481 1.41863 7.90328 1.35121C7.80412 1.31629 7.70725 1.28176 7.61698 1.22822C7.49967 1.15867 7.38568 1.06881 7.35565 0.932283C7.33302 0.829376 7.34454 0.715585 7.40829 0.627927C7.4755 0.53546 7.62761 0.46755 7.74072 0.453541C8.0849 0.410917 8.40858 0.602861 8.66505 0.80106C8.79848 0.494521 9.02305 0.199824 9.34805 0.0683204Z" fill="#040303"/>
<path d="M13.1777 12.7629L13.219 12.7661C13.2132 12.8226 13.2197 12.88 13.2313 12.9356L13.2373 12.9638C13.1624 13.0008 13.0799 13.0243 13.0006 13.051L12.9463 13.0512L12.9686 12.7977C13.0189 12.7695 13.1183 12.7703 13.1777 12.7629Z" fill="#BA5730"/>
<path d="M10.8068 5.7146C10.8386 5.70974 10.8233 5.70736 10.8527 5.72297L10.8439 5.74292C10.7711 5.89493 10.539 6.05264 10.3792 6.10862L10.3299 6.10223C10.3214 6.0811 10.3106 6.07176 10.3211 6.04946C10.3911 5.90049 10.6532 5.76733 10.8068 5.7146Z" fill="#61A7CB"/>
<path d="M5.78491 19.531L6.47249 19.5701L6.30219 19.6358L5.83029 19.785L5.78491 19.531Z" fill="#D27536"/>
<path d="M6.88549 12.1262C6.99086 12.2426 7.1205 12.3315 7.22067 12.454L7.03523 12.5156C6.96378 12.5468 6.90007 12.5915 6.83493 12.6333L6.77185 12.2737L6.88549 12.1262Z" fill="#96AB6A"/>
<path d="M17.3904 20.3301C17.4663 20.35 17.5229 20.3537 17.6009 20.348L17.6253 20.346L17.6333 20.3713C17.6546 20.5087 17.6427 20.816 17.5688 20.9328L17.5229 20.9567C17.4973 20.9525 17.4684 20.9492 17.4448 20.9376C17.4019 20.9165 17.3624 20.8689 17.3468 20.8254C17.2976 20.6879 17.3221 20.4569 17.3904 20.3301Z" fill="#F0D39B"/>
<path d="M3.63685 9.46484L3.66602 9.46799C3.6415 9.68168 3.51551 9.89627 3.41909 10.0886L2.92466 11.0218L2.9175 11.029L2.90747 11.0134C3.01468 10.4624 3.30966 9.92178 3.63685 9.46484Z" fill="#96AB6A"/>
<path d="M9.3439 0.307369C9.37882 0.295262 9.40504 0.296702 9.44181 0.298697L9.48486 0.349223C9.49819 0.517059 9.37869 0.698677 9.31737 0.854563L8.95285 0.977325C8.91171 0.98811 8.86762 1.01081 8.82825 0.993769C8.91359 0.733282 9.09659 0.449819 9.3439 0.307369Z" fill="white"/>
<path d="M7.87746 19.811L7.89756 19.8242C7.76636 20.0593 7.60394 20.2352 7.34344 20.3362C7.1729 20.4024 6.97594 20.4416 6.80099 20.3723L6.74756 20.3133C6.80412 20.2324 7.01837 20.1627 7.11242 20.1139L7.63606 19.8206C7.70716 19.8576 7.80271 19.8256 7.87746 19.811Z" fill="#96AB6A"/>
<path d="M17.9293 20.079L17.9504 20.0747C17.9854 20.0755 18.0239 20.089 18.0523 20.108C18.1363 20.3445 18.1729 20.7609 18.074 20.9914C18.0499 21.0476 18.0185 21.0561 17.9655 21.0784C17.9234 21.0809 17.8912 21.0781 17.8527 21.0594C17.8303 21.0485 17.7948 21.0234 17.7872 21.0011C17.7662 20.94 17.7809 20.8447 17.7816 20.78C17.7834 20.6222 17.7898 20.4691 17.7532 20.3141L17.7454 20.2824L17.76 20.2715L17.7832 20.2534C17.8526 20.2017 17.8855 20.1505 17.9293 20.079Z" fill="#F0D39B"/>
<path d="M8.44147 18.8496C8.51434 18.841 8.60663 18.8375 8.67586 18.8635C8.74571 18.8897 8.84046 18.9527 8.86584 19.0243C8.88379 19.075 8.86459 19.1282 8.84213 19.175C8.74481 19.3775 8.43473 19.4666 8.23183 19.5321L7.87634 19.6398C8.04841 19.5064 8.32491 19.3049 8.368 19.0822C8.38071 19.0165 8.36172 18.9935 8.32825 18.9406C8.35415 18.8921 8.39408 18.8782 8.44147 18.8496Z" fill="#96AB6A"/>
<path d="M7.7121 0.685492C8.10401 0.673763 8.35604 0.814823 8.64286 1.06345L8.40427 1.14545L8.16255 1.23446C7.9868 1.16513 7.76876 1.09824 7.6336 0.965577C7.58406 0.916933 7.55746 0.869447 7.55903 0.801293C7.60117 0.743488 7.64884 0.719394 7.7121 0.685492Z" fill="white"/>
<path d="M18.8629 19.7232L18.9636 19.7175C19.0772 19.7723 19.1519 19.8613 19.2054 19.9705C19.2886 20.1403 19.3765 20.3697 19.2986 20.5557C19.2739 20.6148 19.24 20.6348 19.1806 20.6575C19.1418 20.6599 19.1005 20.6631 19.0629 20.6519C19.0318 20.6427 18.9142 20.588 18.9016 20.5643C18.8722 20.5092 18.8792 20.3332 18.8657 20.2608C18.8346 20.0941 18.7685 19.9934 18.7015 19.844C18.6842 19.8053 18.6849 19.804 18.7008 19.7667C18.7506 19.7374 18.8064 19.7325 18.8629 19.7232Z" fill="#F0D39B"/>
<path d="M16.2555 7.27026L16.3076 7.29528L16.3308 7.30643C16.5289 7.40379 16.653 7.59096 16.7191 7.79092C16.8012 8.03903 16.7806 8.32993 16.66 8.56113L16.5751 8.69309C16.5186 8.49979 16.4774 8.29933 16.4137 8.10894C16.3907 8.04027 16.3671 7.9576 16.3179 7.90272C16.2629 7.84135 16.2935 7.61152 16.2882 7.52306C16.2832 7.43862 16.2691 7.3537 16.2555 7.27026Z" fill="#F0D39B"/>
<path d="M18.5567 19.9785L18.6002 19.9877C18.6907 20.1884 18.7249 20.4519 18.6931 20.6685C18.6731 20.8051 18.6519 20.9581 18.5248 21.0416C18.4677 21.0792 18.4256 21.0787 18.36 21.0667C18.3236 21.0372 18.2836 21.0047 18.2717 20.9579C18.2469 20.8601 18.2833 20.7162 18.2811 20.6125C18.2775 20.4397 18.2504 20.2771 18.2115 20.1089C18.3326 20.0866 18.4304 20.0569 18.5341 19.9926L18.5567 19.9785Z" fill="#F0D39B"/>
<path d="M5.39252 8.20675C5.44015 8.20139 5.47747 8.19707 5.52487 8.20933C5.50952 8.30569 5.47008 8.40882 5.47751 8.50679C5.48459 8.60007 5.55972 8.72583 5.60021 8.81242L5.14184 8.93276L5.03581 8.77622C4.8952 8.59488 4.7575 8.4651 4.55884 8.34359L5.39252 8.20675Z" fill="#96AB6A"/>
<path d="M12.7297 9.08998L12.7541 9.07956C12.8188 9.05047 12.8731 8.99388 12.9313 8.95387C13.0926 8.84287 13.3484 8.7751 13.5413 8.82663C13.6155 8.88878 13.6609 8.94982 13.6657 9.04769C13.6707 9.14857 13.6139 9.24668 13.5423 9.31662C13.4582 9.39876 13.3262 9.43642 13.209 9.43699C13.0077 9.43796 12.8468 9.36939 12.7018 9.23817C12.702 9.18654 12.7171 9.13987 12.7297 9.08998Z" fill="#F7B243"/>
<path d="M10.9359 5.49543C10.7763 5.50742 10.6191 5.58071 10.4787 5.65096C10.0286 5.87633 9.66028 6.21508 9.22327 6.45682L9.4246 6.0347C9.46627 5.93523 9.49686 5.82919 9.53227 5.7273L10.8134 5.30859C10.8321 5.36518 10.8468 5.43375 10.8832 5.48203L10.9359 5.49543Z" fill="#61A7CB"/>
<path d="M8.67542 11.7966C9.32682 12.2253 9.97541 12.5273 10.7476 12.6955L10.6266 12.9541C10.2505 12.8573 9.86844 12.7359 9.51566 12.5763C9.19135 12.4296 8.89172 12.2549 8.58081 12.0856L8.62296 11.9428C8.64407 11.8933 8.66091 11.8482 8.67542 11.7966Z" fill="#BA5730"/>
<path d="M10.953 12.7275L12.7856 12.7883L12.7055 13.1244L12.6361 13.1405C12.0369 13.2318 11.4218 13.187 10.8422 13.0122L10.953 12.7275Z" fill="white"/>
<path d="M14.1721 13.4326C14.2037 13.442 14.2075 13.4539 14.2239 13.4828C14.2838 13.5888 14.317 13.7397 14.3527 13.8558C14.4567 14.1938 14.5185 14.5373 14.5734 14.8851C14.681 15.5672 14.7214 16.2374 14.6994 16.927C14.6892 17.2452 14.6766 17.6013 14.5912 17.9099L14.578 17.9026L14.5677 16.8491C14.5186 15.7251 14.355 14.5758 13.9924 13.504L14.1721 13.4326Z" fill="url(#paint0_linear_1563_5529)"/>
<path d="M15.8718 5.67334C16.2005 5.91067 16.4597 6.22551 16.8046 6.44941C16.8972 6.50954 16.9908 6.56569 17.0915 6.61257C17.1845 6.65583 17.3719 6.70277 17.4387 6.77506C17.4501 6.78745 17.4539 6.80483 17.4615 6.81969C17.4449 6.8812 17.3946 6.91087 17.346 6.94927C17.0057 7.12429 16.587 7.10172 16.2191 7.03777C16.1884 6.98604 16.181 6.91298 16.1675 6.85482L16.0704 6.43605L15.8718 5.67334Z" fill="#61A7CB"/>
<path d="M8.18343 19.0242L8.21912 19.0333C8.18398 19.1064 8.1486 19.181 8.09899 19.2462C7.8019 19.6366 7.22976 19.8806 6.78834 20.0789C6.53964 20.1906 6.25109 20.3267 5.97903 20.3676L5.95244 20.3372L5.86279 19.964C6.32171 19.8204 6.76608 19.658 7.18702 19.4276C7.28979 19.3714 7.38867 19.3157 7.47557 19.2377C7.49828 19.2173 7.57268 19.1309 7.59632 19.1234C7.66719 19.1008 7.79329 19.1104 7.87137 19.1022C7.97952 19.091 8.08139 19.0589 8.18343 19.0242Z" fill="#96AB6A"/>
<path d="M7.2412 12.6582C7.4449 12.6847 7.60996 12.7695 7.76314 12.8983C7.97486 13.0764 8.13929 13.3203 8.27521 13.5551C8.57414 14.0717 8.76562 14.6478 8.8578 15.2314C8.91335 15.5832 8.92956 15.9434 8.95383 16.2983C8.86676 16.302 8.78128 16.3178 8.69542 16.3315L8.67375 16.3282C8.66337 16.3243 8.65198 16.3204 8.64466 16.3123C8.63962 16.3068 8.64487 16.033 8.64365 16.0014C8.6132 15.2143 8.46638 14.4119 8.07183 13.7135C7.8098 13.2496 7.47768 12.909 6.94421 12.758C7.03955 12.7139 7.13795 12.6801 7.2412 12.6582Z" fill="#96AB6A"/>
<path d="M14.5244 13.25C14.6462 13.3901 14.7353 13.5843 14.8036 13.7534C14.9931 14.222 15.0641 14.7183 15.1248 15.215C15.1708 15.591 15.2151 15.9806 15.1737 16.3589C15.129 16.7661 15.0186 17.1564 14.8491 17.531L14.8063 17.6099C14.7762 17.5051 14.8186 17.3208 14.8261 17.2089L14.8518 16.5201C14.858 15.4588 14.6986 14.3552 14.3301 13.3529L14.5244 13.25Z" fill="#B69F80"/>
<path d="M2.72025 12.9031C3.41009 13.5939 4.42938 13.7855 5.38211 13.8395L5.08953 14.1505L5.00332 14.2443C4.82813 14.2527 4.63762 14.2222 4.4642 14.199C4.0743 14.1467 3.66055 14.0548 3.30107 13.8986C3.02304 13.7777 2.77695 13.6214 2.53308 13.4465L2.72025 12.9031Z" fill="white"/>
<path d="M17.6744 18.4324L18.8371 19.0174C18.9595 19.0802 19.0909 19.1481 19.1337 19.2835C19.1289 19.322 19.1214 19.3478 19.0995 19.381C19.0193 19.5023 18.8662 19.517 18.7318 19.5439C18.6003 19.3506 18.3762 19.0562 18.1304 18.9938C18.0773 18.9804 18.0631 18.9833 18.0176 19.0117L18.0051 19.0742C18.0358 19.1452 18.2015 19.2192 18.2692 19.2773C18.3494 19.3463 18.4213 19.4197 18.4849 19.5033C18.5429 19.5794 18.5765 19.632 18.5606 19.7271C18.5213 19.7895 18.4823 19.8303 18.4155 19.866C18.2829 19.9369 18.1602 19.908 18.0249 19.868C17.8751 19.8023 17.7311 19.7326 17.6038 19.6306C17.492 19.5412 17.376 19.3711 17.2451 19.3195L17.2191 19.3385C17.2245 19.5063 17.4183 19.6966 17.5499 19.7932C17.6209 19.8453 17.7037 19.8883 17.7629 19.9531C17.7576 19.9773 17.7512 19.9989 17.7385 20.0207C17.6831 20.1155 17.5916 20.1306 17.4908 20.1564C17.2049 20.0149 16.9286 19.7677 16.8001 19.4785C16.7721 19.4155 16.8386 19.4002 16.8882 19.3631C17.2265 19.1101 17.4956 18.8089 17.6744 18.4324Z" fill="#F0D39B"/>
<path d="M20.2973 29.0524L20.3437 29.0422C20.3928 29.0545 20.4224 29.0689 20.4648 29.0958L20.4719 29.1362C20.3252 29.4065 20.0139 29.5891 19.7532 29.7487C19.3972 29.9667 19.0321 30.1609 18.6532 30.3393L17.7725 30.7393C17.7241 30.679 17.6739 30.6059 17.6143 30.556C17.5599 30.5105 17.4898 30.5047 17.4212 30.5118C17.2882 30.5255 17.0107 30.626 16.922 30.7266C16.9062 30.8355 16.9607 30.9085 17.013 31.0006L17.004 31.0135C16.5141 31.2167 16.0434 31.4006 15.5129 31.4821C15.4458 31.4975 15.3553 31.4875 15.2853 31.4881C15.2305 31.3188 15.1444 31.1643 15.0549 31.0104C15.4577 30.8185 15.9283 30.7014 16.361 30.5876L17.4153 30.3125C18.0111 30.1722 18.5861 30.0677 19.1379 29.7958C19.5456 29.5951 19.9307 29.3156 20.2973 29.0524Z" fill="#353E50"/>
<path d="M3.84861 8.61101L3.88638 8.60181C4.05779 8.72412 4.21722 8.85691 4.27642 9.06374L4.28309 9.08815C4.3226 9.22737 4.32048 9.38176 4.30184 9.52443C4.18462 10.4214 3.76973 11.2456 3.20596 11.9584L3.04385 11.8286L3.71768 10.6851C3.86948 10.3646 4.00815 10.0162 4.00558 9.6594C4.00492 9.56986 4.00502 9.47568 3.96836 9.39184C3.94204 9.3316 3.88843 9.28248 3.82368 9.26222C3.77167 9.24595 3.70342 9.24893 3.65512 9.27475C3.54298 9.33465 3.45941 9.46466 3.39118 9.56528C3.10822 9.98284 2.89401 10.4693 2.76992 10.9531C2.73916 11.0877 2.71985 11.2073 2.741 11.3459L2.76704 11.3633C2.87765 11.2902 2.95983 11.1507 3.03177 11.0436C3.28522 10.6665 3.52461 10.2462 3.68401 9.82403C3.70973 9.75593 3.73275 9.68702 3.74584 9.6155C3.75751 9.55188 3.75324 9.46473 3.79143 9.41092L3.82181 9.42662C3.84125 9.45304 3.85233 9.4734 3.85844 9.50581C3.97002 10.0972 3.37573 11.0574 3.03497 11.5325C2.99164 11.5929 2.91439 11.7023 2.83648 11.7157C2.75423 11.7007 2.69819 11.6712 2.64604 11.6066C2.51393 11.4429 2.54025 11.0866 2.56921 10.8907C2.63368 10.4547 2.80533 10.0714 3.01382 9.68287C3.23151 9.27726 3.46906 8.89579 3.84861 8.61101Z" fill="#96AB6A"/>
<path d="M7.83948 12.7791L9.47389 13.6026C9.81143 14.5052 9.91579 15.4742 9.84337 16.4293L9.81459 16.4559C9.56943 16.3756 9.35542 16.3199 9.09885 16.286L9.08475 15.8894C9.03785 15.1459 8.88661 14.4472 8.55973 13.7682C8.3828 13.4007 8.15615 13.0498 7.83948 12.7791Z" fill="#96AB6A"/>
<path d="M4.54445 25.0614C4.64712 25.0573 4.71826 25.0578 4.81072 25.105C4.86071 25.1306 4.90029 25.1577 4.91539 25.2101L4.83412 25.3292C4.86099 25.8392 5.01611 26.384 5.38237 26.7685C5.49392 26.8856 5.63044 26.9724 5.74404 27.0848C5.78212 27.1225 5.8007 27.1409 5.80112 27.194C5.64842 27.3619 5.38004 27.43 5.15978 27.4724C5.00191 27.4898 4.87581 27.4867 4.7285 27.4202C4.31034 27.2312 3.98558 26.7712 3.83476 26.3628C3.80236 26.2751 3.77167 26.1805 3.76862 26.0869C3.76407 25.948 3.81129 25.7882 3.84 25.6526C3.85805 25.5674 3.87246 25.448 3.91603 25.3711C4.01078 25.2041 4.36596 25.1048 4.54445 25.0614Z" fill="#F7B243"/>
<path d="M4.38662 25.4027C4.39984 25.4022 4.41679 25.3923 4.4263 25.4011C4.4563 25.429 4.55601 25.8666 4.58278 25.944C4.76214 26.4622 4.98861 26.8937 5.43802 27.2376L5.41455 27.2759C5.37146 27.2861 5.34105 27.2815 5.30123 27.2641C5.20748 27.2229 5.12308 27.1447 5.05218 27.0743C4.79571 26.8195 4.6383 26.4872 4.51959 26.1554C4.45571 25.9768 4.40158 25.7957 4.37665 25.608C4.36721 25.5369 4.35308 25.4694 4.38662 25.4027Z" fill="#040303"/>
<path d="M4.23598 8.4209C4.32354 8.4217 4.412 8.4586 4.48585 8.50149C4.76235 8.66208 4.95938 8.94377 5.0367 9.24274L5.04413 9.27227C5.11361 9.54174 5.09965 9.87817 5.06507 10.1531C4.99872 10.6809 4.83863 11.1601 4.58473 11.6318C4.49661 11.7955 4.39419 11.9793 4.24802 12.1022C4.07609 12.2467 3.90833 12.2501 3.69501 12.2343C3.54586 12.1998 3.45382 12.1415 3.33813 12.0493C3.83705 11.4707 4.22146 10.7234 4.40704 9.99342C4.49887 9.63218 4.55706 9.18769 4.3393 8.85772C4.2625 8.7413 4.11793 8.59173 3.97259 8.56618L3.93902 8.56112C4.01731 8.49121 4.13522 8.44922 4.23598 8.4209Z" fill="#96AB6A"/>
<path d="M16.0623 26.7196C16.1067 26.7156 16.1532 26.7172 16.1947 26.7352C16.2866 26.7752 16.3538 26.9202 16.3866 27.0085C16.4361 27.1422 16.4618 27.334 16.3927 27.4649C16.3261 27.5911 16.208 27.6826 16.0929 27.7662C15.7556 28.0113 15.3644 28.1823 14.9613 28.2992C14.7503 28.3605 14.5373 28.405 14.3199 28.4387C14.2419 28.4507 14.164 28.4708 14.0913 28.433C13.9114 28.2955 13.7432 27.9672 13.6815 27.7542C13.6644 27.6953 13.6786 27.6371 13.7119 27.5859C13.7622 27.5087 13.8799 27.4761 13.967 27.452C14.3341 27.3501 14.6932 27.2791 15.0514 27.1418C15.2173 27.0783 15.384 27.0114 15.5437 26.9345C15.7169 26.8512 15.8728 26.7637 16.0623 26.7196Z" fill="#F7B243"/>
<path d="M15.0989 27.646L15.1175 27.6594L15.1166 27.6741C15.1098 27.7132 15.0898 27.7463 15.0576 27.7705C14.9119 27.88 14.6647 27.9381 14.4833 27.9139L14.4435 27.9L14.4336 27.872C14.4987 27.8322 14.6009 27.8341 14.6755 27.8104C14.82 27.7644 14.9555 27.6953 15.0989 27.646Z" fill="#040303"/>
<path d="M16.2144 27.1606L16.2525 27.1707C16.2573 27.2067 16.2604 27.2373 16.2404 27.2701C16.1557 27.409 15.898 27.5075 15.7434 27.5495L15.7045 27.5366L15.7135 27.5029C15.8427 27.353 16.0298 27.2378 16.2144 27.1606Z" fill="#040303"/>
<path d="M15.2751 4.47444C15.3105 4.47297 15.3886 4.46054 15.4204 4.46841C15.4353 4.47209 15.467 4.5022 15.4814 4.51258L15.7077 4.67346C16.1645 4.98746 16.6306 5.16961 17.1876 5.22358L16.9931 5.35383C16.7595 5.48174 16.4975 5.47993 16.237 5.47685C15.7438 5.47096 15.2448 5.40422 14.7695 5.27676L13.7904 4.96603C13.7511 4.95495 13.7098 4.94102 13.6689 4.93727C13.594 4.93044 13.559 4.92934 13.504 4.97682C13.4963 5.00554 13.4901 5.02781 13.4937 5.05768C13.5061 5.16114 13.6146 5.22566 13.6961 5.28429L14.4147 5.71002C13.906 5.70329 13.3854 5.56196 12.9156 5.38169C12.6216 5.26892 12.3331 5.13874 12.0732 4.96319L15.2751 4.47444Z" fill="#61A7CB"/>
<path d="M1.22682 26.8759C1.25519 26.8726 1.23803 26.8736 1.27841 26.8759C1.28633 27.0543 1.29917 27.2254 1.3449 27.3993C1.4467 27.7868 1.62908 28.1525 1.75709 28.5328L1.96141 29.2197C2.10223 29.7493 2.24246 30.271 2.76599 30.5654C3.05208 30.7262 3.38344 30.8211 3.70466 30.8911C4.3895 31.0404 5.12899 31.1038 5.81386 30.9292L5.8358 30.9525C5.82868 31.0163 5.81938 31.0714 5.78094 31.1254C5.70925 31.2262 5.59197 31.2833 5.4692 31.3023L5.44063 31.3064C5.1762 31.3476 4.87005 31.3257 4.60313 31.3013C4.17834 31.2749 3.76122 31.221 3.34497 31.1336C3.14509 31.0916 2.94035 31.0513 2.75037 30.9762C2.08675 30.7139 1.78906 30.0769 1.52558 29.4759L1.73775 29.388C1.66883 29.1491 1.55974 28.916 1.44916 28.6924C1.41392 28.6211 1.37559 28.5205 1.32094 28.462C1.30039 28.44 1.29004 28.4409 1.26012 28.4416C1.12777 28.4448 0.992568 28.5931 0.902993 28.6762L0.286865 27.3012C0.57382 27.1306 0.91761 27.0057 1.22682 26.8759Z" fill="#353E50"/>
<path d="M5.64055 8.97958C5.66555 8.97643 5.68471 8.97696 5.70961 8.97864L5.68055 9.13862C5.64687 9.31648 5.6676 9.5012 5.70902 9.67619C5.80776 10.0929 6.06079 10.4694 6.44923 10.6837C6.59075 10.7618 6.74445 10.8124 6.8834 10.896C6.79115 10.9942 6.68945 11.0913 6.61831 11.2051C6.77886 11.248 7.01682 11.2717 7.18174 11.2518L7.21121 11.2478C7.30989 11.2353 7.40422 11.2087 7.49997 11.1832C7.19101 11.4053 6.97686 11.6697 6.74573 11.9625L6.61436 12.1304L4.77344 11.7094C5.18608 10.8894 5.42744 10.0101 5.19878 9.1039L5.64055 8.97958Z" fill="#96AB6A"/>
<path d="M8.36058 6.21729L8.38166 6.2286L7.80351 9.18651C7.5928 8.81371 7.38216 8.40372 6.94168 8.25107C6.69319 8.16498 6.43651 8.21022 6.20619 8.31864C6.00152 8.44095 5.86503 8.58975 5.73661 8.78482C5.70164 8.71367 5.63214 8.59792 5.61957 8.52265C5.61599 8.50119 5.63589 8.44426 5.64172 8.41915C5.68633 8.22606 5.78115 8.05663 5.84594 7.87084C5.91867 7.66227 5.95621 7.4456 5.98926 7.22857L8.36058 6.21729Z" fill="#61A7CB"/>
<path d="M8.98518 16.4776C9.06976 16.4719 9.15812 16.4796 9.24249 16.4869C9.49316 16.5087 9.80327 16.6081 9.96691 16.8025C10.0601 16.9131 10.134 17.053 10.1105 17.1994C10.0988 17.272 10.051 17.3538 9.98895 17.3965C9.93236 17.3495 9.89563 17.2864 9.84619 17.2329C9.72186 17.0983 9.5199 16.9793 9.33797 16.9408C9.13809 16.8985 8.99411 16.9573 8.82704 17.0563C9.00914 17.0553 9.18038 17.0468 9.35533 17.1076C9.54729 17.1744 9.73206 17.3337 9.81501 17.5161C9.8598 17.6146 9.90236 17.8021 9.85171 17.9025C9.83015 17.9452 9.80136 17.993 9.7546 18.0084C9.62357 17.851 9.48292 17.7301 9.2753 17.6759C9.04883 17.6168 8.89818 17.6657 8.7 17.773C8.94689 17.7528 9.1734 17.7443 9.39005 17.8814C9.53819 17.9751 9.64995 18.1164 9.68169 18.2869C9.70425 18.4081 9.62124 18.5496 9.5535 18.6464L9.52892 18.6409L9.47299 18.5416L9.45139 18.5107C9.33384 18.3621 9.13569 18.2182 8.93821 18.1976C8.83874 18.1872 8.77176 18.189 8.69188 18.2503L8.7025 18.2708C8.93554 18.314 9.15909 18.404 9.31009 18.5889C9.37203 18.6648 9.39977 18.7971 9.37696 18.8903C9.34901 19.0043 9.20905 19.0854 9.11104 19.1405L9.09653 19.1307L9.08917 19.0868C9.06417 18.9679 9.00369 18.8501 8.89464 18.7832C8.76013 18.7006 8.55345 18.6757 8.39805 18.7079L8.37451 18.7132C8.19574 18.7529 8.05228 18.8691 7.86656 18.906C7.71359 18.9363 7.57201 18.9265 7.44233 18.8379C7.36109 18.7824 7.29491 18.7039 7.28162 18.6063C7.24047 18.3044 7.5684 18.1134 7.7288 17.8988C7.97416 17.5707 7.95701 17.1248 8.24108 16.8016C8.43902 16.5764 8.69257 16.5032 8.98518 16.4776Z" fill="#F0D39B"/>
<path d="M4.69977 11.8628C4.96475 11.9506 5.2575 11.9934 5.53154 12.0487L6.57357 12.2525L6.58009 12.2774L6.59065 12.3192C6.63634 12.4831 6.64714 12.6399 6.65783 12.8085C6.23856 13.0677 5.88595 13.3579 5.53133 13.6931L4.55902 13.5726C3.91848 13.4518 3.25562 13.2017 2.80847 12.7281L3.03668 12.1366C3.08352 12.1568 3.12518 12.1877 3.16792 12.215C3.44311 12.3901 3.73242 12.5031 4.06691 12.4263C4.36275 12.3585 4.55589 12.1021 4.69977 11.8628Z" fill="#96AB6A"/>
<path d="M15.4091 15.5491L15.7523 16.0265L16.499 16.9256L17.1284 17.5847C17.2517 17.7074 17.3969 17.8285 17.5046 17.9641C17.5537 18.0259 17.5556 18.0882 17.5417 18.1631C17.5272 18.2414 17.4732 18.3294 17.435 18.4002C17.25 18.7435 16.9898 19.0063 16.6634 19.228C16.5554 19.2957 16.3756 19.4006 16.2449 19.3956C16.0938 19.3898 15.9222 19.2853 15.8 19.2036C15.4119 18.9438 15.0812 18.6137 14.7498 18.2916L14.7854 18.2437L14.8406 18.1755C14.9443 18.0381 15.022 17.8516 15.0941 17.6968C15.4208 16.9953 15.5486 16.3121 15.4091 15.5491Z" fill="#D27536"/>
<path d="M14.589 6.34855C14.7096 6.33418 14.8474 6.3386 14.9652 6.36699L14.9969 6.37503C15.1988 6.42452 15.3763 6.5018 15.5459 6.61915C15.8186 6.80796 15.9896 7.11879 16.0395 7.436C16.1012 7.82886 15.9851 8.17768 15.7434 8.49279C15.4904 8.82273 15.1572 8.99523 14.7411 9.05312C14.6033 9.05758 14.4642 9.04298 14.3303 9.01184C13.964 8.92669 13.6533 8.67564 13.4628 8.36673C13.2939 8.09304 13.2075 7.72312 13.2937 7.41086L13.3024 7.38089C13.3488 7.21254 13.4203 7.06739 13.5268 6.92623C13.7855 6.58323 14.1645 6.41193 14.589 6.34855Z" fill="white"/>
<path d="M13.9122 7.29766C13.966 7.29415 14.0212 7.29097 14.073 7.30868C14.1476 7.33419 14.2107 7.40424 14.2437 7.47184C14.2942 7.57547 14.3012 7.74171 14.2585 7.8495C14.2163 7.95647 14.1683 8.01216 14.0594 8.05625C14.0157 8.06881 13.9585 8.07102 13.9146 8.05806C13.8453 8.0376 13.7855 7.98349 13.7509 7.92319C13.6856 7.80972 13.6655 7.64759 13.7046 7.52304C13.7426 7.40153 13.7994 7.35723 13.9122 7.29766Z" fill="#040303"/>
<path d="M13.9322 7.5061C13.9519 7.51072 13.9583 7.52037 13.973 7.53332C13.987 7.57334 14.0054 7.61526 14.0011 7.65822C13.9976 7.69364 13.983 7.69331 13.9557 7.7142L13.9069 7.68597C13.8988 7.66505 13.8859 7.63793 13.8839 7.61492C13.8798 7.56637 13.9017 7.54059 13.9322 7.5061Z" fill="#7C92A0"/>
<path d="M14.9484 6.87C14.9826 6.86194 15.0139 6.86414 15.0488 6.86475C15.1475 6.93714 15.1958 7.02372 15.2291 7.13757L15.2364 7.16298C15.2728 7.28643 15.2774 7.43034 15.2548 7.55711L15.2501 7.58152C15.2119 7.79206 15.1166 7.97005 15.0403 8.16747C15.0069 8.25392 14.9895 8.347 14.9273 8.41916C14.8872 8.45046 14.8544 8.45308 14.8046 8.45311C14.7412 8.45314 14.7188 8.43586 14.6751 8.39348C14.6591 8.15354 14.7959 7.92224 14.8325 7.68819L14.8359 7.66522C14.8635 7.49483 14.8023 7.3327 14.8169 7.16636C14.8263 7.05945 14.862 6.94152 14.9484 6.87Z" fill="#BCCECF"/>
<path d="M1.52458 17.0171C1.63571 17.1204 1.74859 17.23 1.87562 17.3152C2.17629 17.5167 2.50925 17.5969 2.86578 17.6485L2.82585 17.8242C2.77621 18.0786 2.81388 18.3133 2.97049 18.5277C3.09774 18.702 3.29404 18.8239 3.48601 18.9231C4.08814 19.2344 4.81301 19.3805 5.48271 19.4873C5.53336 19.569 5.55038 19.7029 5.57343 19.7953C5.60777 19.9328 5.65447 20.073 5.67582 20.2129L5.61214 20.2326C5.13559 20.3248 4.63528 20.3723 4.14928 20.3318C3.40633 20.27 2.48998 20.068 1.98898 19.4885C1.40625 18.8144 1.44441 17.8373 1.52458 17.0171Z" fill="#96AB6A"/>
<path d="M5.91268 20.7241C5.9641 20.71 6.02864 20.7356 6.07926 20.7494L6.55159 20.8936C7.18417 21.0929 7.8145 21.2631 8.47719 21.3412C9.96695 21.5167 11.4551 21.3983 12.9135 21.0754C13.2981 20.9903 13.6875 20.9012 14.0577 20.7686C14.1243 20.8562 14.1867 20.9422 14.2289 21.0439C14.2569 21.1112 14.2814 21.2072 14.2469 21.2767C14.164 21.4436 13.9266 21.5092 13.7597 21.5678C12.2058 22.0731 10.4835 22.2292 8.8549 22.0792C7.90147 21.9913 6.94155 21.7926 6.06451 21.4128C5.85665 21.3228 5.651 21.2235 5.46286 21.099C5.40391 21.06 5.34016 21.0235 5.31433 20.9579C5.40821 20.8287 5.75954 20.7686 5.91268 20.7241Z" fill="#F7B243"/>
<path d="M2.46593 13.5959C3.0539 14.1823 4.05385 14.3627 4.86392 14.419L4.17016 15.2952C3.8248 15.7526 3.49917 16.2498 3.23721 16.7563L2.91474 17.5031C2.47808 17.4022 2.01638 17.2559 1.69228 16.9385C1.66054 16.9074 1.59312 16.8499 1.57569 16.8108C1.54885 16.7507 1.59458 16.6135 1.60666 16.5476C1.71932 15.9336 1.89938 15.3337 2.08811 14.7381L2.46593 13.5959Z" fill="#F7B243"/>
<path d="M10.5036 6.75102C10.6457 6.73367 10.794 6.75909 10.9327 6.78848C11.3403 6.87494 11.6812 7.10182 11.9027 7.44388C12.1119 7.76682 12.1976 8.19915 12.1026 8.57118C12.0484 8.78349 11.9616 8.97967 11.8272 9.15713C11.564 9.50458 11.2273 9.68914 10.7915 9.75681C10.3989 9.78192 10.0385 9.70093 9.7206 9.46916C9.38692 9.22577 9.14753 8.82197 9.09187 8.42218C9.03573 8.01881 9.14829 7.60721 9.40823 7.28684C9.69984 6.92747 10.048 6.80409 10.5036 6.75102Z" fill="white"/>
<path d="M9.68431 8.37675L9.70024 8.37226C9.72708 8.3674 9.7769 8.35856 9.79687 8.37788C9.86731 8.44602 9.90523 8.65231 9.89898 8.74506L9.83895 8.79528C9.81128 8.80318 9.78319 8.80318 9.75451 8.80523C9.73399 8.79244 9.7133 8.78045 9.69771 8.7618C9.6423 8.69554 9.60317 8.57001 9.60584 8.4863C9.60775 8.42677 9.64056 8.41559 9.68431 8.37675Z" fill="#BCCECF"/>
<path d="M9.80656 7.33859C9.82558 7.33113 9.8368 7.32554 9.85836 7.32306C9.92367 7.31556 9.95911 7.3628 10.0011 7.40124C10.0052 7.47768 9.94071 7.54589 9.89971 7.61141C9.84499 7.69887 9.79517 7.78964 9.75969 7.88611C9.72823 7.97159 9.72236 8.09614 9.6674 8.16683C9.60536 8.1833 9.58217 8.18283 9.52283 8.15892C9.47186 8.09638 9.47784 8.01418 9.48648 7.93821C9.51214 7.712 9.62234 7.48217 9.80656 7.33859Z" fill="#BCCECF"/>
<path d="M10.2341 7.90782C10.3025 7.90568 10.3555 7.91268 10.4144 7.94897C10.4905 7.99585 10.5414 8.08612 10.5575 8.17046C10.5809 8.29344 10.5612 8.4624 10.4852 8.56475C10.4375 8.62907 10.3885 8.65372 10.3097 8.66892C10.2543 8.66966 10.2073 8.66604 10.1566 8.6424C10.079 8.60624 10.0059 8.5151 9.98275 8.43568C9.94827 8.31722 9.97872 8.15616 10.0382 8.05002C10.0856 7.96561 10.1404 7.93253 10.2341 7.90782Z" fill="#040303"/>
<path d="M10.2639 8.17578L10.3036 8.18342C10.3242 8.22189 10.3299 8.24784 10.326 8.29029C10.3208 8.34829 10.3045 8.3808 10.2575 8.4194L10.217 8.40892C10.1959 8.38003 10.1889 8.36871 10.1881 8.33154C10.1869 8.26786 10.2222 8.22102 10.2639 8.17578Z" fill="#5B606A"/>
<path d="M10.7048 7.48008C10.6828 7.48138 10.6624 7.48095 10.6406 7.477C10.5487 7.46036 10.4489 7.44951 10.3927 7.37219C10.3955 7.35013 10.3971 7.31648 10.4074 7.29686C10.4208 7.27128 10.4381 7.25213 10.4646 7.23987C10.5099 7.21891 10.6008 7.22149 10.6452 7.24208C10.6868 7.26137 10.6927 7.27546 10.7092 7.3135C10.6915 7.37347 10.682 7.40923 10.6984 7.4703C10.721 7.41231 10.7347 7.38271 10.7869 7.34541C10.8527 7.32786 10.907 7.33878 10.9661 7.37236C11.181 7.49457 11.3263 7.81075 11.3747 8.03305C11.4121 8.20455 11.4264 8.58913 11.3363 8.74637C11.3163 8.78112 11.282 8.80379 11.2428 8.81136C11.1881 8.82194 11.1411 8.8057 11.0975 8.77376C11.0697 8.7534 11.0583 8.73495 11.0463 8.70314C11.0498 8.59981 11.0797 8.50542 11.0918 8.40384C11.1262 8.11397 11.0391 7.80526 10.8301 7.59181L10.7048 7.48008Z" fill="#BCCECF"/>
<path d="M10.8132 5.30836L11.8898 5.02051C12.6179 5.47731 13.3554 5.772 14.2191 5.89525C14.3771 5.91778 14.5596 5.95602 14.719 5.94025C14.7636 5.91001 14.7895 5.89588 14.7963 5.84024C14.8041 5.77478 14.7657 5.70359 14.7195 5.65842C14.6038 5.54539 14.3981 5.4881 14.255 5.40821C14.1534 5.35145 14.0599 5.28077 13.9681 5.21052C14.302 5.32041 14.6293 5.43637 14.9726 5.5182L15.4436 5.61707C15.5228 5.63063 15.6316 5.62919 15.7039 5.66L15.9373 6.7362C15.8455 6.65089 15.7533 6.55754 15.6511 6.48408C15.3761 6.28626 14.9665 6.15153 14.6238 6.15672C14.2019 6.16308 13.7881 6.39126 13.5016 6.67952C13.2989 6.88336 13.1484 7.1531 13.09 7.4302C13.0667 7.5406 13.06 7.64988 13.0608 7.76232C13.0609 7.77149 13.0678 7.78335 13.0611 7.78981C13.0504 7.80009 12.3948 7.86448 12.2995 7.88791C12.1757 7.43703 11.9064 7.04612 11.4829 6.80859C11.0495 6.56554 10.5458 6.50979 10.0626 6.63917C9.64161 6.75191 9.25258 7.08138 9.04419 7.44638C8.92448 7.65608 8.87042 7.892 8.84185 8.12775L8.14014 8.29945L8.37592 7.12528C8.40612 6.96379 8.48434 6.21411 8.54781 6.1318L9.33139 5.79179C9.24848 5.9665 9.16779 6.15444 9.05148 6.31137C8.97743 6.41129 8.87921 6.49975 8.81077 6.60197C8.78092 6.64654 8.77352 6.66944 8.78966 6.71916C8.824 6.75003 8.85108 6.79128 8.89952 6.79142C8.99638 6.79172 9.10773 6.7205 9.19005 6.6747L9.92294 6.22824C9.91096 6.30354 9.88294 6.40569 9.92971 6.47293L9.94512 6.49104C10.0555 6.48716 10.1644 6.43951 10.2634 6.39431C10.4913 6.29011 10.7454 6.14627 10.9183 5.9658C11.0219 5.85771 11.0908 5.74906 11.0813 5.59765C11.0795 5.56902 11.0587 5.55061 11.0423 5.5273C11.0042 5.50832 10.9785 5.49874 10.9357 5.49519L10.8829 5.4818C10.8465 5.43352 10.8319 5.36495 10.8132 5.30836Z" fill="#F0D39B"/>
<path d="M18.6452 27.8454C19.0376 27.8186 19.4449 27.9315 19.7468 28.1788C19.9457 28.3417 20.131 28.6093 20.154 28.8649C19.7416 29.1577 19.3175 29.4567 18.8507 29.6639C18.3222 29.8985 17.7614 29.9965 17.201 30.1323C16.4442 30.3157 15.6907 30.5118 14.9633 30.787C14.9194 30.7192 14.8978 30.6248 14.8741 30.5483C14.7329 30.0906 14.7514 29.6092 14.7762 29.1382C14.7583 28.9401 14.6938 28.7776 14.6096 28.5987C15.1949 28.5338 15.7331 28.2672 16.2196 27.9629C16.2784 28.069 16.334 28.1781 16.4127 28.2721L16.4261 28.2875C16.1712 28.3692 15.9821 28.4614 15.8044 28.6611C16.0924 28.6317 16.3639 28.4597 16.646 28.4658C16.6866 28.4947 16.7111 28.5036 16.7284 28.5502C16.6494 28.6469 16.5749 28.7452 16.5153 28.8545C16.4664 28.9441 16.387 29.0908 16.4203 29.1924L16.4724 29.2064C16.569 29.1356 16.639 28.9848 16.7117 28.8873C16.7916 28.7801 16.88 28.6803 16.9701 28.5811C16.9451 28.7121 16.9283 28.8568 16.9441 28.9894L16.9481 29.0189C16.9603 29.1123 16.9762 29.1902 17.0535 29.2533C17.0996 29.23 17.1107 29.0744 17.1225 29.0189C17.1764 28.766 17.2955 28.5443 17.4645 28.3451C17.7369 28.0243 18.2348 27.8818 18.6452 27.8454Z" fill="#8C5D2B"/>
<path d="M3.50146 26.1225C3.53725 26.1121 3.51743 26.1152 3.56131 26.1161C3.70529 26.5858 3.89292 26.9681 4.22223 27.3453L3.89656 27.6661C3.75105 27.5195 3.57235 27.3276 3.37497 27.2481C3.32925 27.2297 3.31015 27.229 3.26595 27.2485L3.25668 27.286C3.30251 27.3626 3.41028 27.4177 3.4783 27.4778C3.58693 27.5738 3.69033 27.677 3.78338 27.7871L3.69533 27.9003C3.39264 27.7443 3.06476 27.5531 2.71531 27.5222C2.67778 27.5466 2.67559 27.5463 2.66174 27.5874C2.7001 27.6381 2.7827 27.6623 2.84366 27.6851C2.98258 27.737 3.12427 27.7835 3.25856 27.8463C3.37692 27.9016 3.48909 27.9685 3.60093 28.035C3.39098 28.0377 3.14815 27.9597 2.94098 28.0224C2.89099 28.0375 2.88172 28.0444 2.85852 28.0896C2.88019 28.1257 2.8863 28.137 2.9323 28.148C2.99785 28.1637 3.08243 28.1611 3.15051 28.1669C3.30258 28.1797 3.45399 28.2011 3.59332 28.265C3.81966 28.3689 3.89593 28.5535 3.97624 28.7646C3.80376 28.7971 3.63009 28.8508 3.47042 28.9218C3.28699 29.0034 2.89915 29.1739 2.82474 29.3703C2.84832 29.3993 2.86009 29.4169 2.89758 29.4276C3.10173 29.2666 3.34116 29.1684 3.58936 29.0878C3.93461 28.9758 4.25743 28.9088 4.62226 28.9096C4.93505 28.9373 5.21714 29.0185 5.46229 29.2151C5.72033 29.422 5.89663 29.7394 5.92694 30.062C5.9451 30.2556 5.92708 30.5125 5.78133 30.6614C5.64815 30.7975 5.20905 30.802 5.02414 30.8054C4.57431 30.8138 4.1239 30.7658 3.68456 30.6741C3.29963 30.5937 2.87706 30.4681 2.58817 30.1952C2.35947 29.9793 2.27413 29.6567 2.18723 29.3694L1.89333 28.3627C1.77646 28.0137 1.61106 27.679 1.51899 27.3222C1.47368 27.1468 1.45996 26.9859 1.45667 26.8054C1.51222 26.7668 1.59283 26.7459 1.65682 26.722L2.12845 26.5593L3.50146 26.1225Z" fill="#8C5D2B"/>
<path d="M14.2716 2.90088C14.6025 2.88042 14.9275 2.89073 15.2542 2.94494C15.3236 3.04278 15.3651 3.17011 15.4045 3.28185C15.5253 3.62444 15.5799 3.97176 15.6374 4.32752C15.4602 4.29353 15.2735 4.30371 15.0939 4.31111L14.4239 4.34918C11.6352 4.56665 8.97101 5.63994 6.46883 6.78687L5.80156 7.10067C5.54526 6.73142 5.41058 6.23946 5.3894 5.79926C5.72892 5.4367 6.25912 5.20142 6.70551 4.98144C7.64414 4.5189 8.61506 4.15213 9.61564 3.83656C11.1333 3.35792 12.6779 3.02138 14.2716 2.90088Z" fill="#BCCECF"/>
<path d="M11.0291 0.791881C11.5182 0.777419 12.0323 0.837746 12.4969 0.985737C13.4189 1.27938 13.9975 1.87116 14.4225 2.69085C13.839 2.69352 13.2357 2.79166 12.6619 2.89278C11.0401 3.17856 9.46862 3.64193 7.9399 4.23324L5.69235 5.31996L5.62333 4.83094C5.57715 4.0016 5.884 3.25001 6.45878 2.63898C7.59771 1.42819 9.37481 0.869728 11.0291 0.791881Z" fill="#BCCECF"/>
<path d="M6.8359 12.9747C6.90735 12.9719 6.98356 12.9659 7.05265 12.9867C7.42064 13.0977 7.72975 13.5302 7.90549 13.8423C8.29032 14.5256 8.40382 15.3445 8.42 16.1112C8.42104 16.1609 8.43958 16.3934 8.42069 16.4241C8.41764 16.4291 8.3707 16.4524 8.36459 16.4559C8.29577 16.4962 8.23019 16.5363 8.17106 16.5892C7.86067 16.8669 7.77807 17.2799 7.66322 17.6555C7.29214 17.4422 6.88301 17.3017 6.46242 17.2092L5.86477 17.1001C6.09468 16.8375 6.29556 16.558 6.54037 16.3057L7.14448 15.7372C7.39918 15.5122 7.6644 15.3063 7.81942 15.0025C6.9111 15.5101 6.20234 16.2825 5.59399 17.0917L5.5358 17.0832C5.20569 17.0369 4.39465 16.983 4.11238 17.1852C4.10259 17.2353 4.10422 17.235 4.12974 17.28C4.20841 17.325 4.41919 17.2668 4.5086 17.2539L4.77048 17.2278C5.06324 17.2198 5.36064 17.2499 5.65079 17.2865C6.31136 17.3699 6.99981 17.5296 7.58476 17.8441L7.30579 18.1575C7.19441 18.3073 7.10094 18.5434 7.13757 18.7292C7.1659 18.8729 7.25673 18.9364 7.37179 19.0161C7.21771 19.1387 7.0088 19.2561 6.82048 19.3248C6.69574 19.3702 6.51922 19.3494 6.38576 19.3446C5.92296 19.3281 5.47077 19.2588 5.01831 19.1661C4.57158 19.0745 4.12731 18.9611 3.71092 18.7764C3.45761 18.664 3.16823 18.4983 3.07167 18.2291C2.94095 17.8649 3.23027 17.2978 3.39133 16.964C3.73998 16.2415 4.22473 15.5583 4.72969 14.931C5.16073 14.3956 5.62472 13.8744 6.15648 13.4287C6.36524 13.2537 6.57255 13.0672 6.8359 12.9747Z" fill="#D27536"/>
<path d="M6.43626 21.8442C6.68377 21.9245 6.92792 22.0104 7.18179 22.0713C8.75308 22.4482 10.4142 22.4666 12.0078 22.2154C12.4906 22.1393 12.9667 22.0505 13.4351 21.9121C13.3671 22.1962 13.2776 22.4218 13.1287 22.6751C13.0554 22.6042 12.9337 22.4553 12.8256 22.4392C12.7895 22.4338 12.7813 22.4492 12.7526 22.4678C12.751 22.4807 12.7437 22.4942 12.748 22.5066C12.7593 22.5391 12.8586 22.6313 12.8846 22.6624L13.4309 23.3258C13.7749 23.7582 14.0761 24.2271 14.362 24.6965C14.7684 25.3636 15.1311 26.0196 15.3883 26.756L14.7088 27.0399C14.6842 27.0481 14.4524 27.126 14.4488 27.1243C14.4373 27.1187 14.3627 26.9614 14.352 26.9416L14.0674 26.4466C13.7156 25.8709 13.2872 25.3217 12.8514 24.8026C12.7019 24.6244 12.5399 24.3798 12.3243 24.279C12.3897 24.4294 12.5186 24.5629 12.6228 24.6912L13.1361 25.3296C13.389 25.6575 13.6539 25.9911 13.8778 26.3377C14.0471 26.5999 14.1926 26.8768 14.3366 27.1525L14.0141 27.2289C13.3767 25.8911 12.3232 24.7194 11.1923 23.7493C11.3558 23.7121 11.5054 23.6569 11.6597 23.5933C11.8225 23.5204 11.9851 23.4406 12.1391 23.3518C12.2002 23.3166 12.2714 23.2821 12.3001 23.2181L12.2712 23.1843C12.1572 23.174 12.0579 23.2272 11.9544 23.2674L11.5671 23.4089C11.172 23.5401 10.7745 23.6207 10.3602 23.6701C10.1838 23.6912 10.003 23.6961 9.82552 23.6901C9.79736 23.6891 9.61953 23.6655 9.60595 23.6724C9.57436 23.6885 9.34028 24.0843 9.30102 24.1414L8.97754 24.57C8.13039 25.5927 7.00354 26.3618 5.74438 26.8408C5.59338 26.7626 5.44846 26.5801 5.34736 26.4465C6.48029 25.8451 7.55453 24.9067 8.17635 23.803C8.26652 23.643 8.75051 22.6886 8.71509 22.5736C8.68371 22.5682 8.65017 22.5556 8.62573 22.5847C8.5901 22.6271 8.56004 22.7249 8.53591 22.7765L8.32231 23.2181L7.92683 23.9167C7.28338 24.9304 6.32016 25.7194 5.26987 26.3228C5.16304 26.1014 5.06284 25.8777 5.01114 25.6372C5.00305 25.5996 4.97246 25.4874 4.9808 25.4533C4.98364 25.4417 5.00361 25.4441 5.01499 25.4395L5.20328 25.3584C5.78534 25.0803 6.29398 24.5612 6.64912 24.0434C6.87358 23.7161 7.04864 23.3592 7.13148 22.9733C7.14873 22.8929 7.17457 22.7808 7.15221 22.7005C7.14481 22.6739 7.1294 22.6727 7.10676 22.6594C7.00503 22.709 6.95913 22.9618 6.91407 23.0689C6.65662 22.6842 6.5275 22.2903 6.43626 21.8442Z" fill="#B69F80"/>
<path d="M12.7013 9.23806L12.6751 9.43149C12.7519 9.50753 12.8745 9.55979 12.9788 9.58993C13.1614 9.64263 13.3546 9.62927 13.5219 9.53512C13.7163 9.42569 13.7813 9.24335 13.8324 9.0461L14.036 9.15123C14.38 9.29581 14.8225 9.30392 15.1702 9.17156C15.6743 8.97957 15.9599 8.63245 16.1701 8.16607C16.3718 8.68977 16.5093 9.31547 16.4053 9.87272C16.2557 10.6744 15.562 11.408 14.8878 11.8591C13.7773 12.6022 12.3183 12.7562 11.0135 12.5255C9.87012 12.3234 8.84375 11.8104 8.06871 10.9702C7.89265 10.7793 7.74502 10.5716 7.5949 10.3618L7.5107 10.4398C7.36572 10.5575 7.15528 10.6241 6.96474 10.6054C6.66466 10.5758 6.40375 10.4421 6.21342 10.2157C5.95282 9.90567 5.85588 9.53716 5.90272 9.14213C5.9307 8.90607 6.02788 8.70705 6.2254 8.55976C6.39184 8.43564 6.59516 8.38511 6.80285 8.41863C7.23489 8.48837 7.48855 9.05085 7.72444 9.36064C7.75922 9.40631 7.78832 9.44187 7.8481 9.45094C7.98507 9.30117 8.06229 8.76133 8.10232 8.54677L8.86944 8.35813C8.88802 8.78758 9.11095 9.20772 9.42457 9.50877C9.72704 9.79913 10.1951 9.9711 10.6194 9.96859C11.0682 9.96594 11.5005 9.80479 11.8151 9.49082C12.0583 9.2481 12.2603 8.92502 12.3168 8.58909C12.3428 8.43453 12.3355 8.27659 12.3328 8.12056L13.0823 8.02661C13.1397 8.23889 13.2449 8.42988 13.3661 8.614C13.2596 8.62823 13.1416 8.65301 13.0431 8.69393C12.9279 8.74177 12.7186 8.85448 12.6879 8.97933C12.6763 9.02681 12.7046 9.05286 12.7292 9.08986C12.7166 9.13975 12.7015 9.18642 12.7013 9.23806Z" fill="#F0D39B"/>
<path d="M9.64766 10.4024L9.70238 10.3928L9.74109 10.4291C9.74463 10.4833 9.74318 10.4889 9.71561 10.5363L9.66766 10.5593L9.62895 10.5263C9.61982 10.4648 9.62041 10.4585 9.64766 10.4024Z" fill="#040303"/>
<path d="M15.6127 10.1179C15.6329 10.1128 15.6529 10.1119 15.6736 10.1101C15.6931 10.1311 15.706 10.1466 15.7126 10.1747C15.7259 10.2313 15.724 10.2337 15.691 10.2828L15.6659 10.287L15.6194 10.2541C15.6023 10.1941 15.5962 10.1802 15.6127 10.1179Z" fill="#040303"/>
<path d="M10.1301 11.072H10.1732L10.2141 11.1222C10.2241 11.1872 10.2275 11.1942 10.1961 11.2562L10.1859 11.2578C10.132 11.2525 10.1263 11.2361 10.0933 11.1976C10.0924 11.1319 10.0835 11.1234 10.1301 11.072Z" fill="#040303"/>
<path d="M6.57829 8.92281C6.7011 8.91843 6.8182 8.94605 6.92479 9.00649C7.14647 9.13215 7.29219 9.39168 7.34816 9.62867L7.35469 9.65733C7.38802 9.79685 7.38607 9.93611 7.38791 10.0785C7.24463 10.064 7.08016 10.0586 6.96517 9.96407C6.90285 9.91284 6.88039 9.86167 6.87768 9.78363L6.87743 9.76615C6.90254 9.6436 6.97093 9.57781 7.07231 9.50779L7.09637 9.49135C7.03159 9.36499 6.94854 9.20564 6.81272 9.14002C6.7278 9.09897 6.62503 9.09897 6.53812 9.13473C6.43195 9.17842 6.38033 9.27063 6.34297 9.36974L6.33456 9.39268L6.29985 9.40584L6.25627 9.36435C6.24534 9.26394 6.25922 9.17879 6.31318 9.0906C6.37342 8.99212 6.46896 8.95288 6.57829 8.92281Z" fill="#040303"/>
<path d="M7.1205 9.68264L7.15612 9.67896L7.18001 9.69938C7.20719 9.72894 7.21004 9.78476 7.20643 9.82069L7.1505 9.84761L7.13282 9.85076C7.09189 9.83559 7.09283 9.82869 7.07043 9.79146C7.07248 9.72767 7.07512 9.72995 7.1205 9.68264Z" fill="#F0D39B"/>
<path d="M14.5023 10.0837L14.6118 10.1926C14.475 10.3088 14.3248 10.419 14.1636 10.5021C13.7352 10.7229 13.2767 10.8097 12.7954 10.8296C12.1936 10.8546 11.6746 10.7888 11.0983 10.6174C11.0513 10.6034 11.0164 10.5921 10.9772 10.5618C10.9885 10.5128 11.0111 10.4782 11.0381 10.4362L11.7038 10.6031C12.375 10.7143 13.2295 10.6742 13.8658 10.4302C14.0996 10.3405 14.2972 10.2222 14.5023 10.0837Z" fill="#040303"/>
<path d="M8.58059 12.0853C8.55244 12.1142 8.52452 12.1396 8.50838 12.1768C8.60025 12.267 8.73336 12.3393 8.84384 12.4086C9.42198 12.7714 10.0388 13.0434 10.7125 13.1961C11.5427 13.3843 12.425 13.4462 13.2523 13.2086C13.4638 13.1478 13.6814 13.0721 13.8677 12.9557C14.0362 12.8504 14.1427 12.7023 14.186 12.513L14.1903 12.493C14.2578 12.4373 14.3836 12.412 14.4655 12.3716C14.5736 12.3184 14.6759 12.2563 14.7782 12.1933L14.8088 12.3367C14.8752 12.7912 14.4776 13.022 14.116 13.2012C13.8132 13.3512 13.5012 13.4598 13.1792 13.564C13.1049 13.588 12.9041 13.6299 12.8599 13.6866L12.8964 13.7139C13.0549 13.7493 13.2768 13.6851 13.4354 13.6536C13.4257 13.6779 13.433 13.665 13.406 13.6924C13.0402 14.0641 12.5817 14.2689 12.052 14.2832C12.6026 14.4087 13.0826 14.2482 13.4584 13.8415C13.5447 13.7481 13.6207 13.6178 13.747 13.5764L13.7747 13.5998C13.932 13.9856 14.0109 14.4221 14.0903 14.8286C14.3195 16.0022 14.3978 17.2386 14.3022 18.4293C14.2447 19.1461 14.1248 19.8615 14.0143 20.5723L13.9884 20.5852C13.8337 20.6451 13.6499 20.6858 13.4889 20.7299L12.4747 20.9721C10.998 21.2593 9.42691 21.3245 7.94023 21.0577C7.27873 20.9391 6.63757 20.7535 6.00745 20.5281L6.49341 20.3867L6.5808 20.4776C6.69912 20.5751 6.95181 20.5666 7.10051 20.5551C7.52093 20.5226 7.87072 20.3183 8.03571 19.9323C8.04894 19.9013 8.08157 19.7765 8.10098 19.7594C8.11425 19.7477 8.19757 19.7331 8.2182 19.7273C8.53063 19.6396 8.77863 19.542 8.99504 19.2995L9.02077 19.3025C9.1745 19.319 9.26352 19.3079 9.38684 19.2101C9.5018 19.119 9.57811 18.9909 9.59006 18.8475L9.59075 18.8318C9.61901 18.8216 9.6437 18.8116 9.66845 18.7945C9.77449 18.7216 9.84597 18.5907 9.86788 18.4685L9.87139 18.4465C9.88385 18.372 9.87152 18.3203 9.8493 18.2497L9.84125 18.2245C10.0053 18.0791 10.077 17.967 10.0873 17.7465C10.0885 17.7204 10.0822 17.6546 10.0905 17.633C10.1 17.6083 10.1496 17.5602 10.1679 17.5368C10.2807 17.3925 10.354 17.243 10.3247 17.0578L10.3202 17.0318C10.2896 16.849 10.1798 16.698 10.0498 16.5669C10.081 16.3441 10.0803 16.1168 10.082 15.8922C10.0877 15.1528 9.98402 14.4205 9.75195 13.715C10.0429 13.8278 10.3417 13.9563 10.6483 14.0219C10.8108 14.0567 10.9759 14.0648 11.1417 14.0694L10.4861 13.8119L8.49987 12.8827C7.97415 12.6175 7.4518 12.3496 6.99479 11.9802C7.25717 11.6275 7.5719 11.3946 7.97974 11.2112L8.6752 11.7963C8.66069 11.8479 8.64385 11.893 8.62274 11.9424L8.58059 12.0853Z" fill="#D27536"/>
<defs>
<linearGradient id="paint0_linear_1563_5529" x1="14.9271" y1="15.6073" x2="13.7262" y2="15.4134" gradientUnits="userSpaceOnUse">
<stop stop-color="#50838C"/>
<stop offset="1" stop-color="#558EAD"/>
</linearGradient>
</defs>
</svg>
