<svg width="112" height="112" viewBox="0 0 112 112" fill="none" xmlns="http://www.w3.org/2000/svg">
<path d="M6.3695 72.8165C6.47083 72.8088 6.53656 72.8296 6.61719 72.8926C6.87911 73.0971 7.10511 73.3876 7.32583 73.6365L8.44223 74.8991L11.2831 78.0974C11.718 78.5927 12.2475 79.0736 12.5867 79.64C13.1541 80.588 13.523 81.8151 13.9354 82.8414L16.5356 89.289L20.0576 97.8973L21.1398 100.536C21.3921 101.155 21.6845 101.786 21.8153 102.444L21.8335 102.539C21.8603 102.673 21.8795 102.796 21.8813 102.933C21.8958 104.041 21.5201 104.787 20.7701 105.559C20.1754 106.065 19.383 106.421 18.5937 106.426C17.7586 106.433 16.9749 106.13 16.3895 105.53C16.1559 105.29 15.9822 105.057 15.841 104.751L14.0201 100.277L10.6406 91.9275L7.47157 84.232C7.16834 83.4684 6.71043 82.6596 6.49872 81.8751C6.38202 81.4426 6.42046 80.92 6.40147 80.471L6.28529 78.3672C6.19602 76.6155 5.99665 74.8432 6.02052 73.0899C6.13074 72.921 6.19312 72.9046 6.3695 72.8165Z" fill="#030303"/>
<path d="M20.1913 99.824L20.6844 100.989L19.0555 101.9C18.018 102.422 16.9067 102.708 15.786 102.986C15.5777 102.623 15.4344 102.206 15.2913 101.814C17.0531 101.447 18.681 100.799 20.1913 99.824Z" fill="white"/>
<path d="M20.7424 101.527L20.8368 101.496C21.0022 101.622 21.1375 102.082 21.2009 102.291C21.415 102.998 21.3211 103.807 20.9639 104.451C20.613 105.084 19.9272 105.565 19.2336 105.749L19.1407 105.772C18.7643 105.87 18.2911 105.858 17.9185 105.747L17.8282 105.719C17.5435 105.634 17.3048 105.509 17.0455 105.368C16.4419 104.858 16.2285 104.134 15.9487 103.418C17.6587 103.057 19.2888 102.531 20.7424 101.527Z" fill="#37BBE4"/>
<path d="M8.16185 75.6055L8.285 75.6089C8.75835 75.9816 9.15459 76.5022 9.55395 76.9542L11.9065 79.6483C11.7323 79.8186 11.5118 80.0026 11.3752 80.2035C11.2341 80.4111 11.1524 80.7139 11.0651 80.9504C10.9371 80.9204 10.8229 80.8194 10.7135 80.7475C10.3887 80.5341 9.99643 80.235 9.5975 80.2109C9.42032 80.2534 9.3482 80.3581 9.23489 80.49L9.18668 80.5471L8.63837 81.8524L7.44765 81.1467L6.97954 81.5794L6.73999 76.4531L6.78518 76.4466C6.85176 76.5857 6.88736 76.6582 7.01426 76.7539C7.53895 76.6729 7.21112 76.3721 7.43734 76.0783C7.63065 76.1159 7.84446 76.1398 8.01342 76.013C8.17529 75.8915 8.14409 75.7908 8.16185 75.6055Z" fill="#F0C8B3"/>
<path d="M7.36629 81.8397C7.71059 81.8076 8.25991 82.2719 8.55821 82.4689L10.5332 87.3192L14.1285 96.1715C14.3716 96.7743 16.144 100.752 16.1403 100.98C16.1398 101.016 16.1171 101.048 16.1055 101.081L15.77 101.165L15.0641 101.376L13.7614 98.1793L11.1725 91.7762L8.49683 85.2698L7.62619 83.1445C7.46777 82.76 7.25683 82.3533 7.16528 81.9491L7.36629 81.8397Z" fill="#ECA01F"/>
<path d="M12.1136 79.9634C12.6296 80.7784 12.9256 81.7717 13.2855 82.6654L15.0379 87.0078L20.0521 99.3088L19.334 99.7621C19.1863 99.8525 19.0699 99.971 18.8945 99.9526L11.439 81.5004L12.1136 79.9634Z" fill="#ECA01F"/>
<path d="M9.79586 80.7507L10.4554 81.2615C10.5804 81.3493 10.8059 81.4675 10.8835 81.5998C11.0835 81.9404 11.2111 82.4004 11.3703 82.7688L13.138 87.1042L18.4229 100.244L17.508 100.625L16.6767 100.94L9.04639 82.1964L9.79586 80.7507Z" fill="#ECA01F"/>
<path d="M70.7784 4.67254L71.203 4.65978C77.1062 4.58269 82.9717 5.32329 88.733 6.57354C91.4995 7.17389 94.2673 7.86655 96.9592 8.74466L98.6955 9.30697C99.177 9.46521 99.7079 9.58015 100.072 9.95453C100.341 10.2308 100.464 10.5587 100.472 10.9394C100.493 11.9085 100.311 12.9315 100.234 13.9034L99.495 22.0494L99.1615 26.4004L98.2817 37.1189L97.5201 45.8241L97.2896 48.9082C97.2814 49.2022 97.2513 49.2184 97.4578 49.432C99.0141 51.0423 100.308 52.7666 101.297 54.7885C101.591 55.3887 101.834 56.0153 102.064 56.642L102.348 57.4573C102.366 57.5087 102.394 57.6493 102.425 57.6829C102.498 57.7635 103.033 57.9033 103.192 57.9831C103.7 58.2386 104.151 58.6023 104.538 59.0168C105.593 60.1474 106.108 61.4514 106.05 62.9994C106.019 63.8373 105.746 64.7973 105.09 65.3621C104.936 65.4951 104.741 65.5717 104.57 65.6815C104.308 65.8497 104.007 66.0952 103.708 66.1888C103.441 66.2722 103.144 66.2426 102.871 66.299C102.436 66.3888 102.067 66.5878 101.609 66.5531C100.92 66.5007 100.364 66.0559 100.086 65.4337C100.016 65.2767 99.9707 65.0456 99.8606 64.9199C99.6744 64.9657 99.4582 65.0331 99.2661 65.0028C98.8888 64.9431 98.5183 64.6981 98.2952 64.3916C97.8636 63.7988 97.8579 62.8612 97.959 62.1619C98.0457 61.5609 98.2999 60.9183 98.6691 60.435C98.7979 60.2661 98.9704 60.1261 99.0942 59.9568C99.1635 59.862 99.1781 59.6404 99.2066 59.5196C99.3612 58.8631 99.7291 58.3588 100.269 57.9685L100.33 57.9251C99.682 55.6415 98.3659 53.7213 96.928 51.8695C96.8546 52.0713 96.8808 52.3883 96.8692 52.6054L96.7695 54.1656L96.1215 61.934L95.9302 64.6327C95.9067 64.9352 95.9239 65.4125 95.7761 65.6802C95.6056 65.9892 94.7696 66.1907 94.4382 66.3125L90.1523 67.7733C89.4607 67.997 88.4218 67.829 87.6852 67.8074L82.6701 67.6353C83.3883 71.9478 84.7915 76.1294 86.2558 80.2381C86.562 79.9569 86.7639 79.7059 87.1991 79.6826C87.4706 79.8272 87.6512 80.0992 87.8436 80.3337C88.1377 80.0691 88.4615 79.8194 88.8144 79.6392C90.3135 78.8731 92.0843 78.5664 93.71 79.0965C94.342 79.3024 94.8654 79.6384 95.1676 80.2427C95.2668 80.4412 95.824 80.6491 96.0122 80.8691C96.1111 80.9845 96.0858 81.0035 96.0728 81.1563C95.9188 81.4298 95.6774 81.6106 95.4569 81.8267L94.5287 82.7509L89.677 87.4596L88.5984 88.4855C88.3738 88.6972 88.1552 88.9408 87.8827 89.0891C87.8394 89.0872 87.6644 89.0954 87.6366 89.0787C87.4505 88.9663 87.2137 88.591 87.0461 88.4241C86.5768 87.9565 86.0618 87.5297 85.7223 86.9517C85.465 86.5133 85.303 86.075 85.1837 85.5836C85.1406 85.406 85.0522 84.733 84.9511 84.6097C84.895 84.5412 84.5202 84.5256 84.4285 84.5143C84.1443 84.4795 83.879 84.4314 83.6583 84.2339C83.4011 84.0039 83.2331 83.7519 83.231 83.3995C83.2259 82.5389 83.9681 81.8046 84.5377 81.2409L80.6403 67.5294L66.5561 66.6001C66.4224 66.8522 66.5266 67.7862 66.5334 68.0958C66.615 71.8579 66.8595 75.6455 67.3297 79.3785C67.8667 79.4228 68.4411 79.59 68.8788 79.9136C69.2213 80.1669 69.4617 80.5668 69.5101 80.9928C69.5747 81.5606 69.4127 82.0085 69.0697 82.4586C68.9944 82.5575 69.1237 82.9448 69.1523 83.0838C69.3135 83.8682 69.3911 84.6673 69.4017 85.4672C69.4935 85.5275 69.5951 85.59 69.6675 85.6735C69.8287 85.8595 69.8136 86.1525 69.7912 86.3839C69.7662 86.6427 69.6477 86.8343 69.4353 86.9891C68.9997 87.3065 68.2361 87.3072 67.7081 87.3597C66.7616 87.4539 65.8131 87.4515 64.8628 87.4616C63.1121 87.48 61.3773 87.4311 59.6367 87.2336C60.4685 87.9571 61.379 88.5424 62.3414 89.0748L63.7549 89.7573C63.9713 89.8608 64.26 89.9619 64.3863 90.1745C64.3871 90.3017 64.3776 90.3673 64.3186 90.4805C63.9707 90.7737 63.4821 90.9015 63.052 91.023L63.1682 95.1879L63.6404 95.2254C64.1229 95.3056 64.7407 95.4626 65.0242 95.8946C65.2004 96.1632 65.2489 96.5268 65.1737 96.8362C65.0937 97.1666 64.8742 97.394 64.5847 97.5586C64.2372 97.7564 63.8063 97.8735 63.4313 98.0169L60.3772 99.1313L51.627 102.279L40.7698 106.111L38.075 107.024C37.5433 107.204 37.0081 107.411 36.4642 107.549C36.0235 107.66 35.5889 107.629 35.1551 107.494C34.8743 107.406 34.5538 107.287 34.333 107.09C34.0153 106.807 33.7701 106.336 33.5225 105.984L32.0516 103.881C28.2631 98.1835 25.0477 92.014 22.0874 85.8505L17.0823 75.3002L15.2067 75.7347C14.8518 75.8105 13.9859 76.0416 13.6915 75.794C13.497 75.6304 13.5185 75.401 13.5111 75.1723C13.4478 73.2443 13.1475 71.2683 12.8807 69.3576L11.4399 60.6123C10.4924 55.7793 9.26348 50.9311 7.64204 46.2788C7.20605 45.0278 6.69781 43.7997 6.10918 42.6126L5.52259 41.425C5.44923 41.2719 5.33135 41.0909 5.32178 40.9194C5.38781 40.8386 5.4619 40.7481 5.55069 40.6916C5.71472 40.5873 6.05794 40.5404 6.24875 40.4872L8.19494 39.9331C15.1534 37.9669 22.2667 36.4057 29.3787 35.1075L34.8273 34.1081C34.8637 33.9594 34.7967 33.7671 34.7657 33.6159L34.5856 32.6393C34.4852 31.9588 34.4456 31.3543 34.9018 30.7733C35.2362 30.3475 35.8418 30.056 36.3784 30.0121C36.8521 29.9733 37.3545 30.0454 37.7268 30.3641C37.9776 30.5787 38.1856 30.8512 38.318 31.1536C38.6761 31.9702 38.7843 32.9153 38.965 33.7856C39.1433 34.6444 39.3772 35.5208 39.4556 36.3938L39.5075 36.4013L39.5937 36.4145C39.9164 36.4619 40.1972 36.5239 40.4734 36.7079C41.0627 37.1006 41.4032 37.8142 41.542 38.4909C41.8105 39.7996 41.3908 40.9563 40.6826 42.0473C41.2309 43.1096 41.9498 44.1395 42.7827 44.9984C45.1499 47.4393 48.1025 48.87 51.5185 48.9223L51.4604 37.764L51.157 29.504L50.8872 20.8934L50.591 12.8179L50.4825 9.82229C50.4872 9.35152 50.4953 8.67507 50.8319 8.31365C51.0232 8.10832 51.3098 8.01939 51.5655 7.92215L52.9431 7.44025C55.9956 6.49327 59.1803 5.88858 62.3437 5.45459L70.7784 4.67254Z" fill="#030303"/>
<path d="M60.1016 82.9308L60.2645 82.7989C60.9547 82.2955 61.9234 82.0473 62.7688 82.1728L62.8633 82.1878C63.2659 82.2493 63.5919 82.3706 63.9343 82.5942C63.7509 82.6146 63.6008 82.6163 63.4184 82.5843C62.5021 82.4242 61.2481 82.5619 60.3714 82.881C60.283 82.9132 60.1943 82.9208 60.1016 82.9308Z" fill="#87D6D9"/>
<path d="M87.1131 80.4954L87.1664 80.5713C87.2015 80.6276 87.3766 80.9088 87.3802 80.9635C87.3847 81.0339 87.0626 81.5167 87.0155 81.6021C86.8037 81.9863 86.6819 82.3648 86.5725 82.788L86.2656 82.5704C86.0073 82.3794 85.6993 82.1485 85.6108 81.8399C85.9083 81.3251 86.6649 80.888 87.1131 80.4954Z" fill="#37BBE4"/>
<path d="M35.8979 37.3242C36.0325 37.2998 36.1479 37.2822 36.2836 37.3076C36.3621 37.3222 36.9109 37.4922 36.9406 37.5406C36.9493 37.5548 36.8508 38.4278 36.8717 38.582C36.9193 38.9312 37.0793 39.2287 37.2715 39.5181L37.304 39.5664L37.1053 39.5673C36.6098 39.4892 36.1587 39.3305 35.8475 38.916C35.6116 38.6019 35.4994 38.1346 35.5743 37.7478C35.6194 37.5152 35.7163 37.4515 35.8979 37.3242Z" fill="white"/>
<path d="M58.777 85.9961C59.6235 86.0374 60.4878 86.2049 61.3416 86.261C63.5489 86.406 65.7844 86.3527 67.9873 86.1511C68.2311 86.1288 68.9052 86.0075 69.0806 86.1328L69.043 86.3521L68.9306 86.4093C68.5126 86.5712 67.8572 86.5365 67.4064 86.5631C65.1984 86.6931 62.9062 86.7106 60.7001 86.5309C60.1255 86.4842 59.4248 86.4658 58.8919 86.257C58.797 86.1411 58.7637 86.153 58.777 85.9961Z" fill="#215F6B"/>
<path d="M60.1014 82.9309C60.1942 82.9208 60.2829 82.9132 60.3713 82.8811C61.248 82.5619 62.502 82.4242 63.4182 82.5844C63.6007 82.6163 63.7507 82.6147 63.9342 82.5942C64.3644 82.8434 64.5729 83.1425 64.8105 83.562C64.5212 83.7043 63.6642 83.4619 63.3108 83.4393C62.6517 83.3972 62.0104 83.4037 61.3523 83.4682C61.0163 83.5011 60.6926 83.5573 60.3645 83.6351C59.9798 83.7266 59.6679 83.8633 59.2717 83.7636C59.4852 83.4466 59.7906 83.1516 60.1014 82.9309Z" fill="white"/>
<path d="M34.8592 37.5976C34.92 37.5835 34.9712 37.5841 35.0333 37.5837C34.8749 38.0733 34.9468 38.6375 35.1779 39.0957C35.5059 39.7462 36.0207 39.9516 36.6642 40.1835L36.6416 40.2303C36.4281 40.6642 36.2114 40.9204 35.7426 41.0794C35.5857 41.0811 35.4204 41.0863 35.2674 41.0468C34.7781 40.9207 34.3241 40.4116 34.0998 39.9784C33.8407 39.4782 33.7886 39.0133 33.9772 38.4814C34.1327 38.0425 34.4503 37.7904 34.8592 37.5976Z" fill="white"/>
<path d="M94.9878 80.9649L95.0996 80.947C95.2242 81.0065 95.2829 81.037 95.3555 81.1563C95.1327 81.4617 94.837 81.7189 94.5666 81.9825L93.2738 83.2348L87.9724 88.2537L87.5664 87.9358L94.9878 80.9649Z" fill="#2C86A4"/>
<path d="M88.3845 80.8754L88.4255 80.7728C88.4808 80.6758 88.6624 80.5539 88.7521 80.4868C89.2426 80.12 89.8496 79.8887 90.4369 79.7312C91.5746 79.4263 93.0518 79.3733 94.0896 80.0234C94.2807 80.1431 94.4989 80.2969 94.5451 80.5312C94.5676 80.6452 94.5062 80.6798 94.4448 80.7697C93.9957 80.6117 93.5175 80.5878 93.0463 80.5413C92.6298 80.5003 92.1628 80.4355 91.7511 80.5294C91.0537 80.6885 89.4399 81.8083 88.8097 81.4404C88.6226 81.3312 88.5352 81.0213 88.3845 80.8754Z" fill="white"/>
<path d="M36.2125 30.9073C36.5975 30.8898 36.9774 30.8562 37.2943 31.1236C37.492 31.2904 37.6126 31.5281 37.7023 31.766C37.896 32.2803 37.9877 32.8767 38.1062 33.4149C38.3328 34.4436 38.5725 35.4939 38.6826 36.5422L37.6629 36.7998L37.3734 36.9273C37.273 36.8958 36.8232 36.7943 36.7733 36.7385C36.6986 36.6548 36.6535 36.3267 36.6276 36.2137L36.2373 34.5608C36.1826 34.3376 36.1689 34.0876 36.0588 33.8857C35.9289 33.854 35.813 33.8241 35.6901 33.7696C35.5462 33.1183 35.3276 32.2012 35.5382 31.5477C35.6485 31.2058 35.904 31.0511 36.2125 30.9073Z" fill="white"/>
<path d="M88.3848 80.8752C88.5355 81.0212 88.6229 81.3311 88.81 81.4403C89.4402 81.8082 91.054 80.6884 91.7514 80.5293C92.1631 80.4353 92.6301 80.5002 93.0466 80.5412C93.5178 80.5877 93.996 80.6115 94.4451 80.7696L87.1267 87.4941C87.0076 87.4816 86.7319 87.107 86.6446 86.9987C86.3908 86.6839 86.1491 86.3433 86.0082 85.9616C85.8356 85.4943 85.7803 84.9747 85.6767 84.4887C85.6411 84.3218 85.6031 84.0549 85.5017 83.9178C85.4507 83.849 85.3008 83.8276 85.2292 83.8183C84.8639 83.7707 84.4927 83.7801 84.1651 83.5897C84.0623 83.4349 84.0111 83.3442 84.0642 83.1522C84.1461 82.8558 84.5346 82.4871 84.7384 82.2532L84.8787 82.3921C84.9731 82.3439 84.9775 82.3389 85.0391 82.243C85.1178 82.3561 85.0773 82.4427 85.1212 82.5567C85.1625 82.6644 85.3421 82.8018 85.4322 82.8741C85.8146 83.1806 86.3754 83.6145 86.866 83.7017C87.0124 83.7277 87.1766 83.6869 87.2953 83.594C87.4193 83.4969 87.4738 83.3925 87.4808 83.2342C87.4907 83.0078 87.412 82.7595 87.3368 82.5482C87.4426 82.2197 87.5572 81.9198 87.7162 81.6132C87.86 81.9092 88.1054 82.6049 88.4175 82.7071C88.5476 82.7496 88.6281 82.7282 88.7579 82.6971C88.8568 82.5893 88.8739 82.5922 88.8678 82.4451C88.8471 81.9494 88.2214 81.3174 88.3848 80.8752Z" fill="#37BBE4"/>
<path d="M64.8105 83.5618L64.9418 83.5898C65.114 83.3971 65.2616 83.1923 65.5155 83.1127C65.8422 83.0103 66.2887 82.9297 66.5528 82.7148C66.5691 82.5321 66.5071 82.492 66.407 82.3431C66.1221 82.2212 65.4766 82.4963 65.1505 82.54C65.1242 82.5436 64.961 82.5732 64.9369 82.5632C64.8627 82.5325 64.6961 82.3221 64.6308 82.2588C64.4316 82.0658 64.232 81.9187 63.995 81.7772C63.9454 81.3226 63.8072 80.7278 64.1339 80.3468C64.4197 80.0137 65.0952 79.9789 65.5116 79.9138C65.6149 80.0282 65.6091 80.2157 65.6274 80.3632L65.5702 80.4406C65.1613 80.4526 64.8156 80.4441 64.4945 80.735C64.406 80.932 64.4231 81.081 64.4399 81.2929C64.5869 81.5739 64.9218 81.713 65.2147 81.8L65.5702 81.8734L65.6537 81.8886C66.1321 81.9696 67.2445 81.9669 67.6591 81.6673L67.4652 80.0637C67.9069 80.1785 68.5066 80.3525 68.7706 80.7461C68.8608 81.2292 68.8027 81.6015 68.5265 82.0076C68.4912 82.0595 68.3171 82.2636 68.3106 82.3125C68.2988 82.4013 68.3441 82.5741 68.3596 82.6644L68.5337 83.6539C68.6476 84.3272 68.7528 85.0117 68.7491 85.6961C66.0935 85.9206 63.3906 85.9663 60.7304 85.7844L58.6619 85.5682C58.7109 84.9529 58.8761 84.2549 59.2717 83.7635C59.6679 83.8631 59.9798 83.7264 60.3645 83.635C60.6926 83.5571 61.0163 83.501 61.3523 83.4681C62.0104 83.4035 62.6518 83.3971 63.3109 83.4392C63.6642 83.4617 64.5212 83.7041 64.8105 83.5618Z" fill="#37BBE4"/>
<path d="M35.8289 102.854C35.5607 102.817 35.2909 102.764 35.035 102.674C34.7963 102.59 34.5948 102.451 34.4256 102.263C34.0381 101.833 33.7256 101.3 33.4123 100.814L31.4288 97.5039L25.3111 86.2423L21.0827 77.9324L19.3007 73.9376L18.3347 72.0024C18.2323 71.7856 18.0433 71.4908 18.1245 71.2673L19.2691 73.3755L23.5956 81.2458C26.0837 85.8594 28.4012 90.5764 31.2073 95.0094C32.1313 96.4691 33.066 97.9008 34.1262 99.2662C34.4329 99.6614 34.9368 100.485 35.41 100.64C35.6137 100.616 35.7852 100.571 35.9775 100.5L35.8289 102.854Z" fill="#F0C8B3"/>
<path d="M101.387 58.2524C101.724 58.2459 102.021 58.2508 102.348 58.3536C103.398 58.6841 104.338 59.6424 104.839 60.6056C105.453 61.7882 105.467 63.1226 105.061 64.3745C105.069 63.8529 105.175 63.2845 105.009 62.7811C104.882 62.6528 104.877 62.6448 104.699 62.6169C104.583 62.677 104.535 62.6927 104.487 62.8263C104.437 62.964 104.467 63.201 104.466 63.3511C104.465 63.8961 104.457 64.5755 104.175 65.0581C104.057 65.2601 103.896 65.4327 103.66 65.4845C103.523 65.5148 103.447 65.5348 103.325 65.4528L103.514 64.6405C103.559 64.2554 103.578 63.8535 103.332 63.5372C103.157 63.4469 103.127 63.4392 102.931 63.4507C102.714 63.7126 102.866 64.0944 102.856 64.4051C102.849 64.6431 102.804 64.8744 102.759 65.1076C102.682 65.3363 102.557 65.511 102.364 65.6575C102.135 65.831 101.844 65.8902 101.562 65.8457C101.256 65.7973 101.014 65.6212 100.846 65.3643C100.443 64.7498 100.466 63.8747 100.766 63.2221C100.881 62.9744 101.064 62.7063 101.104 62.4366C101.123 62.3061 101.104 62.2279 100.998 62.1371C100.877 62.0333 100.777 62.0679 100.634 62.085C100.077 62.5979 99.8828 63.5174 99.7879 64.2441C99.6222 64.2893 99.3541 64.3001 99.1923 64.2381C99.0122 64.1691 98.8471 63.9454 98.7696 63.7766C98.4639 63.1113 98.6131 62.124 98.8823 61.4584C99.0344 61.0825 99.3018 60.5742 99.6938 60.4201C99.8439 60.3611 100.004 60.3008 100.133 60.2017C100.283 60.0871 100.283 60.007 100.297 59.828C100.123 59.6292 100.065 59.7206 99.8498 59.6366C99.8918 59.492 99.9451 59.3747 100.023 59.2452C100.361 58.6849 100.766 58.4038 101.387 58.2524Z" fill="white"/>
<path d="M94.2965 9.05151L96.6928 9.7961C97.6155 10.0779 98.5698 10.3463 99.4494 10.7436L98.6835 18.9553L98.6306 19.1118L93.6719 17.4514L94.2965 9.05151Z" fill="#399E9A"/>
<path d="M61.9031 91.246L62.0445 91.2188L62.1231 91.2733L62.167 93.2731C60.4771 93.6181 58.8107 94.0955 57.1554 94.5756L48.7459 97.3384L43.4011 99.4074L36.5479 102.019L36.3672 102.109L36.3041 102.074C36.2793 101.486 36.2684 100.84 36.3632 100.258C37.7507 99.4236 39.3194 98.7929 40.7997 98.139C47.5949 95.1379 54.7142 93.0636 61.9031 91.246Z" fill="#F0C8B3"/>
<path d="M62.0342 93.543C62.0756 93.546 62.1243 93.5647 62.1646 93.5759C62.2254 94.2671 62.1878 94.9891 62.4268 95.6495L62.4542 95.7217L36.6425 104.259C36.5479 104.283 36.4584 104.295 36.3617 104.307C36.2773 104.132 36.307 103.922 36.3061 103.729L36.3024 102.35C37.4588 102.086 38.6379 101.578 39.7543 101.165L45.8497 98.8467C51.1497 96.7681 56.4773 94.8294 62.0342 93.543Z" fill="#F0C8B3"/>
<path d="M37.5837 98.5768L35.3916 99.737C34.9244 99.2782 34.5197 98.724 34.1227 98.2035L31.9828 95.1138C29.7834 91.6429 27.874 88.07 25.9566 84.4409L21.733 76.621L19.944 73.4286C19.4369 72.5076 18.9667 71.4827 18.3186 70.6546C18.477 70.5123 18.7775 70.4417 18.9762 70.3691L20.8813 69.7163L26.2889 79.4824C25.9625 80.4953 26.0147 81.4372 26.4913 82.3928C26.9123 83.2368 27.5917 83.7983 28.4854 84.0833L28.6462 84.1324C28.7786 84.5471 29.0368 84.8962 29.2571 85.2687L30.3764 87.1743C30.9595 88.2089 31.4402 89.4141 32.1469 90.364C31.7963 91.228 31.7487 92.1217 32.1229 92.9907C32.5032 93.8737 33.2014 94.5612 34.0942 94.9193C34.5721 95.111 34.9749 95.102 35.4777 95.1218C35.5551 95.6828 36.2152 96.4773 36.5299 96.961C36.8776 97.4956 37.2049 98.0651 37.5837 98.5768Z" fill="#D2D2D1"/>
<path d="M18.2832 69.5995L17.7369 69.8188C17.0197 70.149 16.4298 70.7075 16.1663 71.4633C15.8019 72.5086 16.233 73.4225 16.6892 74.352L14.435 74.8315L13.6036 67.6351C12.8247 62.1306 11.6884 56.6317 10.1695 51.2841C9.20782 47.8986 8.14071 44.5678 6.5708 41.4089L7.91377 41.0308C8.30455 41.683 8.80274 42.2501 9.18039 42.9184C10.125 44.59 10.8319 46.3864 11.4859 48.1874L12.6342 51.5429C12.899 52.4459 13.0383 53.4221 13.2604 54.3414L14.5964 59.6688C14.9532 61.1082 15.2489 62.566 15.6862 63.9843C16.2771 65.9011 17.2288 67.8992 18.2832 69.5995Z" fill="#D2D2D1"/>
<path d="M35.8291 102.854C35.8249 103.449 35.8183 104.019 35.9497 104.604C35.9887 104.645 36.0182 104.698 36.0664 104.728C36.2743 104.858 37.2661 104.518 37.4883 104.454C40.7586 103.522 43.8983 102.2 47.0875 101.032L56.7836 97.7587L60.7553 96.4905C61.3111 96.3257 61.9063 96.1076 62.4805 96.0324C62.8529 95.9836 63.2027 96.0712 63.561 96.1591C63.8083 96.2198 64.0843 96.2677 64.2233 96.4962C64.1976 96.5466 64.1833 96.5824 64.1408 96.6252C63.9984 96.7691 63.7377 96.859 63.5502 96.9337L56.5006 99.482L43.2797 104.182L37.8083 106.077C37.223 106.269 36.4757 106.613 35.8655 106.644C35.5689 106.659 35.3098 106.548 35.0974 106.342C34.7199 105.978 34.4251 105.492 34.1211 105.065L32.2692 102.343C27.3319 94.6431 23.4508 86.3614 19.562 78.1019L18.0012 74.7852C17.6782 74.0882 17.0836 73.0919 17.076 72.322C17.0703 71.7506 17.4621 71.2046 17.8539 70.8232C17.9643 70.9666 18.0445 71.1051 18.1247 71.2673C18.0435 71.4908 18.2325 71.7855 18.3349 72.0024L19.3009 73.9376L21.0829 77.9324L25.3113 86.2423L31.4291 97.5039L33.4126 100.814C33.7258 101.3 34.0383 101.833 34.4258 102.263C34.595 102.451 34.7965 102.59 35.0353 102.674C35.2911 102.764 35.5609 102.817 35.8291 102.854Z" fill="url(#paint0_linear_1529_2877)"/>
<path d="M93.642 18.1077L98.6169 19.7807L96.3097 48.2409L94.8849 47.0564C94.5898 46.8046 94.0313 46.2717 93.6148 46.3178C93.4059 46.3409 93.2788 46.4486 93.1587 46.6148C92.9074 46.9628 92.8251 47.3492 92.8904 47.7706L92.9041 47.8517C92.9368 48.0512 92.9931 48.1891 93.1257 48.3456C93.4187 48.6913 93.8681 48.9599 94.2236 49.2409C94.8431 49.7308 95.4214 50.2541 95.933 50.8574C95.9885 50.9227 96.0159 50.9444 96.0346 51.0323C96.0734 51.2143 95.9902 51.5964 95.9716 51.7972L95.7793 53.9453L95.1886 61.6159L94.8718 64.9539C94.5325 65.213 93.9978 65.3515 93.5946 65.503C92.4674 65.9267 91.3495 66.3528 90.186 66.6701L93.642 18.1077Z" fill="#399E9A"/>
<path d="M70.2761 5.77312C71.1771 5.70321 72.1118 5.73033 73.0162 5.73285C76.4154 5.74231 79.7611 6.09543 83.1197 6.59692C86.6627 7.12595 90.2598 7.84507 93.6892 8.88953L93.0371 17.2434L89.0351 16.2233C84.514 15.1467 80.0105 14.4218 75.3898 13.9533L70.7962 13.7077C65.855 13.6349 60.9803 14.098 56.1685 15.2391C54.6933 15.589 53.2182 15.9613 51.7977 16.4976L51.4639 8.84006C53.2464 8.23967 55.0985 7.79885 56.9359 7.40476C61.3312 6.46204 65.7867 5.95837 70.2761 5.77312Z" fill="#79C3B1"/>
<path d="M38.903 43.6132L39.0146 43.6028C39.59 44.5399 40.3872 45.4349 41.1632 46.2117C44.0023 49.0536 47.4752 50.9383 51.5635 50.9404L51.8537 60.8566C51.9241 62.1062 51.9043 63.4375 52.1082 64.6691C52.4859 64.8189 52.9034 64.8943 53.2993 64.9821L55.7876 65.4327L64.5829 66.4635L65.5349 79.3545L64.8543 79.3649C64.3549 79.3938 63.7789 79.567 63.4574 79.9724C63.1008 80.4221 63.2611 81.0336 63.3421 81.5474C62.7106 81.3716 62.0388 81.3593 61.399 81.5013L61.3145 81.5205C60.4693 81.7845 59.749 82.1882 59.1221 82.8193C58.2804 83.6665 58.0099 84.4975 58.0125 85.6776C55.7426 83.3863 53.9005 80.6156 52.2776 77.8424L49.5059 72.7543C48.557 70.8448 47.721 68.7785 46.537 67.0024C45.7167 65.7718 44.4893 64.2232 42.9435 63.9306L42.8478 63.9133C42.5179 63.8512 42.1917 63.8431 41.8572 63.8323L38.4084 43.8079L38.903 43.6132Z" fill="white"/>
<path d="M20.8813 69.7163C26.47 67.9212 32.1916 66.5665 37.958 65.4791L41.1915 64.9129C41.5756 64.8649 41.9842 64.7902 42.3717 64.7946C42.7521 64.7988 43.1796 64.9799 43.5152 65.1522C44.0357 65.4194 44.4551 65.8469 44.837 66.2822C46.3576 68.0152 47.2628 70.3229 48.2787 72.3701L50.4841 76.6459C51.6302 78.7393 52.9218 80.7961 54.3204 82.7298C55.7686 84.732 57.3089 86.5949 59.1822 88.2148C60.1044 89.0123 61.0558 89.7595 62.1342 90.3377C59.1348 90.911 56.1654 91.7186 53.2405 92.591C47.9021 94.1834 42.5873 96.1149 37.5838 98.5767C37.205 98.0651 36.8777 97.4956 36.53 96.9609C36.2153 96.4773 35.5552 95.6828 35.4778 95.1218C34.975 95.102 34.5721 95.111 34.0943 94.9192C33.2015 94.5611 32.5033 93.8737 32.123 92.9906C31.7487 92.1216 31.7964 91.2279 32.147 90.364C31.4403 89.4141 30.9596 88.2088 30.3765 87.1743L29.2572 85.2686C29.0369 84.8962 28.7787 84.5471 28.6463 84.1323L28.4855 84.0832C27.5918 83.7983 26.9124 83.2368 26.4914 82.3927C26.0148 81.4371 25.9626 80.4953 26.289 79.4824L20.8813 69.7163Z" fill="white"/>
<path d="M44.8902 71.3946C45.0621 71.3741 45.0572 71.3943 45.1991 71.4987C45.2346 71.6572 45.2333 71.6786 45.1801 71.8321C44.8919 72.0821 44.2636 72.1715 43.8845 72.2872L41.7747 72.9604L36.0483 75.0295C35.1493 75.381 34.2064 75.8906 33.2773 76.1277C33.1012 76.1098 33.0852 76.1058 32.9491 75.9934C32.9252 75.8319 32.9109 75.7832 32.9687 75.6261C33.6145 75.2316 34.4947 74.9973 35.2064 74.7169C38.3675 73.4713 41.6025 72.2589 44.8902 71.3946Z" fill="#030303"/>
<path d="M46.4862 73.9991L46.7304 73.9924C46.8771 74.1405 46.8661 74.1377 46.8763 74.3477C46.8549 74.3916 46.8464 74.4449 46.8119 74.4796C46.6999 74.5925 46.3465 74.6473 46.1885 74.6918L44.4613 75.1997L34.4671 78.8321C34.3623 78.8536 34.304 78.8494 34.1994 78.838C34.0401 78.6915 34.0165 78.704 34.0037 78.4766C34.1775 78.1872 35.2389 77.8697 35.5962 77.7256C39.156 76.2905 42.7945 75.0484 46.4862 73.9991Z" fill="#030303"/>
<path d="M48.0958 76.5138C48.2777 76.4913 48.3968 76.466 48.5648 76.5609C48.6309 76.726 48.6262 76.767 48.6045 76.9453C48.5577 76.9992 48.5526 77.0128 48.4803 77.0521C48.2415 77.1818 47.7834 77.218 47.5084 77.2971L44.0891 78.3138C41.2678 79.1946 38.5066 80.3083 35.7783 81.4401L35.6014 81.4883C35.4875 81.4688 35.4362 81.4595 35.3461 81.3805C35.2515 81.2976 35.2776 81.1935 35.2705 81.0743C35.3854 80.9322 35.5566 80.8801 35.7196 80.8091L36.8442 80.3426L44.1994 77.6912L48.0958 76.5138Z" fill="#030303"/>
<path d="M51.674 82.5902C51.8833 82.5558 52.0106 82.5633 52.1932 82.6673L52.2191 82.8243C52.1095 82.9901 52.0579 83.0296 51.8718 83.0977L48.3562 84.1909C45.1913 85.2303 41.9957 86.3405 38.9531 87.7015C38.7732 87.7483 38.7739 87.7483 38.6048 87.671C38.514 87.4997 38.5143 87.4992 38.5506 87.3087C38.6772 87.1344 38.9022 87.0715 39.0948 86.991L40.4332 86.4445L47.8131 83.7704C49.0815 83.352 50.3752 82.9003 51.674 82.5902Z" fill="#030303"/>
<path d="M53.2325 85.0664C53.3266 85.0495 53.3698 85.0386 53.457 85.0838C53.6031 85.1595 53.6277 85.2456 53.6644 85.3945C53.5236 85.6883 53.1131 85.7342 52.8193 85.8237L43.1942 89.115L39.9492 90.4177L39.8595 90.4333C39.7289 90.4321 39.6798 90.3735 39.5963 90.289C39.5521 90.1208 39.5459 90.0981 39.598 89.9336C39.8324 89.7604 40.13 89.6742 40.4003 89.5685L41.6968 89.0555L53.2325 85.0664Z" fill="#030303"/>
<path d="M32.147 90.3639C32.6266 89.5785 33.2751 89.0064 34.1923 88.7783C34.9074 88.6005 35.6439 88.7254 36.3093 89.0227C36.4042 88.715 36.4837 88.3263 36.6452 88.0518C36.8 87.9729 36.8539 87.99 37.0235 88.0023C37.1229 88.09 37.147 88.093 37.1513 88.2324C37.1629 88.601 36.9249 88.9856 36.8742 89.3567C37.6987 90.1288 38.1925 90.9064 38.2246 92.0663C38.2466 92.8589 37.9301 93.6453 37.3789 94.2127C36.8585 94.7484 36.199 94.9848 35.4778 95.1217C34.975 95.1019 34.5722 95.1109 34.0943 94.9192C33.2015 94.5611 32.5033 93.8737 32.123 92.9906C31.7488 92.1216 31.7965 91.2279 32.147 90.3639Z" fill="#030303"/>
<path d="M34.7694 89.2139C35.2045 89.2397 35.565 89.2991 35.9679 89.4676C35.96 89.7917 35.7681 90.2117 35.6669 90.5281L35.0639 92.4856C34.5946 92.1804 34.1482 91.8601 33.7342 91.4826C33.5359 91.67 33.3059 91.8743 33.2441 92.1483C33.3603 92.354 33.6676 92.5075 33.8602 92.652L35.5151 93.9134C35.9832 93.0283 36.2119 91.9662 36.495 91.0066C36.5877 90.6921 36.6589 90.318 36.8143 90.0333L36.9343 90.0975C37.2783 90.4466 37.5007 90.9069 37.6161 91.381C37.788 92.0874 37.6918 92.854 37.2883 93.4658C36.936 94.0001 36.3297 94.4282 35.6982 94.5449C34.9417 94.6848 34.2065 94.4757 33.5867 94.028C32.967 93.5803 32.5506 92.9033 32.4398 92.1443C32.3409 91.4658 32.447 90.7598 32.8765 90.2069C33.3501 89.5974 34.0241 89.3221 34.7694 89.2139Z" fill="#FED9A1"/>
<path d="M26.289 79.4825C26.7953 78.6031 27.3675 78.0777 28.3709 77.8059C29.1645 77.5909 29.9965 77.6929 30.7462 78.0098C30.8697 77.5536 30.9563 76.9493 31.2234 76.557C31.3784 76.512 31.4036 76.5117 31.5599 76.552C31.8147 76.995 31.5603 77.548 31.4513 78.0115C31.4352 78.0795 31.3689 78.2723 31.3755 78.3318C31.3798 78.3696 31.8376 78.7903 31.9005 78.8667C32.5848 79.6975 32.7946 80.9107 32.5071 81.9318C32.293 82.6923 31.7348 83.4312 31.0353 83.8143C30.3056 84.214 29.453 84.2904 28.6464 84.1325L28.4856 84.0834C27.5919 83.7984 26.9125 83.2369 26.4915 82.3929C26.0148 81.4372 25.9627 80.4954 26.289 79.4825Z" fill="#030303"/>
<path d="M29.0106 78.2205C29.5258 78.1805 30.0448 78.3275 30.5297 78.4851L29.4181 81.5358C28.8091 81.3029 28.1217 80.7829 27.6147 80.3665L27.1056 81.032C27.3683 81.2988 27.7093 81.4807 28.0181 81.6895L29.8059 82.8815L31.1173 79.3088L31.2426 78.9778L31.3086 78.9738C31.6212 79.3745 31.8778 79.8097 32.004 80.3069C32.1978 81.0699 32.0771 81.8703 31.6514 82.5343C31.2645 83.1379 30.6362 83.5453 29.9339 83.6803C29.2497 83.8119 28.4162 83.6041 27.8546 83.1932C27.2179 82.7273 26.7584 81.9212 26.6435 81.1437C26.5431 80.4646 26.6711 79.7415 27.0977 79.1899C27.5926 78.5499 28.2304 78.3136 29.0106 78.2205Z" fill="#FED9A1"/>
<path d="M7.91357 41.0309L35.4271 34.9512C35.5105 35.0343 35.5198 35.2317 35.5439 35.3512L35.8146 36.6412C35.7157 36.7614 35.1295 36.8151 34.9442 36.8681C33.7884 37.1978 33.1466 38.1585 33.2525 39.3477C33.3156 40.057 33.711 40.7626 34.265 41.2093C34.6884 41.5506 35.0688 41.7574 35.6279 41.7021C36.1285 41.6527 36.5759 41.4467 36.8944 41.0512C37.0475 40.8609 37.1271 40.6421 37.2121 40.417C37.2541 40.3055 37.2319 40.3527 37.2931 40.2516C38.0341 40.1121 39.1043 40.1876 39.5854 39.491C39.6363 39.4174 39.6496 39.3531 39.6561 39.2657L39.5947 39.153C39.3827 39.0912 39.2339 39.1978 39.0285 39.27C38.4965 39.457 37.9017 39.5596 37.5799 38.9804C37.4133 38.6807 37.378 38.2972 37.4883 37.9734C37.5834 37.694 37.8864 37.4816 38.1445 37.3677C38.562 37.1836 39.3551 37.115 39.786 37.2955C40.2573 37.493 40.5544 38.0104 40.7156 38.4727C41.0121 39.3227 40.8926 40.2362 40.4962 41.0306C40.0172 41.9907 39.1923 42.7995 38.2264 43.2604L38.0304 42.1212C37.9995 41.877 38.0173 41.6171 37.8711 41.4159C37.5879 41.2887 37.2308 41.3222 36.9452 41.4293C36.8261 41.7428 37.8647 45.8548 37.9899 46.4297L40.0089 57.1527L40.6268 61.7286C40.7131 62.4814 40.8316 63.2516 40.8692 64.0071L28.2763 66.669C24.9168 67.5135 21.5459 68.4292 18.283 69.5996C17.2286 67.8993 16.2769 65.9012 15.686 63.9844C15.2487 62.5662 14.953 61.1083 14.5962 59.6689L13.2602 54.3415C13.0381 53.4222 12.8988 52.446 12.634 51.543L11.4857 48.1875C10.8317 46.3865 10.1248 44.5902 9.18019 42.9185C8.80254 42.2502 8.30435 41.6831 7.91357 41.0309Z" fill="white"/>
<path d="M36.7514 55.9089L36.895 55.918C37.0615 56.0277 37.0615 56.0289 37.123 56.2188L37.0457 56.3507C36.6438 56.555 36.1478 56.6203 35.7109 56.7287L33.7156 57.2342L24.1257 59.5882C23.936 59.5568 23.9171 59.5473 23.7746 59.418C23.7289 59.2631 23.7239 59.2599 23.7832 59.1108C23.8915 59.0298 23.9707 58.9866 24.1023 58.949L26.8869 58.277L31.9814 57.0409L35.0056 56.3002C35.5822 56.1594 36.1631 55.9878 36.7514 55.9089Z" fill="#030303"/>
<path d="M37.2141 58.6333C37.4745 58.6349 37.4758 58.6228 37.661 58.8025L37.6625 59.0044C37.5731 59.1303 37.4828 59.1772 37.3411 59.2272C36.8136 59.4135 36.2322 59.5187 35.6892 59.6617L32.2801 60.5563L24.841 62.3865C24.7129 62.406 24.6169 62.3935 24.4898 62.371C24.3643 62.2088 24.3627 62.1937 24.3523 61.9882C24.3969 61.9383 24.4151 61.9103 24.4831 61.8788C24.6856 61.7852 24.9972 61.7604 25.218 61.7056L27.4447 61.1407L37.2141 58.6333Z" fill="#030303"/>
<path d="M35.4819 48.7396C35.6119 48.7266 35.6249 48.7226 35.7384 48.7848C35.8287 48.9525 35.8446 48.9864 35.8405 49.1753C35.7246 49.2994 35.6018 49.3294 35.4439 49.3764C34.0963 49.7778 32.6531 50.0001 31.2786 50.3108L22.5436 52.3329C22.408 52.3434 22.3424 52.2887 22.2306 52.2213C22.1546 52.0318 22.1816 52.0215 22.2473 51.8371C22.4796 51.645 22.9949 51.6152 23.3013 51.5455L26.08 50.9005L30.1758 49.9206L35.4819 48.7396Z" fill="#030303"/>
<path d="M34.5022 46.0049L34.7538 45.967C34.9407 45.9619 35.0069 45.9972 35.147 46.1147C35.1846 46.293 35.2016 46.2996 35.1157 46.457C34.6119 46.7068 33.9474 46.7856 33.3974 46.9071L30.4795 47.555L22.1069 49.4828L21.9218 49.5195C21.7374 49.543 21.6654 49.5733 21.5194 49.456C21.48 49.3024 21.486 49.2331 21.5332 49.082C21.6274 49.0033 21.6916 48.9662 21.8105 48.928C23.1085 48.5108 24.525 48.2903 25.857 47.9827L34.5022 46.0049Z" fill="#030303"/>
<path d="M33.9841 42.78C34.2353 42.7811 34.224 42.7967 34.3983 42.9571L34.3997 43.2579C34.3719 43.2902 34.3539 43.3346 34.3163 43.3547C34.2279 43.4023 34.0328 43.4247 33.9309 43.4484L32.8948 43.6639L29.882 44.3026L25.4188 45.3372C23.9502 45.6905 22.4915 46.034 21.0671 46.5441C20.9053 46.5527 20.8453 46.5481 20.6992 46.463C20.6114 46.3145 20.6166 46.3023 20.6328 46.129C21.4564 45.4099 29.5421 43.7454 31.1461 43.3983L33.9841 42.78Z" fill="#030303"/>
<path d="M37.9967 61.4809L38.3087 61.4695C38.3467 61.498 38.4087 61.541 38.4356 61.5794C38.5212 61.7017 38.4906 61.7919 38.4669 61.9252C38.1139 62.2402 26.8871 64.9779 25.3797 65.3759C25.2022 65.3895 25.1366 65.4184 24.9814 65.3243C24.887 65.1447 24.8819 65.1168 24.8949 64.9141C24.9549 64.8493 25.0055 64.8112 25.0895 64.781C25.5969 64.5993 26.1539 64.4942 26.6767 64.3576L29.9458 63.5301L37.9967 61.4809Z" fill="#030303"/>
<path d="M21.9702 59.6369L22.0191 59.6231C22.2063 59.5943 22.2105 59.6141 22.3516 59.7298C22.4159 60.1102 22.0273 60.8579 21.8795 61.2332C22.3487 61.7184 22.7052 62.2432 22.8655 62.9087C23.0948 63.8594 22.9752 64.8049 22.4562 65.6436C21.9739 66.4229 21.1447 67.013 20.251 67.2152C19.2667 67.4379 18.453 67.2558 17.608 66.7246C17.0319 66.2804 16.5897 65.7199 16.3352 65.0346C16.014 64.1699 16.0077 63.1672 16.4001 62.3218C16.7676 61.5303 17.4337 60.8067 18.264 60.5032C19.4408 60.0731 20.3668 60.3387 21.4553 60.8433C21.6049 60.4677 21.7044 59.9355 21.9702 59.6369Z" fill="#030303"/>
<path d="M19.1284 60.8278C19.8336 60.7454 20.4257 60.9199 21.0575 61.2091L19.5933 64.6152L18.4845 63.7717C18.2986 63.6335 18.1027 63.4562 17.8828 63.383C17.8238 63.4049 17.7466 63.428 17.6961 63.4691C17.5752 63.5679 17.5453 63.6743 17.5219 63.8202C17.6041 64.0492 17.7832 64.2016 17.9577 64.3642C18.4346 64.8082 19.056 65.3408 19.6183 65.6715C19.7795 65.7664 19.7889 65.7928 19.9686 65.7452C20.228 65.4522 20.3543 64.9875 20.5083 64.6273L21.5456 62.1972L21.722 61.7744C22.0244 62.188 22.2603 62.6223 22.3716 63.1273C22.5421 63.9006 22.3462 64.7593 21.925 65.4208C21.5176 66.0606 20.8245 66.5162 20.0892 66.6856C19.3641 66.8527 18.6449 66.7399 18.0196 66.3352C17.2938 65.8653 16.838 65.0848 16.6677 64.2492C16.5161 63.5049 16.7056 62.7376 17.1323 62.1157C17.6287 61.3923 18.2643 60.9822 19.1284 60.8278Z" fill="#FED9A1"/>
<path d="M19.0677 46.6757L19.1703 46.6583C19.3188 46.6548 19.3552 46.7359 19.4414 46.8382C19.4246 47.0898 19.26 47.3598 19.1587 47.5897L18.694 48.7346C18.9362 48.9835 19.1682 49.2423 19.3516 49.5387C19.8143 50.2863 19.9935 51.2795 19.7746 52.1345L19.7496 52.2265C19.672 52.5195 19.5688 52.7823 19.4216 53.0468C18.9847 53.8318 18.2654 54.3711 17.4021 54.6117C16.3502 54.9051 15.4758 54.7164 14.5424 54.1964C13.8885 53.7876 13.4526 53.1955 13.1524 52.4938C12.7711 51.6023 12.7616 50.6417 13.1352 49.7432C13.4465 48.9946 14.0865 48.3423 14.8403 48.0379C15.9949 47.5716 16.9047 47.7273 18.0083 48.2143L18.6358 47.2495C18.7718 47.0232 18.8371 46.8297 19.0677 46.6757Z" fill="#030303"/>
<path d="M15.8855 48.2993C16.5165 48.2575 17.0956 48.3612 17.6479 48.6817C17.1013 49.7462 16.6754 50.8552 16.3081 51.9936C15.6849 51.6262 14.9095 51.1155 14.1914 50.9848L14.0989 51.0509C14.0133 51.2257 14.0066 51.3499 14.0061 51.5431C14.2505 51.9597 16.2185 52.9218 16.7221 53.0669C17.0232 52.5573 17.1911 51.9763 17.3939 51.423L18.2969 49.1064C18.6698 49.4678 18.9807 49.9123 19.1452 50.4087C19.3945 51.1605 19.3446 51.9885 18.9736 52.6922C18.6086 53.3844 18.0578 53.8713 17.2966 54.0891C16.5063 54.3153 15.6074 54.2324 14.9023 53.7953C14.1702 53.3415 13.6661 52.5784 13.4764 51.7428C13.3085 51.0027 13.4185 50.1999 13.8356 49.5578C14.3345 48.7898 15.021 48.4695 15.8855 48.2993Z" fill="#FED9A1"/>
<path d="M68.6034 14.4674C76.8465 14.1365 85.0429 16.0266 92.9924 17.9681L89.566 66.7742L76.6039 66.323L53.0082 64.0025L52.7884 59.5795L52.589 51.3535L52.5836 45.3817L52.4028 33.5234L51.9741 21.6054L51.8679 18.536C51.8533 18.119 51.7637 17.5457 51.8442 17.1438L55.2675 16.1618C59.6493 15.0719 64.0938 14.5669 68.6034 14.4674Z" fill="#87D6D9"/>
<path d="M61.5358 20.3095C62.045 20.2975 62.6127 20.4014 63.0209 20.7208C63.3432 20.973 63.5428 21.277 63.5982 21.6837C63.5387 21.8039 63.5274 21.8241 63.3827 21.8536C63.12 21.9069 62.7506 21.8541 62.4769 21.8572C61.4934 21.8678 60.7199 22.0959 59.8925 22.6161C59.6434 22.8053 59.2231 23.2276 58.9257 23.2972C58.7726 23.3331 58.6964 23.2941 58.5703 23.215C58.5267 23.1459 58.4883 23.0833 58.4781 23.0001C58.4246 22.563 58.8137 21.9646 59.0801 21.629C59.7144 20.8301 60.5268 20.4204 61.5358 20.3095Z" fill="#030303"/>
<path d="M80.2004 20.3069C80.497 20.2947 80.7722 20.3244 81.0612 20.3905C81.9642 20.597 82.8374 21.2676 83.3163 22.0507C83.5688 22.4636 83.8162 22.9977 83.6998 23.4884C83.6365 23.54 83.5886 23.5798 83.5051 23.5925C83.1641 23.6441 82.6817 23.2053 82.4039 23.0095C81.5852 22.4191 80.4446 22.0377 79.4336 22.0301C79.1345 22.0278 78.548 22.1194 78.29 22.0006C78.227 21.9717 78.2219 21.9647 78.211 21.8971C78.1738 21.6649 78.3434 21.3479 78.4741 21.1641C78.9043 20.5592 79.507 20.4066 80.2004 20.3069Z" fill="#030303"/>
<path d="M56.3671 39.5047C57.3435 39.3668 58.6216 39.5772 59.4382 40.154C59.8588 40.4511 60.2228 40.9368 60.3091 41.4532C60.3901 41.9382 60.2275 42.4055 59.9354 42.7919C59.3696 43.5404 58.4827 43.8124 57.5987 43.9571C56.5326 44.0596 55.4313 43.9071 54.5457 43.2581C54.0957 42.9283 53.7439 42.4072 53.6731 41.8466C53.6166 41.4008 53.8127 40.9326 54.0792 40.5856C54.6115 39.8923 55.5422 39.6176 56.3671 39.5047Z" fill="#030303"/>
<path d="M56.2108 40.0993C57.1386 40.0066 58.1622 40.0524 58.9757 40.5612C59.3188 40.7758 59.5987 41.0746 59.6831 41.4804C59.7568 41.8346 59.6901 42.1311 59.4835 42.4265C59.0842 42.9972 58.3618 43.2387 57.7076 43.3601C56.8116 43.4858 55.8933 43.4106 55.1064 42.9294C54.7212 42.6937 54.3616 42.3459 54.2695 41.8872C54.2095 41.5888 54.2711 41.3434 54.4403 41.0936C54.8467 40.4939 55.5315 40.2379 56.2108 40.0993Z" fill="#87D6D9"/>
<path d="M84.1857 40.0988C85.2272 39.9772 86.5166 40.1254 87.4178 40.6966C87.8948 40.9989 88.3351 41.4765 88.4428 42.0456C88.5229 42.4699 88.4296 42.8911 88.1753 43.2422C87.6329 43.9908 86.7446 44.3099 85.8672 44.4509C84.6882 44.5415 83.5476 44.4835 82.5205 43.8293C82.0489 43.5289 81.5724 43.0599 81.4739 42.4891C81.4051 42.0903 81.5417 41.6895 81.7674 41.364C82.3109 40.5801 83.293 40.2661 84.1857 40.0988Z" fill="#030303"/>
<path d="M84.3977 40.7053C85.199 40.5777 86.3732 40.7534 87.0768 41.1806C87.4444 41.4038 87.7613 41.7013 87.8544 42.1368C87.9205 42.4467 87.8584 42.713 87.6735 42.9702C87.2362 43.5784 86.3862 43.775 85.6849 43.8681C84.7186 43.9605 83.7738 43.8737 82.9245 43.3622C82.5886 43.1598 82.1746 42.8149 82.0987 42.4056C82.0484 42.1347 82.1331 41.903 82.2908 41.686C82.7686 41.0282 83.6328 40.8111 84.3977 40.7053Z" fill="#87D6D9"/>
<path d="M78.38 42.8476L78.5861 42.8174L78.6396 42.9023C78.4181 45.1519 77.1783 47.5188 75.5846 49.0944C74.384 50.2812 72.7354 51.0124 71.035 50.9955C69.1364 50.9765 67.4885 50.0696 66.1864 48.7352C64.8803 47.2908 64.1817 45.6771 63.7229 43.8023C64.3267 43.7858 64.9471 43.8889 65.5487 43.9442L67.749 44.0679C71.3104 44.1992 74.9483 43.8086 78.38 42.8476Z" fill="#030303"/>
<path d="M73.1529 46.9892C73.6408 46.9402 74.1739 46.9306 74.6522 47.0481C75.1824 47.1782 75.6587 47.338 76.158 47.56C75.3746 48.9166 73.7395 49.8986 72.2662 50.2954C71.228 50.4897 70.3439 50.464 69.3264 50.1505C69.4985 49.6802 69.6737 49.2075 69.9625 48.7941C70.6986 47.741 71.9319 47.2174 73.1529 46.9892Z" fill="#F0C8B3"/>
<path d="M78.5503 26.0987C79.5766 26.0083 80.5356 26.1475 81.4404 26.6568C82.936 27.4984 83.9892 29.1445 84.4381 30.7721C85.0716 33.0695 84.7583 35.6084 83.562 37.6716C82.7769 39.0254 81.6672 40.0211 80.1401 40.424C79.0417 40.5903 78.1069 40.4375 77.1637 39.8472C75.4685 38.7861 74.5268 36.9658 74.1019 35.0627C73.6143 32.8789 73.965 30.3354 75.182 28.4396C75.9855 27.188 77.107 26.4069 78.5503 26.0987Z" fill="#030303"/>
<path d="M78.7465 26.6485C79.1232 26.601 79.558 26.623 79.9277 26.7114L80.0351 26.7377C80.449 26.8346 80.8344 26.974 81.2041 27.1874C82.5843 27.9839 83.5554 29.6325 83.9414 31.1402C84.4674 33.1952 84.1383 35.6234 83.0448 37.4477C82.3077 38.6774 81.2818 39.542 79.8841 39.8944C78.8859 40.0285 77.9434 39.7526 77.125 39.1743C75.7535 38.205 74.8448 36.278 74.5709 34.666C74.2117 32.5519 74.548 30.296 75.8122 28.5284C76.5405 27.51 77.5135 26.8594 78.7465 26.6485Z" fill="white"/>
<path d="M80.2555 29.8156C80.6362 29.8006 80.9772 29.8232 81.3284 29.9953C81.9511 30.3005 82.2563 30.9297 82.4467 31.5624C82.6759 32.324 82.5637 33.2721 82.1719 33.9573C81.8597 34.5034 81.4392 34.7429 80.8519 34.8881C80.5094 34.9126 80.2445 34.9006 79.9269 34.7596C79.2966 34.4799 78.8673 33.873 78.6542 33.2329C78.3949 32.4545 78.5163 31.5761 78.9044 30.8642C79.2237 30.2782 79.6337 30.007 80.2555 29.8156Z" fill="#030303"/>
<path d="M80.1678 30.5977C80.3065 30.5969 80.4313 30.6151 80.5545 30.6816C80.6889 30.7541 80.8296 30.9179 80.8646 31.068C80.9077 31.2522 80.8917 31.4059 80.8045 31.5698C80.6977 31.7703 80.5155 31.8572 80.3085 31.9225C80.1739 31.9271 80.0617 31.9298 79.9348 31.8781C79.7611 31.8075 79.6645 31.6743 79.6053 31.5C79.5483 31.332 79.555 31.1354 79.6415 30.9782C79.7621 30.7593 79.9354 30.6614 80.1678 30.5977Z" fill="white"/>
<path d="M62.3112 25.8878C63.3628 25.7484 64.6057 26.2907 65.4321 26.9057C66.9718 28.0514 67.895 29.9647 68.1537 31.8353C68.4459 33.9486 68.0078 36.2277 66.7015 37.9436C65.7866 39.1455 64.6209 39.8692 63.1225 40.0671C61.9627 40.2004 60.8679 39.7656 59.9481 39.0872C58.4968 38.0167 57.5193 35.9948 57.2654 34.2382C56.9588 32.1173 57.3852 29.6809 58.7072 27.9554C59.642 26.7354 60.8086 26.0852 62.3112 25.8878Z" fill="#030303"/>
<path d="M62.2606 26.4864C63.1777 26.4045 64.0934 26.6881 64.8554 27.1947C66.3819 28.2095 67.2204 29.9219 67.5604 31.6735C67.9319 33.5868 67.5406 35.7625 66.4404 37.3789C65.6671 38.5151 64.5724 39.2626 63.2267 39.5178C62.1771 39.6272 61.1675 39.275 60.3295 38.6502C58.9028 37.5862 58.09 35.7568 57.8341 34.036C57.5415 32.0678 57.955 29.9373 59.1625 28.3239C59.952 27.2691 60.9606 26.6712 62.2606 26.4864Z" fill="white"/>
<path d="M64.0148 29.5394C64.3831 29.5217 64.7788 29.5809 65.1036 29.7615C65.6995 30.0928 66.0526 30.6818 66.2151 31.3287C66.4182 32.1383 66.3473 33.1429 65.8982 33.8584C65.5597 34.3976 65.1097 34.6789 64.5011 34.8178L64.1759 34.8168C63.6206 34.7581 63.1363 34.4312 62.7986 33.9996C62.3481 33.4237 62.1196 32.5978 62.2118 31.871L62.2255 31.7735C62.2828 31.3402 62.4073 30.9231 62.6446 30.5519C62.9734 30.0375 63.4129 29.6752 64.0148 29.5394Z" fill="#030303"/>
<path d="M63.7959 30.3788C63.9178 30.354 64.0523 30.3325 64.1758 30.3645C64.3667 30.4138 64.5354 30.5864 64.6169 30.7606C64.6937 30.9248 64.6785 31.0913 64.6051 31.255C64.501 31.487 64.3545 31.5904 64.1211 31.6741C64.0485 31.6858 63.9474 31.6963 63.8726 31.6848C63.6712 31.6541 63.507 31.5279 63.3908 31.3634C63.2987 31.2331 63.2462 31.0792 63.2902 30.92C63.3629 30.6564 63.5652 30.4995 63.7959 30.3788Z" fill="white"/>
<defs>
<linearGradient id="paint0_linear_1529_2877" x1="26.2817" y1="91.838" x2="53.2859" y2="76.9563" gradientUnits="userSpaceOnUse">
<stop stop-color="#B67D5F"/>
<stop offset="1" stop-color="#CC997F"/>
</linearGradient>
</defs>
</svg>
