<svg width="64" height="56" viewBox="0 0 64 56" fill="none" xmlns="http://www.w3.org/2000/svg">
<path d="M29.7426 10.8077L28.3004 10.261C28.1921 10.1207 28.1035 9.97452 28.11 9.79026C28.1168 9.59391 28.2388 9.4739 28.371 9.34488C28.4958 9.36408 28.6266 9.4356 28.7434 9.48449C28.7326 9.77213 28.8227 10.1511 29.0238 10.3673C29.2204 10.5786 29.5604 10.597 29.7426 10.8077Z" fill="#E0A634"/>
<path d="M28.7432 9.48425L30.0398 9.99767C30.1457 10.0443 30.3088 10.0981 30.3954 10.1748C30.409 10.1869 30.4287 10.2333 30.4355 10.2497C30.4856 10.3702 30.4411 10.5228 30.3876 10.635C30.3404 10.7338 30.2522 10.8377 30.1486 10.8793C30.0363 10.9245 29.8518 10.8416 29.7425 10.8074C29.5603 10.5968 29.2203 10.5784 29.0237 10.3671C28.8226 10.1509 28.7325 9.77189 28.7432 9.48425Z" fill="#FACB58"/>
<path d="M31.3197 9.06512C31.0526 9.32361 30.5669 9.50992 30.1973 9.49876C30.0773 9.49513 29.9401 9.42836 29.8287 9.38606L29.0875 9.10665C28.9784 9.06944 28.7768 9.04209 28.6857 8.98558C28.6693 8.97539 28.6594 8.95728 28.6468 8.94265C28.3435 8.5909 28.1548 8.09373 28.1887 7.62823C28.223 7.15696 28.4578 6.73685 28.8192 6.43452C29.2052 6.11166 29.6614 5.97749 30.1596 6.01959L30.1853 6.07253C30.0427 6.22425 29.7391 6.26004 29.554 6.37851L29.5182 6.40112C29.4082 6.47234 29.3252 6.55728 29.2348 6.65042C28.9839 6.90864 28.851 7.32301 28.8571 7.67683C28.8602 7.85028 28.89 8.01111 28.9482 8.17443L28.959 8.20542C29.0857 8.56543 29.3673 8.82943 29.7069 8.98975C30.1244 9.18682 30.5571 9.17638 31.0032 9.11203C31.1071 9.09705 31.2149 9.05416 31.3197 9.06512Z" fill="#E0A634"/>
<path d="M47.0492 27.9057C47.3807 28.0072 47.7487 28.3484 47.9938 28.5801C47.9433 28.7291 47.6929 28.9812 47.5914 29.1072L46.6069 30.3421C46.4638 30.3219 46.2979 30.2318 46.1514 30.1924C45.8481 30.118 45.5376 30.1052 45.2268 30.101L46.549 28.4313L46.8476 28.0682C46.8786 28.0325 46.9317 27.9558 46.9698 27.9313C46.9931 27.9162 47.0227 27.9143 47.0492 27.9057Z" fill="white"/>
<path d="M49.2469 24.9862L50.1972 25.8457L48.7859 27.6478C48.6121 27.5382 48.4372 27.4592 48.2383 27.4079L48.1944 27.3967C47.8702 27.3492 47.5918 27.4028 47.2751 27.462C47.3356 27.3381 47.4564 27.2193 47.5436 27.1117L48.1279 26.3954L49.2469 24.9862Z" fill="white"/>
<path d="M30.1594 6.01976C30.7257 6.09353 31.2115 6.29126 31.5698 6.75491C31.8543 7.12292 31.9901 7.56847 31.9279 8.03291C31.8736 8.43717 31.6418 8.81688 31.3196 9.06528C31.2148 9.05433 31.107 9.09721 31.0031 9.1122C30.557 9.17655 30.1243 9.18699 29.7067 8.98992C29.3671 8.8296 29.0855 8.56559 28.9588 8.20559L28.9481 8.17459C28.8898 8.01127 28.86 7.85044 28.857 7.677C28.8509 7.32317 28.9837 6.90881 29.2346 6.65058C29.3251 6.55745 29.408 6.47251 29.5181 6.40129L29.5538 6.37867C29.739 6.26021 30.0426 6.22441 30.1851 6.07269L30.1594 6.01976Z" fill="#FACB58"/>
<path d="M60.2482 32.9107C59.5159 32.9842 58.7598 32.9878 58.0238 33.0057L53.029 32.9746L51.6965 32.9137L50.8136 32.8535C50.7415 32.8498 50.6266 32.8279 50.5622 32.85L48.0795 32.6047L47.9037 31.8666L50.8914 32.1699L54.8791 32.3268L57.7785 32.3333L58.7394 32.3087C58.8344 32.3068 58.9836 32.2837 59.0737 32.3026C59.1979 32.3287 59.4127 32.4862 59.5312 32.5505L60.2482 32.9107Z" fill="white"/>
<path d="M41.0367 29.1406L41.0034 29.1255C40.9844 28.9547 41.0112 28.7704 41.0074 28.5973C40.9985 28.1913 40.9173 27.7479 40.7885 27.3622L40.7755 27.3238L45.5407 21.4443L46.5188 22.4074L41.1484 28.996C41.0923 29.0397 41.0707 29.0798 41.0367 29.1406Z" fill="white"/>
<path d="M60.2486 32.9108C60.3487 33.0074 60.5876 33.0773 60.7179 33.1381C61.4161 33.4639 62.1028 33.7878 62.8347 34.0356L63.4413 34.2366C63.5142 34.2611 63.6066 34.2792 63.6585 34.3363C63.6154 34.4236 63.5641 34.4701 63.4899 34.5319L48.0171 34.137L48.0218 34.1283C47.9762 33.9758 48.0899 33.6475 48.1044 33.4704C48.127 33.1937 48.1122 32.9206 48.0923 32.6443C48.433 32.7048 50.3848 32.9532 50.5626 32.8501C50.6271 32.828 50.7419 32.85 50.8141 32.8537L51.697 32.9138L53.0295 32.9747L58.0243 33.0058C58.7603 32.9879 59.5163 32.9843 60.2486 32.9108Z" fill="#CD2931"/>
<path d="M29.1594 11.1232C29.2051 11.1386 29.2325 11.1564 29.2698 11.1869C29.237 11.3601 29.1582 11.5313 29.1012 11.6987L28.7525 12.7143L27.7269 15.6584L23.3896 28.0428L18.3325 42.6936L17.0653 46.387L16.5649 47.8587C16.4677 48.1386 16.3806 48.4253 16.2594 48.6956L15.6323 48.5078C15.5837 48.5002 15.5603 48.4956 15.5232 48.4625L28.5858 10.8978L29.1594 11.1232Z" fill="white"/>
<path d="M39.4737 26.2564C39.9928 26.5291 40.3396 27.0073 40.537 27.5503C40.8762 28.4833 40.7255 29.5903 40.3103 30.4747C39.8286 31.5008 39.0278 32.3892 37.9407 32.7776C37.2288 33.032 36.5009 33.0807 35.8075 32.7539C35.3159 32.482 34.9309 32.0301 34.7358 31.5044C34.3685 30.5143 34.505 29.4759 34.9447 28.5332C35.4182 27.5183 36.3146 26.6023 37.3766 26.2178C38.0909 25.9592 38.7778 25.9351 39.4737 26.2564Z" fill="white"/>
<path d="M38.8557 28.6334C39.0717 28.742 39.2299 28.9067 39.34 29.1206C39.553 29.5344 39.5682 30.0959 39.4273 30.5346C39.2216 31.175 38.7647 31.8329 38.1548 32.1445C37.7585 32.347 37.4015 32.3761 36.9775 32.2408C36.7263 32.1309 36.5573 31.968 36.4338 31.7217C36.1956 31.2469 36.2355 30.6755 36.4029 30.186C36.623 29.5423 37.079 28.9894 37.6937 28.6923C38.0815 28.5048 38.449 28.4943 38.8557 28.6334Z" fill="black"/>
<path d="M38.9677 30.0078C39.0172 30.0317 39.0708 30.0558 39.1132 30.0915C39.2255 30.1863 39.284 30.3412 39.2873 30.4856C39.2895 30.5825 39.2621 30.7023 39.1876 30.7688C39.0544 30.8878 38.8584 30.9632 38.6809 30.9493C38.6058 30.9297 38.5325 30.879 38.4786 30.8239C38.3758 30.7188 38.3324 30.5757 38.3435 30.4305C38.3521 30.3169 38.4306 30.2049 38.5148 30.1322C38.6483 30.0168 38.7978 30 38.9677 30.0078Z" fill="white"/>
<path d="M46.4463 30.5811C46.9754 30.8017 47.3439 31.2916 47.5726 31.8018C47.98 32.7103 47.8891 33.7493 47.5444 34.659C47.1335 35.7433 46.3276 36.7266 45.2496 37.2004C44.5275 37.5177 43.7544 37.6023 43.0116 37.3143C42.8562 37.2516 42.7061 37.1703 42.5736 37.0675C42.1973 36.7755 41.9361 36.431 41.7581 35.9888C41.3907 35.076 41.4905 34.0238 41.8708 33.1319C42.3326 32.049 43.1769 31.0575 44.2892 30.6135C44.9904 30.3336 45.7445 30.278 46.4463 30.5811Z" fill="white"/>
<path d="M45.1891 32.3694C45.4213 32.4917 45.59 32.6503 45.7152 32.8834C45.9662 33.3506 45.955 33.9466 45.8032 34.4418C45.6017 35.0987 45.1083 35.685 44.4993 35.9975C44.1177 36.1933 43.725 36.2345 43.3188 36.1041C43.0635 35.9895 42.8556 35.8159 42.7221 35.5678C42.4805 35.1185 42.5049 34.5346 42.6577 34.0607C42.8813 33.3666 43.3289 32.7916 43.9857 32.4623C44.3859 32.2616 44.7619 32.2303 45.1891 32.3694Z" fill="black"/>
<path d="M45.4138 33.6994C45.4889 33.7399 45.5744 33.7914 45.6279 33.8589C45.7005 33.9503 45.7361 34.0876 45.7148 34.2025C45.6896 34.3381 45.6116 34.4593 45.4984 34.5368C45.3692 34.6253 45.2359 34.6203 45.0875 34.5948C45.0066 34.5521 44.9192 34.501 44.8571 34.433C44.7869 34.3561 44.7538 34.2656 44.7643 34.1615C44.7782 34.0254 44.8278 33.8767 44.9407 33.7909C45.0889 33.6782 45.2384 33.6681 45.4138 33.6994Z" fill="white"/>
<path d="M50.2541 25.9135C52.9123 28.3009 55.7996 30.5708 58.965 32.2506L51.225 32.1337L48.2462 31.8401C48.2028 31.836 47.9024 31.8351 47.89 31.824C47.8632 31.8001 47.8277 31.6964 47.8108 31.6594C47.7488 31.5235 47.6855 31.3886 47.6101 31.2596C47.4878 31.0506 47.3355 30.879 47.1524 30.722C46.9945 30.5866 46.8265 30.481 46.6503 30.3718L48.0447 28.6382C48.8319 29.4364 49.3667 30.6109 49.7179 31.668L49.7624 29.9407C49.7078 29.1393 49.4818 28.246 48.8517 27.6997L48.8295 27.6807C48.9197 27.5246 49.0526 27.3872 49.1629 27.2448L50.2541 25.9135Z" fill="#1B5DA5"/>
<path d="M33.6535 14.2639L33.6961 14.1986L33.2022 13.4968C33.944 13.724 34.682 13.9463 35.406 14.2272C36.4936 14.6492 37.5464 15.1526 38.5481 15.7515C40.2588 16.7744 41.8042 18.0296 43.2878 19.3544L44.6827 20.6328C44.9577 20.8868 45.2566 21.1365 45.5116 21.4096L40.7539 27.262C40.6576 27.076 40.5337 26.8985 40.447 26.7096C40.3462 26.4897 40.3077 26.2436 40.2349 26.0143L39.4594 23.7477C40.0767 23.7098 40.9804 23.8883 41.4561 24.31C41.5959 24.434 41.7135 24.5907 41.8362 24.7317C41.8473 24.0951 41.8021 23.3884 41.3294 22.9073C41.0968 22.6706 40.7489 22.573 40.4223 22.5732C39.9512 22.5735 39.4575 22.7228 39.0356 22.9251L35.1937 16.5257L34.368 15.2179C34.287 15.0985 34.2136 14.955 34.1158 14.8509L34.0495 14.8471C33.9044 14.6925 33.7556 14.4512 33.6535 14.2639Z" fill="#1B5DA5"/>
<path d="M28.5925 15.2097L28.5022 15.0637L28.7913 14.2285L30.2833 16.2763C30.415 16.5406 30.6211 16.7917 30.7861 17.0388L31.7767 18.5506L34.6119 23.2627L35.2545 24.4287C35.378 24.6562 35.5306 24.892 35.6096 25.1389L37.1527 25.9997C36.7535 26.1918 36.3851 26.4237 36.0431 26.7059C35.9153 26.8114 35.7987 26.9417 35.6677 27.0402C34.2229 26.2219 32.7245 25.5116 31.2128 24.8271C29.4546 24.031 27.6762 23.2951 25.8418 22.6919C25.872 22.5094 25.9589 22.3148 26.0219 22.1402L26.3412 21.2559L26.411 21.2349L26.4237 21.2259C26.3917 21.1929 26.373 21.1826 26.3787 21.1322C26.3908 21.0274 26.4618 20.8885 26.4971 20.7868L26.7926 19.9291L28.1365 16.0789L28.3483 15.4833C28.3837 15.3776 28.4118 15.2101 28.4898 15.1368C28.5275 15.1693 28.5093 15.1556 28.5566 15.1865L28.5925 15.2097Z" fill="#1B5DA5"/>
<path d="M28.5925 15.2097L28.5022 15.0637L28.7913 14.2285L30.2833 16.2763C30.415 16.5406 30.6211 16.7917 30.7861 17.0388L31.7767 18.5506L34.6119 23.2627L35.2545 24.4287C35.378 24.6562 35.5306 24.892 35.6096 25.1389L37.1527 25.9997C36.7535 26.1918 36.3851 26.4237 36.0431 26.7059C35.9153 26.8114 35.7987 26.9417 35.6677 27.0402C34.2229 26.2219 32.7245 25.5116 31.2128 24.8271C29.4546 24.031 27.6762 23.2951 25.8418 22.6919C25.872 22.5094 25.9589 22.3148 26.0219 22.1402L26.3412 21.2559L26.411 21.2349C26.5187 21.2982 26.6515 21.3304 26.7696 21.3711L27.3607 21.579L29.5804 22.4225L33.1252 23.9444L34.5186 24.5914C34.5147 24.52 34.453 24.4326 34.42 24.3688L34.108 23.7957L32.5225 21.1125L30.0479 17.2623C29.5762 16.5763 29.1149 15.8573 28.5925 15.2097Z" fill="white"/>
<path d="M29.818 12.8158C30.1523 12.8358 30.5017 12.9164 30.8318 12.9761L32.7345 13.3735C32.8195 13.3938 33.0041 13.4152 33.0713 13.4557C33.1243 13.4877 33.186 13.5855 33.2235 13.6359L33.6533 14.264C33.7554 14.4512 33.9042 14.6925 34.0493 14.8471L35.3058 16.8169C35.5946 17.2882 38.9703 22.9477 38.9698 22.9623C38.3199 23.2654 37.7363 23.6773 37.1826 24.1311C37.911 23.8843 38.589 23.7643 39.3584 23.7434C39.6063 24.3008 39.7922 24.9086 39.9867 25.4869C40.1109 25.8561 40.2628 26.238 40.3507 26.6159C39.8442 26.0719 39.2815 25.7662 38.5268 25.7404C38.3689 25.735 38.2097 25.7409 38.0531 25.7617C37.9555 25.7747 37.8464 25.8055 37.7487 25.7992L37.5471 25.3694C37.5189 25.4594 37.5596 25.5152 37.6029 25.597L37.7343 25.8208L37.1528 25.9999L35.6096 25.1391C35.5306 24.8922 35.378 24.6564 35.2546 24.429L34.6119 23.2629L31.7767 18.5508L30.7861 17.039C30.6212 16.7919 30.415 16.5408 30.2834 16.2765L30.2935 16.2521C30.2131 16.0972 30.0999 15.9622 30.003 15.8176L28.8121 14.1728L29.3075 12.73C29.4473 12.7085 29.6827 12.7693 29.818 12.8158Z" fill="white"/>
<path d="M30.2836 16.2765L30.2938 16.252C30.2134 16.0971 30.1001 15.9621 30.0033 15.8176L28.8123 14.1728L29.3077 12.7299C29.4475 12.7084 29.6829 12.7692 29.8182 12.8157C32.4618 16.4074 34.8728 20.1745 36.9372 24.1301L37.4059 25.0511C37.445 25.13 37.5455 25.2845 37.5473 25.3693C37.5192 25.4593 37.5598 25.5152 37.6031 25.5969L37.7345 25.8207L37.153 25.9998L35.6098 25.1391C35.5308 24.8921 35.3783 24.6564 35.2548 24.4289L34.6122 23.2628L31.777 18.5507L30.7863 17.0389C30.6214 16.7918 30.4152 16.5408 30.2836 16.2765Z" fill="#CD2931"/>
<path d="M63.4898 34.5319C63.4522 34.6892 63.233 34.9136 63.1303 35.055L61.8959 36.7448L57.9261 42.1575L57.0227 43.3907L54.6139 41.9453C52.5456 40.6306 50.5721 39.1866 48.6653 37.6484L46.9439 36.2472C47.32 35.8247 47.6203 35.2762 47.8124 34.7478C47.8811 34.5587 47.9219 34.3477 48.0037 34.1657L48.017 34.1369L63.4898 34.5319Z" fill="white"/>
<path d="M57.9263 42.1576L49.8439 36.5757L61.8961 36.7449L57.9263 42.1576Z" fill="#1B5DA5"/>
<path d="M41.148 28.9959L41.195 29.0002L41.2916 28.8798L41.6049 28.4863L42.4275 27.4679C42.5695 27.2922 42.7106 27.0959 42.8668 26.934L43.8592 25.6913C43.8838 25.6575 43.91 25.6328 43.9376 25.6021L44.4341 24.9977C44.5006 24.9237 44.5488 24.8396 44.6183 24.7671L44.979 24.3276L45.3669 23.8769L46.5551 22.4287L49.2022 24.9713C49.0159 25.2021 48.8435 25.4563 48.6486 25.6764C48.4355 25.9168 48.2477 26.1907 48.0428 26.4394C47.769 26.7718 47.4456 27.1049 47.2172 27.4686C47.0075 27.5445 46.7992 27.6163 46.6026 27.723L46.9721 27.8611C46.502 28.3352 46.088 28.9084 45.686 29.4409C45.5417 29.632 45.3706 29.8117 45.255 30.0216C45.237 30.0541 45.2182 30.0779 45.192 30.1039C44.9131 30.1479 44.6385 30.1919 44.3701 30.2831C43.5175 30.5726 42.7452 31.1873 42.216 31.9115C41.4885 32.9073 41.0849 34.2313 41.2962 35.4616C41.4131 36.1424 41.805 36.8902 42.3863 37.2898C43.0275 37.7306 43.762 37.8642 44.5261 37.714C45.4805 37.5262 46.3253 36.9927 46.9436 36.2471L48.665 37.6482C50.5718 39.1865 52.5453 40.6305 54.6136 41.9452L57.0224 43.3905L54.447 46.885C52.2951 45.687 50.2813 44.3012 48.3039 42.8366L44.2053 39.6649L40.5219 36.6146L39.6212 37.7894C39.3211 37.6751 39.0358 37.5124 38.7531 37.3607C37.8523 36.8775 37.0313 36.3054 36.2234 35.6807C36.3032 35.5646 36.3878 35.4283 36.4819 35.3251C36.5124 35.2918 36.5353 35.2585 36.5599 35.2208L36.5358 35.2019L37.466 34.0325C37.1445 33.7693 36.7297 33.5626 36.4428 33.2662L36.427 33.2495L36.9333 33.2582C37.2167 33.2522 37.486 33.2119 37.7606 33.1419C39.1418 32.7894 40.2173 31.5356 40.7059 30.242C40.7725 30.0656 40.834 29.8836 40.8817 29.7013C40.9173 29.5649 40.941 29.3408 41.0175 29.2267C41.0503 29.178 41.0436 29.1937 41.0362 29.1404C41.0702 29.0796 41.0919 29.0396 41.148 28.9959Z" fill="#CD2931"/>
<path d="M25.8415 22.6923C27.6759 23.2955 29.4543 24.0314 31.2125 24.8275C32.7242 25.512 34.2226 26.2223 35.6674 27.0406C35.4962 27.2558 35.3067 27.4594 35.149 27.6847C34.52 28.5833 34.1453 29.6912 34.2614 30.7977L34.3301 31.1997C34.4045 31.4113 34.4721 31.6317 34.5694 31.834C34.8306 32.3772 35.2376 32.7745 35.7813 33.0354C35.9884 33.1349 36.2034 33.1998 36.4269 33.2498L36.4427 33.2666C36.7296 33.5629 37.1444 33.7696 37.4659 34.0328L36.5357 35.2022L36.1958 35.6476L35.3818 34.8949C35.2469 34.7728 35.1115 34.6319 34.961 34.5305C34.8385 34.7723 34.751 35.0252 34.6674 35.2825C34.6448 35.3521 34.5992 35.4482 34.5945 35.5199C33.7348 35.4696 32.8579 35.5306 31.9979 35.5609L27.8319 35.8475C26.0769 36.0137 24.3019 36.2384 22.5763 36.6041C22.4826 36.563 22.359 36.6358 22.255 36.6291C22.1171 36.6202 21.9498 36.5458 21.8148 36.5081L21.0684 36.3297L21.2803 35.7413C21.2986 35.6926 21.3233 35.5912 21.3522 35.5518C21.364 35.5358 21.3878 35.534 21.4056 35.5251L21.4146 35.5028L21.3768 35.4786C21.4826 35.0408 21.6634 34.6025 21.8063 34.1744L22.0623 33.4096C22.101 33.2983 22.1331 33.1582 22.2026 33.0646C22.2376 32.7756 22.4138 32.4244 22.506 32.1452L23.8114 28.4144L24.1911 27.3303C24.2478 27.1729 24.2922 26.9874 24.3765 26.8442C24.4114 26.6407 24.5085 26.4201 24.5785 26.2244L24.9531 25.1794L25.8415 22.6923Z" fill="white"/>
<path d="M21.4149 35.5028C21.6083 35.4225 21.8747 35.3981 22.0828 35.3572L23.3669 35.1066C26.8142 34.4785 30.3096 34.0757 33.8041 33.8285L34.6843 33.7735C34.7479 33.7695 34.8858 33.7427 34.9386 33.7574C35.0149 33.7786 35.1167 33.8642 35.1831 33.9091L35.8082 34.3504L35.3821 34.8949C35.2472 34.7728 35.1117 34.6319 34.9612 34.5305C34.8388 34.7723 34.7512 35.0252 34.6676 35.2825C34.6451 35.3521 34.5995 35.4482 34.5948 35.5199C33.7351 35.4696 32.8582 35.5306 31.9982 35.5609L27.8322 35.8475C26.0772 36.0137 24.3021 36.2384 22.5766 36.6041C22.4829 36.563 22.3593 36.6358 22.2553 36.6291C22.1174 36.6202 21.9501 36.5458 21.8151 36.5081L21.0686 36.3297L21.2806 35.7413C21.2989 35.6926 21.3236 35.5912 21.3525 35.5518C21.3643 35.5358 21.3881 35.534 21.4059 35.5251L21.4149 35.5028Z" fill="#CD2931"/>
<path d="M23.8121 28.4142C24.3269 28.5447 24.8305 28.7267 25.3351 28.892C27.7428 29.6808 30.0152 30.7264 32.2819 31.8492L22.2032 33.0644C22.2383 32.7754 22.4145 32.4242 22.5066 32.145L23.8121 28.4142Z" fill="#1B5DA5"/>
<path d="M25.8415 22.6923C27.6759 23.2955 29.4543 24.0314 31.2125 24.8275C32.7242 25.512 34.2226 26.2223 35.6674 27.0406C35.4962 27.2558 35.3067 27.4594 35.149 27.6847C34.52 28.5833 34.1453 29.6912 34.2614 30.7977L34.3301 31.1997L31.8807 29.905C30.0671 29.004 28.2153 28.1957 26.3122 27.5026C25.6795 27.2721 25.0302 27.0074 24.3765 26.8442C24.4114 26.6407 24.5085 26.4201 24.5785 26.2244L24.9531 25.1794L25.8415 22.6923Z" fill="#CD2931"/>
<path d="M39.6212 37.7894L40.5219 36.6147L44.2053 39.665L48.3039 42.8367C50.2813 44.3012 52.2951 45.6871 54.447 46.885L53.5297 48.1265L51.2298 51.1804L50.5059 52.1684C50.43 52.2715 50.3556 52.4129 50.2682 52.5024C50.2424 52.5287 50.2345 52.5276 50.2054 52.5431L50.166 52.5652L50.1827 52.6413C50.0713 52.8022 49.9064 53.115 49.7509 53.2256L49.699 53.1587L49.6846 53.1804L49.7142 53.2964L49.1039 54.1599C49.0267 54.2707 48.9088 54.4909 48.7963 54.5567C47.9351 54.2446 47.0898 53.7691 46.2848 53.337C46.13 53.2539 45.8557 53.1511 45.739 53.0271C45.5715 52.9642 45.4074 52.8461 45.253 52.7537L44.2092 52.1095L40.9769 49.9081L38.2008 47.6914L35.6382 45.4764L35.0237 44.9282C34.9151 44.8312 34.7757 44.7297 34.6923 44.6122C34.428 44.4398 34.183 44.1716 33.9468 43.9589L31.872 42.0417C31.9269 41.902 32.0989 41.7044 32.1988 41.5845L33.3685 40.0189C33.6077 39.7403 33.7943 39.4077 34.034 39.1328L34.0521 39.1124L34.0477 39.0541L31.8267 42.0083L30.9025 41.208C29.3422 39.9171 27.6242 38.8915 25.8013 38.0189L24.2415 37.3446C24.0556 37.2679 23.7664 37.2003 23.6135 37.0774L22.4035 36.684L22.3957 36.659L22.5764 36.6038C24.3019 36.2381 26.077 36.0134 27.832 35.8473L31.998 35.5606C32.858 35.5303 33.7349 35.4694 34.5946 35.5197C34.5993 35.4479 34.6449 35.3518 34.6674 35.2822C34.751 35.0249 34.8386 34.7721 34.961 34.5302C35.1115 34.6316 35.247 34.7725 35.3819 34.8946L36.1958 35.6473L36.5358 35.2019L36.5599 35.2209C36.5353 35.2586 36.5124 35.2918 36.4819 35.3252C36.3878 35.4283 36.3032 35.5647 36.2234 35.6808C37.0313 36.3055 37.8523 36.8776 38.7531 37.3608C39.0358 37.5124 39.3211 37.6752 39.6212 37.7894Z" fill="white"/>
<path d="M34.0478 39.0542L34.1039 38.9758C34.1618 39.0233 34.1889 39.1179 34.2211 39.1863C34.2776 39.3062 34.3418 39.424 34.4097 39.5379C35.003 40.5339 35.8168 41.2081 36.9309 41.5629L34.6925 44.6123C34.4282 44.4398 34.1832 44.1717 33.9469 43.959L31.8721 42.0418C31.9271 41.902 32.0991 41.7045 32.199 41.5846L33.3686 40.019C33.6078 39.7404 33.7945 39.4077 34.0342 39.1329L34.0522 39.1125L34.0478 39.0542Z" fill="#CD2931"/>
<path d="M48.7965 54.5566C48.8169 54.3617 48.0052 52.7489 47.8805 52.4757L47.3144 51.1928L43.7096 43.0298L42.967 41.2981C42.8108 40.929 42.6733 40.4795 42.4367 40.1565L42.4112 40.1226C42.4334 40.133 42.4434 40.1366 42.4654 40.1527C42.6307 40.2734 42.775 40.4373 42.9298 40.5722L44.0583 41.5209L44.5659 41.9361C44.6562 42.0071 44.8037 42.096 44.8658 42.1922C44.9467 42.3177 44.9953 42.4943 45.0522 42.6331L45.3519 43.3152L47.0685 47.2467L49.0004 51.6065L49.4677 52.6307C49.5479 52.8028 49.6559 52.9737 49.6992 53.1587L49.6848 53.1804L49.7144 53.2963L49.1041 54.1599C49.0269 54.2706 48.909 54.4908 48.7965 54.5566Z" fill="#CD2931"/>
<path d="M50.166 52.5651C50.0179 52.3367 49.9137 52.0198 49.7993 51.7679L48.9039 49.7713L45.8923 42.9746C46.3434 43.3707 46.8381 43.7164 47.3138 44.0814C49.2658 45.5792 51.3533 46.974 53.5297 48.1264L51.2298 51.1803L50.5058 52.1683C50.43 52.2714 50.3556 52.4128 50.2682 52.5023C50.2424 52.5286 50.2345 52.5275 50.2054 52.543L50.166 52.5651Z" fill="#1B5DA5"/>
<path d="M23.6139 37.0775L26.602 36.6746L31.8432 36.3162C32.5752 36.2971 33.3003 36.2569 34.0329 36.3026L33.9054 37.0209C33.8914 37.1066 33.8751 37.1545 33.8279 37.2294C33.5671 37.6435 33.234 38.0332 32.9395 38.4254L30.9028 41.2081C29.3425 39.9171 27.6245 38.8915 25.8016 38.019L24.2418 37.3447C24.056 37.268 23.7668 37.2004 23.6139 37.0775Z" fill="#1B5DA5"/>
<path d="M39.6214 37.7894L39.6402 37.8012C39.9442 37.9865 40.3177 38.1153 40.6522 38.2358C41.1815 38.4266 41.7229 38.6076 42.2721 38.7317C42.5798 38.8012 42.9105 38.826 43.2123 38.9075C43.0512 39.1047 42.8902 39.3003 42.707 39.4776L42.2379 39.8926C42.2045 39.9247 42.1741 39.9445 42.1352 39.9686C41.8661 40.136 41.6165 40.3317 41.3411 40.4922C40.1647 41.178 38.7767 41.5831 37.4194 41.2762C36.3898 41.0433 35.4741 40.4421 34.9138 39.5415C34.2425 38.4626 34.1785 37.2399 34.4668 36.0267L34.5947 35.5196C34.5994 35.4479 34.645 35.3518 34.6676 35.2822C34.7512 35.0249 34.8388 34.772 34.9612 34.5302C35.1117 34.6316 35.2471 34.7725 35.3821 34.8946L36.196 35.6473L36.5359 35.2019L36.5601 35.2209C36.5354 35.2586 36.5125 35.2918 36.4821 35.3252C36.388 35.4283 36.3034 35.5647 36.2236 35.6808C37.0315 36.3055 37.8525 36.8776 38.7533 37.3608C39.0359 37.5124 39.3213 37.6752 39.6214 37.7894Z" fill="black"/>
<path d="M37.1183 39.0612C37.9181 39.4749 38.6519 40.2629 39.0366 41.0713C38.2161 41.1838 37.3486 41.0586 36.6033 40.6977L36.581 40.6877C35.606 40.2401 35.1098 39.46 34.7477 38.4865C35.6067 38.5008 36.3507 38.6803 37.1183 39.0612Z" fill="#EC6462"/>
<path d="M42.6125 39.081L42.6979 39.1062L42.6946 39.1419L42.0928 39.6517C39.7862 39.1119 37.6594 38.1115 35.8235 36.6108C35.4825 36.3321 35.1357 36.0523 34.826 35.7389L35.0661 35.0198C35.4864 35.3541 35.8569 35.7484 36.282 36.0821C38.1626 37.5585 40.2712 38.5787 42.6125 39.081Z" fill="white"/>
<path d="M41.7519 39.8225C41.7699 39.8419 41.7612 39.8291 41.7724 39.864C41.0713 40.4499 40.1904 40.7622 39.3253 41.01C39.2352 40.9131 39.1682 40.7348 39.0949 40.6199C38.9242 40.3522 38.7323 40.1075 38.5183 39.8735C37.7064 38.9856 36.6987 38.4474 35.5023 38.2962C35.2468 38.2639 34.9874 38.2704 34.7305 38.2588C34.6806 38.103 34.6583 37.9441 34.6396 37.7823C34.6274 37.4618 34.6081 37.1528 34.6261 36.8314C34.6417 36.5513 34.691 36.2797 34.7304 36.0029C35.2443 36.4625 35.7589 36.9089 36.3188 37.3127C37.5398 38.1933 38.9415 38.9185 40.3636 39.4143L41.7519 39.8225Z" fill="#21314A"/>
<path d="M35.6386 45.4762L37.5153 42.8878C37.7617 42.5525 38.0246 42.0907 38.3417 41.8276C39.0967 41.8594 39.814 41.6976 40.513 41.4186L43.2701 47.8182L44.5451 50.6303C44.9216 51.4383 45.2946 52.2533 45.7393 53.0269C45.5718 52.964 45.4078 52.8459 45.2533 52.7535L44.2096 52.1093L40.9772 49.9079L38.2012 47.6912L35.6386 45.4762Z" fill="#1B5DA5"/>
<path d="M4.9816 2.61452L5.34044 2.60327C5.79326 2.62145 6.24026 2.83713 6.54381 3.17286C6.87656 3.54084 7.04595 4.01719 7.01324 4.513C6.97766 5.05161 6.68475 5.49677 6.28616 5.84375C6.2971 6.15342 6.37778 6.46736 6.43463 6.77182C9.09154 5.33399 11.9612 4.16052 14.9999 3.90347C19.2084 3.54745 23.0818 5.18876 27.0205 6.38111C30.0826 7.30807 33.2098 8.12947 36.4068 8.40708C39.1903 8.64877 41.939 8.53433 44.6518 7.81388L46.1521 7.36979L46.8167 7.13111C46.983 7.06453 47.2049 6.9416 47.3833 6.93714C47.4996 6.93423 47.6167 7.00583 47.695 7.08666C47.7987 7.19383 47.8797 7.3435 47.8809 7.49603C47.8825 7.68443 47.784 7.92777 47.7345 8.11071L47.2252 9.91757L46.0645 14.5344L44.542 23.046L44.3021 24.9323L43.7672 29.9521C43.7114 30.6231 43.6315 31.3026 43.6226 31.9755C43.5211 32.0531 43.3602 32.0969 43.2408 32.1434C42.5561 32.4097 41.8513 32.5861 41.1334 32.7353C36.4679 33.7046 31.6035 32.8246 27.0464 31.6917C24.8511 31.146 22.6652 30.485 20.4167 30.1917C19.225 30.0362 18.0423 30.0032 16.8425 30.0293C16.1738 30.0821 15.5125 30.122 14.8481 30.221C13.4455 30.4302 12.0933 30.8269 10.7424 31.2464C10.7492 31.3017 10.7514 31.4763 10.7759 31.5155C10.7836 31.5278 10.8723 31.5701 10.8879 31.5794C10.9954 31.6426 11.0924 31.7104 11.1844 31.7947C11.3611 31.9565 11.5141 32.1883 11.5158 32.4347C11.5178 32.7057 11.3985 32.8988 11.2122 33.0798C11.242 33.109 11.2255 33.0962 11.2677 33.1202L11.4368 33.226C11.6196 33.3691 11.7455 33.6182 11.7593 33.8475C11.7732 34.0769 11.6822 34.2621 11.5368 34.4315L11.5121 34.4597C11.7362 34.6594 11.8961 34.8353 11.9341 35.1482C11.9758 35.4912 11.8155 35.7583 11.6178 36.0187L13.606 47.412L16.708 47.8141C17.5431 47.9927 18.4358 48.1858 19.2215 48.5265C19.3969 48.6026 19.67 48.724 19.7676 48.8927C19.7979 48.9448 19.7987 49.0143 19.7811 49.0722C19.7483 49.181 19.6511 49.2547 19.5565 49.3085C19.29 49.46 18.9745 49.5371 18.6776 49.6037C18.0846 49.7367 17.4877 49.7993 16.8836 49.8542C15.1637 50.0108 13.4167 50.0517 11.6906 50.011L8.62497 49.8491C7.98791 49.7862 7.33937 49.6972 6.72413 49.5173C6.46002 49.44 6.16755 49.3482 6.02832 49.0935C6.02305 48.9846 6.01628 48.9352 6.0949 48.8496C6.2525 48.6781 6.4844 48.5818 6.69669 48.4973C7.05398 48.3551 7.42391 48.25 7.79369 48.1457C8.51394 47.9426 9.23403 47.7511 9.9741 47.6336C10.6106 47.5324 11.2436 47.4751 11.8866 47.4375L10.0265 36.7874C9.65439 36.8552 9.25731 36.9353 8.88728 36.811C8.61067 36.7181 8.35273 36.5328 8.2294 36.2615C8.0989 35.9745 8.16638 35.5974 8.26989 35.311L8.28033 35.2827C8.07436 35.128 7.88671 34.9516 7.79349 34.7049C7.68516 34.4182 7.80689 34.1231 7.91923 33.8594C7.76454 33.7367 7.6225 33.6074 7.53369 33.4275C7.44689 33.2515 7.41061 33.0235 7.48402 32.8357L7.49917 32.7995L7.5804 32.6239C7.87778 32.1124 8.59572 31.8366 9.13027 31.6804L4.58033 6.09065C4.42617 6.02578 4.27436 5.9437 4.13778 5.84676C3.75567 5.57547 3.49031 5.15747 3.41719 4.69401C3.33866 4.19624 3.44176 3.74138 3.73866 3.33485C4.04582 2.91429 4.47402 2.6956 4.9816 2.61452Z" fill="#1A1716"/>
<path d="M4.98269 2.91474C5.18315 2.89377 5.40692 2.89659 5.60305 2.94515C5.98969 3.04088 6.30649 3.29945 6.50422 3.64153C6.68771 3.95885 6.76172 4.36532 6.66323 4.72226L6.65083 4.76484C6.61225 4.90252 6.56293 5.0298 6.49118 5.15369C6.26705 5.54058 5.85322 5.75853 5.43401 5.86445C5.03744 5.94212 4.66478 5.82677 4.33643 5.60269C4.02383 5.38938 3.80165 5.06104 3.73735 4.68576L3.72992 4.6394C3.66948 4.27903 3.71427 3.9024 3.92026 3.59373C4.17942 3.20541 4.52749 2.99881 4.98269 2.91474Z" fill="#F2A022"/>
<path d="M11.2668 36.2615L11.3236 36.26L13.4448 48.4914C13.4226 48.561 13.3948 48.5937 13.3351 48.633C13.1175 48.7766 12.8094 48.8302 12.5564 48.7693L12.4767 48.7341C12.443 48.6962 12.4241 48.6692 12.4124 48.6188C12.33 48.264 12.2963 47.8864 12.2325 47.5264L11.7471 44.7524L10.3228 36.6976C10.6535 36.5893 10.9702 36.4434 11.2668 36.2615Z" fill="#E8B584"/>
<path d="M10.4275 31.6687C10.6376 31.6725 10.8175 31.7647 10.98 31.8926C11.124 32.0059 11.2764 32.1736 11.2897 32.3642C11.3456 33.1627 10.2841 33.1362 9.74493 33.1971C9.6483 33.208 9.48824 33.2031 9.42337 33.2759L9.44564 33.3381C9.57238 33.3877 9.78176 33.3452 9.91648 33.3323C10.2936 33.2959 10.681 33.2233 11.0598 33.239C11.2594 33.3393 11.4343 33.4825 11.5116 33.6987C11.5563 33.8237 11.5589 33.9874 11.501 34.1085C11.2395 34.656 10.547 34.5593 10.0728 34.7446L10.0578 34.8062L10.1104 34.8638C10.2456 34.881 10.3774 34.852 10.5101 34.8289C10.7942 34.7792 11.0368 34.7129 11.3025 34.5998C11.5109 34.751 11.6522 34.8792 11.6961 35.1449C11.7393 35.406 11.6624 35.5766 11.5137 35.7845C11.3137 35.9963 11.0646 36.1554 10.8015 36.2773C10.284 36.5171 9.48719 36.8016 8.92594 36.5841C8.71145 36.5011 8.52721 36.3461 8.43941 36.1293C8.3087 35.8067 8.43845 35.5088 8.55641 35.2083C8.48998 35.1272 8.37574 35.0756 8.2925 35.0102C7.99145 34.7735 7.89602 34.4629 8.05382 34.106C8.09702 34.0083 8.1767 33.8898 8.15688 33.7801C8.14393 33.7086 7.98202 33.6408 7.92563 33.593C7.80335 33.4893 7.69247 33.291 7.67782 33.1311C7.65996 32.9356 7.76211 32.7375 7.88724 32.5949C8.2501 32.1812 8.83859 31.9948 9.35413 31.8607C9.71227 31.7674 10.0579 31.6946 10.4275 31.6687Z" fill="white"/>
<path d="M13.6506 47.6729C14.6811 47.7149 15.726 47.8773 16.7333 48.0893C17.4224 48.2343 18.1143 48.3969 18.7789 48.6317C18.9743 48.7007 19.2207 48.7708 19.3903 48.8923C19.4394 48.9275 19.4526 48.9323 19.4636 48.9932L19.4129 49.0564C19.2167 49.2581 18.7122 49.3106 18.4424 49.359C17.441 49.5386 16.415 49.6063 15.3997 49.6553L10.7513 49.6894L8.07611 49.4826C7.63623 49.4276 7.16801 49.3638 6.7479 49.2182C6.62071 49.1741 6.41706 49.1192 6.35645 48.9932L6.37496 48.9703C6.53 48.8084 6.88513 48.71 7.09536 48.6351C8.6216 48.0915 10.3047 47.7481 11.9265 47.6891L12.0488 48.3381C12.0834 48.5256 12.0976 48.7446 12.249 48.8803C12.4216 49.0351 12.7476 49.0577 12.9651 49.0322C13.2041 49.0041 13.4346 48.9033 13.5833 48.707C13.8225 48.3911 13.7029 48.0321 13.6506 47.6729Z" fill="white"/>
<path d="M5.93412 6.03149L5.96889 6.04971C6.03813 6.27644 6.05755 6.53263 6.09819 6.76674L6.3476 8.17237L7.09198 12.4821L9.32874 25.3347L10.0395 29.2661L10.4769 31.4624L9.45417 31.6075L4.93018 6.1773C5.28733 6.22647 5.60072 6.15858 5.93412 6.03149Z" fill="#E8B584"/>
<path d="M25.9538 6.47607C30.3886 7.86584 34.9763 9.0366 39.6599 8.91819C41.9852 8.85944 44.3562 8.44229 46.55 7.66645L47.1855 7.41593C47.2248 7.40008 47.3524 7.34539 47.3895 7.35251C47.4143 7.35733 47.4345 7.37529 47.457 7.38668C47.4804 7.44744 47.4818 7.48221 47.4687 7.54664C47.3991 7.88907 47.2646 8.21856 47.1655 8.55322L46.6636 10.3656L46.3923 10.4674C43.9584 11.2152 41.378 11.5602 38.8321 11.5099C36.789 11.4695 34.7773 11.1674 32.7771 10.7649C30.359 10.2783 28.0051 9.6427 25.644 8.9352L25.9538 6.47607Z" fill="#E14D4B"/>
<path d="M17.3939 27.305C20.7574 27.297 24.0348 28.1327 27.285 28.9071L31.9854 29.8613C33.758 30.1541 35.5572 30.3776 37.357 30.373C39.3658 30.3679 41.441 30.0944 43.3638 29.5111L43.1974 31.7023C42.5614 31.9741 41.8684 32.1475 41.1931 32.2911C39.4624 32.6591 37.6425 32.7927 35.8756 32.6917C32.7186 32.5932 29.5664 31.8575 26.5149 31.0957L21.8733 29.9735C18.8743 29.3955 15.8042 29.4216 12.8448 30.2023C12.119 30.3937 11.3726 30.5871 10.6757 30.8684L10.2822 28.6946C10.6207 28.5311 11.0058 28.4182 11.3625 28.2976C13.3233 27.6345 15.3296 27.3429 17.3939 27.305Z" fill="#E14D4B"/>
<path d="M9.86425 26.152C10.7966 25.7944 11.7206 25.4502 12.6887 25.1971C14.2074 24.8001 15.8342 24.601 17.4039 24.6139C19.2401 24.6289 21.0654 24.9036 22.8581 25.2838C23.0668 26.1248 23.4874 26.7978 24.245 27.2542C25.2236 27.8438 26.5893 28.1813 27.7147 27.8987C28.3839 27.7306 28.919 27.4099 29.4597 26.9883L29.7593 26.7421C29.7699 26.7328 29.8406 26.6652 29.8471 26.6638C29.8905 26.6542 30.1473 26.7478 30.2074 26.7611L32.1741 27.139C33.7852 27.4047 35.407 27.6195 37.0413 27.6634C39.2441 27.7225 41.5102 27.4526 43.6186 26.8055C43.6379 27.0681 43.5703 27.3707 43.5438 27.6344L43.3724 29.4306L41.6245 29.8646C39.9226 30.2016 38.1449 30.338 36.4112 30.2729C34.9479 30.2179 33.4922 30.0157 32.049 29.7788L28.578 29.1151C25.8433 28.4951 23.1081 27.7344 20.3194 27.3963C17.8415 27.0959 15.3414 27.1723 12.9134 27.7783C12.0232 28.0005 11.1136 28.2591 10.2715 28.6237L9.81543 26.2019L9.86425 26.152Z" fill="white"/>
<path d="M9.41138 23.733C12.006 22.5461 14.8671 21.9187 17.7236 22.0094C19.5644 22.0678 21.3827 22.3784 23.188 22.7204L27.8409 23.6506L30.4873 24.1818L31.5449 24.3747L31.6176 24.029C31.5099 23.9109 31.3497 23.7873 31.2689 23.6536C31.6094 23.7841 31.8415 23.9506 32.0877 24.2198C32.1574 24.2959 32.2277 24.3993 32.3044 24.4653C32.4278 24.5715 33.3121 24.6563 33.528 24.6866C35.2939 24.9338 37.0772 25.0789 38.8612 25.0005C40.2233 24.9406 41.573 24.7483 42.9002 24.437L43.9514 24.156L43.9635 24.2039L43.9258 24.2382C43.9408 24.2712 43.9487 24.2969 43.9442 24.3337L43.6472 26.7221L43.6178 26.8051C41.5095 27.4522 39.2434 27.7222 37.0405 27.663C35.4062 27.6192 33.7844 27.4043 32.1733 27.1386L30.2067 26.7607C30.1465 26.7474 29.8898 26.6539 29.8463 26.6634C29.8399 26.6648 29.7691 26.7324 29.7585 26.7418L29.4589 26.9879C28.9183 27.4095 28.3831 27.7302 27.714 27.8983C26.5886 28.181 25.2229 27.8434 24.2443 27.2538C23.4866 26.7975 23.0661 26.1244 22.8573 25.2834C21.0647 24.9032 19.2394 24.6285 17.4031 24.6135C15.8335 24.6006 14.2066 24.7997 12.6879 25.1968C11.7198 25.4498 10.7959 25.794 9.86349 26.1517C9.8499 26.12 9.85542 26.1398 9.85582 26.0906L9.79691 26.0551C9.72797 25.7755 9.36933 23.9357 9.42282 23.8019L9.41138 23.733Z" fill="#E14D4B"/>
<path d="M9.41138 23.733C12.006 22.5461 14.8671 21.9187 17.7236 22.0094C19.5644 22.0678 21.3827 22.3784 23.188 22.7204L27.8409 23.6506L30.4873 24.1818L31.5449 24.3747L31.6176 24.029C31.5099 23.9109 31.3497 23.7873 31.2689 23.6536C31.6094 23.7841 31.8415 23.9506 32.0877 24.2198C32.1574 24.2959 32.2277 24.3993 32.3044 24.4653C32.4278 24.5715 33.3121 24.6563 33.528 24.6866C35.2939 24.9338 37.0772 25.0789 38.8612 25.0005C40.2233 24.9406 41.573 24.7483 42.9002 24.437L43.9514 24.156L43.9635 24.2039L43.9258 24.2382C40.9287 25.1449 37.7665 25.2469 34.6698 24.9084L32.3857 24.58C32.5044 24.7992 32.6262 25.0123 32.6861 25.2561C32.5482 25.1121 32.2057 24.5674 32.0707 24.5115C32.0171 24.4893 31.8125 24.4727 31.752 24.4781L31.7215 24.4859C31.6099 24.8488 31.4348 25.1919 31.0859 25.3803L31.0197 25.41L30.9946 25.3867C31.0644 25.2361 31.1982 25.1167 31.2987 24.9854C31.4173 24.8306 31.4761 24.6364 31.5293 24.4515L25.4743 23.2348L23.7319 22.9008C23.5212 22.8607 23.2508 22.7664 23.0408 22.7714L23.0265 22.7973C22.886 23.043 22.6702 23.2267 22.4453 23.3924C22.6034 23.9579 22.8953 24.259 23.3952 24.5442C23.7971 24.7735 24.2343 24.9504 24.665 25.1172C25.9615 25.6193 27.3473 25.9186 28.724 26.0958C29.2274 26.1606 29.7494 26.2274 30.2574 26.2139L29.9181 26.5888C30.7064 26.808 31.5171 26.9441 32.3225 27.0831C35.1501 27.571 38.0028 27.7692 40.8516 27.3409C41.5211 27.2402 42.1792 27.1014 42.8365 26.9399L43.6472 26.7221L43.6178 26.8051C41.5095 27.4522 39.2434 27.7222 37.0405 27.663C35.4062 27.6192 33.7844 27.4043 32.1733 27.1386L30.2067 26.7607C30.1465 26.7474 29.8898 26.6539 29.8463 26.6634C29.8399 26.6648 29.7691 26.7324 29.7585 26.7418L29.4589 26.9879C28.9183 27.4095 28.3831 27.7302 27.714 27.8983C26.5886 28.181 25.2229 27.8434 24.2443 27.2538C23.4866 26.7975 23.0661 26.1244 22.8573 25.2834C21.0647 24.9032 19.2394 24.6285 17.4031 24.6135C15.8335 24.6006 14.2066 24.7997 12.6879 25.1968C11.7198 25.4498 10.7959 25.794 9.86349 26.1517C9.8499 26.12 9.85542 26.1398 9.85582 26.0906C10.0339 26.0024 10.2359 25.9372 10.4215 25.8642L11.905 25.3508C13.6881 24.8165 15.544 24.5376 17.4069 24.5429C19.213 24.5481 21.0635 24.8127 22.825 25.1958C22.7997 24.9633 22.7815 24.6647 22.83 24.4355C22.8319 24.4269 22.838 24.4184 22.8361 24.4098C22.8341 24.4011 22.7749 24.3419 22.7684 24.3346C22.6848 24.2406 22.5955 24.1485 22.5213 24.0469C22.3926 23.8706 22.319 23.6811 22.2608 23.4725C21.8311 23.6511 21.498 23.6925 21.045 23.5769C21.414 23.5257 21.7858 23.485 22.1302 23.33C22.4406 23.1904 22.6978 22.9688 22.9499 22.7447C19.633 22.0972 16.2931 21.7689 12.9696 22.5769C11.7463 22.8744 10.5771 23.3044 9.42282 23.8019L9.41138 23.733Z" fill="black"/>
<path d="M31.7586 24.1943L31.7838 24.1946C31.8601 24.2302 31.9145 24.3142 31.9672 24.3787L31.9486 24.4174L31.7479 24.3885L31.7231 24.3539L31.7586 24.1943Z" fill="white"/>
<path d="M25.5813 26.218L27.1233 26.4637L26.7156 26.4701C26.6479 26.469 26.6026 26.441 26.5348 26.4577C26.6738 26.5195 26.7707 26.4787 26.8784 26.616C26.716 26.6138 26.5613 26.6405 26.401 26.6616C26.3712 26.6655 26.2766 26.6877 26.252 26.6812C26.191 26.6651 26.0549 26.5401 25.9914 26.5018C25.8345 26.4071 25.6877 26.3486 25.5117 26.3004C25.5495 26.2707 25.5598 26.2629 25.5813 26.218Z" fill="#440605"/>
<path d="M24.3466 25.1892C25.0757 25.457 25.8025 25.7082 26.5628 25.8755C26.7542 25.9176 27.9866 26.1051 28.0675 26.1765L27.9409 26.2238C27.6598 26.2786 27.3686 26.3156 27.0817 26.3094C26.3515 26.2936 25.5606 26.1194 24.87 25.8891C24.6684 25.8219 24.4594 25.763 24.2776 25.6508C24.2787 25.4942 24.3157 25.342 24.3466 25.1892Z" fill="white"/>
<path d="M27.1232 26.4637C27.5544 26.4582 28.0032 26.4334 28.4048 26.2624C28.5782 26.1886 28.9694 26.2945 29.1638 26.3123L29.8955 26.3671C29.4628 26.7141 29.0536 27.0879 28.575 27.3727C28.0863 26.9076 27.524 26.7396 26.8783 26.616C26.7706 26.4786 26.6738 26.5195 26.5347 26.4576C26.6025 26.441 26.6478 26.469 26.7155 26.4701L27.1232 26.4637Z" fill="#77080C"/>
<path d="M25.5115 26.3003C25.4616 26.2824 25.4166 26.2695 25.364 26.2617C24.9248 26.1967 24.5185 26.2052 24.0863 26.3068C23.9295 26.3437 23.7812 26.3819 23.6504 26.4791L23.6301 26.4946C23.1818 25.8903 23.0078 25.2841 22.9958 24.5356L24.189 25.1446L24.1953 25.1694C24.1656 25.2345 24.132 25.3038 24.1155 25.3736C24.0906 25.4795 24.0958 25.6358 24.1544 25.7292C24.2083 25.815 24.2848 25.8593 24.3754 25.8987C24.7405 26.0571 25.1912 26.1304 25.581 26.218C25.5596 26.2629 25.5493 26.2707 25.5115 26.3003Z" fill="#77080C"/>
<path d="M24.6454 26.4251L24.6541 26.4238C25.1983 26.3913 25.7372 26.5031 26.1737 26.8487L26.2027 26.8719C26.2849 26.8377 26.3597 26.8166 26.4486 26.8135C27.1392 26.7893 27.8644 27.0171 28.3772 27.4842L28.0008 27.6402L27.5263 27.775L26.8934 27.8349C25.764 27.8426 24.5872 27.4328 23.7759 26.6397C24.0751 26.513 24.3214 26.4532 24.6454 26.4251Z" fill="#E14D4B"/>
<path d="M9.42314 23.8019C10.5774 23.3045 11.7466 22.8744 12.9699 22.5769C16.2934 21.7689 19.6333 22.0972 22.9502 22.7447C22.6981 22.9688 22.4409 23.1904 22.1305 23.33C21.7861 23.485 21.4143 23.5257 21.0453 23.5769C21.4983 23.6925 21.8314 23.6512 22.2611 23.4725C22.3193 23.6811 22.3929 23.8706 22.5216 24.0469C22.5958 24.1485 22.6852 24.2406 22.7687 24.3346C22.7753 24.3419 22.8344 24.4011 22.8364 24.4098C22.8383 24.4184 22.8322 24.4269 22.8304 24.4355C22.7818 24.6647 22.8 24.9634 22.8253 25.1958C21.0638 24.8127 19.2133 24.5481 17.4073 24.5429C15.5444 24.5376 13.6884 24.8165 11.9053 25.3508L10.4218 25.8642C10.2363 25.9372 10.0342 26.0024 9.85614 26.0906L9.79724 26.0551C9.7283 25.7755 9.36965 23.9357 9.42314 23.8019Z" fill="#E14D4B"/>
<path d="M8.95581 21.1861C8.90649 21.0254 8.89244 20.8375 8.86349 20.6708L8.69435 19.6939L8.19999 16.92L6.97043 9.9358L6.4856 7.17473L7.99834 6.40109C9.5752 5.60438 11.2508 4.98184 12.9811 4.6186C14.0945 4.38487 15.2383 4.23923 16.3778 4.24954C19.6296 4.27896 22.8125 5.4459 25.867 6.44846L25.9541 6.4758L25.6444 8.93493C28.0054 9.64243 30.3594 10.278 32.7774 10.7646C34.7777 11.1672 36.7893 11.4693 38.8325 11.5096C41.3783 11.5599 43.9587 11.2149 46.3927 10.4671L46.472 10.5385L46.5996 10.5026C46.6475 10.632 46.5015 10.9888 46.4626 11.1379L46.1202 12.4962C46.0647 12.7216 46.0249 12.9933 45.9349 13.2047C45.9272 13.2386 45.9211 13.2709 45.9078 13.3032C45.8861 13.5287 45.8197 13.7572 45.7713 13.9787C45.6325 14.613 45.4487 15.2579 45.363 15.9016L45.1112 15.9731L45.1796 16.0356L45.3077 16.0111C45.3132 16.0254 45.3223 16.0388 45.3243 16.054C45.3286 16.0863 44.8634 18.5516 44.8042 18.6873L44.7839 18.7549C44.8229 18.9128 44.7057 19.249 44.6747 19.4162L44.4319 20.7914C44.4056 20.9508 44.4034 21.2387 44.3344 21.3762L44.3014 21.4216L44.3193 21.4969C44.3354 21.6577 44.2937 21.824 44.272 21.9833L44.1266 23.003C44.0746 23.3685 44.0623 23.8074 43.9524 24.1561L42.9012 24.4371C41.5739 24.7483 40.2243 24.9407 38.8621 25.0006C37.0782 25.079 35.2949 24.9339 33.529 24.6867C33.3131 24.6564 32.4287 24.5716 32.3053 24.4654C32.2286 24.3994 32.1583 24.296 32.0886 24.2199C31.8424 23.9507 31.6103 23.7842 31.2699 23.6537C31.3507 23.7874 31.5109 23.911 31.6186 24.0291L31.5459 24.3747L30.4883 24.1819L27.8418 23.6507L23.189 22.7205C21.3836 22.3785 19.5653 22.0678 17.7246 22.0094C14.8681 21.9188 12.007 22.5462 9.41234 23.7331C9.3147 23.6174 9.30146 23.2386 9.27466 23.0783L8.96454 21.2646L8.95581 21.1861Z" fill="black"/>
<path d="M20.5566 13.6329C20.6646 13.6165 20.8086 13.6594 20.8985 13.7207L20.8462 13.7835L20.7718 13.84C20.692 13.7829 20.6248 13.7034 20.5566 13.6329Z" fill="white"/>
<path d="M22.3855 12.5596L22.5682 12.9133L22.5086 12.9263C22.4422 12.9393 22.1546 13.0049 22.102 12.99C22.0741 12.982 22.0541 12.9573 22.0301 12.9411L21.7812 12.7137L22.2247 12.833L22.3855 12.5596Z" fill="white"/>
<path d="M19.7346 14.4841C19.7961 14.6111 19.8579 14.7264 19.943 14.8393L19.9655 14.8689C19.9054 15.0001 19.8167 15.3043 19.7212 15.3885L19.5681 15.5019L19.5378 15.4894L19.5453 15.3891L19.5825 15.0813L19.23 14.7856C19.3415 14.7714 19.5386 14.8313 19.6544 14.8518L19.7346 14.4841Z" fill="white"/>
<path d="M25.8122 17.6218C26.1357 17.66 26.466 17.7538 26.7822 17.8324L27.8094 18.071C27.8223 18.163 27.7969 18.267 27.7881 18.3596C27.775 18.4969 27.7719 18.6344 27.7724 18.7722C27.7752 19.5445 27.9254 20.2981 28.221 21.0107L27.6014 20.8648L25.0427 20.3276C25.5143 19.4439 25.7485 18.6199 25.8122 17.6218Z" fill="#E14D4B"/>
<path d="M25.0911 14.582L28.6802 15.4878C28.3501 16.0474 28.1074 16.6128 27.9356 17.2393L27.855 17.7599C27.8459 17.8354 27.8476 17.9329 27.8111 17.9981L25.8112 17.5465C25.8211 16.8114 25.7234 16.0686 25.4661 15.3766C25.3642 15.1025 25.2223 14.8429 25.0911 14.582Z" fill="white"/>
<path d="M44.7836 18.7551C44.8225 18.9131 44.7053 19.2493 44.6744 19.4164L44.4315 20.7916C44.4053 20.9511 44.4031 21.2389 44.334 21.3765L44.3011 21.4218C43.969 21.4639 43.619 21.5846 43.2915 21.6627L41.6736 21.9852C38.919 22.4193 36.1671 22.2547 33.4258 21.8129C33.4503 21.7281 33.5291 21.6404 33.5777 21.5658C33.6564 21.445 33.7276 21.3189 33.7944 21.1911C34.0976 20.6105 34.268 19.963 34.3769 19.3199L36.0879 19.5408C37.7659 19.6933 39.4877 19.704 41.1623 19.5003C42.3827 19.3518 43.5984 19.0783 44.7836 18.7551Z" fill="#E14D4B"/>
<path d="M45.1793 16.0356L45.3074 16.011C45.3129 16.0253 45.322 16.0387 45.324 16.0539C45.3283 16.0862 44.8631 18.5515 44.8039 18.6872C44.5026 18.7178 44.1784 18.8386 43.8825 18.9105L42.2294 19.2582C39.6648 19.7118 36.9481 19.6813 34.385 19.2335C34.4204 18.7509 34.4559 18.2741 34.4041 17.7906C34.3586 17.3655 34.246 16.9534 34.135 16.542C35.4207 16.733 36.7169 16.885 38.017 16.9259C40.4294 17.0016 42.8629 16.7213 45.1793 16.0356Z" fill="white"/>
<path d="M22.5647 13.2289C23.0905 13.1959 23.666 13.432 24.0724 13.7542C25.031 14.5142 25.4597 15.6701 25.5863 16.8521C25.7302 18.1957 25.3917 19.6899 24.529 20.7503C24.0193 21.377 23.3697 21.7589 22.5668 21.8441C21.9841 21.8507 21.4634 21.6587 21.0144 21.2882C20.1086 20.5408 19.6268 19.2556 19.527 18.1115C19.4138 16.8143 19.7256 15.3349 20.578 14.3187C21.0995 13.6969 21.7537 13.3039 22.5647 13.2289Z" fill="white"/>
<path d="M23.5072 16.0874C23.6945 16.0992 23.8524 16.1417 24.0127 16.2404C24.4136 16.4873 24.6219 16.9261 24.7197 17.3717C24.8739 18.0749 24.7736 18.9021 24.3783 19.513C24.1573 19.8545 23.8978 20.0613 23.494 20.1479C23.269 20.1456 23.0755 20.1008 22.8922 19.9611C22.4562 19.6292 22.2473 19.0358 22.1825 18.5104C22.1007 17.8464 22.2312 17.1121 22.6528 16.5777C22.886 16.2822 23.1344 16.1345 23.5072 16.0874Z" fill="black"/>
<path d="M23.8888 16.7939C23.9369 16.7963 23.9804 16.7976 24.025 16.8177C24.1327 16.8663 24.1919 16.9605 24.231 17.0683C24.3027 17.2664 24.3104 17.5289 24.2173 17.7209C24.1573 17.8446 24.1028 17.8789 23.9801 17.9229C23.8704 17.9086 23.8177 17.8941 23.7452 17.8005C23.6296 17.6514 23.5678 17.4425 23.5962 17.2555L23.6022 17.2204C23.6159 17.1367 23.637 17.0574 23.6742 16.9804C23.7232 16.8791 23.7846 16.8299 23.8888 16.7939Z" fill="white"/>
<path d="M31.2003 14.1582C31.7672 14.1754 32.2287 14.3278 32.6788 14.678C33.6261 15.4151 34.0917 16.619 34.2255 17.7815C34.385 19.167 34.0222 20.7841 33.1387 21.8832C32.5988 22.5549 31.9079 23.007 31.0448 23.0991C30.4208 23.0715 29.8934 22.8842 29.4147 22.4741C28.4767 21.6704 28.0313 20.3568 27.9532 19.155C27.8619 17.7507 28.2386 16.269 29.1852 15.2037C29.7253 14.596 30.3808 14.2046 31.2003 14.1582Z" fill="white"/>
<path d="M30.508 16.8651C30.7413 16.8548 30.9395 16.9027 31.1356 17.0336C31.5718 17.3247 31.7692 17.8457 31.8556 18.3418C31.9722 19.0118 31.7954 19.7929 31.3991 20.3474C31.1762 20.6591 30.917 20.8224 30.5384 20.8832C30.309 20.8932 30.1018 20.8465 29.9088 20.7175C29.5003 20.4447 29.2807 19.9006 29.1993 19.4328C29.0806 18.7506 29.2371 17.9888 29.6456 17.4245C29.8581 17.1311 30.1472 16.9214 30.508 16.8651Z" fill="black"/>
<path d="M30.959 17.6972C31.0018 17.6789 31.0456 17.6757 31.0916 17.681C31.1664 17.6895 31.2235 17.7366 31.2676 17.7951C31.3918 17.9603 31.4361 18.233 31.4071 18.4372C31.3841 18.5992 31.3522 18.6988 31.2212 18.7985L31.1334 18.8164C31.0625 18.7988 31.0118 18.7808 30.9595 18.7275C30.8 18.5649 30.7625 18.3131 30.7763 18.0956C30.7872 17.9239 30.8278 17.8125 30.959 17.6972Z" fill="white"/>
<path d="M45.1107 15.9733L42.7159 16.5275C40.1401 16.9559 37.6035 16.9137 35.0217 16.5887C34.9472 16.5794 34.1513 16.4864 34.1219 16.4591C34.1176 16.4551 34.0943 16.3751 34.0903 16.3633L33.9689 16.0435C33.6889 15.3729 33.2575 14.7009 32.6561 14.2765C32.1091 13.8906 31.4933 13.7098 30.8255 13.8358C29.9506 14.0008 29.2086 14.7029 28.7317 15.4198L25.6644 14.6491C25.4613 14.5919 25.1708 14.5593 24.9993 14.4406C24.8732 14.2481 25.0179 13.6532 25.0481 13.4313L25.2734 11.7617C25.8671 11.9893 26.4827 12.1708 27.0928 12.3491C27.81 12.5587 28.54 12.7606 29.2811 12.8641C30.0438 12.9707 30.8245 12.9704 31.5816 13.1066C32.5649 13.2835 33.4899 13.6793 34.4738 13.8678C35.1992 14.0068 35.937 14.083 36.672 14.1489C39.7999 14.4298 42.8827 14.1687 45.9073 13.3034C45.8856 13.5288 45.8192 13.7574 45.7708 13.9789C45.632 14.6132 45.4481 15.2581 45.3625 15.9018L45.1107 15.9733Z" fill="#E14D4B"/>
<path d="M45.9343 13.2049C43.066 14.0374 40.1432 14.3323 37.1653 14.1157C36.2416 14.0485 35.3037 13.9443 34.3942 13.768C33.4894 13.5925 32.6411 13.2088 31.7375 13.0276C30.8086 12.8414 29.8491 12.8744 28.9158 12.7067C27.9453 12.5323 26.9831 12.2326 26.0424 11.939L25.2908 11.6885C25.2692 11.4815 25.3542 11.1814 25.383 10.9676L25.6365 9.01123L30.7007 10.4043C33.4476 11.0628 36.2961 11.591 39.1294 11.61C41.6305 11.6269 44.0766 11.2442 46.4715 10.5387L46.599 10.5029C46.6469 10.6322 46.501 10.989 46.462 11.1381L46.1196 12.4964C46.0641 12.7218 46.0244 12.9936 45.9343 13.2049Z" fill="white"/>
<path d="M31.3034 10.8424C31.9714 10.8025 32.6464 11.1274 33.1381 11.5593C33.6988 12.0516 33.8529 12.6528 33.897 13.3707L33.5005 13.0445C32.6214 12.3568 31.5896 12.1234 30.5054 12.0106C30.6236 11.7086 30.7271 11.342 30.9055 11.0713C31.0115 10.9103 31.1222 10.8782 31.3034 10.8424Z" fill="black"/>
<path d="M31.2259 11.0489C31.7908 10.9707 32.3647 11.1985 32.8096 11.5358C33.2567 11.8747 33.5793 12.3689 33.6608 12.9261C33.5965 12.9227 33.4629 12.8099 33.4035 12.771C32.811 12.398 32.2277 12.1131 31.5476 11.9376C31.3118 11.8767 31.0666 11.8464 30.8267 11.8053L30.8376 11.7708C30.907 11.5565 31.017 11.1546 31.2259 11.0489Z" fill="#594848"/>
<path d="M8.96411 21.2645C10.6397 20.4769 12.3915 19.8657 14.2245 19.5671C16.0335 19.2725 17.8781 19.2858 19.6829 19.6002C19.819 19.8935 19.9467 20.1947 20.1135 20.4723C20.4877 21.0954 21.0278 21.6144 21.7174 21.8643C22.3152 22.081 22.9405 22.0297 23.5127 21.7598C23.9837 21.5377 24.4178 21.1462 24.7372 20.7393L24.9282 20.4815C24.9409 20.4631 24.9856 20.3839 25.0002 20.3748C25.0066 20.3708 25.0149 20.3785 25.0223 20.3803L26.5971 20.7184L28.2507 21.0813C28.737 21.978 29.3618 22.8366 30.3857 23.1475C31.0125 23.3378 31.6581 23.2314 32.2261 22.9178C32.4523 22.793 32.6699 22.6239 32.856 22.4455C32.9968 22.3105 33.1245 22.1648 33.2509 22.0166C33.2733 21.9904 33.3422 21.8906 33.368 21.8782C33.3762 21.8743 33.5024 21.903 33.5175 21.9057C34.5225 22.0879 35.5505 22.1872 36.5689 22.258C38.3448 22.3815 40.1182 22.3239 41.8756 22.0335C42.6966 21.8977 43.5117 21.6981 44.3189 21.4968C44.335 21.6576 44.2933 21.8238 44.2715 21.9831L44.1261 23.0029C44.0742 23.3683 44.0619 23.8073 43.9519 24.1559L42.9007 24.4369C41.5735 24.7482 40.2239 24.9405 38.8617 25.0004C37.0778 25.0789 35.2944 24.9338 33.5286 24.6865C33.3127 24.6563 32.4283 24.5715 32.3049 24.4652C32.2282 24.3992 32.1579 24.2958 32.0882 24.2197C31.842 23.9505 31.6099 23.784 31.2695 23.6535C31.3503 23.7872 31.5105 23.9108 31.6182 24.0289L31.5454 24.3746L30.4879 24.1818L27.8414 23.6506L23.1886 22.7203C21.3832 22.3784 19.5649 22.0677 17.7241 22.0093C14.8676 21.9186 12.0066 22.546 9.41191 23.733C9.31428 23.6173 9.30103 23.2384 9.27424 23.0781L8.96411 21.2645Z" fill="white"/>
<path d="M8.95581 21.1861C8.90649 21.0254 8.89244 20.8375 8.86349 20.6708L8.69435 19.6939L8.19999 16.92L6.97043 9.9358L6.4856 7.17473L7.99834 6.40109C9.5752 5.60438 11.2508 4.98184 12.9811 4.6186C14.0945 4.38487 15.2383 4.23923 16.3778 4.24954C19.6296 4.27896 22.8125 5.4459 25.867 6.44846L24.8751 14.2173C24.4244 13.6591 23.9475 13.1522 23.2346 12.9564C23.1539 12.9342 23.1436 12.9504 23.1182 12.8647C23.0626 12.8715 23.0718 12.9015 23.0304 12.9169C22.9745 12.9379 22.7326 12.9068 22.6628 12.9044C22.5235 12.6952 22.4633 12.5628 22.426 12.3139C22.3499 12.4556 22.278 12.6218 22.1804 12.7486L21.6329 12.5976C21.7383 12.764 21.866 12.8956 22.0044 13.0348C21.6915 13.1766 21.4099 13.3358 21.1361 13.5436L20.9295 13.2089L20.8823 13.596C20.7122 13.56 20.5504 13.539 20.3768 13.5289L20.6825 13.9111C20.6254 14.0076 20.5257 14.0912 20.4536 14.1787C20.3044 14.3597 20.1706 14.5645 20.0075 14.7323C19.8844 14.6841 19.82 14.5028 19.7702 14.3857L19.7111 14.2363L19.6075 14.7721C19.3793 14.7345 19.1666 14.6822 18.9463 14.6122L19.4735 15.1194C19.4583 15.279 19.4346 15.4421 19.4471 15.6024L19.4932 15.6275C19.5626 15.5914 19.6182 15.5518 19.6787 15.5022C19.2477 16.8408 19.1763 18.1825 19.6638 19.523L18.1564 19.3316C16.9525 19.2366 15.7136 19.2638 14.5176 19.4388C13.0148 19.6588 11.5131 20.117 10.1038 20.6755L8.95581 21.1861Z" fill="#3877B0"/>
<path d="M9.42006 17.446C9.48173 17.5042 9.53491 17.6708 9.57094 17.7513C9.68067 17.7599 9.82823 17.7064 9.93184 17.6695L9.96109 17.6589L9.71519 18.0237L9.95086 18.4057L9.58378 18.2837L9.52092 18.3241C9.45865 18.4412 9.37827 18.5564 9.29117 18.6563C9.27627 18.5207 9.31455 18.3311 9.31967 18.1882C9.22659 18.1082 9.07672 18.0487 8.96298 18.002L8.92139 17.9852L9.35278 17.8375L9.42006 17.446Z" fill="white"/>
<path d="M18.116 12.9321L18.273 13.3003C18.3734 13.3679 18.5853 13.3529 18.7066 13.3581L18.4122 13.6041L18.5685 14.0461L18.2612 13.8433C18.2207 13.8175 18.1945 13.7997 18.1455 13.7935C18.0869 13.7861 17.8871 13.9529 17.8262 13.9961L17.9317 13.5668L17.6143 13.2747L18.0133 13.2903L18.116 12.9321Z" fill="white"/>
<path d="M22.5256 6.3645L22.6905 6.82409L23.0693 6.91014C23.0164 6.97868 22.8532 7.03708 22.7702 7.07486L22.8874 7.53967L22.5331 7.24149L22.4903 7.19613C22.3841 7.26497 22.2619 7.31485 22.1477 7.36928C22.1604 7.24546 22.209 7.10447 22.252 6.98801L22.261 6.96388L21.9585 6.65315C22.1087 6.66339 22.2597 6.71542 22.4105 6.73519L22.5256 6.3645Z" fill="white"/>
<path d="M10.5788 15.4126L10.7707 15.7581L11.1634 15.6429C11.0652 15.7621 10.973 15.8695 10.9153 16.0146L11.1658 16.4257L10.7379 16.2758L10.675 16.3175C10.5788 16.4207 10.4965 16.5526 10.4158 16.6686L10.4733 16.1722L10.0728 15.9838L10.074 15.9705C10.2247 15.9371 10.3655 15.8978 10.5073 15.8362L10.5788 15.4126Z" fill="white"/>
<path d="M8.01543 8.61572C8.06144 8.73002 8.1227 8.83122 8.19124 8.93317L8.62138 8.80282L8.32761 9.16924L8.53969 9.56792C8.41837 9.55162 8.28536 9.47249 8.16359 9.43913L8.1362 9.43185L7.7769 9.78899C7.79491 9.67183 7.87359 9.38143 7.84258 9.27782L7.49487 9.13412C7.63521 9.08731 7.77083 9.05474 7.91633 9.03066L8.01543 8.61572Z" fill="white"/>
<path d="M16.66 14.2627C16.7226 14.3981 16.7867 14.5258 16.8706 14.6497L17.2855 14.6527L16.9883 14.947C16.9754 15.0663 17.1171 15.3067 17.1703 15.4179L16.821 15.1687L16.7693 15.1464C16.6424 15.1763 16.5431 15.3194 16.4316 15.3902L16.5236 14.9187L16.1553 14.636H16.5209C16.5993 14.5793 16.6342 14.3613 16.66 14.2627Z" fill="white"/>
<path d="M8.99333 14.4861C9.05585 14.5332 9.11355 14.716 9.15103 14.7921C9.27421 14.7931 9.41148 14.7488 9.53245 14.722L9.31911 15.0561C9.38158 15.1998 9.46437 15.3306 9.5455 15.4642L9.14411 15.3464L9.07953 15.3892L8.81537 15.7344L8.8404 15.5499C8.86213 15.4434 8.85792 15.3344 8.85847 15.2261C8.80508 15.1394 8.59475 15.074 8.49731 15.0275C8.53339 14.9852 8.80729 14.9314 8.8674 14.9138C8.939 14.801 8.94788 14.6165 8.99333 14.4861Z" fill="white"/>
<path d="M8.58206 11.4158L8.75476 11.7995L9.1407 11.6952L8.87372 12.0982L9.0845 12.4847L8.70549 12.3545L8.64262 12.4036L8.37409 12.7272L8.44373 12.1919L8.09863 12.0529C8.18298 11.986 8.36094 11.9377 8.46345 11.8766C8.53073 11.7302 8.55788 11.5737 8.58206 11.4158Z" fill="white"/>
<path d="M18.9896 5.61865L19.1754 6.07769L19.6084 6.13208L19.3068 6.37186L19.4882 6.86131L19.1333 6.56724L19.1042 6.53342C19.0213 6.50839 18.7881 6.67707 18.701 6.72323L18.8148 6.27698L18.4451 5.92552L18.8677 6.02622C18.9232 5.90033 18.9533 5.75136 18.9896 5.61865Z" fill="white"/>
<path d="M24.0135 8.04907L24.1658 8.53641L24.5646 8.67223L24.2373 8.81869L24.3987 9.36714L24.01 8.97232L23.978 8.93519C23.8649 8.95095 23.7316 9.0523 23.6178 9.09269C23.6302 8.94734 23.708 8.7916 23.7449 8.6485L23.396 8.2875L23.8677 8.45754C23.9328 8.32869 23.97 8.1864 24.0135 8.04907Z" fill="white"/>
<path d="M9.68443 9.4397L9.8934 9.80807L10.3545 9.68319L10.0575 10.0168L10.3009 10.4683L9.89707 10.322L9.84137 10.3166L9.55699 10.6646L9.59432 10.1634C9.46943 10.0981 9.32779 10.0499 9.2146 9.96682L9.62482 9.86878L9.68443 9.4397Z" fill="white"/>
<path d="M20.7981 7.38501C20.858 7.51606 20.914 7.63929 20.9516 7.77903L20.9601 7.81144L21.3809 7.95514L21.0744 8.16521L21.2386 8.64212L20.8618 8.30399C20.8283 8.27008 20.8134 8.26105 20.7718 8.24163L20.437 8.44242L20.5557 7.99568C20.4629 7.87952 20.3472 7.77617 20.2417 7.6711L20.6756 7.76744L20.7981 7.38501Z" fill="white"/>
<path d="M15.2614 15.8953L15.4651 16.2615L15.9031 16.2567C15.8078 16.3544 15.7275 16.4537 15.6472 16.5636L15.8052 16.9749L15.408 16.7707L15.0755 17.057L15.1376 16.5815L14.7625 16.3114L15.1727 16.3039L15.2614 15.8953Z" fill="white"/>
<path d="M14.5881 9.86987C14.6566 9.91468 14.7659 10.1995 14.8095 10.285L15.2071 10.2893L14.9232 10.5669L15.1407 11.0304L14.7888 10.8232L14.7138 10.7834C14.5882 10.8643 14.4826 10.9606 14.3729 11.0611L14.4241 10.6033C14.3278 10.5032 14.164 10.423 14.0452 10.346L14.482 10.3087L14.5881 9.86987Z" fill="white"/>
<path d="M13.2081 11.551L13.4688 11.9259L13.8588 11.8736C13.7854 11.9908 13.6747 12.0932 13.5899 12.204L13.7886 12.6405L13.4275 12.4722C13.4155 12.463 13.3622 12.4606 13.3464 12.4586L13.0174 12.7446L13.0859 12.2749L12.7249 12.0555L13.1437 11.9552L13.2081 11.551Z" fill="white"/>
<path d="M11.8533 13.4575C11.9326 13.5344 11.9977 13.7024 12.0641 13.7988C12.2025 13.7794 12.3389 13.7345 12.4731 13.6962L12.2129 14.081L12.4461 14.4865L12.4621 14.5092L11.9596 14.3384L11.6706 14.7128L11.7113 14.24L11.7183 14.1979L11.3284 14.0178L11.2915 14.0034L11.7948 13.8618L11.8533 13.4575Z" fill="white"/>
<path d="M14.1674 6.77954C14.2448 6.90337 14.3044 7.03568 14.3598 7.1704C14.4083 7.17466 14.4475 7.17521 14.496 7.16859C14.6033 7.15389 14.7134 7.15559 14.8216 7.15339L14.5147 7.46517L14.7156 7.91779L14.3374 7.71644L14.2621 7.69125C14.1382 7.73335 14.0226 7.88141 13.9297 7.97313L13.9809 7.47876L13.6116 7.23843L13.7102 7.22749C13.8283 7.20803 13.9436 7.20221 14.063 7.19623L14.1674 6.77954Z" fill="white"/>
<path d="M11.0003 7.46167C11.0928 7.56463 11.1606 7.74129 11.2297 7.86622L11.3518 7.83772C11.456 7.81289 11.5456 7.81008 11.6529 7.81264L11.3788 8.13556L11.6103 8.56896L11.198 8.38211L11.1386 8.37764C11.0177 8.44488 10.9089 8.60087 10.8143 8.70287L10.8473 8.24719C10.7236 8.15884 10.6168 8.09923 10.4761 8.04414L10.9064 7.91815L11.0003 7.46167Z" fill="white"/>
<path d="M16.2938 11.325L16.3239 11.3296L16.5109 11.7129L16.9404 11.758L16.6793 12.0193C16.6657 12.1196 16.8426 12.4038 16.8993 12.5086L16.5303 12.2619L16.475 12.223C16.3481 12.2368 16.1779 12.4246 16.0803 12.5113L16.1423 12.0047L15.7764 11.6995C15.9164 11.7008 16.0704 11.7154 16.2083 11.6919L16.2938 11.325Z" fill="white"/>
<path d="M13.6218 14.5115C13.6986 14.6465 13.7624 14.7843 13.8524 14.9116C13.9822 14.896 14.1084 14.8778 14.2394 14.8871L13.9918 15.1921C14.0372 15.358 14.1423 15.5185 14.2037 15.6824L13.8093 15.4644L13.7376 15.4563L13.4198 15.782C13.4235 15.6197 13.4804 15.4397 13.466 15.2836L13.0598 15.0232C13.2052 14.9983 13.388 14.9976 13.5222 14.9402L13.6218 14.5115Z" fill="white"/>
<path d="M15.9678 8.31445C16.0255 8.34285 16.1509 8.65137 16.1895 8.72608L16.6313 8.74088L16.3101 9.00319L16.5125 9.49765L16.1187 9.25622C16.0737 9.23244 16.0897 9.23469 16.0457 9.23088C16.0052 9.22737 15.7574 9.46188 15.7035 9.50458L15.7625 9.00545L15.377 8.7181L15.8443 8.69708C15.9034 8.5735 15.9345 8.44691 15.9678 8.31445Z" fill="white"/>
<path d="M13.8622 17.3347L14.1241 17.8464L14.7162 17.7767C14.598 17.9049 14.4241 18.0756 14.3529 18.2315L14.6218 18.8283L14.1118 18.61L14.0487 18.5854C13.9187 18.6339 13.7396 18.8565 13.6349 18.9582C13.6174 18.9136 13.6325 18.835 13.635 18.7868L13.6725 18.3263L13.1848 18.0206L13.7635 17.9147L13.8622 17.3347Z" fill="black"/>
<path d="M13.9035 17.6082L14.0704 17.9177C14.1191 17.9468 14.4294 17.884 14.5117 17.8761L14.2585 18.2046L14.4679 18.6839L14.085 18.4933C14.0746 18.4786 14.0436 18.4783 14.0261 18.4747L13.7149 18.7735L13.7437 18.2732L13.4409 18.0681C13.5616 18.0459 13.7334 18.0256 13.8375 17.9596L13.9035 17.6082Z" fill="white"/>
<path d="M19.1451 8.46509C19.2494 8.47407 19.3137 8.86071 19.3844 8.96035C19.4458 9.04675 19.78 9.03546 19.8876 9.12989C19.8432 9.22618 19.6657 9.31217 19.5747 9.37389L19.7947 10.0476L19.3839 9.72726L19.2249 9.61081C19.1008 9.69701 18.9781 9.79264 18.8408 9.85641L18.7978 9.82656C18.777 9.66364 18.8241 9.48287 18.8515 9.32085C18.725 9.1599 18.5579 9.01545 18.4131 8.86999L19.0041 8.90948L19.1451 8.46509Z" fill="black"/>
<path d="M19.1682 8.63501L19.3233 9.04272L19.7629 9.14187L19.481 9.3376L19.6787 9.86397L19.2791 9.52088L19.2398 9.5126C19.1031 9.56212 18.985 9.66302 18.8675 9.74732L18.9489 9.29695C18.8757 9.17297 18.707 9.04869 18.6001 8.94734L19.0549 9.01337L19.1682 8.63501Z" fill="white"/>
<path d="M10.8017 18.168C10.9143 18.2988 11.0043 18.468 11.0809 18.6223L11.0966 18.6545L11.515 18.5173L11.5626 18.55C11.5372 18.6901 11.4106 18.8521 11.3389 18.9773L11.6632 19.5401L11.1261 19.3907L11.0759 19.4459L10.7146 19.9304L10.6987 19.2435C10.6057 19.15 10.3367 19.0846 10.2092 19.0374C10.3677 18.9456 10.554 18.8857 10.7246 18.8186L10.8017 18.168Z" fill="black"/>
<path d="M10.852 18.366L11.0494 18.7492L11.4581 18.6082L11.252 18.9635C11.3097 19.1218 11.3918 19.2656 11.4727 19.4128C11.3595 19.3823 11.2579 19.351 11.1526 19.2971L11.1265 19.2834L11.0513 19.3119C10.939 19.4137 10.8609 19.5491 10.7799 19.6762C10.7518 19.5306 10.7745 19.34 10.7749 19.1894C10.6567 19.1243 10.5353 19.0826 10.4082 19.0393L10.7853 18.9004C10.8416 18.75 10.8366 18.5285 10.852 18.366Z" fill="white"/>
<path d="M17.6724 9.6875L17.9299 10.2549L18.5018 10.2846L18.1223 10.6423L18.3305 11.3281C18.1897 11.1905 18.0361 11.0762 17.8776 10.9598C17.846 10.9363 17.8094 10.9205 17.7743 10.9026C17.6179 10.9735 17.4755 11.1208 17.3243 11.2127C17.3351 10.9996 17.3511 10.7991 17.3985 10.5904C17.2293 10.4775 17.086 10.3277 16.9397 10.1871L17.5093 10.2106L17.6724 9.6875Z" fill="black"/>
<path d="M17.6857 9.90698L17.8765 10.3241L18.287 10.366L18.0225 10.5985L18.1749 11.0906L17.7993 10.8078L17.792 10.8061C17.6869 10.7981 17.4944 10.9882 17.4044 11.0578C17.4182 10.8957 17.4291 10.7361 17.472 10.5786L17.4805 10.5492C17.3472 10.4614 17.2331 10.3682 17.1167 10.2591L17.5621 10.2847C17.6296 10.1884 17.6537 10.0213 17.6857 9.90698Z" fill="white"/>
<path d="M17.3924 6.60864C17.4083 6.61271 17.4273 6.6106 17.4402 6.62089C17.4455 6.6251 17.4757 6.70392 17.481 6.71627L17.6345 7.04064C17.6396 7.05088 17.6712 7.12443 17.6792 7.12975C17.8173 7.22157 18.0673 7.14711 18.1882 7.29853C18.1395 7.39186 17.9425 7.50264 17.8517 7.56787L18.0896 8.23694L17.7214 7.95205L17.4979 7.79505L17.041 8.07166L17.1525 7.49938L16.6738 7.10908L17.263 7.09744L17.3924 6.60864Z" fill="black"/>
<path d="M17.4378 6.82373L17.6207 7.21519L18.0581 7.28799L17.7618 7.52847C17.7992 7.69756 17.8678 7.86394 17.9256 8.02715L17.6229 7.78491C17.5828 7.75491 17.5438 7.73579 17.4982 7.71537C17.3673 7.75867 17.249 7.85265 17.1342 7.92806L17.2509 7.47198L16.8833 7.17274L17.3092 7.18714L17.4378 6.82373Z" fill="white"/>
<path d="M12.2279 16.2046C12.3281 16.3967 12.3997 16.5925 12.5108 16.7836L13.0659 16.6298C12.9664 16.7906 12.8546 16.9527 12.7269 17.0925L12.708 17.1128L13.0889 17.7171L12.4621 17.4847C12.3728 17.5905 12.1802 17.9069 12.0655 17.9427C12.0071 17.8398 12.068 17.4558 12.0717 17.3236L11.5693 17.0401L12.1102 16.851C12.1857 16.6414 12.2132 16.4257 12.2279 16.2046Z" fill="black"/>
<path d="M12.2737 16.5161L12.4581 16.8606C12.5934 16.8547 12.7414 16.8004 12.873 16.7667L12.6208 17.1017L12.9031 17.5558C12.8288 17.5705 12.5252 17.4286 12.4328 17.3963C12.3437 17.4299 12.1931 17.6824 12.1315 17.7682L12.144 17.2853L11.7634 17.0645L12.1706 16.9281C12.223 16.7979 12.2443 16.653 12.2737 16.5161Z" fill="white"/>
<path d="M16.9833 17.1006C17.0669 17.2472 17.1295 17.4096 17.2063 17.5607C17.2122 17.5723 17.2487 17.6506 17.254 17.6541C17.2618 17.6591 17.3508 17.6654 17.3674 17.6674C17.4692 17.6796 17.5869 17.6828 17.6817 17.7231C17.7226 17.7406 17.7188 17.7589 17.7348 17.7973C17.6843 17.9112 17.5293 18.0162 17.4357 18.0993L17.6587 18.7039C17.5013 18.5789 17.3311 18.4835 17.1563 18.3852C17.1336 18.373 17.1093 18.371 17.0842 18.3661C16.9325 18.4608 16.8006 18.6026 16.6705 18.7252L16.7279 18.2646C16.7326 18.2261 16.7565 18.1255 16.7489 18.0918C16.7481 18.0881 16.6803 18.0357 16.6749 18.0314C16.5751 17.9503 16.3381 17.8186 16.2847 17.7094L16.319 17.6643L16.8245 17.6581L16.9833 17.1006Z" fill="black"/>
<path d="M17.0101 17.3135C17.0558 17.4562 17.1331 17.5992 17.1953 17.7362L17.6293 17.7671L17.3277 18.0868C17.403 18.2231 17.4547 18.366 17.5087 18.5116L17.1473 18.2777L17.0955 18.2651C16.9711 18.3113 16.8697 18.4202 16.7704 18.5065L16.8361 18.0735L16.4246 17.739L16.8993 17.7365L17.0101 17.3135Z" fill="white"/>
<path d="M12.3299 5.38965L12.6678 5.92468L13.2008 5.88464C13.0964 6.03522 12.9753 6.17094 12.8445 6.29868C12.8394 6.36059 12.8886 6.42843 12.9159 6.48412L13.115 6.88832L12.6086 6.68391L12.5435 6.67268C12.3864 6.75832 12.2373 6.94116 12.1077 7.06744L12.1455 6.43646C12.0279 6.30957 11.8235 6.19898 11.6829 6.09171L12.2264 5.98324L12.3299 5.38965Z" fill="black"/>
<path d="M12.3941 5.6543L12.6115 6.00953C12.7482 6.0155 12.89 5.99688 13.0266 5.987C12.941 6.09186 12.8304 6.18604 12.7329 6.28057L12.9531 6.72355L12.5813 6.56716C12.5536 6.55948 12.5268 6.55994 12.4982 6.55858L12.1817 6.87332L12.2355 6.38307C12.1358 6.28794 11.993 6.20892 11.8782 6.1315L12.2879 6.07686L12.3941 5.6543Z" fill="white"/>
<path d="M18.3768 15.6277L18.6615 16.2717C18.8163 16.3012 18.9686 16.3375 19.1268 16.3208L19.1541 16.3173L19.1957 16.3677L19.1897 16.4286L18.8348 16.6668L19.0587 17.2589C18.9094 17.2253 18.7079 17.0623 18.5771 16.9775L18.5303 16.9467C18.4035 16.9432 18.1339 17.1472 18.0087 17.213L18.1291 16.6627L17.6057 16.1612C17.8196 16.1563 18.0455 16.2392 18.2518 16.2205L18.3768 15.6277Z" fill="black"/>
<path d="M18.4141 15.9119L18.6032 16.3424L19.0165 16.4041L18.7384 16.6193L18.9139 17.1232C18.8006 17.0269 18.6839 16.9483 18.558 16.8695L18.5002 16.851C18.3697 16.8933 18.2505 16.9826 18.1345 17.0548L18.2017 16.6233C18.0829 16.4831 17.9591 16.3626 17.8201 16.2425L18.2975 16.303L18.4141 15.9119Z" fill="white"/>
<path d="M15.6705 5.00439L15.982 5.60942L16.5478 5.67941L16.1404 6.00654L16.3927 6.62604L15.9439 6.37156C15.9225 6.35565 15.8692 6.32736 15.8428 6.32796C15.7805 6.32946 15.5985 6.51626 15.5167 6.54205C15.4847 6.55213 15.4498 6.54611 15.4163 6.54812C15.3252 6.40919 15.4786 6.20247 15.4556 6.0514C15.4467 5.9937 15.0431 5.68769 14.9771 5.61785L15.5435 5.60184L15.6705 5.00439Z" fill="black"/>
<path d="M15.7031 5.23242L15.9239 5.68363L16.3626 5.72668C16.247 5.80836 16.1476 5.88573 16.0508 5.99019L16.2645 6.4682L15.9179 6.25059L15.8703 6.23198C15.7738 6.2108 15.5455 6.39855 15.4598 6.45304L15.5528 6.01518C15.4503 5.89084 15.2835 5.7915 15.1533 5.69502L15.6124 5.6892L15.7031 5.23242Z" fill="white"/>
<path d="M9.16641 6.43311C9.25562 6.46451 9.4228 6.80008 9.48792 6.90012L10.0459 6.77534C10.0493 6.83841 9.78801 7.183 9.73277 7.25706L9.7108 7.28626L9.95284 7.82242L9.46459 7.68735L9.42014 7.67807C9.26731 7.74957 9.10931 7.96898 8.98819 8.09406L9.01338 7.44391L8.50366 7.2106L9.04885 7.01874C9.09727 6.83861 9.16325 6.6466 9.16656 6.4595L9.16641 6.43311Z" fill="black"/>
<path d="M9.22567 6.61743L9.43871 7.00593L9.89334 6.90262L9.61693 7.26026L9.79379 7.68619L9.4348 7.56191L9.37364 7.55985L9.07972 7.88467L9.08423 7.38961L8.70728 7.22323L9.10756 7.09303L9.22567 6.61743Z" fill="white"/>
<path d="M14.9183 12.6611L15.2265 13.1727L15.7801 13.1695L15.4158 13.6283L15.7052 14.2358C15.517 14.1632 15.3582 14.0703 15.1894 13.962C15.1523 13.9376 15.1325 13.933 15.09 13.9237C14.9307 14.0445 14.8007 14.2021 14.6672 14.3501L14.709 13.8824C14.7143 13.8281 14.7379 13.7294 14.7272 13.6779C14.7008 13.5516 14.3871 13.4596 14.3374 13.3207C14.453 13.2411 14.675 13.2439 14.8134 13.2262L14.9183 12.6611Z" fill="black"/>
<path d="M14.9736 12.915L15.1581 13.2654L15.6054 13.2488L15.3045 13.6234L15.5388 14.0707C15.4224 14.0162 15.3208 13.9409 15.2158 13.8675C15.1631 13.8315 15.153 13.8244 15.09 13.8197C14.9701 13.9015 14.8801 13.9808 14.7882 14.0938L14.7608 14.1278L14.8233 13.6273C14.7346 13.5262 14.5808 13.4403 14.4692 13.3614C14.5452 13.3179 14.7917 13.3193 14.888 13.3097L14.9736 12.915Z" fill="white"/>
<path d="M11.4462 10.2253L11.7122 10.7396L12.3176 10.7111L11.9397 11.1054L12.2328 11.741C12.0553 11.7126 11.8219 11.5679 11.6535 11.4937L11.5996 11.5258L11.2051 12.004L11.2668 11.3059L10.6702 11.0194L11.2941 10.9004C11.389 10.7517 11.4222 10.4021 11.4462 10.2253Z" fill="black"/>
<path d="M11.4878 10.4883L11.6761 10.8427L12.1092 10.8059L11.8424 11.0861C11.8942 11.2608 11.9914 11.4259 12.0741 11.5879L11.6283 11.4032L11.5781 11.4016L11.3183 11.7213C11.299 11.5848 11.3366 11.4064 11.3494 11.2669C11.2129 11.1771 11.0631 11.1082 10.9172 11.0349L11.3832 10.9648L11.4878 10.4883Z" fill="white"/>
<path d="M10.0752 12.1536L10.37 12.6475L10.9031 12.6008L10.5714 13.0882L10.895 13.6726C10.7003 13.5747 10.5031 13.5071 10.297 13.4381L9.86188 13.935L9.91727 13.2633L9.48477 13.0435L9.47192 12.9864C9.59395 12.8662 9.78541 12.8439 9.94642 12.8047C10.0086 12.5881 10.0478 12.3772 10.0752 12.1536Z" fill="black"/>
<path d="M10.1332 12.3833L10.3291 12.7564L10.7506 12.6771L10.4721 13.0843C10.5303 13.2309 10.6152 13.3647 10.6947 13.5003C10.5997 13.4699 10.3851 13.3554 10.2983 13.3523C10.2722 13.3514 10.2499 13.3722 10.2258 13.3822L9.95331 13.6934C9.94624 13.5351 9.97509 13.3645 9.98984 13.2063L9.53857 12.9966L10.0108 12.8789L10.1332 12.3833Z" fill="white"/>
<path d="M12.7545 8.4436L13.102 8.90596L13.6247 8.88423C13.5751 9.0186 13.4282 9.17183 13.3312 9.2796L13.3082 9.30479C13.3034 9.38677 13.3524 9.47528 13.3804 9.5523L13.4915 9.90121L12.9535 9.63849L12.504 10.0819L12.5497 9.36279L12.0789 9.10851L12.6324 8.96732L12.7545 8.4436Z" fill="black"/>
<path d="M12.8019 8.6062L13.0121 8.95044L13.0327 8.9947L13.475 8.97819L13.2161 9.26825C13.1952 9.37763 13.3286 9.60848 13.3596 9.73286L12.9204 9.53828L12.5998 9.87716L12.6397 9.31812L12.2729 9.1408L12.7016 9.03584C12.7552 8.90915 12.7735 8.74232 12.8019 8.6062Z" fill="white"/>
<path d="M21.9492 10.381L21.8598 10.3763C21.8393 10.2668 21.892 10.1298 21.9196 10.0211C21.9247 10.0008 21.9504 9.9303 21.9466 9.91575C21.943 9.90225 21.88 9.83948 21.8673 9.82483L21.5572 9.45947L22.0802 9.56187L22.243 9.01733L22.2526 9.06284C22.2979 9.27212 22.3825 9.45104 22.4831 9.63874L22.5127 9.64391C22.6981 9.67737 22.8772 9.7293 23.0504 9.80346L22.6226 10.0032C22.6612 10.1578 22.6972 10.3306 22.7667 10.4748C22.8222 10.5899 22.9164 10.6751 22.9737 10.7855C23.0539 10.9401 23.128 11.1328 23.1929 11.296C23.3096 11.5621 23.3627 11.8369 23.3987 12.1231L23.5753 11.6382C23.4635 11.4995 23.3567 11.3723 23.2196 11.2579L23.2217 11.2085L23.2717 11.1745C23.4173 11.1844 23.5588 11.2417 23.697 11.2862C23.7957 11.1172 23.8611 10.9249 23.9303 10.7421L23.9422 10.7572C23.9589 10.9836 24.0374 11.1687 24.1234 11.3753L24.631 11.5156L24.2533 11.7633C24.3158 11.9874 24.3471 12.2263 24.3789 12.4567C24.2623 12.3031 24.1401 12.1874 23.9945 12.0632C23.9686 12.0413 23.9209 11.9876 23.8937 11.9777C23.8567 11.9643 23.5921 12.0775 23.5503 12.0932C23.5383 12.0978 23.457 12.1342 23.4466 12.1326C23.3795 12.1219 23.1929 11.9853 23.1153 11.9538C22.2912 11.619 21.2876 11.8956 20.5188 12.26C20.29 12.3685 20.0778 12.5149 19.8457 12.6133L19.823 12.6226L19.96 13.0272L19.432 12.5827L19.0238 12.8414L19.1116 12.271L18.6047 11.7691C18.817 11.8389 19.0163 11.8696 19.2375 11.8967L19.3993 11.3568C19.4442 11.5053 19.491 11.6958 19.5748 11.8265C19.6319 11.9155 19.6898 11.9233 19.7841 11.9515C19.8016 11.9454 19.8228 11.9455 19.8366 11.933C19.8667 11.9058 19.909 11.7836 19.9289 11.7431C20.066 11.4652 20.2051 11.2444 20.4202 11.0201C20.3523 10.8822 20.1973 10.7351 20.0999 10.6102C20.2927 10.6749 20.4733 10.7276 20.6748 10.7564L20.772 10.4253L20.9599 10.7248C21.28 10.5675 21.6479 10.4923 22 10.4501C21.9824 10.3959 21.998 10.4198 21.9492 10.381Z" fill="black"/>
<path d="M21.9495 10.3812L22.2467 10.2336C22.4121 10.3268 22.5899 10.4224 22.7242 10.5587C22.4815 10.4581 22.2626 10.4225 22.0003 10.4503C21.9827 10.3961 21.9983 10.42 21.9495 10.3812Z" fill="#386A9D"/>
<path d="M19.3933 11.615C19.442 11.7206 19.5062 11.9118 19.5999 11.9823C19.6575 12.0255 19.7198 12.0193 19.7782 12.0777L19.6452 12.3229C19.6649 12.505 19.7205 12.63 19.8011 12.7924C19.7085 12.7073 19.5477 12.5274 19.4186 12.5233L19.3797 12.5241C19.2916 12.5566 19.2074 12.6162 19.1267 12.664L19.206 12.2445C19.1371 12.1287 18.9611 12.0082 18.8574 11.9158C18.9997 11.9202 19.149 11.9515 19.2903 11.9718L19.3933 11.615Z" fill="white"/>
<path d="M22.2458 9.31836L22.4283 9.69813L22.8326 9.80163L22.5376 9.96074L22.6591 10.4066L22.3681 10.2049L22.2678 10.1458C22.1661 10.1501 22.0289 10.2445 21.937 10.2912L22.0347 9.88412L21.76 9.58112L22.1273 9.63897L22.2458 9.31836Z" fill="white"/>
<path d="M23.9112 11.041L24.0715 11.4418L24.4873 11.5463C24.3887 11.6168 24.2788 11.6682 24.171 11.7232L24.2738 12.202L23.9512 11.927C23.8211 11.8879 23.6536 11.9741 23.5288 12.0166L23.6607 11.6093L23.3286 11.238L23.7468 11.3762L23.9112 11.041Z" fill="white"/>
<path d="M21.9381 10.7186C22.2562 10.6846 22.4728 10.714 22.7659 10.8449L23.0868 11.6468C22.3253 11.3826 21.5704 11.5225 20.8396 11.8196L19.8879 12.3259C20.0168 12.0427 20.1436 11.7638 20.327 11.5108C20.718 10.9715 21.3076 10.8176 21.9381 10.7186Z" fill="#1A1716"/>
</svg>
