<svg width="150" height="195" viewBox="0 0 150 195" fill="none" xmlns="http://www.w3.org/2000/svg">
<path d="M68.1459 175.848C68.4508 185.737 76.7862 193.676 86.4539 191.574C90.9655 190.593 95.3821 189.293 99.6534 187.683C109.413 184.004 118.223 178.782 125.581 172.314C132.938 165.846 138.699 158.259 142.533 149.987C146.368 141.715 148.201 132.918 147.93 124.101C147.658 115.283 145.285 106.617 140.948 98.596C136.611 90.5755 130.394 83.3581 122.653 77.3559C114.911 71.3536 105.796 66.6841 95.8275 63.6139C89.5522 61.6811 83.7758 60.5166 77.6933 60.0012C70.9344 59.4285 64.9464 63.9171 62.6171 70.2877V70.2877C58.582 81.3238 67.0368 94.0076 78.4665 96.7352C79.1705 96.9032 79.7748 97.0631 80.2541 97.2107C84.9059 98.6435 89.1596 100.823 92.7725 103.624C96.3853 106.425 99.2865 109.793 101.31 113.536C103.334 117.279 104.441 121.323 104.568 125.438C104.695 129.553 103.839 133.658 102.05 137.518C100.261 141.379 97.5724 144.919 94.1389 147.937C90.7055 150.956 86.5942 153.393 82.0395 155.109V155.109C74.3974 157.99 67.7978 164.56 68.0495 172.723L68.1459 175.848Z" fill="#1442B6"/>
<path d="M2.36723 42.8474C0.972294 30.3605 8.16992 18.5024 19.8912 13.9767V13.9767C37.6165 7.13275 56.8052 19.7896 57.4915 38.7779L62.1515 167.696C62.6182 180.608 52.2775 191.329 39.3573 191.329V191.329C27.7401 191.329 17.979 182.598 16.6892 171.053L2.36723 42.8474Z" fill="#1442B6" fill-opacity="0.35"/>
</svg>
