<svg width="44" height="44" viewBox="0 0 44 44" fill="none" xmlns="http://www.w3.org/2000/svg">
<path fill-rule="evenodd" clip-rule="evenodd" d="M12.474 0H31.548C39.006 0 44 5.236 44 13.024V31.0002C44 38.764 39.006 44 31.548 44H12.474C5.016 44 0 38.764 0 31.0002V13.024C0 5.236 5.016 0 12.474 0ZM20.746 28.578L31.196 18.128C31.944 17.38 31.944 16.17 31.196 15.4C30.448 14.652 29.216 14.652 28.468 15.4L19.382 24.486L15.532 20.636C14.784 19.888 13.552 19.888 12.804 20.636C12.056 21.384 12.056 22.594 12.804 23.364L18.04 28.578C18.414 28.952 18.898 29.128 19.382 29.128C19.888 29.128 20.372 28.952 20.746 28.578Z" fill="#0D9D00"/>
</svg>
