<svg width="84" height="84" viewBox="0 0 84 84" fill="none" xmlns="http://www.w3.org/2000/svg">
<path d="M41.895 77C61.225 77 76.895 61.33 76.895 42C76.895 22.67 61.225 7 41.895 7C22.5651 7 6.89502 22.67 6.89502 42C6.89502 61.33 22.5651 77 41.895 77Z" fill="#CBD9FF"/>
<path d="M37.52 50.8553V33.1453C37.52 31.4653 36.82 30.8003 35.035 30.8003H30.485C28.7 30.8003 28 31.4653 28 33.1453V50.8553C28 52.5353 28.7 53.2003 30.485 53.2003H35C36.82 53.2003 37.52 52.5353 37.52 50.8553Z" stroke="#5A81EC" stroke-width="5.25" stroke-linecap="round" stroke-linejoin="round"/>
<path d="M56.0001 50.8553V33.1453C56.0001 31.4653 55.3001 30.8003 53.5151 30.8003H49.0001C47.2151 30.8003 46.5151 31.4653 46.5151 33.1453V50.8553C46.5151 52.5353 47.2151 53.2003 49.0001 53.2003H53.5151C55.3001 53.2003 56.0001 52.5353 56.0001 50.8553Z" stroke="#5A81EC" stroke-width="5.25" stroke-linecap="round" stroke-linejoin="round"/>
</svg>
