<svg width="44" height="44" viewBox="0 0 44 44" fill="none" xmlns="http://www.w3.org/2000/svg">
<path fill-rule="evenodd" clip-rule="evenodd" d="M12.474 0H31.548C39.006 0 44 5.236 44 13.024V31.0002C44 38.7662 39.006 44 31.548 44H12.474C5.016 44 0 38.7662 0 31.0002V13.024C0 5.236 5.016 0 12.474 0ZM28.6219 28.5999C29.3699 27.8541 29.3699 26.6441 28.6219 25.8961L24.7059 21.9801L28.6219 18.0619C29.3699 17.3161 29.3699 16.0841 28.6219 15.3361C27.8739 14.5859 26.6639 14.5859 25.8939 15.3361L21.9999 19.2499L18.0839 15.3361C17.3139 14.5859 16.1039 14.5859 15.3559 15.3361C14.6079 16.0841 14.6079 17.3161 15.3559 18.0619L19.2719 21.9801L15.3559 25.8741C14.6079 26.6441 14.6079 27.8541 15.3559 28.5999C15.7299 28.9739 16.2359 29.1741 16.7199 29.1741C17.2259 29.1741 17.7099 28.9739 18.0839 28.5999L21.9999 24.7081L25.9159 28.5999C26.2899 28.9981 26.7739 29.1741 27.2579 29.1741C27.7639 29.1741 28.2479 28.9739 28.6219 28.5999Z" fill="#AD1212"/>
</svg>
