<svg width="38" height="38" viewBox="0 0 38 38" fill="none" xmlns="http://www.w3.org/2000/svg">
<path d="M25.1666 18.1164L9.40667 7.60976C9.05245 7.37374 8.57386 7.46932 8.33771 7.82359C8.2533 7.95017 8.20825 8.09893 8.20825 8.25125V30.0372C8.20825 30.4629 8.55337 30.8081 8.97909 30.8081C9.13126 30.8081 9.28005 30.763 9.40667 30.6786L25.1666 20.172V29.9359C25.1666 30.7873 25.8568 31.4775 26.7083 31.4775C27.5597 31.4775 28.2499 30.7873 28.2499 29.9359V8.35254C28.2499 7.50108 27.5597 6.81087 26.7083 6.81087C25.8568 6.81087 25.1666 7.50108 25.1666 8.35254V18.1164Z" fill="#082A80"/>
</svg>
