<svg width="22" height="34" viewBox="0 0 22 34" fill="none" xmlns="http://www.w3.org/2000/svg">
<path d="M13.2034 0L14.2959 0.0160888C14.6969 0.0518468 15.1065 0.116188 15.4828 0.263777C15.6558 0.331655 15.8314 0.420359 15.9494 0.569226C16.0283 0.668834 16.0448 0.740384 16.0258 0.863957C15.993 1.07655 15.715 1.27713 15.5558 1.39533C16.641 1.68044 17.8603 2.18484 18.5926 3.07052C18.7357 3.24358 18.9118 3.4874 18.8815 3.72437C18.867 3.83698 18.7889 3.93934 18.6964 4.00224C18.4225 4.18849 18.05 4.11518 17.7493 4.04967C17.9543 4.35653 18.1268 4.668 18.2323 5.02398C18.526 6.0146 18.3164 6.94117 17.8392 7.83112C17.9063 7.86076 17.9721 7.89097 18.031 7.93545C18.2855 8.12787 18.396 8.48094 18.4382 8.78312C18.5069 9.27531 18.3704 9.73003 18.0779 10.1244C18.0843 10.8768 17.768 11.6322 17.2925 12.2077C16.2225 13.5027 14.6448 14.1699 12.9972 14.3272C13.3312 15.1526 13.4684 15.9718 13.2022 16.8412C13.16 16.9791 13.1133 17.1183 13.0577 17.2513C13.037 17.3006 12.9692 17.4037 12.9645 17.4515C12.9571 17.5277 13.0184 17.6585 13.0394 17.7345C13.0708 17.8478 13.0918 17.9657 13.1154 18.0809C13.0348 18.2486 12.7658 18.3971 12.6161 18.501C12.6898 19.0361 12.6333 19.5149 12.4275 20.0114C12.6813 20.2308 12.9237 20.4903 13.0829 20.7876C13.3123 21.2158 13.4519 21.7591 13.3015 22.2369C13.2217 22.4902 13.0678 22.698 12.826 22.8177C12.6736 22.8932 12.538 22.9196 12.3765 22.8619C12.3511 22.8529 12.3194 22.8856 12.2967 22.8997C12.2126 22.952 12.1378 22.9767 12.0397 22.9899C11.792 23.0231 11.6198 22.9042 11.4355 22.7609C11.3569 22.8505 11.2871 22.9184 11.178 22.9719L11.1587 22.9811L12.248 23.6922C12.5472 23.904 12.8324 24.1166 13.0784 24.3905C13.0078 24.5667 12.9151 24.6828 12.7744 24.8063C13.0729 25.073 13.3415 25.3796 13.5928 25.6905C14.2101 26.4545 14.6909 27.2745 15.1235 28.1531C15.2012 28.1616 15.2816 28.1694 15.3568 28.1911C15.4739 28.2249 15.5825 28.2892 15.6373 28.4023C15.7126 28.5579 15.7135 28.7725 15.6496 28.9299L15.6413 28.9489L15.6696 28.9646C15.7721 29.0057 15.8776 29.0215 15.9468 29.1198C15.9759 29.1611 15.9983 29.21 16.0346 29.245C16.0788 29.1876 16.1229 29.1255 16.1793 29.0796C16.2551 29.0179 16.3426 28.9831 16.441 28.9946C16.5298 29.0049 16.5909 29.057 16.6416 29.1272C16.8046 29.3529 16.7758 29.677 16.7346 29.9371L18.3372 29.3097C18.9202 29.1292 19.6221 29.0823 20.1765 29.3804C20.6476 29.6337 20.9569 30.0826 21.104 30.5911C21.1231 30.6571 21.1427 30.7327 21.107 30.7956C21.0071 30.9719 20.785 31.106 20.6172 31.2112L19.8603 31.6519L16.5777 33.2509C16.2957 33.3713 16.0115 33.5144 15.7149 33.5947C15.5739 33.633 15.3631 33.6554 15.2324 33.5727C15.1115 33.496 15.007 33.3341 14.9297 33.2153C14.5911 32.6943 14.3501 32.0827 14.1515 31.4964C14.0883 31.3098 14.0152 31.1232 13.9737 30.9303C13.9717 30.9212 13.9738 30.9102 13.968 30.903C13.9539 30.8857 13.877 30.8553 13.8539 30.843C13.7154 30.7694 13.5594 30.6469 13.5006 30.4962C13.4467 30.3583 13.4992 30.2226 13.5496 30.0948C13.4691 30.0729 13.3952 30.0438 13.3298 29.9904C13.2316 29.9099 13.1717 29.8183 13.1617 29.6899C13.1432 29.4541 13.328 29.2279 13.4759 29.0624L11.5481 26.002C11.3072 26.1058 11.0592 26.188 10.8005 26.2317C10.6426 26.1574 10.4848 25.9788 10.3653 25.8516C10.0737 25.5409 9.80008 25.2111 9.54306 24.8711C9.38936 24.6677 9.24868 24.4513 9.08322 24.2575L8.98862 24.29L8.51783 24.4377C8.46415 24.4535 8.35263 24.4702 8.30893 24.4978C8.26922 24.5228 7.76862 25.7695 7.70834 25.9123C7.67758 25.9851 7.63649 26.1341 7.59126 26.1902C7.5368 26.2577 6.98633 26.2511 6.89146 26.2517C6.87308 26.2518 6.74159 26.2459 6.73308 26.2522C6.69113 26.2837 6.63244 26.4067 6.5983 26.4552L6.13642 27.0764C5.77026 27.5283 5.37562 27.9086 4.92032 28.2691C4.94002 28.3439 4.96633 28.4256 4.97176 28.5029C4.98929 28.7538 4.80751 28.9849 4.61472 29.1254C4.58024 29.1506 4.49581 29.194 4.47265 29.2248C4.45688 29.2459 4.46268 29.4166 4.45251 29.46C4.42725 29.5676 4.37788 29.6442 4.30566 29.7251L4.28871 29.7438L4.40413 29.8036C4.47943 29.8542 4.54053 29.9617 4.55294 30.0511C4.56298 30.1236 4.55488 30.1875 4.50907 30.2462L4.4853 30.2764C4.46014 30.3189 4.4656 30.3281 4.4756 30.3742C4.53362 30.4555 4.69674 30.4752 4.78554 30.5276C4.81653 30.5458 4.88509 30.6073 4.9149 30.614C4.92527 30.6164 4.98786 30.6044 5.00038 30.6027L5.28516 30.5666C5.74256 30.5282 6.26327 30.6604 6.65492 30.8956C7.01223 31.1102 7.31247 31.466 7.41152 31.8752L7.41911 31.9075C7.44481 32.0144 7.45214 32.1169 7.44634 32.2267C7.44247 32.3006 7.39358 32.438 7.42094 32.5034C7.44576 32.5627 7.46251 32.6241 7.46302 32.689C7.4637 32.7763 7.41867 32.836 7.35842 32.8952C7.2451 33.0065 7.09578 33.0752 6.95049 33.1347C6.44538 33.3416 5.90341 33.3886 5.36243 33.3814C4.08469 33.3645 2.83767 32.9667 1.76608 32.2761C1.40155 32.0412 1.05736 31.7847 0.754745 31.4729C0.68727 31.4034 0.417 31.135 0.422696 31.0533C0.438531 30.8268 0.589619 30.5397 0.763119 30.3958C0.792178 30.3717 0.798247 30.3223 0.809233 30.2858L0.919497 29.9423C1.15684 29.3042 1.48384 28.7385 2.1199 28.446C2.10674 28.3458 2.10284 28.24 2.14102 28.1439C2.1969 28.003 2.32425 27.8857 2.46212 27.8298L2.48124 27.8223L2.53746 27.5659C2.57303 27.4523 2.64966 27.3216 2.76087 27.2685C2.94695 27.1796 3.20508 27.2564 3.38642 27.3224L5.01563 25.5253L4.49018 25.017C4.98773 24.0344 5.69065 23.0854 5.93664 21.9998C5.78966 22.0409 5.64182 22.0855 5.49012 22.1056C5.11271 22.1556 4.72865 22.0886 4.37229 21.9646C4.00172 21.8358 3.64492 21.6302 3.33132 21.3964C2.85316 21.0399 2.45035 20.6367 2.18849 20.092C1.82345 19.3326 1.75991 18.3185 2.04225 17.5224L2.03615 17.5041C1.94026 17.2022 2.31774 16.4264 2.46537 16.1491C2.56628 15.9595 2.69258 15.7873 2.81129 15.6088C3.24733 14.9531 3.73382 14.355 4.29128 13.7977C4.74763 13.3415 5.21199 12.9296 5.80732 12.663C6.03612 12.5605 6.29049 12.5037 6.53499 12.4534C6.64017 12.4317 6.75057 12.4213 6.85314 12.3898C6.78156 12.3562 6.71331 12.3206 6.64831 12.2751C6.57521 12.224 6.39913 12.043 6.32569 12.0347C6.25052 12.0262 6.15056 12.0493 6.07166 12.0489C5.61321 12.0469 5.20985 11.8397 4.89503 11.5136C4.40433 11.0054 4.16186 10.2798 4.32889 9.58654C4.35384 9.48306 4.38632 9.38046 4.42996 9.28324C4.44787 9.24337 4.50622 9.15772 4.51117 9.11941C4.51558 9.0856 4.43257 8.9181 4.41796 8.87972C4.34096 8.67787 4.27748 8.47416 4.22873 8.2635C4.10846 7.74412 4.05055 7.22507 4.05631 6.69219C4.0694 5.47586 4.56081 4.40027 5.42475 3.55423C5.3094 3.54362 5.19819 3.53233 5.0907 3.48482C4.98013 3.43596 4.85169 3.34014 4.81324 3.21967C4.7907 3.14914 4.79351 3.05536 4.83342 2.99185C4.88767 2.90556 4.98637 2.84273 5.08657 2.82586C5.28407 2.79262 5.43984 2.84995 5.597 2.96462L5.6285 2.75256C5.68027 2.5134 5.79847 2.17988 6.02158 2.05046C6.09234 2.0094 6.19799 1.98675 6.27744 2.01219C6.32531 2.02752 6.36373 2.06644 6.38347 2.11197C6.46915 2.30979 6.36997 2.56082 6.28998 2.74193C6.71863 2.35962 7.20387 2.02239 7.69433 1.72403C9.35156 0.71592 11.2661 0.108027 13.2034 0Z" fill="black"/>
<path d="M13.0823 22.0589L13.0775 22.0337C13.0591 21.9402 13.0281 21.8621 12.9877 21.7761L13.1532 21.8716C13.1709 21.9478 13.1459 22.0592 13.1268 22.135L13.0823 22.0589Z" fill="#EBBE9B"/>
<path d="M12.6811 24.428L12.6834 24.4269C12.751 24.422 12.7989 24.4094 12.8507 24.4563C12.828 24.5465 12.7261 24.6122 12.6534 24.6659L12.428 24.4728L12.6811 24.428Z" fill="#3B2B29"/>
<path d="M12.8454 17.6836L12.8552 17.6861C12.9063 17.7198 12.9489 18.0046 12.9605 18.0796L12.5767 18.3223L12.5162 18.3533L12.5023 18.3363C12.5484 18.2189 12.6185 18.1155 12.6757 18.0038C12.731 17.8958 12.7688 17.7791 12.8454 17.6836Z" fill="#C38439"/>
<path d="M11.1759 25.468C11.2935 25.5569 11.3784 25.6705 11.4519 25.7967L11.1374 25.9645L10.9398 26.0537C10.9792 25.8123 11.042 25.6706 11.1759 25.468Z" fill="#3B2B29"/>
<path d="M5.18819 2.96362C5.24322 2.96779 5.30215 2.97264 5.35341 2.99448C5.43845 3.03069 5.62019 3.20914 5.64745 3.29869C5.65369 3.3191 5.65318 3.31541 5.63921 3.33449C5.59015 3.4017 5.514 3.40417 5.43801 3.41696C5.29052 3.39929 5.09955 3.37315 5.00112 3.24756C4.95338 3.18666 4.95084 3.1359 4.95732 3.06114C5.01713 2.98231 5.09559 2.97786 5.18819 2.96362Z" fill="#3B2B29"/>
<path d="M6.20466 18.2996C6.43421 18.3717 6.70932 18.413 6.94376 18.3491L6.96325 18.3436L6.86353 18.5733C6.81823 18.615 6.73018 18.6302 6.67138 18.6484L6.04004 18.7955L6.20466 18.2996Z" fill="#4F8753"/>
<path d="M6.1591 2.15433C6.19433 2.14509 6.21609 2.14606 6.25193 2.15202C6.2579 2.16732 6.2595 2.16942 6.26211 2.18824C6.31361 2.56374 6.04348 2.88787 5.82135 3.15458L5.79148 3.18849H5.76456C5.69441 2.98976 5.82295 2.66913 5.89469 2.47963C5.94464 2.34779 6.02656 2.21392 6.1591 2.15433Z" fill="#3B2B29"/>
<path d="M11.806 22.1116C11.9017 22.1537 11.9997 22.1785 12.1042 22.1853L12.1228 22.1863C12.2021 22.3139 12.2528 22.4831 12.3122 22.622C12.2442 22.691 12.1802 22.7672 12.0865 22.8001C11.8851 22.8299 11.7508 22.8035 11.5831 22.6894L11.716 22.6C11.7739 22.4439 11.7893 22.276 11.806 22.1116Z" fill="#E3967C"/>
<path d="M4.08909 29.8028C4.15443 29.7949 4.2215 29.8138 4.27704 29.8489C4.34526 29.8919 4.39462 29.9327 4.40975 30.0144C4.41785 30.0582 4.39771 30.1198 4.37072 30.1541C4.36496 30.1614 4.34139 30.1872 4.33637 30.1898C4.31664 30.1997 4.13524 30.1691 4.09947 30.1674C3.93576 30.1595 3.77142 30.1878 3.60982 30.2112C3.50291 30.2198 3.37224 30.2453 3.28065 30.1839C3.27645 30.1453 3.27597 30.1379 3.30022 30.1047C3.44466 29.907 3.85778 29.8386 4.08909 29.8028Z" fill="#C97039"/>
<path d="M7.09863 11.6482C7.1343 11.6603 7.1758 11.7779 7.1957 11.816C7.30875 12.0325 7.45238 12.2092 7.6132 12.3911C7.44824 12.387 7.27759 12.3601 7.12084 12.3087C6.89536 12.2237 6.68995 12.1089 6.49109 11.9737C6.70426 11.883 6.9035 11.8153 7.0829 11.6619L7.09863 11.6482Z" fill="#3B2B29"/>
<path d="M16.3304 29.1951C16.3559 29.1881 16.3772 29.1841 16.4041 29.1888C16.4665 29.1997 16.5066 29.2483 16.535 29.3017C16.641 29.5011 16.5958 29.8228 16.5264 30.0271C16.4608 30.0687 16.3898 30.0973 16.3188 30.1282C16.2765 30.1382 16.2243 30.1554 16.181 30.147C16.1403 30.1392 16.1183 30.119 16.0978 30.0844C16.0141 29.9423 16.0595 29.6803 16.1008 29.5279C16.1381 29.3906 16.204 29.2676 16.3304 29.1951Z" fill="#C97039"/>
<path d="M13.1269 22.1349C13.1159 22.2232 13.0657 22.3199 13.0165 22.3932C12.9251 22.5296 12.7505 22.6805 12.5836 22.7041C12.5258 22.7123 12.4946 22.7189 12.4475 22.6849C12.4143 22.5029 12.3497 22.3427 12.2957 22.1673L12.3836 22.1101C12.5287 22.0099 12.5794 21.9116 12.6104 21.7431L12.6147 21.7185L12.6435 21.7063C12.7969 21.7382 12.8745 21.8413 12.9702 21.9563C12.9973 21.9889 13.0264 22.0362 13.0658 22.054L13.0824 22.0588L13.1269 22.1349Z" fill="#E3967C"/>
<path d="M10.7929 4.51904L11.0071 4.69983C11.0092 4.83668 11.0196 4.9894 10.9651 5.11811C10.9376 5.18324 10.8694 5.26981 10.7998 5.29212C10.637 5.34433 10.4032 5.24387 10.2522 5.18124L9.90576 5.00289C10.1857 4.79525 10.4723 4.65274 10.7929 4.51904Z" fill="#3B2B29"/>
<path d="M5.06079 25.7024L5.13291 25.6235C5.19971 25.6328 5.26213 25.6903 5.31906 25.7263C5.40054 25.7779 5.48591 25.8249 5.57268 25.867C5.88428 26.0181 6.19687 26.1197 6.53173 26.2047L6.17219 26.677C6.0963 26.6344 6.0155 26.6029 5.94006 26.5581C5.70146 26.4163 5.47008 26.2326 5.2918 26.0184C5.20876 25.9186 5.14149 25.8048 5.06079 25.7024Z" fill="#E3967C"/>
<path d="M17.7574 7.9834C17.9585 8.08166 18.0867 8.25421 18.1634 8.46074C18.3282 8.90403 18.2599 9.37768 18.0718 9.79904C18.0337 9.56589 17.9943 9.33238 17.9293 9.10493C17.8459 8.81289 17.7256 8.52526 17.6051 8.24675L17.7574 7.9834Z" fill="#EBBE9B"/>
<path d="M12.4094 18.5652L12.4356 18.5672L12.4582 18.5958C12.5762 19.3324 12.3086 19.9677 11.9363 20.5826C11.9134 20.6032 11.9265 20.5958 11.897 20.605L12.04 19.3414C12.0512 19.248 12.0475 19.0812 12.0853 18.9982C12.1442 18.8691 12.3048 18.6577 12.4094 18.5652Z" fill="#E3967C"/>
<path d="M9.72522 13.6758L11.4095 14.1981C11.3674 14.2921 11.3317 14.3622 11.259 14.437C11.1768 14.488 11.096 14.5292 10.9999 14.5472C10.6953 14.6044 10.2493 14.4721 10.0002 14.2903C9.84366 14.1761 9.75699 13.8597 9.72522 13.6758Z" fill="#EBBE9B"/>
<path d="M11.9154 14.2805C12.0274 14.2846 12.1393 14.3064 12.25 14.3236C12.5892 15.3968 12.668 16.5952 12.4039 17.6931C12.3481 17.9253 12.2933 18.1463 12.1974 18.3656L12.1411 18.5258C12.1397 18.4158 12.1788 18.2845 12.199 18.1755L12.2747 17.6419C12.3849 16.5073 12.3429 15.35 11.9154 14.2805Z" fill="#4F8753"/>
<path d="M9.33587 18.5759L9.36133 18.5963C9.4557 18.6727 9.54721 18.7241 9.65697 18.776C9.00131 19.5078 8.18711 20.0822 7.21321 20.289L7.06019 20.2874C7.00227 20.2846 6.9407 20.257 6.90466 20.2098C6.87879 20.1758 6.86773 20.1506 6.87475 20.108C7.62334 19.9103 8.2774 19.6346 8.82513 19.0696C8.88501 19.0079 8.94557 18.9438 8.99823 18.8757C9.03603 18.8268 9.08025 18.7322 9.13477 18.7037C9.20519 18.6668 9.26972 18.6201 9.33587 18.5759Z" fill="#4F8753"/>
<path d="M12.3412 20.1731C12.6116 20.4524 12.8631 20.7198 13.0113 21.0867C13.0847 21.2684 13.1334 21.457 13.1542 21.6519C13.1598 21.7038 13.1723 21.7678 13.1518 21.8167C13.0951 21.6553 12.9039 21.5781 12.746 21.5567C12.7328 21.5549 12.59 21.5387 12.5899 21.5385C12.5732 21.5173 12.5582 21.4115 12.548 21.3796C12.4989 21.2265 12.4165 21.0657 12.3036 20.9499C12.2454 20.8903 12.1934 20.8532 12.1104 20.8499L12.0916 20.888C12.1137 20.9481 12.1649 20.9968 12.204 21.047C12.3434 21.2258 12.4724 21.5099 12.4372 21.7399C12.4141 21.8906 12.3427 21.9604 12.2269 22.0465C12.051 22.0534 11.9588 22.0376 11.8005 21.9606L11.8508 21.1299C11.8571 21.0496 11.8564 20.8948 11.8877 20.8256C11.9146 20.7661 12.0253 20.6766 12.0699 20.6163C12.1741 20.4753 12.2594 20.3279 12.3412 20.1731Z" fill="#EBBE9B"/>
<path d="M12.3296 14.3215L12.8381 14.3265L12.9753 14.6817C13.1586 15.2265 13.2389 15.8227 13.1402 16.3926C13.0905 16.6794 12.9911 16.9644 12.8806 17.2334C12.7949 17.4422 12.6832 17.6451 12.5829 17.8476L12.4006 18.1654C12.4575 17.9421 12.5401 17.7307 12.5898 17.5035C12.7743 16.6605 12.7447 15.7356 12.5231 14.9024C12.4706 14.7048 12.3904 14.5168 12.3296 14.3215Z" fill="#4F8753"/>
<path d="M0.757412 30.687C0.803593 30.7024 0.902262 30.8825 0.937321 30.9286C1.07102 31.1044 1.23577 31.2712 1.4032 31.4153C1.98934 31.9197 2.68192 32.3552 3.41214 32.6161C4.22648 32.9072 5.07662 33.0176 5.93694 32.9405C6.38867 32.9 6.83306 32.8105 7.24519 32.6167L7.26415 32.6282L7.26303 32.6839C7.25584 32.7541 7.18548 32.7996 7.13544 32.8411C6.47592 33.1845 5.61489 33.2364 4.88464 33.1841C4.32477 33.1441 3.71252 33.0259 3.183 32.8334C2.90283 32.7315 2.6393 32.5978 2.37805 32.4556C1.74237 32.1096 1.0939 31.6543 0.61792 31.105C0.632059 30.948 0.678342 30.8224 0.757412 30.687Z" fill="#A69152"/>
<path d="M2.90346 27.3581C3.04431 27.3494 3.1618 27.3701 3.29112 27.4247C3.21978 27.5045 3.13745 27.6206 3.04797 27.6768C3.02244 27.6475 3.00918 27.6343 2.97168 27.6227L2.9293 27.6583C2.91231 27.7319 2.92655 27.7953 2.95022 27.8663C3.05133 28.1693 3.32109 28.4078 3.59967 28.5484C3.82969 28.6645 4.13526 28.743 4.38729 28.6595C4.45883 28.5421 4.68394 28.4453 4.80265 28.3706L4.82808 28.3801C4.84228 28.441 4.84561 28.5036 4.83628 28.5657C4.81102 28.7343 4.67227 28.9007 4.53478 28.9936C4.33779 29.1267 4.01092 29.1332 3.78395 29.0824C3.40674 28.9978 3.00786 28.7521 2.80147 28.4196L2.70891 28.243L2.69361 28.2147C2.68449 28.2329 2.68568 28.224 2.68856 28.2443C2.72786 28.5208 2.93215 28.7527 3.15095 28.9114C3.50626 29.169 3.89228 29.2476 4.32097 29.1825L4.26234 29.4578C4.24346 29.5184 4.22871 29.5751 4.16689 29.6016C4.08864 29.6351 3.97881 29.6288 3.89483 29.6233C3.63446 29.6061 3.367 29.537 3.12969 29.4275C2.74135 29.2483 2.45382 28.9767 2.30508 28.5717C2.21621 28.3298 2.25523 28.1584 2.44409 27.9744C2.4762 27.9431 2.5255 27.9168 2.55354 27.8842C2.56392 27.8721 2.57504 27.8227 2.58084 27.8063C2.6083 27.729 2.63519 27.6502 2.67093 27.5762C2.72759 27.4589 2.78031 27.4013 2.90346 27.3581Z" fill="white"/>
<path d="M14.9982 28.3104C15.0289 28.3048 15.0594 28.3042 15.0904 28.3033C15.2073 28.3002 15.3631 28.3073 15.4486 28.3978C15.5222 28.4756 15.5262 28.5928 15.5253 28.6944C15.5248 28.7475 15.5136 28.9097 15.484 28.9523C15.4824 28.9546 15.378 28.977 15.3678 28.9795C15.2368 29.0112 15.1123 29.0561 14.9885 29.1091C14.6521 29.2532 14.3089 29.4657 14.0527 29.7276C14.4265 29.4892 15.1647 29.0346 15.6241 29.1024C15.71 29.1151 15.7913 29.1952 15.839 29.2628C15.9193 29.3765 15.9003 29.4481 15.8803 29.5781C15.6246 29.5706 15.4496 29.5822 15.2075 29.6695C14.9363 29.7663 14.6711 29.9084 14.4414 30.0823C14.2763 30.2072 13.9797 30.4437 13.9528 30.6639L13.9513 30.6784L13.9316 30.6928C13.8221 30.6108 13.7013 30.5079 13.6658 30.3707C13.6267 30.2197 13.6881 30.1294 13.7642 30.0054C13.6782 29.9766 13.5823 29.9497 13.5078 29.8972C13.4452 29.8531 13.3527 29.7704 13.3413 29.6894C13.3191 29.5308 13.44 29.3623 13.5306 29.2399C13.8736 28.7768 14.4244 28.3979 14.9982 28.3104Z" fill="white"/>
<path d="M2.18388 17.7019L2.19036 17.7143C2.25163 17.8231 2.34711 17.9259 2.42968 18.0193C2.79004 18.4271 3.24893 18.7467 3.77747 18.8872C3.52459 19.5202 3.21533 20.2768 3.3731 20.9701L3.38015 21.0003L3.45705 21.2588C3.07702 20.9974 2.70903 20.63 2.48389 20.2271C2.04989 19.4503 1.94132 18.5602 2.18388 17.7019Z" fill="#32493D"/>
<path d="M7.56439 13.1039C8.09629 13.047 8.71278 13.2263 9.13224 13.5578C9.36752 13.7437 9.56733 14.0008 9.72781 14.2523C10.0542 14.7636 10.2732 15.3262 10.344 15.9327C10.0102 15.7849 9.67115 15.7054 9.31839 15.8398C9.29038 15.8585 9.30672 15.8528 9.2682 15.8528L9.09246 15.1904C8.8523 14.5266 8.35404 13.8599 7.70246 13.5559C7.2928 13.3648 6.85971 13.3522 6.43872 13.5055C6.75734 13.2777 7.17887 13.1526 7.56439 13.1039Z" fill="#4F8753"/>
<path d="M2.63609 16.2148C2.82376 16.5726 3.22315 16.8959 3.58093 17.0714C3.99839 17.2762 4.37689 17.3001 4.81686 17.1546C4.76919 17.227 4.72203 17.2904 4.72566 17.3786C4.81988 17.5513 4.97962 17.659 5.13637 17.7703C4.91353 17.9824 4.80357 18.3116 4.63733 18.5679C4.60023 18.6113 4.55385 18.6508 4.5056 18.6816C4.32193 18.7985 4.0343 18.8187 3.82567 18.7695L3.79356 18.7616C3.63945 18.7247 3.49982 18.6706 3.35871 18.5984C2.99 18.4097 2.65772 18.1107 2.40325 17.7874C2.3277 17.6913 2.23795 17.578 2.20262 17.4599C2.18482 17.4005 2.21496 17.3223 2.22819 17.2623C2.31021 16.8898 2.4577 16.5497 2.63609 16.2148Z" fill="#4F8753"/>
<path d="M5.06089 25.7024C5.14158 25.8048 5.20886 25.9186 5.29189 26.0184C5.47018 26.2326 5.70155 26.4163 5.94016 26.5581C6.0156 26.603 6.0964 26.6344 6.17228 26.677C5.74296 27.257 5.251 27.7915 4.6637 28.2146C4.50594 28.3283 4.33484 28.4152 4.17694 28.5253L4.16358 28.5347L3.95475 28.5097C3.57201 28.4294 3.26532 28.172 3.05554 27.8512C3.30686 27.6663 3.53251 27.4202 3.74514 27.1929L5.06089 25.7024Z" fill="#EBBE9B"/>
<path d="M6.92863 13.5115C7.26088 13.523 7.52665 13.6105 7.8116 13.7783C7.58747 13.917 7.38909 14.1366 7.20599 14.3247C6.69108 14.8536 6.21008 15.4282 5.74475 16.0013L4.96442 16.9562C4.77122 17.0951 4.50189 17.1339 4.27075 17.1547C4.27601 16.9845 4.32287 16.7964 4.36813 16.6322C4.55604 15.9509 4.93607 15.3428 5.34766 14.776L6.01047 13.9226C6.08347 13.8374 6.16966 13.7405 6.26423 13.679C6.46323 13.5498 6.69868 13.5289 6.92863 13.5115Z" fill="#32493D"/>
<path d="M20.7029 30.3795L20.8656 30.364C20.939 30.4703 20.979 30.6209 21.0108 30.7455C20.5981 31.179 16.1589 33.4177 15.6017 33.5038C15.5508 33.5116 15.498 33.5197 15.456 33.4889C15.5211 33.4244 15.6197 33.3875 15.7018 33.347L16.1896 33.1084C16.2776 33.0648 16.5297 32.9701 16.5623 32.8738L16.5256 32.8132L16.4881 32.775C16.3888 32.7545 16.2175 32.8675 16.125 32.9148L15.2539 33.3929L15.0233 33.0021C15.1383 32.9339 15.2839 32.896 15.407 32.8388C15.6563 32.7228 15.8986 32.589 16.1375 32.4531C17.6017 31.6201 18.9808 30.5939 20.7029 30.3795Z" fill="#A69152"/>
<path d="M4.58166 18.7686L4.61258 18.7717C4.58085 19.0057 4.56332 19.2796 4.62333 19.5088L4.63194 19.5399C4.68711 19.745 4.78263 19.9206 4.95413 20.0511C5.36294 20.3622 5.9655 20.2725 6.43646 20.2007L5.89622 21.1288C5.81692 21.2687 5.63704 21.5139 5.63674 21.6696C5.6366 21.7502 5.7231 21.8163 5.77728 21.8687C5.71231 21.895 5.6388 21.8995 5.5697 21.9088C5.31754 21.948 5.04045 21.9376 4.78971 21.8889C4.4442 21.8218 4.1151 21.663 3.81232 21.4882C3.75457 21.4549 3.6317 21.3935 3.60274 21.3348C3.50763 21.1419 3.47834 20.9015 3.47634 20.6888C3.47155 20.1835 3.5904 19.6966 3.75383 19.2215L3.85812 18.9556C3.8623 18.9458 3.87915 18.8993 3.88433 18.8943C3.88508 18.8937 3.96785 18.8952 3.9748 18.8952C4.17732 18.8961 4.37591 18.8707 4.55874 18.78L4.58166 18.7686Z" fill="#32493D"/>
<path d="M5.13476 30.7525C5.45372 30.7113 5.84806 30.7648 6.152 30.8674C6.55861 31.0046 6.913 31.2531 7.1062 31.6453C7.19853 31.8328 7.24112 32.0335 7.24196 32.242C7.24217 32.2977 7.24729 32.352 7.22928 32.4051C6.66294 32.697 5.98477 32.7571 5.35753 32.765C4.61267 32.7641 3.90368 32.6347 3.20581 32.3726C3.30682 32.0825 3.434 31.8015 3.63022 31.5622C3.99546 31.1167 4.56272 30.8127 5.13476 30.7525Z" fill="#C38439"/>
<path d="M7.04454 12.579C7.25174 12.5681 7.45352 12.5632 7.66086 12.5787C7.68514 12.5805 7.75139 12.5779 7.772 12.5875C7.80364 12.6023 7.85131 12.6557 7.87932 12.6797L8.18211 12.9327L8.14274 12.9294C7.46701 12.8737 6.81546 12.9873 6.28777 13.4391C6.00109 13.6846 5.77639 13.9872 5.54511 14.2829C4.89251 15.1174 4.21699 16.0592 4.13385 17.1501L3.93041 17.0802C3.38763 16.8921 3.06311 16.5594 2.70776 16.1276C2.73011 16.0456 2.81467 15.9412 2.86184 15.8678C3.12885 15.452 3.42713 15.0429 3.74762 14.6662C4.07488 14.2816 4.41537 13.9156 4.78814 13.5743C4.98921 13.3902 5.19248 13.2081 5.42752 13.0675C5.92402 12.7708 6.47192 12.6254 7.04454 12.579Z" fill="#4F8753"/>
<path d="M12.2308 24.5186C12.5054 24.8465 12.8311 25.1331 13.1157 25.4531C13.8468 26.2747 14.4681 27.1984 14.9635 28.1796C14.512 28.2789 14.1711 28.4463 13.8218 28.751L13.6383 28.9124C13.5488 28.8525 13.1918 28.1953 13.1171 28.068L12.524 27.0903L11.9841 26.2898C11.76 25.961 11.5336 25.6298 11.2543 25.3446C11.4924 24.9497 11.8209 24.7121 12.2308 24.5186Z" fill="#EBBE9B"/>
<path d="M2.17927 28.6011C2.26363 28.7382 2.31022 28.8824 2.41336 29.0112C2.80071 29.495 3.39161 29.6449 3.97911 29.7102C3.83321 29.7375 3.68897 29.7638 3.54988 29.8173C3.40486 29.873 3.22346 29.9554 3.16324 30.109C3.14049 30.1671 3.14968 30.199 3.17321 30.2548C3.31342 30.3655 3.59844 30.3019 3.76739 30.2841C3.90231 30.2699 4.1955 30.2266 4.30231 30.313C4.30763 30.3597 4.31804 30.3861 4.29753 30.4299C4.13532 30.4567 3.98406 30.4675 3.82622 30.5204C3.70792 30.56 3.58474 30.6463 3.46312 30.6643C3.38927 30.5974 3.39544 30.5044 3.39049 30.4085L3.37435 30.4158C3.36089 30.4557 3.34983 30.4951 3.34549 30.5371C3.33878 30.6018 3.3439 30.6525 3.38445 30.704C3.55694 30.801 3.80401 30.6311 3.98419 30.5897C4.25433 30.5276 4.50222 30.544 4.73987 30.6922L4.29776 30.8775C3.72545 31.1689 3.30589 31.7145 3.09445 32.3118L3.07407 32.3131C2.2579 31.9152 1.39992 31.4168 0.89563 30.6351C1.06082 30.0361 1.27589 29.333 1.74628 28.8991C1.87757 28.778 2.02608 28.6908 2.17927 28.6011Z" fill="#C97039"/>
<path d="M9.56753 15.8974C9.81424 15.8795 10.0663 15.94 10.2843 16.0562C10.5138 16.1786 10.6939 16.3543 10.7673 16.6096L10.7758 16.6404C10.812 16.765 10.8068 16.8837 10.8052 17.0124L10.6901 16.8343C10.5019 16.5849 10.1552 16.3922 9.84615 16.3492L9.81295 16.3813L9.82139 16.4123C9.95454 16.4536 10.087 16.4894 10.2101 16.5569C10.4322 16.6787 10.6707 16.8759 10.7345 17.1329C10.7842 17.3336 10.7394 17.5236 10.639 17.7004L10.548 17.5652C10.3503 17.2941 10.0221 17.0649 9.68468 17.0178C9.6603 17.0144 9.65912 17.0225 9.6403 17.0365L9.6463 17.0692L9.92291 17.1649C10.2417 17.3047 10.4686 17.5291 10.5964 17.8536C10.5733 18.0159 10.5069 18.1327 10.4011 18.2537C10.2314 18 10.0386 17.7945 9.74253 17.6941C9.67898 17.6725 9.61334 17.6544 9.552 17.6838C9.56133 17.7337 9.61409 17.7316 9.6599 17.7471C9.82953 17.8043 9.99483 17.9007 10.1228 18.0264C10.2063 18.1085 10.3196 18.2377 10.3132 18.3611C10.3088 18.4468 10.2327 18.5235 10.1683 18.5719C10.071 18.6449 9.92844 18.6965 9.80624 18.6756C9.6365 18.6465 9.48999 18.5413 9.39068 18.4045L9.37633 18.3843L9.27821 18.4571C9.18547 18.5265 9.08735 18.5902 8.96979 18.6068C8.8796 18.6196 8.78493 18.6065 8.69332 18.6143L8.68175 18.6502L8.70413 18.69C8.76455 18.7325 8.83742 18.7302 8.90893 18.7367L8.517 19.1196C8.02746 19.5461 7.42049 19.7807 6.80024 19.943C6.40312 20.047 5.9744 20.1229 5.56271 20.0852C5.42467 20.0726 5.27518 20.0426 5.15613 19.9686C4.96581 19.8502 4.84487 19.6652 4.80032 19.4465C4.68771 18.8936 4.93974 18.2949 5.24327 17.8438C5.3651 17.9161 5.48604 17.9966 5.61286 18.0595C5.76415 18.1347 5.92721 18.1921 6.08457 18.2534L5.96399 18.5654C5.94657 18.6179 5.91391 18.8008 5.88492 18.8333C5.88347 18.8349 5.84878 18.8363 5.84515 18.8363C5.77568 18.836 5.68735 18.8042 5.62476 18.8403L5.62313 18.8706L5.64734 18.8854C5.88401 19.0239 6.25539 18.9397 6.50423 18.8741C6.84984 18.7828 7.18026 18.6521 7.4981 18.4888C7.73613 18.3665 7.95974 18.2364 8.15081 18.0464C8.36137 17.8369 8.51256 17.5788 8.61679 17.302C8.73414 16.9904 8.79731 16.6467 8.96783 16.3583C9.11081 16.1165 9.29669 15.9669 9.56753 15.8974Z" fill="#EBBE9B"/>
<path d="M7.89863 13.8735C8.41988 14.2729 8.79278 14.8029 8.9931 15.43C9.03796 15.5704 9.07868 15.7165 9.10689 15.8612C9.111 15.8821 9.12534 15.9457 9.11873 15.9627C9.10506 15.9975 9.0105 16.0724 8.98134 16.1054C8.90912 16.1873 8.85429 16.2883 8.80685 16.3862C8.62878 16.7536 8.55682 17.1641 8.36746 17.5294C8.10156 18.0423 7.6054 18.3646 7.06432 18.5377C7.14261 18.3827 7.19642 18.2148 7.28305 18.0645C7.40793 17.8477 7.56163 17.6443 7.69237 17.4303C8.07901 16.7973 8.50061 15.9406 8.40441 15.1774L8.40052 15.1492C8.38807 15.0548 8.35745 14.9686 8.32673 14.879C8.33769 15.058 8.34867 15.2258 8.34335 15.4055C8.26858 16.2486 7.85496 16.9449 7.37416 17.6184C7.2602 17.778 7.14763 17.9633 7.01081 18.1036C6.94463 18.1715 6.86871 18.1816 6.77794 18.1837C6.14026 18.1985 5.36203 17.7684 4.91382 17.3379C5.09122 17.0541 5.33463 16.7935 5.54503 16.5318L7.20123 14.583C7.42244 14.3422 7.64392 14.0783 7.89863 13.8735Z" fill="#C97039"/>
<path d="M19.0082 29.3795C19.2246 29.3621 19.4479 29.3623 19.6614 29.4048C20.1746 29.5071 20.4645 29.791 20.7494 30.2119C19.9993 30.2304 19.2767 30.4978 18.6075 30.8234C17.8024 31.2152 17.0667 31.6916 16.3016 32.1515L14.9483 32.8932L14.5333 32.0261C14.4134 31.757 14.3203 31.4683 14.2231 31.1898C14.1614 31.0128 14.0814 30.822 14.0474 30.6383C14.1992 30.4334 14.3767 30.2705 14.5845 30.1222C14.9232 29.8804 15.3966 29.5967 15.8305 29.6689C15.8441 29.6805 15.8621 29.6883 15.8715 29.7036C15.8814 29.7198 15.8801 29.8133 15.8822 29.8364C15.8903 29.9274 15.9013 30.0156 15.9362 30.101C15.9685 30.1801 16.0223 30.2533 16.1048 30.2843C16.3211 30.3654 16.735 30.13 16.9314 30.0418L17.4104 29.8359C17.5259 29.9368 17.5841 30.064 17.6517 30.1989C17.7752 30.4454 17.8802 30.7221 18.0424 30.946C17.9605 30.5323 17.7949 30.1581 17.5522 29.8142C18.0278 29.6124 18.493 29.4428 19.0082 29.3795Z" fill="#C97039"/>
<path d="M6.08939 22.092C6.43574 22.3577 6.8037 22.5886 7.2001 22.7727C8.06222 23.1731 9.10664 23.3501 10.0474 23.1783C10.3462 23.1237 10.6358 23.0266 10.9201 22.9218L10.958 22.9561C11.4994 23.4501 12.1623 23.8 12.7162 24.2839C12.357 24.342 12.0199 24.4256 11.7203 24.6417C11.2774 24.9614 10.8969 25.5009 10.8105 26.0454L9.18114 24.212L9.70832 23.9712C9.97971 23.8322 10.3592 23.6607 10.5725 23.4408C10.3565 23.5245 10.1501 23.636 9.93882 23.7314C9.49254 23.933 9.04849 24.1142 8.578 24.2527C8.27861 24.3408 7.96785 24.4163 7.65988 24.4675C7.47481 24.4982 7.28328 24.505 7.10164 24.5508C7.42629 24.6315 7.82341 24.5576 8.14942 24.5058L7.46434 26.0683C6.41594 26.0746 5.44177 25.709 4.65564 25.0184L5.60638 23.2892C5.79691 22.8993 5.94762 22.5016 6.08939 22.092Z" fill="#747074"/>
<path d="M11.4826 14.1985L11.7883 14.2719C11.8756 14.4505 11.9254 14.6724 11.9675 14.8668C12.0483 15.2388 12.1003 15.609 12.1359 15.9874C12.1733 16.3844 12.1759 16.7989 12.1472 17.1967C12.1009 17.8372 11.9931 18.4695 11.9099 19.1054L11.6875 21.1581L11.6321 21.9001C11.6262 21.9887 11.6336 22.0947 11.6142 22.1794C11.6069 22.2117 11.5751 22.2427 11.5542 22.2673C11.4281 22.4164 11.2356 22.5271 11.0634 22.6149C10.6018 22.8502 10.0839 23.0036 9.56625 23.0432C8.16837 23.1499 6.86764 22.5617 5.8186 21.6725C5.93975 21.3396 6.13238 21.0394 6.31262 20.7359L6.52647 20.3621C6.57228 20.2817 6.61334 20.1897 6.69642 20.1426C6.7899 20.1853 6.81088 20.3183 6.9146 20.3711C7.02592 20.4279 7.16626 20.4144 7.28653 20.4009C7.49244 20.3778 7.69755 20.309 7.88973 20.2337C8.4318 20.0214 8.92256 19.6844 9.34595 19.287C9.45836 19.1815 9.56537 19.069 9.65756 18.9452C9.67865 18.9169 9.7407 18.8075 9.76613 18.7936C9.77423 18.7892 9.83747 18.7945 9.8495 18.7945C9.91579 18.7944 9.97516 18.7919 10.0388 18.7706C10.1276 18.7409 10.2153 18.7017 10.2868 18.6401C10.3527 18.5833 10.3709 18.5298 10.4178 18.4638C10.5191 18.3213 10.6314 18.2236 10.7102 18.0615C10.9454 17.5771 11.1093 16.7913 10.8028 16.3084C10.7554 16.2336 10.6956 16.1699 10.6281 16.1129C10.6039 16.0925 10.518 16.0375 10.5058 16.0129C10.4841 15.9691 10.4994 15.7755 10.4897 15.7112C10.4551 15.4813 10.3899 15.258 10.3127 15.0393L10.4776 15.1089C10.7416 15.2097 11.0298 15.2575 11.2955 15.1311C11.4652 15.0504 11.5738 14.9099 11.6329 14.7345C11.6534 14.6737 11.6959 14.5331 11.667 14.4759C11.6097 14.5103 11.5822 14.5888 11.5497 14.6478C11.4625 14.8058 11.3491 14.9472 11.1804 15.0223C10.9633 15.1189 10.6819 15.0689 10.4683 14.9851C10.4192 14.9658 10.3169 14.933 10.2788 14.8995C10.2533 14.8773 10.2352 14.8188 10.2219 14.788L10.0851 14.4727C10.2536 14.5566 10.4432 14.6278 10.6283 14.6635C10.8535 14.707 11.1115 14.7176 11.3071 14.5783C11.4436 14.4811 11.4593 14.3505 11.4826 14.1985Z" fill="#C97039"/>
<path d="M13.2207 0.186319L13.332 0.181786C13.9584 0.162147 14.6358 0.188045 15.2391 0.373501C15.4156 0.427776 15.6041 0.494178 15.7383 0.62652C15.7916 0.679007 15.8545 0.751612 15.8468 0.832106C15.827 1.03778 15.0755 1.52281 14.8856 1.63559C14.8263 1.6708 14.7615 1.69329 14.7038 1.73134C14.9585 1.69562 15.1451 1.57685 15.3725 1.4682C16.2586 1.77931 17.1568 2.11083 17.9107 2.68701C18.1618 2.87892 18.3971 3.09023 18.5742 3.3546C18.6381 3.44994 18.7373 3.6308 18.6982 3.74595C18.6722 3.82288 18.5825 3.87805 18.5138 3.91101C18.4239 3.95414 18.3253 3.9596 18.2274 3.96048C17.7985 3.96427 17.3747 3.75666 16.9781 3.61446C17.2216 3.86683 17.5102 4.10546 17.7199 4.38516C17.8967 4.62098 18.0106 4.89098 18.0839 5.17522C18.3566 6.23304 18.0439 7.155 17.5137 8.06726C17.2706 7.40113 17.1905 6.66271 17.1247 5.9605C17.1143 5.84935 17.0792 5.69264 17.0986 5.58522C17.3245 5.62082 17.5286 5.62557 17.7566 5.61336C17.6616 5.58698 17.5562 5.58661 17.4582 5.57071L16.7927 5.42949C15.9382 5.2095 15.0924 4.83585 14.3061 4.43965L14.1152 4.3441C14.0904 4.33291 14.0415 4.32046 14.0209 4.3048C13.9601 4.25869 13.8916 4.12208 13.8404 4.05518C13.6381 3.79047 13.3643 3.47588 13.0754 3.30862C13.1571 3.49748 13.3561 3.65291 13.4929 3.80986C13.5977 3.93016 13.6951 4.06203 13.7819 4.19589C13.9906 4.51777 14.2525 5.0697 14.1529 5.46227C14.139 5.51717 14.0948 5.61889 14.0433 5.64591L14.0126 5.66036C13.9355 5.69945 13.8673 5.72481 13.7801 5.73638C13.4825 5.77584 13.1849 5.68691 12.9091 5.58471C12.2222 5.33017 11.6104 4.93119 11.0255 4.49749L11.0309 4.47708C11.0862 4.47304 11.1325 4.46233 11.1855 4.44619C11.2138 4.41127 11.2154 4.40981 11.2174 4.36505C11.2068 4.34478 11.2042 4.31741 11.1855 4.30426C11.12 4.25814 10.8958 4.3563 10.7956 4.32141L10.57 4.17046C10.387 4.06393 10.0701 3.91243 9.8509 3.97451C9.80845 3.98655 9.79929 3.98658 9.77837 4.02466C10.1184 4.07844 10.3576 4.19016 10.6355 4.3895C10.4827 4.45867 10.3245 4.51733 10.1762 4.59599C10.0058 4.68645 9.85375 4.80343 9.70859 4.92943C9.60385 4.86128 9.49708 4.79414 9.38621 4.73643C9.32487 4.70449 9.013 4.57144 8.98936 4.53859C8.97156 4.51383 8.96359 4.37848 8.95688 4.34145C8.92911 4.18853 8.89507 4.00567 8.81268 3.87388C8.90229 4.30002 8.92874 4.72667 8.84139 5.15606C8.71343 5.78507 8.3551 6.4176 7.97657 6.92816C7.76638 7.21166 7.53531 7.48664 7.23869 7.68218C7.11259 7.51729 6.97947 7.37553 6.81672 7.24621L7.0304 7.56263C7.44094 8.15779 7.78384 9.01475 7.64235 9.74639C7.59383 9.99743 7.46295 10.1297 7.25761 10.2681C7.08655 9.72601 6.84154 9.191 6.42595 8.79208C6.21918 8.59363 5.9282 8.47746 5.64175 8.4876C5.23745 8.50194 4.90774 8.69579 4.64001 8.98583C4.42338 8.41996 4.29677 7.7978 4.25632 7.19379C4.20543 6.43411 4.30623 5.61706 4.64483 4.92845C4.84437 4.52258 5.12257 4.15951 5.42031 3.82119C6.29707 2.82495 7.40741 2.04708 8.58689 1.45177C9.4626 1.00979 10.3921 0.656117 11.3499 0.438897C11.9649 0.299415 12.5921 0.22659 13.2207 0.186319Z" fill="#3B2B29"/>
<path d="M15.1334 3.94634C15.3828 3.92623 15.5497 3.98787 15.753 4.12988C15.8945 4.22871 16.1755 4.45226 16.2064 4.6317L16.1585 4.59331C15.9149 4.34203 15.644 4.13442 15.2942 4.05972C15.2034 4.04033 15.0758 4.04986 14.996 4.01073C15.0365 3.97577 15.0836 3.96428 15.1334 3.94634Z" fill="black"/>
<path d="M14.1198 4.46973C15.0094 4.93893 15.9615 5.3963 16.9589 5.57682C17.0074 6.24586 17.0655 6.93631 17.2244 7.58894C17.2899 7.85765 17.3681 8.13213 17.4598 8.39307C17.5315 8.59692 17.6217 8.7946 17.6857 9.00109C17.9097 9.72276 17.9474 10.4148 17.688 11.1311C17.2862 12.2405 16.2509 13.0561 15.2146 13.541C14.1427 14.0426 12.833 14.2654 11.6602 14.0634C11.0789 13.9633 10.5027 13.7722 9.9497 13.5702C9.65875 13.4639 9.37607 13.3363 9.09692 13.2024C8.52983 12.9304 7.97589 12.6063 7.56535 12.1181C7.3849 11.9035 7.25615 11.6733 7.13806 11.4207L6.95038 11.558C6.58416 11.7948 6.17205 11.9094 5.73978 11.8168L5.57394 11.757C5.12739 11.5754 4.78741 11.1583 4.6037 10.7224C4.42165 10.2903 4.41674 9.80953 4.59722 9.376C4.72725 9.06372 4.99912 8.81416 5.31316 8.6924C5.54949 8.60079 5.8083 8.60662 6.03958 8.71173C6.28056 8.82121 6.45019 9.01614 6.59731 9.2305C6.85426 9.60487 7.0266 10.021 7.18444 10.4441C7.4404 10.3105 7.61618 10.1423 7.70281 9.86439C7.91394 9.187 7.61753 8.40026 7.30783 7.80205L7.40731 7.72338C8.16404 7.10357 8.74144 6.09976 8.94118 5.14505C8.97577 4.97989 8.98604 4.80778 9.00272 4.63994L9.6284 5.02159C9.4488 5.23615 9.34474 5.40362 9.25841 5.66948C9.42279 5.4519 9.62033 5.27379 9.82255 5.0928C10.0555 5.23395 10.3566 5.40036 10.629 5.43664C10.7578 5.4538 10.8713 5.43183 10.9723 5.34713C11.1396 5.20693 11.1611 5.01281 11.1796 4.80968L12.4375 5.56169C12.8689 5.7673 13.4866 6.03605 13.9673 5.85282C14.0929 5.80494 14.2029 5.72512 14.2574 5.5996C14.4109 5.24582 14.2546 4.80235 14.1198 4.46973Z" fill="#EBBE9B"/>
<path d="M9.27135 9.86841L9.30631 9.8698C9.35184 9.90415 9.38731 9.93727 9.4243 9.98061L9.40114 10.021C9.37263 10.0282 9.34994 10.0269 9.32075 10.0262C9.27182 9.97966 9.25768 9.96877 9.23669 9.90231L9.27135 9.86841Z" fill="black"/>
<path d="M9.02688 9.95277L9.05598 9.9502L9.08781 9.9782L9.08819 10.063C9.05014 10.1276 9.04787 10.1242 8.98131 10.1473C8.95375 10.1416 8.93747 10.1307 8.9135 10.1165L8.9054 10.063C8.9374 10.0028 8.96758 9.98468 9.02688 9.95277Z" fill="black"/>
<path d="M5.45436 9.62622C5.53034 9.61828 5.61206 9.60991 5.68791 9.62039C5.96198 9.65829 6.20678 9.85241 6.36238 10.0738C6.49275 10.2593 6.62804 10.5208 6.64723 10.7494C6.65591 10.8528 6.63536 10.9563 6.61783 11.0578C6.58003 10.9771 6.59135 10.8412 6.57328 10.7486C6.5371 10.563 6.44393 10.3975 6.35235 10.2343L6.06024 10.2127C5.87307 10.2123 5.69832 10.268 5.54102 10.368C5.49444 10.3976 5.44965 10.4206 5.39882 10.442C5.44005 10.3873 5.48098 10.3368 5.53536 10.2945C5.76498 10.116 6.01358 10.0955 6.29202 10.1307C6.17362 9.97654 6.06051 9.83817 5.87989 9.75459C5.63284 9.64026 5.41259 9.6823 5.16785 9.76907C5.24932 9.69671 5.35227 9.65897 5.45436 9.62622Z" fill="black"/>
<path d="M14.1149 9.10052C14.2205 9.09309 14.3222 9.11099 14.4195 9.15202C14.5587 9.21075 14.6582 9.30379 14.7119 9.44687C14.7695 9.60017 14.7456 9.79591 14.6769 9.94127C14.6008 10.1021 14.4607 10.2476 14.2897 10.3051C14.2509 10.3182 14.252 10.3151 14.2151 10.2975C14.2151 10.2842 14.2102 10.2701 14.2151 10.2578C14.2223 10.2393 14.3036 10.1806 14.322 10.1639C14.4533 10.0454 14.5277 9.93354 14.5956 9.76994L14.6124 9.63902C14.615 9.53337 14.5863 9.42511 14.5089 9.34943C14.4119 9.25459 14.2832 9.22699 14.1522 9.23126C13.8498 9.24113 13.6234 9.48695 13.4325 9.69032C13.459 9.60464 13.4837 9.51408 13.5355 9.43979C13.679 9.23431 13.8759 9.14575 14.1149 9.10052Z" fill="black"/>
<path d="M11.1934 10.6632L11.2785 10.6516L11.2957 10.6651L11.1255 10.7569C11.4599 11.0255 11.9246 11.233 12.3272 11.3776C13.3483 11.7442 14.3575 11.6059 15.3241 11.1462C15.0226 11.415 14.6555 11.5388 14.2707 11.6378C14.1305 11.6688 13.9807 11.6729 13.8431 11.7073C13.8419 11.7076 13.8149 11.7166 13.811 11.7208C13.7746 11.7602 13.7426 11.8454 13.7142 11.8939C13.6612 11.9848 13.5977 12.0707 13.5289 12.1503C13.2438 12.4802 12.8602 12.6553 12.4291 12.6834C12.0294 12.7095 11.6152 12.5699 11.3149 12.3052C11.0537 12.0749 10.8158 11.6801 10.7991 11.3271C10.7871 11.0717 10.88 10.9212 11.047 10.7388L10.8024 10.7685C10.9326 10.7087 11.0519 10.6811 11.1934 10.6632Z" fill="black"/>
<path d="M11.0567 10.9024L11.101 10.8953C11.4498 11.1771 11.8937 11.3573 12.3071 11.5219L12.2216 11.7183L12.1687 11.7363C11.8138 11.7165 11.4774 11.5532 11.1916 11.3487C11.0955 11.28 11.0096 11.1976 10.9136 11.1276C10.9333 11.0482 11.0017 10.961 11.0567 10.9024Z" fill="white"/>
<path d="M10.8982 11.3263L10.9192 11.324C11.1256 11.4135 11.3188 11.5372 11.5233 11.6326C11.6668 11.6995 11.8369 11.7367 11.9731 11.8104C12.0324 11.8425 12.1092 11.9657 12.1495 12.0214C12.1529 12.0524 12.1564 12.0773 12.1684 12.1062C12.2279 12.0607 12.3318 11.9956 12.4067 11.9817C12.556 11.9539 12.7241 11.9904 12.8461 12.0798C12.9749 12.1743 13.0009 12.292 13.0272 12.4395C12.8587 12.5202 12.6828 12.5742 12.4957 12.588C12.0964 12.6175 11.698 12.5196 11.3913 12.2531C11.1227 12.0195 10.9234 11.6851 10.8982 11.3263Z" fill="#E3967C"/>
<path d="M15.3924 5.93177C15.6489 5.91827 15.8943 5.97896 16.109 6.1229C16.5378 6.41033 16.7428 6.93371 16.8432 7.41837C16.9514 7.94084 16.867 8.54292 16.5806 8.99602C16.3974 9.28585 16.1539 9.49085 15.8143 9.56813C15.5177 9.59966 15.263 9.5329 15.0207 9.35723C14.6233 9.06905 14.3894 8.52417 14.3174 8.05233C14.2313 7.48795 14.3113 6.8444 14.6599 6.37574C14.8469 6.12439 15.0816 5.97764 15.3924 5.93177Z" fill="black"/>
<path d="M15.3479 6.08146C15.5378 6.0585 15.7205 6.08119 15.8945 6.16283C16.285 6.34606 16.5262 6.7287 16.6665 7.12266C16.8584 7.66154 16.8551 8.3155 16.5989 8.83407C16.4393 9.15697 16.192 9.37434 15.8528 9.49193C15.6087 9.52601 15.4065 9.50407 15.1867 9.38279C14.8005 9.16975 14.5692 8.75341 14.456 8.34066C14.3076 7.79971 14.3641 7.11663 14.6513 6.62708C14.8128 6.35173 15.0372 6.16324 15.3479 6.08146Z" fill="white"/>
<path d="M14.8069 7.11645C14.8639 7.10971 14.9268 7.10428 14.983 7.11886C15.0798 7.14392 15.1658 7.23146 15.2163 7.3145C15.3483 7.53144 15.3709 7.81924 15.3141 8.06265C15.2723 8.24121 15.1951 8.34933 15.0403 8.44288C14.9841 8.45519 14.921 8.4618 14.8643 8.44834C14.7792 8.42813 14.7005 8.35361 14.6536 8.28274C14.5088 8.06377 14.4781 7.7224 14.5414 7.47156C14.5822 7.30986 14.663 7.19986 14.8069 7.11645Z" fill="black"/>
<path d="M10.728 6.01648C11.0347 6.00027 11.2873 6.04621 11.5482 6.21452C12.0512 6.53898 12.357 7.06019 12.4741 7.6404C12.598 8.25384 12.4906 8.96928 12.135 9.49097C11.8804 9.86462 11.5202 10.111 11.077 10.1961C10.7291 10.2316 10.4062 10.1492 10.1211 9.94603C9.66619 9.62191 9.38249 9.08741 9.29142 8.54382C9.18299 7.89647 9.30339 7.20026 9.69393 6.66328C9.95687 6.30177 10.2861 6.08707 10.728 6.01648Z" fill="black"/>
<path d="M10.8001 6.15314C11.0752 6.12886 11.334 6.21796 11.5616 6.36827C12.0175 6.66943 12.2903 7.12792 12.3998 7.65795C12.527 8.27373 12.4364 8.92877 12.0855 9.45728C11.8415 9.8249 11.4806 10.0602 11.0521 10.147C10.7222 10.1529 10.4543 10.09 10.1844 9.89437C9.75648 9.58439 9.49408 9.06474 9.4185 8.54912C9.32838 7.93432 9.41732 7.26487 9.79924 6.75705C10.0667 6.40143 10.3575 6.21308 10.8001 6.15314Z" fill="white"/>
<path d="M10.0899 7.31853L10.1115 7.31819C10.1632 7.31667 10.2202 7.3108 10.2711 7.32291C10.3873 7.35057 10.469 7.43988 10.5277 7.53859C10.6665 7.77207 10.6922 8.08872 10.6243 8.34791C10.5754 8.53453 10.4778 8.65473 10.3128 8.74933C10.2601 8.76238 10.187 8.76574 10.1347 8.75191C10.0151 8.7203 9.91223 8.60984 9.85804 8.50347C9.72394 8.23998 9.71838 7.90949 9.81709 7.63305C9.86832 7.48963 9.95024 7.38235 10.0899 7.31853Z" fill="black"/>
</svg>
