<svg width="112" height="112" viewBox="0 0 112 112" fill="none" xmlns="http://www.w3.org/2000/svg">
<path d="M78.1289 1.66333C78.4014 1.62306 78.6966 1.64171 78.9726 1.63881C80.156 6.69207 80.9481 11.9059 81.6536 17.0449L82.1376 20.8235L82.2587 21.839C82.2675 21.9109 82.2668 22.1091 82.2984 22.1642C82.3228 22.2067 83.0059 22.3129 83.096 22.3312L84.7656 22.747C85.8097 23.0308 86.7451 23.2485 87.2981 24.2832C87.4268 24.5241 87.504 24.7827 87.5586 25.0488C87.5807 25.1566 87.5891 25.3344 87.6297 25.4308C87.6498 25.4787 87.802 25.588 87.847 25.6285L88.5391 26.25C88.8396 26.5407 89.1327 26.8521 89.4008 27.1733C89.874 27.74 90.1774 28.3554 90.2674 29.0938C90.3517 29.7853 90.2165 30.5222 90.1293 31.2086L89.8896 33.3475L89.2101 40.2073C90.3744 40.0115 91.5283 39.6105 92.5893 39.0969C97.3978 36.7693 100.195 31.538 101.893 26.6995C101.531 26.5841 101.162 26.4949 100.817 26.3306C99.9819 25.9317 99.2235 25.102 99.0749 24.166C98.9537 23.4025 99.0949 22.666 98.4771 22.0668C98.2014 21.7995 97.8305 21.7476 97.4678 21.6895C96.6378 21.5566 95.9702 21.3748 95.457 20.6479C95.1911 20.2715 95.1121 19.7813 95.2037 19.3317C95.3143 18.79 95.6838 18.3103 96.1502 18.0212C97.1134 17.4243 98.2208 17.576 99.266 17.8044C99.2125 16.2731 99.1776 14.3083 100.181 13.0406C100.496 12.6429 100.986 12.36 101.494 12.3093C102.31 12.2277 102.818 12.6736 103.396 13.153C103.514 13.0239 103.635 12.8979 103.797 12.8242C104.349 12.5727 104.884 12.6503 105.427 12.8754C106.023 13.1222 106.418 13.5706 106.65 14.1654C106.685 14.2558 106.917 14.2797 107.021 14.3081C107.477 14.4324 107.893 14.6078 108.22 14.9615C108.862 15.6571 109.016 16.7769 108.983 17.6875C108.945 18.7663 108.613 19.9508 107.998 20.8481C107.842 21.0761 107.503 21.3713 107.396 21.6071C107.31 21.7981 107.313 22.2861 107.282 22.521C107.098 23.8825 106.727 25.1851 105.65 26.1216C105.215 26.4999 104.696 26.7519 104.142 26.9065C104.007 26.9443 103.384 26.983 103.326 27.0398C103.318 27.0482 103.291 27.2333 103.288 27.2506L103.104 28.2961C102.964 29.0498 102.782 29.8102 102.555 30.5426C101.359 34.4076 99.3839 38.0895 96.2138 40.6824C94.29 42.2557 91.9739 43.3029 89.5083 43.6456L88.8719 43.7129C88.8045 43.7187 88.7041 43.6714 88.6698 43.7295C88.652 43.7595 88.6506 43.9842 88.6469 44.0316L88.5619 44.9174L87.8703 51.5841L87.1392 57.9357L85.3954 73.8591L84.8244 78.9688C84.7119 80.0086 84.6936 81.1756 84.4088 82.1812C84.3632 82.3419 84.2772 82.4676 84.1493 82.5752C84.0009 82.7003 83.7704 82.7863 83.5785 82.8137C83.1587 82.8737 82.7 82.8398 82.2745 82.8413L79.5748 82.8118L71.5714 82.4249C71.5376 85.1029 71.8765 87.6722 72.427 90.2893C72.6203 91.2084 72.7963 92.1359 73.0636 93.0366C73.7358 93.0246 74.4273 93.06 75.062 93.2993C75.6364 93.516 76.1637 93.9394 76.4031 94.5155C76.596 94.9797 76.6532 95.6444 76.4583 96.1171C76.4199 96.21 76.6497 96.3355 76.734 96.4018C77.2924 96.8405 77.7983 97.3298 78.2881 97.8429C79.7299 99.3535 80.6505 101.087 81.341 103.045C81.7103 104.092 82.0039 105.195 82.0467 106.309C82.0657 106.805 82.041 107.3 81.8168 107.751C81.1911 109.012 79.727 109.726 78.4535 110.147C76.6073 110.756 74.5742 110.834 72.6523 110.64C71.4595 110.52 70.1794 110.273 69.1063 109.716C68.1412 109.215 67.7001 108.527 67.386 107.501C66.3679 104.175 67.2781 100.26 68.8755 97.2778C68.6455 97.0772 68.4696 96.8588 68.3735 96.5644C68.2298 96.1246 68.3186 95.5867 68.5271 95.1821C69.0128 94.2402 70.0005 93.7941 70.9614 93.502C70.6641 92.6469 70.5046 91.7313 70.3211 90.8457C69.7303 87.9962 69.3487 85.2298 69.3608 82.3128L58.2561 81.3634C58.5675 84.1038 59.1537 86.7559 60.1597 89.332C60.3295 89.7665 60.5024 90.3157 60.759 90.7051C60.8593 90.8575 61.1711 90.7266 61.3426 90.6992C61.9736 90.5987 62.5204 90.6573 63.1447 90.767C63.4007 90.845 63.6708 90.9522 63.9006 91.0906C64.4198 91.4032 64.8237 92.0233 64.829 92.6406C64.8304 92.8037 64.7568 93.0592 64.784 93.2065C64.8096 93.3453 65.1622 93.7657 65.2564 93.9099C65.865 94.842 66.2957 95.9172 66.5518 96.9984C66.7059 97.6487 67.1076 99.3394 66.7086 99.9206C66.4349 100.319 65.6511 100.645 65.2183 100.877C62.3231 102.432 59.2995 103.719 56.0712 104.394C53.4493 104.941 50.832 105.098 48.1788 104.663C47.3541 104.528 46.3938 104.325 45.6917 103.849C45.2604 103.556 44.8772 103.155 44.7852 102.624C44.5874 101.482 45.3087 100.171 45.9572 99.2703C48.4959 95.7451 52.7998 94.1658 56.9327 93.4712L57.0672 92.661C57.2949 91.836 57.8166 91.3577 58.5331 90.9481C57.9727 89.6292 57.444 88.3245 57.0604 86.9406C56.5294 85.0245 56.2747 83.0806 56.0453 81.1117L53.6651 80.8056L47.5234 79.7934C46.1929 79.5422 44.8712 79.3102 43.6032 78.8129C42.9434 78.5542 42.2825 77.9519 42.0801 77.2602C41.9204 76.7145 41.925 76.0728 41.8584 75.5054C41.8314 75.2763 41.8316 74.9772 41.7415 74.7706L38.2561 77.2989L30.9157 82.742C30.7507 82.8608 30.1438 83.3566 29.9721 83.3599C29.9196 83.3609 29.3835 82.8108 29.3159 82.7425L23.8456 77.2907L22.4125 75.8898C22.3471 75.8305 22.1337 75.5972 22.0606 75.5779C21.743 75.4941 21.3174 75.5598 20.9802 75.5085C20.4554 75.4286 19.9575 75.2307 19.471 75.0263C18.2896 74.5301 17.2373 73.8722 16.3274 72.9608C15.5121 72.1441 14.9138 71.0827 14.7084 69.9408C14.6443 69.5846 14.7184 69.1059 14.6251 68.7794C14.6056 68.7112 14.4917 68.5875 14.4447 68.5296C13.4951 67.3609 12.3599 66.2727 11.3259 65.1772L5.97505 59.456C5.17177 58.5904 4.22219 57.7531 3.52881 56.8031C3.54664 56.329 3.75986 55.7675 3.86657 55.2944L4.40781 52.9288C4.53237 52.3657 4.61978 51.7988 4.81254 51.2531C5.34705 50.9102 6.09531 50.7244 6.69616 50.4905L11.6949 48.5763L18.2316 46.0309L19.5309 45.5298C19.7848 45.4313 20.1004 45.2769 20.377 45.2723C20.4962 45.2702 20.6073 45.3273 20.6998 45.3982C21.0675 45.6804 21.4037 46.0604 21.7363 46.3851L23.7655 48.3713L31.6679 56.2261C32.461 55.7784 33.1926 55.1926 33.8847 54.6042C35.3177 53.3856 36.5429 52.0422 37.6624 50.5323C37.8214 50.3179 38.2237 49.8873 38.289 49.6432C38.3259 49.5055 38.194 49.0531 38.1673 48.8856L37.7006 45.8863L34.8484 28.6424L34.0229 23.9918C33.8754 23.1913 33.6547 22.3556 33.5868 21.5469C33.5474 21.0779 33.6552 20.6438 33.871 20.2255C34.3873 19.2248 35.3162 18.8381 36.3299 18.5032C36.3298 18.3046 36.2236 18.0801 36.1602 17.8919L35.7 16.5403L34.4145 12.4871C35.1298 12.1347 35.8999 11.8569 36.6372 11.5508L43.3957 9.03432C50.0419 6.82032 56.7881 5.10248 63.6663 3.77923C68.4564 2.8577 73.27 2.11288 78.1289 1.66333Z" fill="#020202"/>
<path d="M73.3507 94.199L73.4497 94.1824C73.6243 94.2513 73.6376 94.2637 73.7454 94.4177C73.7787 94.6024 73.7804 94.6846 73.6987 94.8552L73.582 94.9415L73.4727 94.9194C73.4528 94.6739 73.4016 94.4394 73.3507 94.199Z" fill="white"/>
<path d="M84.8031 47.5636C84.8288 46.753 84.9888 45.9118 85.069 45.1009C85.113 44.6573 85.0734 44.0044 85.2305 43.5986L85.5041 43.6041L85.3114 44.9017L85.0845 46.7852C85.0404 47.0559 85.0282 47.3804 84.8555 47.6029L84.8031 47.5636Z" fill="#75ABCF"/>
<path d="M106.585 15.3946C106.723 15.367 106.861 15.3714 106.997 15.4106C107.284 15.493 107.457 15.6975 107.588 15.9558C108.026 16.8198 107.902 18.2677 107.616 19.168C107.404 19.8357 107.041 20.6021 106.401 20.9399C106.163 21.0048 105.826 21.0384 105.585 20.9728C105.424 20.9292 105.302 20.8231 105.239 20.6682C105.077 20.2702 105.372 19.773 105.526 19.4115C105.852 18.6451 106.122 17.9058 106.3 17.0909C106.368 16.7824 106.416 16.4676 106.449 16.1536C106.476 15.8981 106.469 15.6279 106.585 15.3946Z" fill="white"/>
<path d="M61.9943 91.3513C62.5392 91.3753 63.0697 91.428 63.5195 91.7773C63.8024 91.9969 63.9941 92.3117 64.0303 92.668C63.9572 92.9377 63.8755 93.1318 63.6751 93.3319C62.7447 94.2605 60.7749 94.5179 59.5274 94.4929C59.0779 94.4838 58.302 94.4652 57.9816 94.1025C57.7188 93.8054 57.7938 93.298 57.8009 92.9317C57.8779 92.6123 57.9565 92.3273 58.1767 92.0707C58.3395 91.8808 58.614 91.6392 58.8711 91.6249C58.9809 91.7539 59.0912 92.0451 59.1075 92.2164C59.1187 92.3342 58.9062 92.5223 58.8258 92.6133C58.7921 92.7776 58.7967 92.7874 58.865 92.9414C59.3099 93.2552 59.7712 93.2561 60.2923 93.2416C61.041 93.221 62.0917 92.9992 62.5882 92.3945C62.6815 92.281 62.6913 92.2071 62.6792 92.0664C62.2623 91.5829 61.6862 92.0121 61.2411 91.8248C61.1753 91.6782 61.113 91.6209 61.1652 91.4649L61.9943 91.3513Z" fill="white"/>
<path d="M104.341 13.8633C104.655 13.7933 104.997 13.8336 105.269 14.0113C105.559 14.2011 105.682 14.5786 105.745 14.9019C106.054 16.4798 105.24 18.7199 104.372 20.0194L104.228 20.1524C104.044 20.2944 103.813 20.4265 103.571 20.389C103.451 20.3704 103.412 20.335 103.345 20.2352C103.234 20.0705 103.216 19.7982 103.233 19.6055C103.275 19.1423 103.423 18.6599 103.52 18.2043C103.622 17.7247 103.679 17.2174 103.717 16.7286C103.773 16.0209 103.613 15.1317 103.794 14.4584C103.871 14.175 104.095 13.9973 104.341 13.8633Z" fill="white"/>
<path d="M42.6238 70.9024L42.7464 70.8848C42.6905 71.2022 42.3141 71.9686 42.0688 72.1946C41.8448 72.401 41.4261 72.5644 41.1591 72.7376L39.3576 73.9909L30.9805 79.9127L30.8579 79.949L30.8621 79.8542C30.9128 79.5454 31.0679 79.1967 31.1599 78.8911C31.1902 78.7903 31.2271 78.5701 31.2794 78.4936C31.3552 78.383 31.6889 78.2135 31.8217 78.1227L33.9056 76.7153L42.6238 70.9024Z" fill="#F9D25C"/>
<path d="M23.9916 74.5574C24.3729 75.0947 24.9795 75.5913 25.4469 76.0642L28.773 79.405L29.6163 80.2264C29.7119 80.319 29.8732 80.4347 29.9379 80.5436C30.0144 80.6722 29.9628 80.8634 29.9487 81.0054L29.7682 82.4177L29.2732 81.9023L22.8528 75.4574C23.0493 75.3334 23.2734 75.2623 23.4646 75.128C23.6817 74.9754 23.8351 74.7673 23.9916 74.5574Z" fill="#E04C46"/>
<path d="M73.253 93.7616C73.5691 93.7214 73.9021 93.7521 74.216 93.8037C74.7613 93.8934 75.2874 94.1219 75.599 94.5967C75.7995 94.9024 75.9161 95.2321 75.8316 95.5991C75.7372 96.0091 75.4245 96.2787 75.0873 96.5001C73.8562 97.3086 71.9884 97.5763 70.564 97.2696C69.9589 97.1393 69.4896 96.9072 69.1477 96.3784L69.1315 96.3009C69.0456 95.8709 69.0979 95.5334 69.3553 95.1683C69.7547 94.6014 70.4569 94.3166 71.1214 94.1988C71.1951 94.3501 71.2506 94.4642 71.2595 94.6366C70.9474 94.6577 70.8018 94.7535 70.5665 94.9565C70.5576 95.039 70.5545 95.1069 70.5875 95.1854C70.7298 95.5237 71.0453 95.7502 71.3798 95.8701C72.0354 96.105 72.7809 96.0502 73.4074 95.7488C73.7515 95.5833 74.1353 95.3119 74.2449 94.9235C74.302 94.721 74.276 94.5255 74.1534 94.3533C73.9821 94.1128 73.7333 94.085 73.4632 94.042C73.3359 94.0218 73.3439 94.009 73.2539 93.9272L73.253 93.7616Z" fill="white"/>
<path d="M41.717 73.0818C41.5968 73.4355 41.5528 73.7827 41.5115 74.1516L30.2336 82.5509L30.1636 82.5067C30.1393 82.0242 30.2974 81.4409 30.4096 80.9707C31.064 80.669 31.6358 80.1855 32.2167 79.7632L34.906 77.7971L38.9088 74.9969L41.717 73.0818Z" fill="#E04C46"/>
<path d="M24.5843 72.0359L30.7887 78.3451C30.6853 78.8364 30.452 79.3335 30.2982 79.8163C30.2428 79.9386 30.2816 79.8891 30.1874 79.9689L24.1892 73.9532C24.4333 73.3371 24.5305 72.6924 24.5843 72.0359Z" fill="#F78E67"/>
<path d="M74.7395 8.53052L77.8234 10.9603L77.0047 12.6703C76.8603 12.9865 76.7065 13.4833 76.4804 13.7356L76.1988 13.7037L75.1897 13.6126C75.1132 13.6057 74.8796 13.6112 74.8174 13.5792C74.6689 13.5031 74.454 13.2478 74.3211 13.1298L72.958 11.9551L74.7395 8.53052Z" fill="#F9D25C"/>
<path d="M33.0346 61.9337C33.1518 61.9057 33.1046 61.8936 33.1806 61.9337L32.5767 63.3284C32.5412 63.4133 32.4643 63.6813 32.4059 63.7384C32.2656 63.8755 31.9401 63.9899 31.7608 64.0775L30.0234 64.9239L22.5166 68.7482C22.1267 68.3379 21.762 68.2699 21.2199 68.2159C21.0565 68.2422 20.8983 68.3001 20.7419 68.2411L20.6276 67.7529L33.0346 61.9337Z" fill="#75ABCF"/>
<path d="M80.9002 105.848L80.922 105.863C81.0662 106.129 81.015 106.787 80.923 107.078C80.715 107.736 80.049 108.213 79.4629 108.527C78.4254 109.083 77.2282 109.316 76.0703 109.448C74.2623 109.655 72.3281 109.616 70.5794 109.077C69.6909 108.803 69.0083 108.327 68.5733 107.496C68.3864 107.041 68.2683 106.565 68.1494 106.089C70.0529 107.787 72.4786 108.105 74.951 107.991C77.0191 107.896 79.4492 107.442 80.9002 105.848Z" fill="white"/>
<path d="M75.7143 96.9336L75.879 96.9287C77.269 98.0355 78.3727 99.0987 79.3038 100.629C78.6865 100.261 78.0461 99.9144 77.3555 99.7031C75.0037 98.9835 72.4521 99.3151 70.2954 100.449C69.2941 101.029 68.5462 101.854 67.9718 102.845C68.2312 101.184 68.6332 99.1398 69.548 97.7048L69.9698 97.8263C71.921 98.2626 74.0148 97.997 75.7143 96.9336Z" fill="#0E8CBB"/>
<path d="M20.2029 45.9101L20.3984 45.8889C20.6528 46.0487 20.8693 46.3364 21.0748 46.5561L6.25722 52.6859C5.85914 53.4197 5.6763 54.2936 5.46514 55.0976C5.42465 55.2067 5.44036 55.2438 5.33194 55.2976L4.76392 54.7129L5.37276 51.7227C5.89693 51.3648 6.63041 51.154 7.22205 50.9201L11.3985 49.3127L18.1213 46.7114L20.2029 45.9101Z" fill="#B6E0EF"/>
<path d="M34.04 59.418C34.18 59.4496 34.2033 59.4958 34.3049 59.6003C34.3998 59.8921 34.2304 60.2433 34.1033 60.5088C34.0413 60.6383 33.9671 60.8281 33.8383 60.9025C33.3663 61.1752 32.8075 61.3612 32.3147 61.6042L26.3149 64.4469L22.3294 66.3282C21.6945 66.6323 21.0309 67.0342 20.371 67.2641L20.1182 67.0148C19.931 66.8737 19.6874 66.7928 19.5229 66.6367C19.6099 66.3995 19.6363 66.1693 19.6648 65.9205L34.04 59.418Z" fill="#B6E0EF"/>
<path d="M4.51904 55.2185L15.8061 66.5566C15.516 66.787 15.2761 67.0397 15.076 67.3512L15.0301 67.4233L14.8064 67.9848L4.20288 56.6116C4.37226 56.1622 4.43887 55.6899 4.51904 55.2185Z" fill="#E04C46"/>
<path d="M65.8147 98.8477L65.8831 98.8836L65.9589 99.4432L62.992 100.915C61.094 101.778 59.0704 102.518 57.049 103.027C54.2598 103.73 51.104 104.065 48.2509 103.542C47.4729 103.4 46.7899 103.243 46.1046 102.834C46.0178 102.755 45.9467 102.678 45.891 102.572C45.6928 102.197 45.8916 101.685 46.0051 101.306L46.4023 101.485C47.8274 102.021 49.5066 102.154 51.0181 102.162C54.8852 102.182 58.8745 101.423 62.5351 100.187C63.6558 99.8092 64.7397 99.3387 65.8147 98.8477Z" fill="white"/>
<path d="M48.6989 78.2794C49.8323 78.1772 50.9959 78.4522 52.1281 78.5777L56.1876 78.963L64.7831 79.57L70.2213 79.846C69.9426 80.3146 69.7466 80.8111 69.573 81.3265L68.0996 81.2175C67.5338 81.2129 66.9637 81.1388 66.3993 81.0969L63.1184 80.8422L55.5899 80.1124L46.1262 78.5751L48.6989 78.2794Z" fill="#0E8CBB"/>
<path d="M87.4424 26.6597C88.0261 27.2341 88.767 27.9266 89.0166 28.7325L89.0425 28.8203L89.1144 29.0949C89.1591 29.3482 89.1549 29.6101 89.1354 29.8656L88.2729 37.8881L88.1351 39.5937C88.1192 39.8275 88.149 40.1663 88.0195 40.3587L87.476 40.3691L85.7867 40.2925L87.4424 26.6597Z" fill="#0E8CBB"/>
<path d="M16.7113 67.129C16.7649 67.116 16.8148 67.1004 16.8713 67.104C16.9955 67.1121 17.192 67.2315 17.2618 67.3394C17.2745 67.3591 17.3364 67.4753 17.3366 67.5118C17.3369 67.6135 16.9924 68.0334 16.9258 68.1421C16.7985 68.3497 16.6865 68.5867 16.6233 68.8225C16.4351 69.5241 16.5468 70.0097 16.901 70.6288C16.935 70.1017 16.9699 69.5503 17.1562 69.0506C17.3887 68.4277 17.965 67.7916 18.5858 67.5265C18.9455 67.3728 19.3867 67.3941 19.7422 67.5517C19.9186 67.63 19.9402 67.6914 20.0066 67.8673C19.9576 68.2872 19.6625 68.5541 19.4221 68.879C19.2361 69.1302 19.0663 69.4061 18.9364 69.6907C18.5336 70.5745 18.5176 71.443 18.8491 72.3439C18.857 71.8113 18.9029 71.3257 19.0559 70.8143C19.2779 70.0728 19.8301 69.4947 20.5033 69.1357C20.875 68.9374 21.2528 68.8405 21.6629 68.9784C21.9939 69.0898 22.1233 69.4422 22.2685 69.7293C21.6681 70.1158 21.411 70.5765 21.145 71.2237C21.0596 71.5466 21.0144 71.8697 21.0073 72.2035C20.9996 72.5638 21.0181 72.8471 21.2734 73.1137L21.3531 73.0899L21.3802 72.8985C21.4807 72.1507 21.7327 71.4105 22.2544 70.8503C22.4371 70.6541 22.8051 70.3204 23.0946 70.353C23.301 70.3763 23.4413 70.5664 23.5388 70.7299C23.8713 71.2875 23.8175 71.9127 23.6732 72.5161C23.5161 73.1733 23.1815 73.9418 22.5725 74.293C22.1682 74.5261 21.4865 74.4807 21.0494 74.3551C20.1762 74.1042 19.3127 73.6608 18.546 73.1788C17.6184 72.5957 16.7664 71.9642 16.2457 70.9742C15.7569 70.0446 15.5626 68.9313 15.9062 67.9143C16.0466 67.4986 16.3313 67.3099 16.7113 67.129Z" fill="white"/>
<path d="M6.60403 53.7397L18.4486 65.4887C18.6076 65.6408 18.8886 65.8547 18.9863 66.0406C19.0693 66.1984 19.0438 66.5244 19.0479 66.7045L18.2714 66.9104C18.1525 66.9752 18.0474 67.0417 17.91 67.0568C17.5207 66.629 17.3005 66.463 16.7207 66.43C16.6907 66.4282 16.5492 66.433 16.5255 66.4206C16.3324 66.3192 16.0647 65.9862 15.9024 65.8289L12.4426 62.2911L5.97595 55.8511L6.60403 53.7397Z" fill="#75ABCF"/>
<path d="M64.1152 93.8547C65.1763 95.0051 65.5273 96.7021 65.8057 98.1916C65.5989 98.4216 65.1514 98.5845 64.8721 98.7118C63.2296 99.4597 61.5168 99.9533 59.7964 100.48C59.6898 99.1879 59.0296 98.2318 58.1599 97.3186C56.9097 96.1582 55.5282 95.5668 53.8735 95.2263C54.9503 94.8304 56.0854 94.5883 57.2164 94.4104C57.6765 94.7423 58.1536 94.9526 58.7164 95.0375C60.5264 95.3106 62.626 94.9406 64.1152 93.8547Z" fill="#0E8CBB"/>
<path d="M39.0001 53.3479C39.1195 53.748 39.1316 54.2452 39.1909 54.6655L39.5861 57.2991L40.9061 66.944L37.7186 64.1936L34.4029 61.2487C34.5055 60.7912 34.8978 60.3999 34.982 59.9016C35.0758 59.3454 34.5083 59.0247 34.1562 58.7135C33.99 58.5666 33.8568 58.375 33.7264 58.1965C35.8307 56.8958 37.4016 55.2055 39.0001 53.3479Z" fill="white"/>
<path d="M101.357 13.5351C101.54 13.4873 101.765 13.4792 101.951 13.5143C102.314 13.583 102.609 13.9386 102.788 14.2377C103.238 14.9857 103.223 15.8922 103.156 16.7319C103.061 17.9086 102.834 19.0232 102.549 20.1673C102.748 20.4278 103.018 20.7653 103.318 20.9098C103.689 21.0883 104.039 21.003 104.405 20.8646L104.491 20.8319L104.552 21.0088C104.664 21.3003 104.823 21.5101 105.12 21.6281C105.421 21.7476 105.879 21.8361 106.177 21.6929L106.23 21.6657C106.381 22.142 106.199 22.9696 106.049 23.4504C105.782 24.3072 105.231 25.2314 104.404 25.6454C103.734 25.9802 102.818 26.0012 102.115 25.7505C101.278 25.4515 100.366 24.8695 100.16 23.9327C100.021 23.2998 100.086 22.6717 99.7882 22.0663C99.1275 20.7241 98.0274 20.85 96.8165 20.4352C96.7133 20.3791 96.6225 20.3159 96.5331 20.2397C96.3778 20.1073 96.24 19.9321 96.2484 19.7148C96.2573 19.4856 96.3942 19.2898 96.5536 19.1377C96.9319 18.7769 97.4382 18.6817 97.9451 18.6945C98.5322 18.7092 99.1148 18.8828 99.6405 19.1382C101.949 20.2601 100.792 22.2337 101.308 22.7682C101.673 22.466 101.769 21.9633 101.805 21.5137C101.819 21.3438 101.798 21.1602 101.896 21.0194C102.207 21.0765 102.439 21.254 102.658 21.4778C103.289 22.1238 103.353 22.9028 103.364 23.7502C103.367 23.9329 103.332 24.1755 103.441 24.327L103.549 24.3085L103.667 24.0351C103.927 23.2147 103.84 22.3424 103.419 21.5968C102.993 20.8413 102.471 20.515 101.663 20.2835C101.516 19.9415 101.328 19.6235 101.083 19.3425C100.944 19.184 100.574 18.9646 100.503 18.7897C100.44 18.6325 100.46 18.2893 100.45 18.1128C100.38 16.8809 100.3 15.3565 100.778 14.197C100.902 13.8963 101.053 13.6657 101.357 13.5351Z" fill="white"/>
<path d="M52.6718 95.6423C52.9428 95.6064 53.2667 95.6629 53.5391 95.7012C54.743 95.8704 55.9597 96.3341 56.9571 97.0323C57.8181 97.6349 58.6768 98.5759 59.0494 99.5702C59.1747 99.9044 59.2278 100.264 59.2869 100.615C57.221 101.212 55.0699 101.488 52.9315 101.654C50.7607 101.716 48.2776 101.783 46.2495 100.908L46.2461 100.857C46.504 100.233 46.9359 99.6613 47.3792 99.1552C48.8147 97.5161 50.6837 96.4696 52.6718 95.6423Z" fill="white"/>
<path d="M73.7715 99.9349L73.7911 99.9315C75.4974 99.7839 77.4992 100.004 78.9158 101.039C79.2153 101.258 79.5084 101.497 79.7269 101.801C79.9655 102.132 80.1169 102.555 80.2509 102.938C80.4696 103.563 80.6628 104.206 80.7614 104.862C80.8039 105.145 80.6974 105.33 80.522 105.552C80.22 105.936 79.7699 106.231 79.3442 106.459C78.0571 107.15 76.7 107.369 75.2635 107.511C73.3063 107.664 70.9204 107.52 69.2428 106.385C68.8131 106.094 68.2424 105.658 68.1605 105.108C68.0203 104.168 68.4198 103.014 68.9931 102.268C70.1017 100.824 72.0314 100.156 73.7715 99.9349Z" fill="white"/>
<path d="M72.261 79.9873L71.8727 79.8713L71.856 79.7619L72.0326 79.5705L71.9961 79.5062L71.8901 79.4835C71.5625 79.4048 71.2131 79.1784 70.9161 79.0178C70.7824 79.1144 70.6663 79.2133 70.5625 79.3421C70.4925 79.4288 70.3563 79.6576 70.2614 79.6936C70.1785 79.725 69.8622 79.672 69.7634 79.6659L67.2831 79.4557L58.637 78.6883C56.3766 78.487 54.0914 78.3199 51.8492 77.9656L51.4883 77.8962L61.2135 77.0714L70.3185 76.9403L75.0398 77.1149C76.1697 77.1942 77.4413 77.3915 78.5694 77.3159C79.3171 77.2658 79.986 76.9435 80.5943 76.5251L82.48 80.3966L73.0127 80.0116C73.6029 80.2379 74.4801 80.2039 75.1153 80.2575L82.6188 80.7214L83.2222 81.8105L71.5742 81.4643C71.6066 81.0968 71.6011 80.3023 71.8047 80.0058L72.261 79.9873Z" fill="#0E8CBB"/>
<path d="M85.504 43.6042C86.1849 43.7532 86.8759 43.7656 87.5696 43.7857L86.5515 52.9391L84.6018 70.3009L83.8583 77.387L83.6367 79.7345C83.5869 80.2587 83.5557 80.8119 83.4201 81.321L81.1134 76.1272C81.6306 75.5606 81.9055 75.0704 82.06 74.3094C82.2542 73.3532 82.2341 72.3034 82.2901 71.3269L82.592 67.4222L83.6762 57.2168L84.168 53.3337L84.6611 48.6388C84.6847 48.4279 84.6984 47.6951 84.8031 47.5637L84.8555 47.603C85.0282 47.3805 85.0404 47.056 85.0845 46.7853L85.3113 44.9019L85.504 43.6042Z" fill="#0E8CBB"/>
<path d="M34.0411 61.8088L43.1958 69.9096L31.6654 77.5154L31.2207 77.8552L26.2416 72.8593C25.6627 72.2735 24.9683 71.7039 24.4537 71.0663C24.3384 70.9235 24.2716 70.7558 24.2078 70.5859C24.0813 70.2484 23.6928 69.8016 23.326 69.7274C23.1638 69.6946 22.9745 69.7045 22.8321 69.6178C22.82 69.5611 22.7583 69.3256 22.7843 69.2776C22.8777 69.1059 23.5194 68.8268 23.6948 68.7365L30.803 65.154L32.4225 64.3772C32.5559 64.317 32.8658 64.233 32.9695 64.1454C33.0787 64.0532 33.2011 63.5612 33.2551 63.41C33.4508 62.8623 33.7718 62.3264 34.0411 61.8088Z" fill="#F9D25C"/>
<path d="M79.6782 22.7239C80.31 22.8046 80.9426 22.9742 81.5665 23.1013L84.2487 23.7308C84.7189 23.8608 85.2255 23.9802 85.6644 24.1978C85.8495 24.2896 86.0045 24.423 86.1355 24.582C86.4192 24.9264 86.4788 25.3378 86.4757 25.7689C86.4711 26.3736 86.3377 26.9946 86.2588 27.5946L85.784 31.2266L84.7272 40.0901C83.89 39.8811 82.769 39.3135 81.9459 39.7713C81.627 39.9487 81.3587 40.2668 81.2671 40.6219L81.2515 40.6875C81.1535 41.0896 81.1796 41.5809 81.3777 41.9458C81.893 42.8958 83.3184 43.1287 84.2737 43.3961L81.582 67.06L81.2724 71.1886C81.208 72.1445 81.222 73.188 81.0034 74.1192C80.9209 74.4704 80.7275 74.9089 80.4733 75.168H80.3698C80.7517 73.4854 80.5727 71.6448 80.5549 69.9264L80.4888 63.2503L79.899 33.1986L79.6782 22.7239Z" fill="white"/>
<path d="M21.5585 46.9675L33.6039 58.9722L30.7955 60.1844L25.3645 62.6739L21.5963 64.4357C20.87 64.7724 20.1129 65.1628 19.3483 65.4035C19.2736 65.427 19.2303 65.3779 19.1635 65.3429C17.5952 63.9788 16.1348 62.4348 14.6697 60.9599L10.3353 56.6548L8.26921 54.5553C7.81677 54.0978 7.37513 53.6117 6.86787 53.2143L6.78906 53.1533L21.5585 46.9675Z" fill="#B6E0EF"/>
<path d="M18.2766 51.8012C19.8942 51.6675 22.0969 52.0205 23.4465 52.9643C24.0911 53.415 24.3245 54.0161 24.4487 54.766C24.6394 55.9161 24.485 57.6705 23.7617 58.6453C23.2893 59.282 22.6886 59.5204 21.9376 59.6471C20.4235 59.7847 18.332 59.5359 17.0216 58.7269C16.3427 58.3078 15.9619 57.6528 15.7992 56.8849C15.541 55.6667 15.8028 54.0254 16.4902 52.9746C16.9315 52.2999 17.4964 51.9707 18.2766 51.8012Z" fill="#020202"/>
<path d="M18.5631 52.4084C19.8948 52.3264 21.9158 52.6169 23.0241 53.3984C23.4974 53.7321 23.7206 54.1754 23.8118 54.7394C23.9789 55.7719 23.8859 57.4737 23.2206 58.3399C22.8404 58.8351 22.308 58.9647 21.7242 59.0459C20.6418 59.0918 19.5639 58.9542 18.5196 58.6651C18.0304 58.5297 17.5263 58.369 17.1259 58.0456C16.6589 57.6684 16.4657 57.0921 16.3952 56.5149C16.272 55.5076 16.4608 53.9949 17.1242 53.1834C17.5378 52.6775 17.9234 52.485 18.5631 52.4084Z" fill="#E04C46"/>
<path d="M77.808 2.81271C77.9502 2.80055 77.9503 2.7693 78.0664 2.86602L79.6523 11.4942L80.1701 15.2337C80.4983 17.4413 80.9168 19.6959 81.015 21.9285L79.9724 21.7108L79.7803 18.6195C79.7295 17.8311 79.7609 16.8915 79.4801 16.1461C79.0521 15.0095 78.2186 14.4984 77.1763 14.0062C77.4137 13.6869 77.5708 13.3198 77.7459 12.9645C78.0971 12.252 78.4242 11.4981 78.8592 10.8333L78.9131 10.7517C78.628 10.4257 78.1786 10.1583 77.8332 9.89349L74.5535 7.393L72.051 12.114C72.555 12.618 73.1748 13.1019 73.7628 13.5063L73.8501 13.5657L53.8541 15.0023L42.0877 17.0698L38.3793 17.8956C38.1722 17.9417 37.5737 18.1537 37.4246 18.0817L35.781 13.0062L46.0113 9.30622C56.2966 6.02369 67.0814 3.95498 77.808 2.81271Z" fill="white"/>
<path d="M71.2813 14.6816L74.5431 14.7113C75.1509 14.7231 75.8964 14.6649 76.4805 14.8262C77.2186 15.0302 78.044 15.5254 78.4229 16.2112L78.4679 16.2968C78.5327 16.4175 78.5703 16.5161 78.5794 16.6551L79.1357 32.4022L79.5161 50.2933L79.7862 67.3319L79.8153 71.5049C79.8252 72.4561 79.8737 73.4193 79.7911 74.3678C79.7472 74.8722 79.6291 75.3817 79.2808 75.7694C79.0215 76.0581 78.6373 76.2275 78.2528 76.2435C77.4535 76.2764 76.6344 76.1551 75.8361 76.0969L72.0234 75.8763C68.4327 75.7295 64.8168 75.7962 61.2282 75.9758L49.9604 76.9312L46.0572 77.443C45.5535 77.5107 44.9924 77.6555 44.4883 77.6522C43.9828 77.6488 43.6299 77.3767 43.2833 77.0443C43.1635 76.8742 43.0465 76.6927 42.9944 76.4893C42.763 75.5846 42.7341 74.5006 42.6424 73.565C42.6141 73.2772 42.5184 72.7792 42.6293 72.5073C42.8265 72.0237 44.0556 70.1275 44.0016 69.7956C43.9958 69.7603 43.6959 69.5195 43.6516 69.4811L42.3044 68.2417C42.2284 68.1697 42.0114 68.0079 41.9688 67.9235C41.9108 67.8088 41.9147 67.4247 41.8998 67.2831L41.6672 65.0089L40.6187 56.9843L36.8949 33.7423L35.5014 25.3424C35.2849 24.0051 34.9544 22.5978 34.8786 21.2506C34.8531 20.7984 35.1797 20.3673 35.4771 20.0528C36.1067 19.3872 36.963 19.2531 37.8135 19.0518L40.2571 18.5164C50.4007 16.2192 60.8826 14.9269 71.2813 14.6816Z" fill="#5FB4B7"/>
<path d="M48.4219 28.7838C48.6437 28.7663 48.8961 28.7851 49.1031 28.8708C49.7329 29.1317 50.2058 30.075 50.4741 30.6599C48.1113 31.4676 46.0618 32.4803 44.3572 34.3651L43.4991 35.4828L43.4758 35.4183C43.4432 35.2567 43.4696 35.0303 43.4715 34.8636C43.4859 33.6253 44.0352 32.2302 44.7576 31.2331C45.6439 30.0099 46.9055 29.0293 48.4219 28.7838Z" fill="#020202"/>
<path d="M63.815 27.366C64.57 27.3988 65.2333 27.5235 65.9258 27.8364C68.0453 28.7946 69.1905 30.6811 69.9869 32.7722L68.8381 31.9871C66.7333 30.6596 64.4563 30.0065 61.9912 29.7981C62.0973 29.1481 62.2671 28.3774 62.6913 27.853C62.9995 27.4721 63.3557 27.4107 63.815 27.366Z" fill="#020202"/>
<path d="M73.3052 66.2104L76.3802 70.203L72.9805 73.5448L72.8733 73.5974C72.5312 73.2851 72.2525 72.8506 71.9677 72.484L69.9095 69.7492L73.3052 66.2104Z" fill="#020202"/>
<path d="M73.1963 67.3066C73.5571 67.6468 73.8356 68.1131 74.1263 68.5152L75.3476 70.1397L72.9865 72.543C72.7556 72.4329 72.452 71.9122 72.2889 71.6953L70.8392 69.8092L73.1963 67.3066Z" fill="#F9D25C"/>
<path d="M72.7519 18.6213L76.7193 22.4594C76.1308 23.0269 75.6253 23.6817 75.1117 24.3156L73.4365 26.4581L73.3086 26.5646L69.6406 22.9024L72.7519 18.6213Z" fill="#020202"/>
<path d="M72.7828 19.7349L75.5413 22.479L73.2698 25.2881C73.2153 25.3633 73.1686 25.4003 73.09 25.4493L70.6237 22.8434L72.7828 19.7349Z" fill="#F9D25C"/>
<path d="M48.7016 35.9448C49.233 35.8974 49.766 35.9134 50.2851 36.0368C50.8658 36.1748 51.4098 36.3933 51.9091 36.7243C53.7519 37.9463 54.8597 39.8972 55.2952 42.031C55.7416 44.2189 55.4887 46.412 54.2192 48.2984C53.3954 49.5225 52.2419 50.3041 50.7962 50.5787C49.5179 50.7292 48.2322 50.3735 47.1785 49.6416C45.4673 48.4532 44.4254 46.3513 44.0898 44.3343C43.7435 42.2528 44.0512 39.9296 45.2971 38.1847C46.1689 36.9638 47.216 36.1971 48.7016 35.9448Z" fill="#020202"/>
<path d="M48.6398 36.4876C49.6875 36.3831 50.6141 36.5744 51.5128 37.1174C53.2411 38.1616 54.2854 40.0174 54.7447 41.9403C55.2166 43.9153 54.9846 46.0617 53.8963 47.8034C53.1969 48.9227 52.1905 49.7149 50.9007 50.0204C49.7848 50.1974 48.763 50.0158 47.8005 49.4243C46.1163 48.3894 45.1177 46.5708 44.6799 44.6877C44.2178 42.7001 44.4618 40.4102 45.5629 38.664C46.2951 37.5027 47.309 36.7832 48.6398 36.4876Z" fill="white"/>
<path d="M50.8798 40.9192C51.178 40.8979 51.4616 40.8948 51.7448 41.0055C52.4242 41.2707 52.8979 41.9066 53.1572 42.5679C53.5262 43.5083 53.6343 44.792 53.203 45.7324C52.9132 46.3639 52.461 46.7221 51.8231 46.9493C51.3562 47.0192 50.8197 46.8152 50.4484 46.5403C49.8186 46.0742 49.3941 45.1589 49.2783 44.3963L49.2641 44.2967C49.1436 43.4821 49.2204 42.6807 49.6132 41.9451C49.9075 41.3941 50.2963 41.101 50.8798 40.9192Z" fill="#020202"/>
<path d="M51.6011 41.754C51.6582 41.7414 51.7007 41.7283 51.7619 41.7337C51.9808 41.7528 52.1871 41.9474 52.3093 42.117C52.5313 42.4246 52.5914 42.8278 52.5372 43.194C52.4177 43.3662 52.3796 43.3846 52.1992 43.4726C52.13 43.4775 52.0537 43.4832 51.9855 43.4671C51.7923 43.4215 51.6186 43.2402 51.5084 43.0841C51.3451 42.853 51.2022 42.5146 51.2619 42.2265C51.3064 42.012 51.4197 41.8673 51.6011 41.754Z" fill="white"/>
<path d="M63.7473 34.8039C65.0523 34.7442 66.1808 35.2123 67.2003 35.9986C69.0815 37.4497 70.0281 39.6861 70.317 41.9905C70.5922 44.1852 69.9618 46.6905 68.5833 48.4341C67.6294 49.641 66.458 50.3349 64.9367 50.5109C63.7024 50.6086 62.3924 50.0434 61.4571 49.27C59.5868 47.7236 58.5524 45.3213 58.3339 42.9354C58.1325 40.7357 58.7291 38.3354 60.1751 36.6324C61.1136 35.5273 62.3109 34.9191 63.7473 34.8039Z" fill="#020202"/>
<path d="M63.584 35.3488C64.6077 35.2633 65.6392 35.5706 66.4844 36.147C68.2475 37.3495 69.2796 39.3205 69.6691 41.3819C70.0853 43.5856 69.6252 46.0572 68.3421 47.9108C67.5632 49.0361 66.4806 49.6726 65.1455 49.9234C63.9202 50.0149 62.8849 49.6774 61.9149 48.9313C60.131 47.559 59.1913 45.4289 58.9184 43.2357C58.66 41.159 59.068 38.8883 60.3912 37.2148C61.2256 36.1596 62.2344 35.505 63.584 35.3488Z" fill="white"/>
<path d="M64.5668 40.046C65.0112 40.0401 65.3309 40.1083 65.7109 40.3439C66.4895 40.8268 66.9131 41.7177 67.1181 42.5803C67.3508 43.5596 67.3276 44.7869 66.7714 45.6551C66.4286 46.1899 66.0485 46.4528 65.4315 46.5833C65.0439 46.5557 64.7167 46.515 64.3702 46.3161C63.5285 45.8331 63.0752 44.8922 62.8571 43.9784C62.6233 42.9985 62.7221 41.8521 63.2614 40.9855C63.5794 40.4745 63.9819 40.1776 64.5668 40.046Z" fill="#020202"/>
<path d="M65.1591 41.0429C65.2485 41.007 65.3348 40.9952 65.4315 41.0031C65.6315 41.0195 65.8052 41.1786 65.9257 41.3277C66.1735 41.634 66.2691 42.0223 66.2267 42.4101C66.2049 42.6105 66.1286 42.7053 65.9804 42.8331C65.912 42.8548 65.8323 42.8647 65.7617 42.8786C65.5356 42.797 65.386 42.6883 65.228 42.5047C64.9804 42.2167 64.8416 41.7285 64.9024 41.3496C64.9298 41.1792 65.032 41.1415 65.1591 41.0429Z" fill="white"/>
<path d="M67.3451 50.4269L67.5117 50.4194C67.6741 50.4429 67.986 50.9462 68.096 51.0894C68.6151 51.7643 69.1394 52.4273 69.5237 53.1909C68.9279 52.6915 68.4027 52.244 67.7411 51.8212L67.7009 52.1446C67.0114 56.0738 65.3962 60.5488 62.0156 62.9533C60.5731 63.9793 58.8132 64.472 57.0565 64.1624C54.6009 63.7294 52.6442 61.8839 51.2536 59.9106C50.3039 58.5368 49.5261 57.0474 48.9057 55.4969L48.0309 53.0196C47.5826 52.6385 47.4131 53.2125 46.9775 53.2007L46.9492 53.1318C47.0986 52.5072 47.8917 51.8036 48.4478 51.4884C48.579 51.414 48.654 51.3997 48.7977 51.4337C48.7611 51.7463 48.3306 52.1119 48.1214 52.3431C49.0553 52.5846 49.9885 52.8362 50.9416 52.9931C55.1763 53.6902 59.4996 53.4393 63.6562 52.3899C64.7675 52.1095 65.8501 51.747 66.933 51.3748C66.6822 51.1846 66.5271 51.0049 66.3488 50.7501L67.3451 50.4269Z" fill="#020202"/>
<path d="M67.0414 51.8711C67.1455 51.8744 67.0999 51.8562 67.178 51.9258L66.8594 53.7168C64.341 54.9835 61.543 55.6622 58.7477 55.9499C57.2503 56.1039 55.7613 56.17 54.262 55.9853C53.2588 55.8617 52.2988 55.6409 51.3258 55.373C51.0756 55.304 50.6628 55.2276 50.4432 55.0944C50.3264 55.0237 50.1335 54.6958 50.0391 54.5744L49.0784 53.2237C50.1393 53.4746 51.211 53.7112 52.2942 53.8427C57.2545 54.4449 62.4082 53.7094 67.0414 51.8711Z" fill="white"/>
<path d="M62.0874 58.0999C63.0336 57.9727 64.1733 58.1197 65.0957 58.3397C64.7484 59.0786 64.2905 59.8031 63.8034 60.4569C62.6741 61.9724 60.9469 63.2979 59.033 63.5705C57.1457 63.8393 55.4418 63.2085 53.9471 62.0827L54.1714 61.6489C55.3015 59.9342 56.7739 59.2799 58.7045 58.853C57.8577 60.103 57.2505 61.3207 57.125 62.8415C57.6235 61.6887 58.0895 60.5231 58.9108 59.5488C59.7801 58.5176 60.78 58.2094 62.0874 58.0999Z" fill="#E04C46"/>
</svg>
